/* XPM */
static char * next1_xpm[] = {
"64 16 261 2",
"  	c None",
". 	c #FEFEFE",
"+ 	c #EBEEE5",
"@ 	c #3B3C3A",
"# 	c #DADCD3",
"$ 	c #D1D3CB",
"% 	c #D3D6CE",
"& 	c #D0D2CA",
"* 	c #CED1CA",
"= 	c #D2D5CD",
"- 	c #D5D7CF",
"; 	c #D0D3CB",
"> 	c #CCCEC7",
", 	c #D6D8D0",
"' 	c #D1D4CC",
") 	c #D5D7D0",
"! 	c #D3D6D0",
"~ 	c #D6D9D1",
"{ 	c #D4D6CE",
"] 	c #D7DAD2",
"^ 	c #D8DBD3",
"/ 	c #DCDFD6",
"( 	c #DEE0D8",
"_ 	c #E1E4DB",
": 	c #E3E4DD",
"< 	c #E3E5DD",
"[ 	c #DFE1DB",
"} 	c #E1E4DC",
"| 	c #DFE1D9",
"1 	c #DEE0D9",
"2 	c #E0E3DB",
"3 	c #DBDCD6",
"4 	c #DDE0D8",
"5 	c #E5E8E0",
"6 	c #E2E5DE",
"7 	c #939590",
"8 	c #0F0F0F",
"9 	c #E4E6DE",
"0 	c #D6D6D3",
"a 	c #D7D7D4",
"b 	c #D5D5D3",
"c 	c #D6D6D4",
"d 	c #D8D8D6",
"e 	c #D5D5D2",
"f 	c #D4D4D2",
"g 	c #D2D3D0",
"h 	c #D1D2CF",
"i 	c #D4D4D1",
"j 	c #D3D3D1",
"k 	c #D9D9D7",
"l 	c #666666",
"m 	c #CDCCCB",
"n 	c #9B9C97",
"o 	c #535450",
"p 	c #050504",
"q 	c #CBCEC7",
"r 	c #C8C9C6",
"s 	c #C7C7C5",
"t 	c #000000",
"u 	c #C7C6C4",
"v 	c #C9C9C7",
"w 	c #C6C6C4",
"x 	c #CACAC8",
"y 	c #C9CAC7",
"z 	c #CAC9C8",
"A 	c #CDCDCB",
"B 	c #CAC9C7",
"C 	c #CCCCC9",
"D 	c #CFCECC",
"E 	c #D0CFCE",
"F 	c #D3D2D1",
"G 	c #D6D5D3",
"H 	c #D7D7D5",
"I 	c #D8D7D6",
"J 	c #D9DAD7",
"K 	c #D9DAD8",
"L 	c #D7D6D4",
"M 	c #D2D2D0",
"N 	c #D2D1D0",
"O 	c #CFCFCD",
"P 	c #D0D0CD",
"Q 	c #D6D6D5",
"R 	c #D3D4D1",
"S 	c #D4D4D3",
"T 	c #979993",
"U 	c #484946",
"V 	c #020202",
"W 	c #D2D4CC",
"X 	c #C4C5C3",
"Y 	c #C7C7C6",
"Z 	c #C8C9C7",
"` 	c #CBCBC8",
" .	c #CDCECC",
"..	c #CECFCD",
"+.	c #D0D0CE",
"@.	c #D1D1D0",
"#.	c #CCCCCA",
"$.	c #CDCDCC",
"%.	c #CECECC",
"&.	c #D1D1CF",
"*.	c #D3D4D2",
"=.	c #DADAD8",
"-.	c #D8D9D7",
";.	c #D7D7D6",
">.	c #D3D3D2",
",.	c #CACBC9",
"'.	c #9C9E98",
").	c #474846",
"!.	c #E0E3DA",
"~.	c #CFCFCE",
"{.	c #CECECD",
"].	c #D0D0CF",
"^.	c #D2D3D1",
"/.	c #D1D1CE",
"(.	c #C9CAC8",
"_.	c #C8C8C7",
":.	c #CACBC8",
"<.	c #C5C5C3",
"[.	c #9B9D97",
"}.	c #474745",
"|.	c #030303",
"1.	c #DFE0D9",
"2.	c #CECFCC",
"3.	c #CCCCCB",
"4.	c #CBCBCA",
"5.	c #CDCECB",
"6.	c #D2D2D1",
"7.	c #D8D8D7",
"8.	c #92948E",
"9.	c #434441",
"0.	c #EDEFE7",
"a.	c #D1D2D0",
"b.	c #FFFFFF",
"c.	c #444542",
"d.	c #E7EAE1",
"e.	c #DCDCDC",
"f.	c #DDDDDC",
"g.	c #DBDBDA",
"h.	c #DBDBDB",
"i.	c #D8D9D8",
"j.	c #D7D8D6",
"k.	c #CDCECD",
"l.	c #CBCBC9",
"m.	c #CBCBCB",
"n.	c #CACAC9",
"o.	c #CCCCCC",
"p.	c #CECFCE",
"q.	c #93958F",
"r.	c #E1E3DB",
"s.	c #DEDEDD",
"t.	c #DFDFDD",
"u.	c #E0E0DF",
"v.	c #DFDFDE",
"w.	c #E2E2E0",
"x.	c #DCDCDA",
"y.	c #DCDCDB",
"z.	c #D9D9D8",
"A.	c #949691",
"B.	c #E5E8E1",
"C.	c #DBDBD9",
"D.	c #434442",
"E.	c #FDFDFD",
"F.	c #B5B5B3",
"G.	c #B6B6B4",
"H.	c #B7B6B4",
"I.	c #B8B8B6",
"J.	c #B9B9B6",
"K.	c #BAB9B7",
"L.	c #B8B7B5",
"M.	c #B8B8B5",
"N.	c #B9B8B7",
"O.	c #B9B9B7",
"P.	c #B7B8B6",
"Q.	c #B7B7B4",
"R.	c #B6B7B4",
"S.	c #B7B8B5",
"T.	c #BBBAB8",
"U.	c #BABAB8",
"V.	c #BCBCBA",
"W.	c #BDBDBB",
"X.	c #BEBEBC",
"Y.	c #BCBCB9",
"Z.	c #BBBBB9",
"`.	c #B7B7B5",
" +	c #BFBFBE",
".+	c #B1B2AF",
"++	c #4E4F4D",
"@+	c #DBDDDA",
"#+	c #CCCDCA",
"$+	c #CACAC7",
"%+	c #C6C6C3",
"&+	c #C8C7C4",
"*+	c #C8C7C5",
"=+	c #C9C8C6",
"-+	c #C8C8C6",
";+	c #C8C7C6",
">+	c #C7C6C5",
",+	c #CCCBC9",
"'+	c #CBCAC9",
")+	c #CECDCC",
"!+	c #CDCDCA",
"~+	c #CFCECD",
"{+	c #919291",
"]+	c #50504F",
"^+	c #1A1A1A",
"/+	c #C7C9C5",
"(+	c #8C8D89",
"_+	c #8B8C88",
":+	c #898A86",
"<+	c #8A8B87",
"[+	c #888986",
"}+	c #888985",
"|+	c #8A8B88",
"1+	c #898A87",
"2+	c #8A8A88",
"3+	c #898986",
"4+	c #878884",
"5+	c #858683",
"6+	c #858682",
"7+	c #868783",
"8+	c #848481",
"9+	c #81827E",
"0+	c #82837F",
"a+	c #81827F",
"b+	c #80817D",
"c+	c #7F807D",
"d+	c #7F7F7C",
"e+	c #7E7F7C",
"f+	c #7D7E7B",
"g+	c #7E7E7B",
"h+	c #7E7F7B",
"i+	c #7F807E",
"j+	c #80817E",
"k+	c #3F3F3E",
"l+	c #131313",
"m+	c #E0E2DB",
"n+	c #7B7C78",
"o+	c #4B4B49",
"p+	c #484847",
"q+	c #494A48",
"r+	c #4E4E4C",
"s+	c #4D4D4C",
"t+	c #4D4E4C",
"u+	c #4C4D4B",
"v+	c #4C4C4B",
"w+	c #4D4D4B",
"x+	c #4B4C4A",
"y+	c #4C4C4A",
"z+	c #4B4B4A",
"A+	c #4A4A48",
"B+	c #4A4B49",
"C+	c #494A49",
"D+	c #4A4A49",
"E+	c #3A3A38",
"F+	c #414240",
"G+	c #171717",
"H+	c #151515",
"I+	c #363736",
"J+	c #181818",
"K+	c #161616",
"L+	c #141414",
". . . . . . . . . . . . . . . . . . . . . . . . . . . . . . . . . . . . . . . . . . . . . . . . . . . . . . . . . . . . . . + @ ",
". . # $ % & & $ & * = = - $ ; ; ; > & $ % , % $ = $ = = ' ) % ) ! ~ { ) ] ] ^ ^ ^ ~ ] / / ( _ : < _ [ } | 1 2 2 ( | 3 4 5 6 7 8 ",
". 9 0 a a b b c a a a d 0 0 0 0 0 b b e f b g h i b a a b f j f j f f f j j j f f f f f b b d c k a a d d b l a f f c c m n o p ",
". q r s t t t u v t t t w t x y t y t t t z A B C C D E F G H I I J I K L 0 f f j M N i f M O P N F F f f f l t Q R G S A T U V ",
". W X Y t Z Z t ` t A  ...t +.@.t ..#.t A $.%.&.f f *.*.S S S S j j S *.*.R Q =.=.-.Q c ;.c *.c c S S >.>.S l t t j f f ,.'.).V ",
". !.~...t %.%.t {.t ].>.>.t ^.g t O ~.t %.%./.O ~.{.~.~.&.~.@.O O ~./.%.#.#.(.#.(.(._.C y :.y (.y (.l l l l l t t t <.w j [.}.|.",
". 1...+.t 2.&.t @.t ].].].t 2.3.t 2.#.t 3.` #.#.4.5. . .O ~.~.h j S S ;.H S S S S >.f 6.6.S ;.c 7.7.l t t t t t t t t a &.8.9.|.",
". 0.g ^.t +.+.t +.t $.+.+.t 2. .t 2.&.t @.@.S g g ^.&.g a.&.].].a.a.a.S ^.g a.S ^.g R S S S b S b S l t t t t t t t t t b.8.c.|.",
". d.e.f.t e.g.t e.t t e.f.h.t t h.i.j.t S ^.^.@.@.^.@.@.k.l.3.+. . .m.l.n.n.n.n.l.3.o.$.+.+.+.+.p...l t t t t t t t t t b.q.c.|.",
". r.s.t.t u.v.t u.t v.v.u.t w.u.t u.w.t v.v.t.s.s.x.y.x.x.=.g.K K K J K =.=.k a j.b b b R @.M *.0 R l t t t t t t t t b.z.A.c.V ",
". B.` Z t #.x t 3.t 4. .].t +.P t h 2.t #.` l.:.:.l.l. .P O O P @.@.^.+.^.@.^.^.*.*.R M M *.^.].@.f S b.b.b. .t t t b.].C.7 D.|.",
". E.F.F.t G.H.t H.t I.J.K.t L.M.t M.N.t I.I.M.J.O.N.I.I.O.P.O.M.M.Q.I.R.Q.S.I.O.T.T.U.V.W.X.W.V.Y.T.Z.Z.U.Z.l t t b.G.`. +.+++|.",
". @+l.B t l.#+t x t t t $+t $+$+t %+&+t u *+=+x x x &+&+&+-+=+$+v &+;+>+>+u v ;+y x ,+C '+A )+)+)+D #.#+!+)+l t b.~+~+#.H {+]+^+",
". /+(+_+(+_+:+_+(+<+<+<+[+}+<+|+1+2+1+:+3+4+5+6+5+7+5+8+8+9+0+a+0+9+9+a+a+a+0+0+9+0+b+c+c+d+c+d+e+f+f+e+g+h+c+b.c+d+i+j+9+7+k+l+",
"m+n+o+p+q+p+o+r+r+++r+r+r+r+r+r+r+r+s+s+s+r+t+u+u+v+u+w+v+x+y+o+o+o+o+o+o+x+o+x+x+x+x+x+z+A+q+A+z+o+B+B+C+C+B+D+D+B+B+o+E+F+G+H+",
"I+J+G+G+G+G+K+H+H+H+H+K+K+H+H+H+L+K+G+J+J+G+G+K+K+H+H+H+K+K+K+H+H+H+K+H+L+H+K+K+K+K+G+G+G+H+L+l+L+L+L+L+L+L+l+H+H+l+H+H+V l+l+l+"};
