/* XPM */
static char * prev2_xpm[] = {
"64 16 264 2",
"  	c None",
". 	c #131313",
"+ 	c #020202",
"@ 	c #151515",
"# 	c #141414",
"$ 	c #171717",
"% 	c #161616",
"& 	c #181818",
"* 	c #363736",
"= 	c #414240",
"- 	c #3A3A38",
"; 	c #4B4B49",
"> 	c #4A4B49",
", 	c #4A4A49",
"' 	c #494A49",
") 	c #4B4B4A",
"! 	c #4A4A48",
"~ 	c #494A48",
"{ 	c #4B4C4A",
"] 	c #4C4C4A",
"^ 	c #4C4C4B",
"/ 	c #4D4D4B",
"( 	c #4C4D4B",
"_ 	c #4D4E4C",
": 	c #4E4E4C",
"< 	c #4D4D4C",
"[ 	c #4E4F4D",
"} 	c #484847",
"| 	c #7B7C78",
"1 	c #E0E2DB",
"2 	c #3F3F3E",
"3 	c #868783",
"4 	c #81827E",
"5 	c #80817E",
"6 	c #7F807E",
"7 	c #7F7F7C",
"8 	c #7F807D",
"9 	c #666666",
"0 	c #7E7F7B",
"a 	c #7E7E7B",
"b 	c #7E7F7C",
"c 	c #7D7E7B",
"d 	c #80817D",
"e 	c #82837F",
"f 	c #81827F",
"g 	c #848481",
"h 	c #858683",
"i 	c #858682",
"j 	c #878884",
"k 	c #898986",
"l 	c #898A86",
"m 	c #898A87",
"n 	c #8A8A88",
"o 	c #8A8B88",
"p 	c #8A8B87",
"q 	c #888985",
"r 	c #888986",
"s 	c #8C8D89",
"t 	c #8B8C88",
"u 	c #C7C9C5",
"v 	c #FEFEFE",
"w 	c #1A1A1A",
"x 	c #50504F",
"y 	c #919291",
"z 	c #D7D7D5",
"A 	c #CCCCCA",
"B 	c #CFCECD",
"C 	c #000000",
"D 	c #FFFFFF",
"E 	c #CECDCC",
"F 	c #CDCDCA",
"G 	c #CCCDCA",
"H 	c #CFCECC",
"I 	c #CCCCC9",
"J 	c #CCCBC9",
"K 	c #C9C9C7",
"L 	c #C7C6C4",
"M 	c #C8C7C4",
"N 	c #CACAC7",
"O 	c #C9C8C6",
"P 	c #CACAC8",
"Q 	c #C8C7C5",
"R 	c #C7C7C4",
"S 	c #C8C8C6",
"T 	c #CBCAC8",
"U 	c #CCCBC8",
"V 	c #CBCBC9",
"W 	c #CAC9C8",
"X 	c #CAC9C7",
"Y 	c #DBDDDA",
"Z 	c #030303",
"` 	c #B1B2AF",
" .	c #BFBFBE",
"..	c #B7B7B5",
"+.	c #B6B6B4",
"@.	c #BBBBB9",
"#.	c #BABAB8",
"$.	c #BBBAB8",
"%.	c #BCBCB9",
"&.	c #BCBCBA",
"*.	c #BEBEBC",
"=.	c #BDBDBB",
"-.	c #B9B9B7",
";.	c #B7B8B5",
">.	c #B6B7B4",
",.	c #B8B8B6",
"'.	c #B7B7B4",
").	c #B8B8B5",
"!.	c #B9B9B6",
"~.	c #B9B8B7",
"{.	c #B6B7B5",
"].	c #B8B7B5",
"^.	c #BAB9B7",
"/.	c #B7B6B4",
"(.	c #B6B5B4",
"_.	c #B6B5B3",
":.	c #B5B5B3",
"<.	c #FDFDFD",
"[.	c #434442",
"}.	c #939590",
"|.	c #DBDBD9",
"1.	c #D0D0CF",
"2.	c #CDCECC",
"3.	c #D4D4D3",
"4.	c #D4D4D2",
"5.	c #D1D1D0",
"6.	c #D3D4D2",
"7.	c #D2D2D0",
"8.	c #D3D4D1",
"9.	c #D2D3D1",
"0.	c #D0D0CE",
"a.	c #D0D0CD",
"b.	c #CFCFCD",
"c.	c #CACBC8",
"d.	c #CBCBC8",
"e.	c #CECFCC",
"f.	c #D1D1CF",
"g.	c #CBCBCA",
"h.	c #CCCCCB",
"i.	c #C9CAC7",
"j.	c #C8C9C7",
"k.	c #E5E8E1",
"l.	c #444542",
"m.	c #949691",
"n.	c #D9D9D8",
"o.	c #D6D6D3",
"p.	c #D5D5D3",
"q.	c #D7D8D6",
"r.	c #D7D7D4",
"s.	c #DADAD8",
"t.	c #D9DAD8",
"u.	c #D9DAD7",
"v.	c #DBDBDA",
"w.	c #DCDCDA",
"x.	c #DCDCDB",
"y.	c #DEDEDD",
"z.	c #DFDFDE",
"A.	c #E0E0DE",
"B.	c #E2E2E0",
"C.	c #E0E0DF",
"D.	c #E1E1DF",
"E.	c #DFDFDD",
"F.	c #E1E3DB",
"G.	c #93958F",
"H.	c #CECFCD",
"I.	c #CECFCE",
"J.	c #CCCCCC",
"K.	c #CACAC9",
"L.	c #CBCBCB",
"M.	c #CDCECD",
"N.	c #DBDBDB",
"O.	c #DADADA",
"P.	c #DDDDDC",
"Q.	c #DCDCDC",
"R.	c #DDDDDD",
"S.	c #E7EAE1",
"T.	c #92948E",
"U.	c #D3D3D2",
"V.	c #D1D2D0",
"W.	c #D2D3D0",
"X.	c #CDCDCC",
"Y.	c #D1D1CE",
"Z.	c #EDEFE7",
"`.	c #434441",
" +	c #D8D8D7",
".+	c #D6D6D4",
"++	c #D2D2D1",
"@+	c #D7D7D6",
"#+	c #D3D3D1",
"$+	c #CFCFCE",
"%+	c #DFE0D9",
"&+	c #474745",
"*+	c #9B9D97",
"=+	c #C6C6C4",
"-+	c #C5C5C3",
";+	c #C9CAC8",
">+	c #C8C8C7",
",+	c #CECECC",
"'+	c #CECECD",
")+	c #CCCDCB",
"!+	c #E0E3DA",
"~+	c #474846",
"{+	c #9C9E98",
"]+	c #CACBC9",
"^+	c #D6D6D5",
"/+	c #CDCDCB",
"(+	c #C7C7C6",
"_+	c #C4C5C3",
":+	c #D2D4CC",
"<+	c #484946",
"[+	c #979993",
"}+	c #D6D5D3",
"|+	c #D3D2D1",
"1+	c #D2D1D0",
"2+	c #D4D4D1",
"3+	c #D8D7D6",
"4+	c #C6C5C4",
"5+	c #C7C6C5",
"6+	c #C7C7C5",
"7+	c #C8C9C6",
"8+	c #CBCEC7",
"9+	c #050504",
"0+	c #535450",
"a+	c #9B9C97",
"b+	c #CDCCCB",
"c+	c #D8D8D6",
"d+	c #D9D9D7",
"e+	c #D1D2CF",
"f+	c #D5D5D2",
"g+	c #E4E6DE",
"h+	c #0F0F0F",
"i+	c #E2E5DE",
"j+	c #E5E8E0",
"k+	c #DDE0D8",
"l+	c #DBDCD6",
"m+	c #DFE1D9",
"n+	c #DEE0D8",
"o+	c #E0E3DB",
"p+	c #DEE0D9",
"q+	c #E1E4DC",
"r+	c #DFE1DB",
"s+	c #E1E4DB",
"t+	c #E3E5DD",
"u+	c #E3E4DD",
"v+	c #DCDFD6",
"w+	c #D7DAD2",
"x+	c #D6D9D1",
"y+	c #D8DBD3",
"z+	c #D5D7D0",
"A+	c #D4D6CE",
"B+	c #D3D6D0",
"C+	c #D3D6CE",
"D+	c #D1D4CC",
"E+	c #D2D5CD",
"F+	c #D1D3CB",
"G+	c #D6D8D0",
"H+	c #D0D2CA",
"I+	c #CCCEC7",
"J+	c #D0D3CB",
"K+	c #D5D7CF",
"L+	c #CED1CA",
"M+	c #DADCD3",
"N+	c #3B3C3A",
"O+	c #EBEEE5",
". . . + @ @ . @ @ . # # # # # # . # @ $ $ $ % % % % @ # @ % @ @ @ % % % @ @ @ % % $ $ & & $ % # @ @ @ % % @ @ @ @ % $ $ $ $ & * ",
"@ $ = - ; > > , , > ' ' > > ; ) ! ~ ! ) { { { { { ; { ; ; ; ; ; ; ] { ^ / ( ^ ( ( _ : < < < : : : : : : : : [ : : ; } ~ } ; | 1 ",
". 2 3 4 5 6 7 8 9 8 0 a b c c b 7 8 7 8 8 d e 4 e e f f f 4 4 e f e 4 g g h 3 h i h j k l m n m o p q r p p p s t l t s t s u v ",
"w x y z A B B 9 C D E F G A H E E C C C I J C C C K L C C C M C N O C M C M P C C O Q C R M C S N C C N T U J P V G V W X V Y v ",
"Z [ `  ...+.9 C C D @.#.@.@.$.%.&.C *.=.C #.C $.-.C ;.C >.,.'.C ).-.C -.C ,.C -.!.C ,.C -.~.C {.C ].,.^.!.,././.(./.+._.:.:.<.v ",
"Z [.}.|.1.9 C C C 2.9 9 9 3.4.5.1.C 6.7.C 8.C 6.9.C 5.C 0.9.5.C a.b.C a.C V C c.c.C d.C e.e.C f.C 0.0.1.2.g.h.h.d.P A i.j.d.k.v ",
"+ l.m.n.9 C C C C C C C C D 8.o.6.C 5.8.C p.C q.r.C s.C t.u.t.C t.v.C w.C x.C y.y.C z.C A.B.C C.C B.D.C.z.z.C.C.A.z.C.E.E.y.F.v ",
"Z l.G.9 C C C C C C C C C D H.I.0.C 0.0.C J.C V K.C K.C V L.2.C 0.h.C M.C 5.C 5.5.C 9.C p.q.C N.O.C N.P.Q.Q.Q.Q.R.v.Q.N.P.Q.S.v ",
"Z l.T.U.C C C C C C C C C D 3.p.3.C C C 3.8.C C C V.W.C C V.V.V.C 1.C V.C f.C W.W.C 5.C 5.f.C H.2.e.C 0.0.X.Y.0.b.0.0.9.9.W.Z.v ",
"Z `.T.f.r.C C C C C C C C D  + +.+C 3.++++4.C 3.C 3.3.C @+3.3.#+C $+C b.C 2.C g.A C d.C g.A C e.h.e.C 1.1.1.7.5.5.f.e.b.0.H.%+v ",
"Z &+*+#+=+-+C C C D D D D D ;+i.;+C c.i.I >+C ;+C ;+A C ,+Y.$+b.C 5.C f.C $+C $+b.C ,+C G $+C $+W.9.C U.U.1.'+'+)+,+,+)+H.$+!+v ",
"+ ~+{+]+4.4.#+C C D 3.U.U.3.3..+.+C .+@+.+^+C s.s.C 8.C 6.3.#+#+C 3.C 3.C 6.C 4.f.C X.C X.A C H.5.0.C H.2./+d.d.S j.j.(+(+_+:+v ",
"+ <+[+/+3.}+8.^+C D 4.4.4.|+|+1+a.C 7.4.2+1+C #+4.C o.C C C u.3+3+C }+|+C H I C C /+W W C C i.i.C C M =+=+-+Q K L 4+5+6+6+7+8+v ",
"9+0+a+b+.+.+4.4.D D p.c+c+r.r.d+.+c+p.p.4.4.4.4.4.#+#+#+4.4.4.#+4.#+4.p.r.r.p.2+e+W.p.4.f+p.p.o.o.o.o.o.c+r.r.r..+p.p.r.r.o.g+v ",
"h+}.i+j+k+l+m+n+o+o+p+m+q+r+s+t+u+s+n+v+v+w+x+y+y+y+w+w+z+A+x+B+z+C+z+D+E+E+F+E+F+C+G+C+F+H+I+J+J+J+F+K+E+E+L+H+F+H+H+C+F+M+v v ",
"N+O+v v v v v v v v v v v v v v v v v v v v v v v v v v v v v v v v v v v v v v v v v v v v v v v v v v v v v v v v v v v v v v "};
