/* XPM */
static char * title_xpm[] = {
"368 16 240 2",
"  	c None",
". 	c #D2D2D0",
"+ 	c #D0D0CE",
"@ 	c #D1D1CF",
"# 	c #CFCFCD",
"$ 	c #CFCFCC",
"% 	c #CECECC",
"& 	c #CECECB",
"* 	c #CDCDCB",
"= 	c #CCCCCA",
"- 	c #CBCBC9",
"; 	c #CBCBC8",
"> 	c #CCCCC9",
", 	c #CCCBC9",
"' 	c #CDCDCA",
") 	c #CBCBC7",
"! 	c #C8C8C5",
"~ 	c #C9C9C6",
"{ 	c #C9C9C7",
"] 	c #CECDCA",
"^ 	c #CDCCC9",
"/ 	c #D0D0CD",
"( 	c #D2D2CF",
"_ 	c #D3D3D0",
": 	c #D3D3D1",
"< 	c #D4D4D1",
"[ 	c #D6D6D3",
"} 	c #D4D4D2",
"| 	c #D6D6D4",
"1 	c #D7D7D5",
"2 	c #D8D8D6",
"3 	c #D9D9D7",
"4 	c #D6D6D5",
"5 	c #DCDCDA",
"6 	c #DEDEDC",
"7 	c #DDDDDB",
"8 	c #DEDDDB",
"9 	c #DADAD8",
"0 	c #DBDBD9",
"a 	c #DCDCD9",
"b 	c #DDDCDA",
"c 	c #DDDDDA",
"d 	c #DAD9D7",
"e 	c #D9D9D6",
"f 	c #D8D7D5",
"g 	c #D7D7D4",
"h 	c #D7D6D4",
"i 	c #D5D4D2",
"j 	c #D5D4D1",
"k 	c #D3D2D0",
"l 	c #D4D3CF",
"m 	c #D6D6D2",
"n 	c #D8D8D5",
"o 	c #DBDAD8",
"p 	c #D9D8D6",
"q 	c #D6D5D3",
"r 	c #D5D5D2",
"s 	c #D5D5D3",
"t 	c #D4D3D1",
"u 	c #D1D0CE",
"v 	c #CACAC7",
"w 	c #CCCCC8",
"x 	c #D7D6D3",
"y 	c #DADAD7",
"z 	c #D6D5D4",
"A 	c #D5D4D3",
"B 	c #979795",
"C 	c #979695",
"D 	c #959493",
"E 	c #D2D1CF",
"F 	c #D3D2D1",
"G 	c #949492",
"H 	c #D4D3D2",
"I 	c #D8D7D6",
"J 	c #989796",
"K 	c #D7D6D5",
"L 	c #999897",
"M 	c #D9D8D7",
"N 	c #989896",
"O 	c #D2D1D0",
"P 	c #D4D3D0",
"Q 	c #D1D1CE",
"R 	c #D2D1CE",
"S 	c #D1D0CF",
"T 	c #CFCECD",
"U 	c #D0CFCD",
"V 	c #CFCECC",
"W 	c #D0CFCC",
"X 	c #D1D0CD",
"Y 	c #CECDCC",
"Z 	c #CECDCB",
"` 	c #CFCECB",
" .	c #CDCCCA",
"..	c #9C9C99",
"+.	c #000000",
"@.	c #999997",
"#.	c #969693",
"$.	c #949491",
"%.	c #D7D7D3",
"&.	c #DCDCDB",
"*.	c #DFDFDD",
"=.	c #DEDEDB",
"-.	c #DFDFDC",
";.	c #E1E1DF",
">.	c #E0E0DD",
",.	c #E1E1E0",
"'.	c #E0E0DE",
").	c #DBDBD8",
"!.	c #939290",
"~.	c #FFFFFF",
"{.	c #949391",
"].	c #C0C0C0",
"^.	c #91918F",
"/.	c #949392",
"(.	c #989795",
"_.	c #D7D7D6",
":.	c #D0CFCE",
"<.	c #CCCBCA",
"[.	c #DBDAD7",
"}.	c #DCDBD9",
"|.	c #DCDBDA",
"1.	c #DBDAD9",
"2.	c #DAD9D8",
"3.	c #9E9E9C",
"4.	c #9F9F9D",
"5.	c #9D9D9B",
"6.	c #9D9D9A",
"7.	c #9C9C9A",
"8.	c #9B9B99",
"9.	c #9E9E9B",
"0.	c #DBDBDA",
"a.	c #DDDDDC",
"b.	c #E0E0DF",
"c.	c #939391",
"d.	c #939291",
"e.	c #969593",
"f.	c #9F9E9C",
"g.	c #DFDEDD",
"h.	c #A1A19F",
"i.	c #DEDDDC",
"j.	c #9D9C9B",
"k.	c #9D9C9A",
"l.	c #9A9A98",
"m.	c #DDDCDB",
"n.	c #D4D4D3",
"o.	c #D5D5D4",
"p.	c #D3D2CF",
"q.	c #CAC9C8",
"r.	c #CAC9C7",
"s.	c #CDCCCB",
"t.	c #CFCFCE",
"u.	c #929291",
"v.	c #999998",
"w.	c #979796",
"x.	c #9C9C9B",
"y.	c #9D9D9C",
"z.	c #A0A09F",
"A.	c #9E9E9D",
"B.	c #DADAD9",
"C.	c #D9D9D8",
"D.	c #DFDFDE",
"E.	c #E1E1E1",
"F.	c #DEDEDD",
"G.	c #D3D3D2",
"H.	c #D8D8D7",
"I.	c #D2D2D1",
"J.	c #D1D1D0",
"K.	c #E0E0E0",
"L.	c #D0D0CF",
"M.	c #989897",
"N.	c #E0DFDE",
"O.	c #9A9A99",
"P.	c #DFDFDF",
"Q.	c #A2A2A1",
"R.	c #A2A2A2",
"S.	c #949493",
"T.	c #D3D3D3",
"U.	c #969694",
"V.	c #D7D7D7",
"W.	c #D6D6D6",
"X.	c #D5D5D5",
"Y.	c #DADADA",
"Z.	c #D9D9D9",
"`.	c #DDDDDD",
" +	c #DCDCDC",
".+	c #DEDEDE",
"++	c #DBDBDB",
"@+	c #E2E2E1",
"#+	c #E2E2E2",
"$+	c #E4E4E2",
"%+	c #E3E3E2",
"&+	c #E3E3E1",
"*+	c #E5E5E3",
"=+	c #E5E5E2",
"-+	c #E6E7E5",
";+	c #E2E2E0",
">+	c #E4E4E3",
",+	c #E4E4E1",
"'+	c #E5E5E4",
")+	c #E4E5E3",
"!+	c #CECECD",
"~+	c #CCCCCB",
"{+	c #CDCDCC",
"]+	c #D2D2D2",
"^+	c #D4D4D4",
"/+	c #D6D5D5",
"(+	c #D1D1D1",
"_+	c #D0D0D0",
":+	c #DCDBDB",
"<+	c #E6E6E4",
"[+	c #E7E8E6",
"}+	c #D8D8D8",
"|+	c #CCCDCA",
"1+	c #CACAC8",
"2+	c #CCCBC8",
"3+	c #CBCAC8",
"4+	c #C8C8C6",
"5+	c #C6C6C3",
"6+	c #C8C7C4",
"7+	c #C7C7C4",
"8+	c #C7C6C4",
"9+	c #C8C7C5",
"0+	c #C9C8C6",
"a+	c #C8C7C6",
"b+	c #C7C6C5",
"c+	c #C9CAC7",
"d+	c #CBCAC9",
"e+	c #CDCECB",
"f+	c #D8D9D7",
"g+	c #DDDCDC",
"h+	c #C5C5C2",
"i+	c #C5C6C3",
"j+	c #C4C4C2",
"k+	c #C3C3C1",
"l+	c #C2C1C0",
"m+	c #C4C3C1",
"n+	c #C2C1BF",
"o+	c #C3C2C0",
"p+	c #D2D3D0",
"q+	c #D1D2CF",
". + . . @ # $ # # % % & * = - ; > > = ; ; - - > > , ' > & ' ' ' = > ) ) ! ! ! ! ~ ! ! ! ~ { ) ' ] ^ & / / / $ / ( _ : @ ( . _ _ @ < [ [ [ < } | 1 2 1 3 2 1 | 4 2 2 5 5 6 6 7 8 8 9 3 0 5 0 a 7 b b 6 5 c 0 9 d 3 2 2 e | | f g [ h i f f [ i j k l [ [ [ m n o o o o f [ f n n h h e d p f e g f q i r r i r i s t . u & & $ $ & / & * ' ' % ' ; v ; ; v { v ; ; - ; w ' ' % = & $ / / / # $ + / / + # % % $ + : . i g 1 x 1 1 n n 2 3 3 1 3 9 y y 9 3 3 2 1 g 2 3 2 n 2 9 3 1 1 1 2 e n 2 f 1 r < z [ r < . : . @ @ @ @ @ . : : @ @ : _ < : : : . . + . . @ # $ # # % % & * = - ; > > = ; ; - - > > , ' > & ' ' ' = > ) ) ! ! ! ! ~ ! ! ! ~ { ) ' ] ^ & / / / $ / ( _ : @ ( . _ _ @ < [ [ [ < } | 1 2 1 3 2 1 | 4 2 2 5 5 6 6 7 8 8 9 3 0 5 0 a 7 b b 6 5 c 0 ",
"A B C D ( E k F : G H H i i q I 1 J [ z K L z A : t k t } < A } A h g M 2 2 I 2 M p f g z N K } h p d p p h z z s k O q < P k E Q u R E F z K h M h q f z q i k k k E O _ } } A z | K K | I 1 1 p p 1 3 n h g q K K g q r q | | z } < : < < . i [ [ [ < } | 1 2 1 3 2 1 | 4 2 2 5 0 7 7 5 b 5 3 2 3 9 3 e 3 f p 3 M 9 3 2 p 1 z K i t t H F F @ @ + u R R t t H t t q K I I p h I h q q H } q K s A | | h q s A z q K z 1 2 z I h 2 f | K p p f f K z s O k R u u S S S S t k H t S S T U V U U W % U U X u U U T U ] Y V V U Z ` U U Y  .V u O k F A | z H ( E k F : : H H i i q I 1 K [ z K I z A : t k t } < A } A h g M 2 2 I 2 M p f g z 1 K } h p d p p h z z s k O q < P k E Q u R E F z K h M h q f z q i k k k E O _ } } A z | K K | I 1 1 p p 1 3 n h ",
"0 ..+.+.+.3 3 2 2 @.+.| s [ r < r #.+.: } $.+.< < : : @ @ . . : s s } } . s r s s s < s s $.+.[ : . _ } _ _ @ ( @ < : : : s : < : g g g %.r } } } [ s r r | | s : } : Q + / + . . Q Q . . @ < _ _ : _ < r | [ [ g 1 1 q | 1 | i H q } < : k ( E R E F z K h M h q f z q i k k k E k < s s z K 1 I I 2 3 3 3 o 0 0 5 &.7 6 6 7 c 7 5 5 5 a a c a a 5 a 0 0 5 a 5 9 y c a a 7 7 7 5 6 *.*.7 7 7 5 a 6 =.*.*.6 *.-.-.*.;.>.,.;.*.6 *.7 6 6 =.6 7 6 6 *.'.*.*.*.*.6 6 7 c 6 *.7 7 7 6 7 *.7 5 0 0 9 0 9 3 ).).).0 9 9 0 9 3 9 5 7 6 7 5 7 7 7 a a 0 0 5 0 ).).0 e 3 3 2 2 2 e | s [ r < r r [ : } _ < < < : : @ @ . . : s s } } . s r s s s < s s _ : [ : . _ } _ _ @ ( @ < : : : s : < : g g g %.r } } } [ s r r | | s : } : Q + / + . . Q Q . . @ < _ _ : _ < r | ",
": !.+.~.~.~.. F k {.+.].( k @ U u ^.+.~.!./.+.~.E u E . E t F E O S S S F S ( k : s : [ B (.+.~.q | [ | K z A K K H : F H [ K K g 1 M 4 4 1 3 d M e K 1 I p p 2 1 I K 1 f 1 [ h 2 _.I I I z I K K I I d 1 K z | I K 4 [ } r } r } } } | } i : g g g %.r } } } [ s r r | | s : } : ( @ Q @ : : . . : : F < i q | r q A A < t i } A q : O :.:.u Q :.Q / + + u / + U U # Z % * <.-  .= ; , <.= =  .] Z U W V $ / + u @ : H _ H H H A r 2 z z | 1 x q q z z 1 1 h A H z z q h K 1 f [.o }.|.1.1.o 2.f | | i s q 1 s H k k : t } r q t q i i H H i F k _ : E O : } : . F k k E ( ( k @ U u + :.S E F H } E u E . E t F E O S S S F S ( k : s : [ | h h g q | [ | K z A K K H : F H [ K K g 1 M 4 4 1 3 d M e K 1 I p p 2 1 I K 1 f 1 [ h 2 _.I I I z I K K I I d 1 K ",
"5 3.+.~.5 3.3.7 7 4.+.~.+.5 5.5.5 6.+.~.9 +.+.+.3.7 5 7.8.0 9 7.6.a ..).0 a 5.a 5 6.9.c 6 +.+.+.=.6 6 c 7 7 a a 7 7 5 7 0 6 6 7 6 a 7 5 7 7 0 0 &.7 5 7 5 0 0.0 7 a.a.&.&.0 0.9 3 3 3 3 3 | r | 1 n y n n n f 1 | s | s A K K q s A s g 1 1 g 1 M 4 4 1 3 d M e K 1 I p p 2 1 I K 1 f 1 [ h 1 4 K K K q q s s A s s } . @ @ @ @ @ + / Q + @ _ } : : : _ < : } : } s s r } 1 2 2 9 0 7 7 7 7 5 5 0 5 6 6 7 *.6 *.*.*.'.;.b.'.'.*.'.*.;.6 7 7 6 6 7 7 c 7 7 *.*.6 -.*.c c 6 c c 7 7 5 =.0 a 5 c 5 0 0 3 2 2 2 2 3 3 2 e e 2 3 2 9 9 0 5 5 7 6 6 6 7 7 5 7 7 5 5 7 7 7 7 6 5 5 5 5 5 5 5 a 0 5 9 3 ).5 7 7 5 0 9 0 9 0 a a ).).0 a 5 a 5 a c c 6 =.*.=.=.6 6 c 7 7 a a 7 7 5 7 0 6 6 7 6 a 7 5 7 7 0 0 &.7 5 7 5 0 0.0 7 a.a.&.&.0 0.9 3 3 3 3 3 | r | 1 n y n n n ",
"< c.+.+.S !.+.+.S d.+.].A ].r +.+.D +.+.1 e.+.].~.+.|.f.+.+.g.h.+.+.i.+.5 j.1.+.9 k.+.+.M l.+.~.~.|.|.|.0 m.a.0 m.&.&.i.5 5 7 7 7 m.}.&.|.9 I K K z F F O O F O n.A K F H } n.o.A s 4 I K _.4 z I s H A K 9 d M M p p 3 p p 2.9 9 0 9 7 6 7 6 a 7 5 7 7 0 0 &.7 5 7 5 0 0.0 7 a.a.&.&.0 0.9 9 9 9 2.2.1 [ 1 h 1 2 p I K f 2.9 2 p 9 3 3 1.1.|.1.1.1.2.2.3 1.1.b o |.|.1.3 3 2 M p K q s h z s h z h K 2 1.1.1.2.2.1 K H k k k k p.k E u S k E U :.+ U U U U k O @ u :.+ :.T Y & Z Z Z % V T U u V W V T Z , q.q.r.<.s.Z V s.V V U u u u F t t O } } < . . O S E i k S O O t A } r } H H A A 1 i | | p 2.|.8 6 g.g.'.g.b.i.7 5 |.1.9 9 }.|.0 M 3 o }.}.|.|.|.0 m.a.0 m.&.&.i.5 5 7 7 7 m.}.&.|.9 I K K z F F O O F O n.A K F H } n.o.A s 4 I K _.4 z I s H A K 9 ",
"t.u.+.~.~.u.+.].+.C +.].+.v.+.w.+.].+.].+.v.+.].+.x.+.y.+.].+.8.+.].+.7.+.h.+.z.+.A.+.].+.A.+.~.&.0.0.0.B.0.0.0 5 5 0.C.&.7 D.b.,.E.;.*.F.0 &.&.&.0 9 9 5 5 &.0 &.&.0.0.B.0.5 B.B.0.B.B.B.0.0.&.7 7 5 5 5 0.0.B.1.0 B.2.B.C.1.1.0.m.0 5 7 7 7 m.}.&.|.9 I K K z F F O O F O n.A K F H : G.n.H : n.s n.o.o.} s : F A h 2 _.e 2.H.3 3 H.H.H.2 4 | | _.o.s s s H G.. I.F O . . I.n.} G.n.< F } : _ + / Q O . G.: : : : o.| o.4 1 1 4 o.o.4 1 3 3 3 0.a.a.a.D.F.D.*.*.b.6 6 &.&.0 5 a.7 a.&.&.5 6 7 c B.2 H.2 _.1 _._._._.1 o.o.| 1 n.. : I.I.I.@ @ @ t.t.J.J.. . J.: : s z 4 _._.H.4 4 s o.s o.| H.5 5 0.0.&.&.&.&.9 9 &.B.0.0 a.'.'.D.a.a.F.a.0.a.a.&.&.0.0.0.B.0.0.0 5 5 0.C.&.7 D.b.,.E.;.*.F.0 &.&.&.0 9 9 5 5 &.0 &.&.0.0.B.0.5 B.B.0.B.B.B.0.0.&.7 7 5 5 5 0.",
"_.w.+.~.g w.+.].+.].+.].+.].+.].+.].+.].+.].+.].+.].+.].+.].+.].+.].+.].+.].+.].+.].+.].+.].+.~.n.: I.: @ @ + # # + J.@ I.: n.1 o.n.I.G.I.} } I.I.I.: n.G.n.G.s | | 4 | 4 } : J.G.I.: : G.r | _._.H.0 0 0 0 a 0 B.C.H.3 C.3 B.0 0 C.0.5 F.D.b.K.'.*.F.0 &.&.&.0 9 9 5 5 &.0 &.&.0.0.B.0.5 B.B.B.B.C.B.0.B.0.0 0.0 0.0 0 0 y 4 4 4 | 1 _.| s s n.: . I.G.G.} _ . J.: . t.+ + + J.@ L.@ G.I.. I.I.: I.G.I.: . I.I.I.L.+ J.} } : I.I.I.: G.n.. I.n.: I.I.. : . J.J.I.n.n.s : @ . . L.. : s } s } n.: n.s n.: } . } I.. . I.I.: } n.o.} n.| _.s _.4 1 _._.4 o.| g 4 1 4 H.0.0.B.B.9 _.n _.| g g 3 2 _.1 3 3 C._.C.1 1 _.2 | n.n.: n.I.: I.r : : _ : : : n.: I.: @ @ + # # + J.@ I.: n.1 o.n.I.G.I.} } I.I.I.: n.G.n.G.s | | 4 | 4 } : J.G.I.: : G.r | _._.H.0 0 0 0 ",
"4 M.+.~.2 v.+.].+.].+.].+.].+.].+.].+.].+.].+.].+.+.+.].+.].+.].+.].+.].+.].+.+.+.].+.].+.].+.~.F.a.6 F.D.D.D.7 5 6 a.F.6 a.F.*.*.'.D.6 D.6 7 a.5 5 0.0.2 2 4 4 1 2 2 9 2 9 B.2.3 H.C.0 9 H.3 B.0 0 C.H.C.0 0.9 B.3 H.1 | } : I.G.: G.} o.1 o.o.G.} G.} } I.I.I.: n.G.n.G.s | | 4 | 4 } : I.G.G.t } n.r | _.2 3 9 9 9 2 3 2 C.d B.B.9 1.0 C.3 3 2.C.C.0 a.0.C.0 0 0.&.&.&.&.&.B.0.5 F.6 *.6 D.D.b.D.b.b.;.,.b.6 7 '.N.,.6 7 m.1.0 B.C.B.0 9 C.C.B.B.C.B.5 B.B.B._.4 1 1 _.C.C.H.H.C.2 H.H.C.C.B.3 3 _.| 1 C.H._._._.C.2 3 _.B.9 0 C.9 9 C.9 B.H._.1 4 _.1 | 2 H.H.3 _._._.| | n.| | i n.o.} i i } s o.o.1 _._.3 9 0 0.F.6 &.&.&.&.0.5 B.B.&.F.a.D.D.F.a.6 F.D.D.D.7 5 6 a.F.6 a.F.*.*.'.D.6 D.6 7 a.5 5 0.0.2 2 4 4 1 2 2 9 2 9 B.2.3 H.C.0 9 H.3 B.0 0 C.H.C.0 ",
"3 O.+.~._.w.+.].+.].+.].+.].+.].+.].+.].+.].+.].+.~.~.].+.].+.].+.].+.].+.].+.~.~.].+.].+.].+.~.9 0.9 9 C.H.0 0.B.0.B.0 H.C.9 H.2 _.H.C.C.3 9 B.0 &.0 0 0 B.B.3 0 0 H.2 3 B.B.C.1 4 | } s n.1 o.n.} o._.4 _._._.H.C.B.0 0.0 0 7 &.a.7 a.6 F.*.*.D.6 D.6 7 a.5 5 0.0.2 2 4 4 1 2 2 9 H.0 0.1.9 B.0.5 0 B.9 B.0.5 0 &.&.5 7 B.0.5 5 5 0.0.0 0 5 0 0 ).0 &.&.7 &.5 7 &.0.0.5 0 0 B.B.3 3 3 0.0.&.0.0.&.&.0.B.B.C.C.3 3 C.5 &.0.0.&.a.a.0.0.0.6 &.7 a.&.9 9 9 B.0 &.a.F.a.6 D.7 F.'.'.D.*.*.0.a.F.F.0.&.a.a.F.&.7 '.b.*.7 F.F.&.0.C.&.C.3 2 H.3 3 0 B.B.3 C.C._._.4 _.2 o._._.1 | o.4 | 3 C.9 B.0.9 9 B.y 9 C.2 _._.C.H.H.B.C.3 H.B.C.3 0 0.0.0.5 0.5 0.9 0.9 9 C.H.0 0.B.0.B.0 H.C.9 H.2 _.H.C.C.3 9 B.0 &.0 0 0 B.B.3 0 0 H.2 3 B.B.C.1 4 | } s n.1 o.n.} o._.4 _.",
"P.Q.+.].D.R.+.].+.].+.].+.~.+.].+.].+.].+.].+.~.+.].o.S.+.].+.].+.].+.].+.~.+.].T.U.+.].+.].+.~.V.W._._.V.4 o.o.n.W.4 4 X.H._.C.H.Y.Z.0.0.0.a.&.a.`.0.0.0.0. +F..+D..+D..+`.`.D.`.`.&.&.0.&.0.0.0.0.&.7 6 F.&.0.0 0 0.C.0.5 0.0.0 0 C.C.9 H.2 _.H.C.C.3 9 B.0 &.0 0 0 B.B.3 0 0 H.2 3 B.B.C.1 4 1 o.| 4 2 _._.2 H.C.0.0 &. +a.a.D.D..+D.F..+6 F.a.5 5 Y.0.5 7 5 0.B.9 2 C.B.Y.++++++&. +Y. + + +&.0.0.B.0. +F.F.a.a.&.++5 5 5 ++&.5 7 ++ +&. +F.`.*.D.F.F.F.`.*.F.*.*.*.D.F.6 a.a.`.D.D.D.D.K.E.E.@+@+E.E.E.@+@+@+,.E.E.E.E.@+#+#+$+%+%+#+,.P.P..+P.P.,.P.K.D.E.P.P.K.K.b.P.b..+K.`.&.B.C.3 3 H.2 3 2 2 o.G.n.1 o.s G.: I.I.I.I.I.G.T.s 1 1 _._.W.4 V.W._._.V.4 o.o.n.W.4 4 X.H._.C.H.Y.Z.0.0.0.a.&.a.`.0.0.0.0. +F..+D..+D..+`.`.D.`.`.&.&.0.&.0.0.0.0.&.7 6 F.",
"@+&++.+.+.$++.~.+.~.+.~.+.~.$++.+.~.+.~.+.~.+.~.,.+.+.*.+.~.+.~.+.~.+.~.+.~.a.+.+.o +.~.+.~.+.~.B.B.0 }.0.9 C.H._.H.H.9 H.C.C.9 H.H.0 B.0.7 5 &.a.F.D.D.D.b.,.b.;.b.,.@+@+*+=+=+*+-+-+*+%+*+*+%+%+&+@+&+E.;+@+,.*.a.`.5 1.B.C.Z.3 H.V.C.H.B.C.Y.Z.0.0.0.a.&.a.`.0.0.0.0. +F..+D..+D..+`.`.D.F..+F.F.6 D.*.F.D.'.;.;.;+@+@+;+K.&+$+@+@+@+E.E.E.@+E.@+%+E.E.E.E.E.E.@+,.,.,.,.&+&+%+%+@+@+,.,.,.,.,.b.,.,.E.;.D.,.b.D.D.F.6 6 a.D.D.D.*.D.a.a.&.B.B.0.0.0.B.9 C.H.C.C.3 3 B.C.C.H.3 2 0 0.3 3 C.0.3 5 5 6 F.F.D.,.b.,.@+E.E.,.b.E.E.@+%+@+%+%+%+$+$+&+@+&+%+$+%+$+$+$+%+%+$+$+*+$+$+$+*+$+%+%+&+@+@+;.,.;.;.*.D.F.F.F.6 F.*.*.6 5 a.o 1.o 9 H.3 B.5 9 B.B.0 }.0.9 C.H._.H.H.9 H.C.C.9 H.H.0 B.0.7 5 &.a.F.D.D.D.b.,.b.;.b.,.@+@+*+=+=+*+-+-+*+%+*+*+%+%+&+@+&+E.;+",
": J.: ~.~.~.n.~.G.~._.~._.].@.2 +.~.} ~.G.~.: ~.G.o.~.~.4 ~.H.~.C.~.H.~.H.~.C.C.~.~.2 ~.H.~.2 ~.B.C.H.1 o.| 1 4 | _._.4 4 s | | _.9 3 9 9 9 1 _.4 _.1 | o.| n.1 _.2 2 2 2 2 H.3 4 o.} s G.: : : o.1 4 n.| | o.4 s | | 4 | | o.o.| 1 4 _.H.3 _._.9 B.0.7 5 &.a.F.D.D.D.b.;.b.;.b.,.@+@+>+$+,+$+'+)+%+@+&+@+;.,.D.,.;.,.D.;.;+E.b.,.,.D.*.*.*.6 a.&.0.B.5 B.B.3 2 2 H.1 1 o.} I.J.@ I.I.. } J.t.+ + + t.!+% !+% ~+* ~+~+{+% % % # # # t.+ + % + !+t.t.+ @ J.. . L.J.L.J.. G.I.. @ L.@ + @ : n.s 1 _.H._.1 H._.s 1 4 s G.} . . . . @ . I.} } s } : } : : J.: } . : n.n.G.o._._._.1 2 2 | | } : G.: : G.G.o.1 | 4 1 H.H.C._.H.2 H.H.C.C.3 2 2 C.H.1 2 9 B.C.H.1 o.| 1 4 | _._.4 4 s | | _.9 3 9 9 9 1 _.4 _.1 | o.| n.1 _.2 2 2 2 2 H.3 4 o.} s G.: : : o.1 4 n.| | ",
"++++++Y.C.C.B.B.B.0.0.B.B.C.+.+.1 ~.G.G.G.I.J.J.J.]+G.n.4 4 4 4 4 4 H._._._._.W.4 n.^+n.]+I.n.: G.n.o.G.n.n.n.T.} ^+4 X._.W.H._._.H.4 4 4 /+o.n.T.o.n.n.n.G.(+J.J._+J.t.L.I.I.n.G.I.^+G.G.I.]+(++ S L.@ J.I.I.G.H n.n.o.4 4 1 H.H._._.| 1 1 H.9 3 9 9 9 1 _.4 _.1 | o.| n.1 _.2 2 2 2 2 H.C._.4 s 1 X.4 _._.H.0.&.&. +a.0.a.`.&.F.P.D.P..+b.,.,.E.,.D.P.b.P.P.P.F.F.F.F..+D.a.Y.&.a.a.`.D.,.K.P.b.P.`.`.D..+a.&.C.H.Y.Y.C.B.0.B.Y.B.B.B.C.2.2.C.++Y.C.Y.B.B.&.&.&.&.B.++D.D.F.`.&.0.B.B.C.B.B.0.a.7 &. +`. +`.0.B.B.0.:+5 &.++0.&.&.5 1.B.|.&. +a.a.++++++Y.C.C.B.B.B.0.0.B.B.C.H._.1 z G.G.G.I.J.J.J.]+G.n.4 4 4 4 4 4 H._._._._.W.4 n.^+n.]+I.n.: G.n.o.G.n.n.n.T.} ^+4 X._.W.H._._.H.4 4 4 /+o.n.T.o.n.n.n.G.(+J.J._+J.t.L.I.I.n.G.I.^+G.G.I.]+(++ S L.@ J.I.",
"5 5 5 &.&.F.F.F.b.'.D.'.;.,.@+~.~.E.$+*+<+-+-+<+<+<+-+-+[+-+-+*+=+*+*+*+=+$+&+@+%+%+$+%+%+%+$+@+@+@+,.,.,.'.*.;.,.E.E.b.b.;.b.F.F.D.F.F.F.b.'.6 F.F.a.F.F.b.,.,.b.&.F.&.&.7 0.0.B.0.&.F.F.F.F.F.b.b.a.b.D.F.a.9 B.B.B.C.B.}+2 V.H.H.C.H.C.H.H.H._.4 4 /+o.n.T.o.n.n.n.G.(+I.I.(+I.L.J.n.n.4 o.o._._.V._.}+}+H.C.C.0 0.7 &.a.7 a.*.F.D.6 *.6 a.F.F.D.F.6 6 a.a.F.F.'.6 '.'.F.6 F.D.*.D.F.*.b.b.D.F.*.*.D.D.F.*.*.'.D.,.D.F.a.a.a.7 6 6 a.6 *.6 *.D.b.;.b.b.b.;.b.E.*.*.b.'.b.,.b.*.*.F.6 7 a.5 0 B.3 9 5 5 5 B.0 0 5 7 a.a.a.*.*.*.b.b.b.*.*.F.6 7 &.5 5 5 &.&.F.F.F.b.'.D.'.;.,.@+@+E.E.$+*+<+-+-+<+<+<+-+-+[+-+-+*+=+*+*+*+=+$+&+@+%+%+$+%+%+%+$+@+@+@+,.,.,.'.*.;.,.E.E.b.b.;.b.F.F.D.F.F.F.b.'.6 F.F.a.F.F.b.,.,.b.&.F.&.&.7 0.0.B.0.&.F.F.F.F.F.b.b.a.b.D.F.",
"- r.q.- |+- 1+, 2+3+v v v v 4+5+6+7+8+9+0+1+1+1+6+6+6+4+0+v { 6+a+b+b+8+{ a+c+1+, > d+* Y Y Y V = |+' Y T * * T T = d+d+= |+* Y % % U ~+~+e+S S :.+ * e+% U :.U !+U T T T T |+* # # U U U % U T T u u G.F F t o._.I f+3 3 5 5  +g+a.a.*.F.m.a.F.a.F.F.b.'.6 F.F.a.F.F.b.,.,.b.&.i.&.0.5 B.B.H.C.C.B.C.H.4 1 2 1 } } @ # e+' ] >  . .c+{ 8+8+6+4+8+4+7+7+7+a+7+9+6+6+7+h+i+j+k+l+m+k+n+o+k+k+k+m+h+h+6+6+8+7+0+c+v ; * % > % % % U % p+U U / @ u U U U :.@ @ u T * U U U X S @ E q q h K q q q A O / u Y T T q+# * d+> |+, = & T <.T * ' <.<.' d+3+- - r.q.- |+- 1+, 2+3+v v v v 4+5+6+7+8+9+0+1+1+1+6+6+6+4+0+v { 6+a+b+b+8+{ a+c+1+, > d+* Y Y Y V = |+' Y T * * T T = d+d+= |+* Y % % U ~+~+e+S S :.+ * e+% U :.U !+U T T T T |+* # # U U U % U T T u u G.F F "};
