<?xml version="1.0" encoding="UTF-8" standalone="no"?>
<!DOCTYPE svg PUBLIC "-//W3C//DTD SVG 1.0//EN"
"http://www.w3.org/TR/2001/REC-SVG-20010904/DTD/svg10.dtd">
<!-- Created with Inkscape (http://www.inkscape.org/) -->
<svg
   xmlns="http://www.w3.org/2000/svg"
   xmlns:xlink="http://www.w3.org/1999/xlink"
   version="1.0"
   x="0"
   y="0"
   width="744.094482"
   height="1052.36218"
   id="svg1">
  <defs
     id="defs3">
    <linearGradient
       id="linearGradient575">
      <stop
         style="stop-color:#000000;stop-opacity:1;"
         offset="0"
         id="stop576" />
      <stop
         style="stop-color:#ffffff;stop-opacity:1;"
         offset="1"
         id="stop577" />
    </linearGradient>
    <linearGradient
       x1="0.00000000"
       y1="-0.00000000"
       x2="1.00000000"
       y2="-0.00000000"
       id="linearGradient578"
       xlink:href="#linearGradient575" />
    <radialGradient
       cx="0.50000000"
       cy="0.50000000"
       r="0.50000000"
       fx="0.50000000"
       fy="0.50000000"
       id="radialGradient579"
       xlink:href="#linearGradient575" />
  </defs>
  <rect
     width="136.758850"
     height="71.9783401"
     x="278.258026"
     y="168.932129"
     style="font-size:12;fill:#eeeeee;fill-rule:evenodd;stroke:#000000;stroke-width:0.924708;stroke-linejoin:bevel;stroke-dashoffset:0;"
     id="rect580" />
  <text
     x="295.53283691"
     y="207.62579346"
     style="font-size:18;font-weight:bold;stroke-width:1pt;font-family:Courier 10 Pitch;"
     id="text598"
     xml:space="preserve"><tspan
       x="295.53283691"
       y="207.62579346"
       id="tspan603">Ewl_Widget</tspan></text>
  <g
     style="font-size:12;"
     id="g627">
    <rect
       width="136.758850"
       height="71.9783401"
       x="279.275970"
       y="35.5836220"
       style="fill:#eeeeee;fill-rule:evenodd;stroke:#000000;stroke-width:0.924708;stroke-linejoin:bevel;stroke-dashoffset:0;"
       id="rect621" />
    <text
       x="296.21688843"
       y="78.20555878"
       style="font-size:18;font-weight:bold;stroke-width:1pt;font-family:Courier 10 Pitch;"
       id="text622"
       xml:space="preserve"><tspan
         x="296.21688843"
         y="78.20555878"
         id="tspan625">Ewl_Object</tspan></text>
  </g>
  <path
     d="M 365.43598 92.45654 C 359.5754 94.020609 357.29807 94.411977 352.20292 99.945622 C 342.56087 107.46112 340.1402 120.59934 339.98779 132.14866 C 338.16735 138.94499 344.42148 145.51756 333.28393 146.07498 C 326.96366 146.44111 314.05735 146.88738 315.55753 146.37791 C 326.29744 154.03856 338.12728 161.6375 348.13121 170.34296 C 352.51373 165.58329 368.46866 143.73923 377.65111 135.14429 C 378.7881 132.21654 356.09749 148.60585 353.22085 138.13992 C 350.06625 133.24587 351.24485 122.83724 350.16706 116.42159 C 350.16706 110.72588 354.61458 104.38736 356.27463 99.196712 C 362.53137 94.864656 363.85857 93.40607 365.43598 92.45654 "
     style="font-size:12;fill:#2b5288;fill-opacity:0.559322;fill-rule:evenodd;stroke:#000000;stroke-width:0.857741pt;"
     id="path620" />
  <rect
     width="159.072144"
     height="71.9783401"
     x="126.383720"
     y="302.811859"
     style="font-size:12;fill:#eeeeee;fill-rule:evenodd;stroke:#000000;stroke-width:0.997296;stroke-linejoin:bevel;stroke-dashoffset:0;"
     id="rect632" />
  <rect
     width="136.758850"
     height="71.9783401"
     x="350.236359"
     y="302.092072"
     style="font-size:12;fill:#eeeeee;fill-rule:evenodd;stroke:#000000;stroke-width:0.924708;stroke-linejoin:bevel;stroke-dashoffset:0;"
     id="rect633" />
  <path
     d="M 289.88339 240.61726 C 285.40601 239.11564 283.759 238.3255 278.07583 241.00548 C 268.58928 243.25414 261.38086 254.56229 256.3273 265.51247 C 252.22935 271.07172 253.47179 280.54388 245.99889 275.3842 C 241.73684 272.50378 233.16282 266.33404 234.35573 266.61424 C 238.04488 279.41786 242.4684 292.71958 245.23131 306.14473 C 250.11959 303.8396 269.85317 291.13532 279.50429 287.62106 C 281.49874 285.40651 259.73043 289.4599 262.35187 277.9962 C 262.4025 271.71085 267.63322 262.37432 269.68547 255.69741 C 272.12889 250.25876 277.73671 246.47926 281.04166 242.37125 C 286.9638 241.43227 288.45153 240.71779 289.88339 240.61726 "
     style="font-size:12;fill:#2b5288;fill-opacity:0.559322;fill-rule:evenodd;stroke:#000000;stroke-width:0.785862pt;"
     id="path634" />
  <path
     d="M 383.95798 236.37266 C 387.91408 234.79027 389.36933 233.95763 394.39082 236.78177 C 402.77288 239.15138 409.14204 251.06782 413.60723 262.60702 C 417.22807 268.46532 416.13029 278.44699 422.73314 273.00977 C 426.49897 269.97441 434.07474 263.47278 433.02071 263.76806 C 429.76108 277.2604 425.85258 291.27764 423.41135 305.42495 C 419.09219 302.99582 401.65614 289.60817 393.12867 285.90486 C 391.36643 283.57119 410.60032 287.84262 408.28408 275.76227 C 408.23935 269.13882 403.61763 259.30006 401.80431 252.264 C 399.64537 246.5328 394.69045 242.54999 391.77029 238.221 C 386.53765 237.23151 385.22314 236.4786 383.95798 236.37266 "
     style="font-size:12;fill:#2b5288;fill-opacity:0.559322;fill-rule:evenodd;stroke:#000000;stroke-width:0.758306pt;"
     id="path635" />
  <text
     x="136.75886536"
     y="341.93591309"
     style="font-size:18;font-weight:bold;stroke-width:1pt;font-family:Courier 10 Pitch;"
     id="text636"
     xml:space="preserve"><tspan
       x="136.75886536"
       y="341.93591309"
       id="tspan639">Ewl_Container</tspan></text>
  <text
     x="362.05108643"
     y="341.93591309"
     style="font-size:18;font-weight:bold;stroke-width:1pt;font-family:Courier 10 Pitch;"
     id="text641"
     xml:space="preserve"><tspan
       x="362.05108643"
       y="341.93591309"
       id="tspan644">Ewl_Spinner</tspan></text>
  <rect
     width="136.758850"
     height="71.9783401"
     x="521.544800"
     y="302.092072"
     style="font-size:12;fill:#eeeeee;fill-rule:evenodd;stroke:#000000;stroke-width:0.924708;stroke-linejoin:bevel;stroke-dashoffset:0;"
     id="rect646" />
  <path
     d="M 414.41801 210.19547 C 416.47032 206.77824 416.88895 205.14022 425.98037 208.15107 C 438.00925 209.61188 460.72699 226.10363 480.92849 242.50838 C 492.61377 250.49084 504.85229 265.94908 504.52466 255.99391 C 504.42597 250.416 503.69673 238.59367 502.98037 239.31204 C 517.6488 260.66101 532.33677 282.97393 548.74824 305.10964 C 540.9284 302.51991 504.55342 286.61963 490.58095 283.16801 C 485.58843 280.06994 511.62549 281.64903 492.96616 263.87217 C 484.02895 253.81229 465.94454 240.03316 454.58654 229.79789 C 444.61508 221.63508 434.03877 216.84539 425.14579 211.00926 C 418.29394 210.84207 415.89575 210.0332 414.41801 210.19547 "
     style="font-size:12;fill:#2b5288;fill-opacity:0.559322;fill-rule:evenodd;stroke:#000000;stroke-width:1.05843pt;"
     id="path647" />
  <text
     x="547.03540039"
     y="344.09527588"
     style="font-size:18;font-weight:bold;stroke-width:1pt;font-family:Courier 10 Pitch;"
     id="text648"
     xml:space="preserve"><tspan
       x="547.03540039"
       y="344.09527588"
       id="tspan651">Ewl_Text</tspan></text>
  <ellipse
     cx="680.19537354"
     cy="334.73809814"
     rx="7.91761780"
     ry="7.91761780"
     transform="matrix(0.545455,0.000000,0.000000,0.454544,305.5802,186.9036)"
     style="font-size:12;fill-opacity:0.75;fill-rule:evenodd;stroke:#000000;stroke-width:1pt;"
     id="path654" />
  <ellipse
     cx="680.19537354"
     cy="334.73809814"
     rx="7.91761780"
     ry="7.91761780"
     transform="matrix(0.545455,0.000000,0.000000,0.454544,322.8551,186.9036)"
     style="font-size:12;fill-opacity:0.75;fill-rule:evenodd;stroke:#000000;stroke-width:1pt;"
     id="path655" />
  <ellipse
     cx="680.19537354"
     cy="334.73809814"
     rx="7.91761780"
     ry="7.91761780"
     transform="matrix(0.545455,0.000000,0.000000,0.454544,338.6903,186.9036)"
     style="font-size:12;fill-opacity:0.75;fill-rule:evenodd;stroke:#000000;stroke-width:1pt;"
     id="path656" />
  <rect
     width="159.072144"
     height="71.9783401"
     x="21.2953377"
     y="446.768555"
     style="font-size:12;fill:#eeeeee;fill-rule:evenodd;stroke:#000000;stroke-width:0.997296;stroke-linejoin:bevel;stroke-dashoffset:0;"
     id="rect657" />
  <rect
     width="159.072144"
     height="71.9783401"
     x="208.439026"
     y="446.768555"
     style="font-size:12;fill:#eeeeee;fill-rule:evenodd;stroke:#000000;stroke-width:0.997296;stroke-linejoin:bevel;stroke-dashoffset:0;"
     id="rect663" />
  <text
     x="43.18700409"
     y="489.49151611"
     style="font-size:18;font-weight:bold;stroke-width:1pt;font-family:Courier 10 Pitch;"
     id="text664"
     xml:space="preserve"><tspan
       x="43.18700409"
       y="489.49151611"
       id="tspan667">Ewl_Window</tspan></text>
  <path
     d="M 147.36627 380.25525 C 142.88889 378.75363 141.24188 377.96349 135.55871 380.64347 C 126.07216 382.89213 118.86374 394.20028 113.81018 405.15046 C 109.71223 410.70971 110.95467 420.18187 103.48177 415.02219 C 99.219718 412.14177 90.645698 405.97203 91.838608 406.25223 C 95.527758 419.05585 99.951278 432.35757 102.71419 445.78272 C 107.60247 443.47759 127.33605 430.77331 136.98717 427.25905 C 138.98162 425.0445 117.21331 429.09789 119.83475 417.63419 C 119.88538 411.34884 125.1161 402.01231 127.16835 395.3354 C 129.61177 389.89675 135.21959 386.11725 138.52454 382.00924 C 144.44668 381.07026 145.93441 380.35578 147.36627 380.25525 "
     style="font-size:12;fill:#2b5288;fill-opacity:0.559322;fill-rule:evenodd;stroke:#000000;stroke-width:0.785862pt;"
     id="path669" />
  <path
     d="M 234.24302 380.32935 C 238.19912 378.74696 239.65437 377.91432 244.67586 380.73846 C 253.05792 383.10807 259.42708 395.02451 263.89227 406.56371 C 267.51311 412.42201 266.41533 422.40368 273.01818 416.96646 C 276.78401 413.9311 284.35978 407.42947 283.30575 407.72475 C 280.04612 421.21709 276.13762 435.23433 273.69639 449.38164 C 269.37723 446.95251 251.94118 433.56486 243.41371 429.86155 C 241.65147 427.52788 260.88536 431.79931 258.56912 419.71896 C 258.52439 413.09551 253.90267 403.25675 252.08935 396.22069 C 249.93041 390.48949 244.97549 386.50668 242.05533 382.17769 C 236.82269 381.1882 235.50818 380.43529 234.24302 380.32935 "
     style="font-size:12;fill:#2b5288;fill-opacity:0.559322;fill-rule:evenodd;stroke:#000000;stroke-width:0.758306pt;"
     id="path670" />
  <ellipse
     cx="680.19537354"
     cy="334.73809814"
     rx="7.91761780"
     ry="7.91761780"
     transform="matrix(0.545455,0.000000,0.000000,0.454544,20.54605,332.2999)"
     style="font-size:12;fill-opacity:0.75;fill-rule:evenodd;stroke:#000000;stroke-width:1pt;"
     id="path671" />
  <ellipse
     cx="680.19537354"
     cy="334.73809814"
     rx="7.91761780"
     ry="7.91761780"
     transform="matrix(0.545455,0.000000,0.000000,0.454544,40.69999,332.2999)"
     style="font-size:12;fill-opacity:0.75;fill-rule:evenodd;stroke:#000000;stroke-width:1pt;"
     id="path672" />
  <ellipse
     cx="680.19537354"
     cy="334.73809814"
     rx="7.91761780"
     ry="7.91761780"
     transform="matrix(0.545455,0.000000,0.000000,0.454544,60.85393,333.7395)"
     style="font-size:12;fill-opacity:0.75;fill-rule:evenodd;stroke:#000000;stroke-width:1pt;"
     id="path673" />
  <text
     x="247.60549927"
     y="488.05194092"
     style="font-size:18;font-weight:bold;stroke-width:1pt;font-family:Courier 10 Pitch;"
     id="text658"
     xml:space="preserve"><tspan
       x="247.60549927"
       y="488.05194092"
       id="tspan661">Ewl_Box</tspan></text>
</svg>
