#define resize_width 16
#define resize_height 16
#define resize_tr_x_hot 8
#define resize_tr_y_hot 7
static unsigned char resize_bits[] = {
  0x3f, 0xfe, 0x11, 0x84, 0x13, 0xc8, 0x25, 0xa4, 0x4f, 0xb2, 0x99, 0xd9,
  0x30, 0x8c, 0x60, 0x06, 0x20, 0x04, 0x91, 0x88, 0xcb, 0xd3, 0x65, 0xa6,
  0x31, 0x8c, 0x19, 0x98, 0x25, 0xa4, 0x7f, 0xfe, };
