#define slideout_width 16
#define slideout_height 16
#define cursor_x_hot 1
#define cursor_y_hot 8
static unsigned char slideout_bits[] = {
  0x00, 0x00, 0x00, 0x00, 0x00, 0x00, 0x00, 0x18, 0x00, 0x17, 0xe0, 0x10,
  0x1c, 0xf0, 0x03, 0x80, 0xab, 0xaa, 0x5c, 0xf5, 0xe0, 0x1a, 0x00, 0x1f,
  0x00, 0x18, 0x00, 0x00, 0x00, 0x00, 0x00, 0x00, };
