#define slideout_rotated_width 16
#define slideout_rotated_height 16
#define cursor_x_hot 8
#define cursor_y_hot 1
static char slideout_rotated_bits[] = {
 0x80,0x01,0x80,0x01,0x40,0x02,0xc0,0x02,0x40,0x02,0xa0,0x04,0x60,0x04,0xa0,
 0x04,0x50,0x08,0xb0,0x08,0x50,0x08,0xb8,0x10,0x78,0x1e,0xc0,0x02,0x40,0x02,
 0xc0,0x03};
