#define sticky_width 16
#define sticky_height 16
#define cursor_x_hot 1
#define cursor_y_hot 16
static unsigned char sticky_bits[] = {
  0x00, 0x00, 0x00, 0x00, 0x00, 0x0e, 0x00, 0x15, 0xf0, 0x24, 0x48, 0x38,
  0x24, 0x20, 0x44, 0x10, 0x48, 0x08, 0x88, 0x0d, 0x10, 0x0a, 0x28, 0x08,
  0xd4, 0x04, 0x0a, 0x03, 0x05, 0x00, 0x03, 0x00, };
