/* XPM */
static char *magick[] = {
/* columns rows colors chars-per-pixel */
"122 127 34 1",
"  c #020202020404",
". c #0a0a0a0a0c0c",
"X c #101010101010",
"o c #171719191a1a",
"O c #202020202020",
"+ c #2a2a2a2a2929",
"@ c #20202c2c3e3e",
"# c #3b3b3d3d4141",
"$ c #313143436161",
"% c #3c3c53537777",
"& c #4f4f4f4f4e4e",
"* c #5a5a5a5a5c5c",
"= c #626262626464",
"- c #686868686868",
"; c #7a7a7a7a7b7b",
": c #464662628c8c",
"> c #4a4a66669494",
", c #52526e6e9494",
"< c #5b5b75759c9c",
"1 c #6a6a8282a4a4",
"2 c #72728686acac",
"3 c #7f7f9191afaf",
"4 c #939393939191",
"5 c #9797a0a0b0b0",
"6 c #9a9aaaaac4c4",
"7 c #afafb5b5c0c0",
"8 c #bebec4c4cdcd",
"9 c #ccccd2d2d8d8",
"0 c #dadadededcdc",
"q c #e9e9eaeaecec",
"w c #f6f6f6f6f4f4",
"e c #fdfdfdfdfcfc",
"r c Gray100",
"t c None",
/* pixels */
"tttttttttttttttttttttttttttttttttttttttttttttttttttttttttttttttttttttttttttttttttttttttttttttttttttttttttttttttttttttttttt",
"tttttttttttttttttttttttttttttttttttttttttttttttttttttttttttttttttttttttttttttttttttttttttttttttttttttttttttttttttttttttttt",
"tttttttttttttttttttttttttttttttttttttttttttttttttttttttttttttttttttttttttttttttttttttttttttttttttttttttttttttttttttttttttt",
"ttttttttttttttttttttttttttttttttttttttttttttttttttttt90qweeeeeeeewq09ttttttttttttttttttttttttttttttttttttttttttttttttttttt",
"tttttttttttttttttttttttttttttttttttttttttttttt90qeeeeeeeeeeeeeeeeeeeeeeewq09tttttttttttttttttttttttttttttttttttttttttttttt",
"tttttttttttttttttttttttttttttttttttttttttt0eeeeeeeeeeeeeeeeeeeeeeeeeeeeeeeeeeew08ttttttttttttttttttttttttttttttttttttttttt",
"tttttttttttttttttttttttttttttttttttttt9qeeeeewq085;*#+o.          .o+#*;580qweeeeeq9tttttttttttttttttttttttttttttttttttttt",
"ttttttttttttttttttttttttttttttttttt9qeeeew974-#o.                        .o#-479weeeeq9ttttttttttttttttttttttttttttttttttt",
"tttttttttttttttttttttttttttttttt8qeeeeq84=+X                                  X+=48qeeeeq8tttttttttttttttttttttttttttttttt",
"tttttttttttttttttttttttttttttt0weeee92&O                                         .O&29eeeew9tttttttttttttttttttttttttttttt",
"tttttttttttttttttttttttttttt0weeeq6*O                                               .O*6qeeee0tttttttttttttttttttttttttttt",
"ttttttttttttttttttttttttttqeeeeq4#X                                                    X#4qeeee0tttttttttttttttttttttttttt",
"tttttttttttttttttttttttt9eeeeq4+                                              O#o         +4qeeew8tttttttttttttttttttttttt",
"ttttttttttttttttttttttt0eeew4+                                               #8q8#          +4weee0ttttttttttttttttttttttt",
"ttttttttttttttttttttt8weeq7#                                                O6wee8#           #7qeew8ttttttttttttttttttttt",
"tttttttttttttttttttt0eew8=.                                        ..XXXXXXX;qeeee7#           X=9eee0tttttttttttttttttttt",
"tttttttttttttttttttqeeq4+                                   .XoO@@#$$%%%%%%>8eeeeew4+.           +4qeewttttttttttttttttttt",
"tttttttttttttttttteee0*X                                .o@#$%%%:>>>:>>>:>,5qeeeeeeq3$@oX         X=0eewtttttttttttttttttt",
"tttttttttttttttt9eee9+                               X@#%%%%>:::>:>>>>>>>><9eeeeeeee01:%$#O         #9eee9tttttttttttttttt",
"ttttttttttttttt9eee6O                             X@$%%:>>>>>>>:>::>:>>>>>3qeeeeeeeee8<>::%$@X       O6eee9ttttttttttttttt",
"tttttttttttttt8eee5X                           .@$%:>>>::>>:>>>>>>>>:>>>><7eeeeeeeeeew3>>::>:%@       o6eee9tttttttttttttt",
"ttttttttttttt8eew;                          .O$%:>:>>>>>>>>>>:>>>>:>:>:>>20eeeeeeeeeee0<>>>>>::%O       ;qee8ttttttttttttt",
"tttttttttttt8eeq;.                        X@$%:>>>>>:>>:>::>:>:>::>>:>>:,6eeeeeeeeeeeee6>>>:>>>>%#X     X;qew8tttttttttttt",
"tttttttttttteeq;X                       X@$:>>:>>>:>>>:>:>>:>>:>>>>>:>:><9eeeeeeeeeeeee01:>>>>>>>:$O     X;weetttttttttttt",
"tttttttttttwee4X                      X@%%>>>>>>:>:>::>>>>:>>>>:>>>:>>>>5weeeeeeeeeeeeew6,>>>>>>>>>%@     X4eeettttttttttt",
"ttttttttttqee6O                     .@$%>>:>>>::>>>>>>>:>>>>>:>>>>:>>::>9eeeeeeeeeeeeeee02>:>:>:>>>:%O     o7eeqtttttttttt",
"ttttttttt0eeq+                     X$%>>>>:>::>>>:>>:>>>>:>>>>:>>>>>>>>1eeeeeeeeeeeeeeeee7>>:>:>>:>>>%o     +qee9ttttttttt",
"ttttttttteew*                     @%>>::>>:>>>>:>>>:>>>:>>>>:>>>>:>>:>,7eeeeeeeeeeeeeeeee01>>:>:>>>>:>%X     =wewttttttttt",
"ttttttttqee4                    X$%>:>>>:>>:>>>:>>>>:>>>>:>>>>:>>>>>:>2qeeeeeeeeeeeeeeeeew7,>:>>:>>>>::#      4eeqtttttttt",
"ttttttt8ee8O                  .@%>>>:>>:>>:>>>>>>:>>>>>:>>>>:>>>>:>>>,7eeeeeeeeeeeeeeeeeee92>>>>::>>>:>%O     O8eetttttttt",
"tttttttqew&                  X#%>>:>>>:>>>>>>:>>>:>>:>>>>:>>>>:>>>:>>10eeeeeeeeeeeeeeeeeeew6,>>:>>:>>>>:$X     *weqttttttt",
"tttttt8ee5X                 o$::>>>:>>>>:>>:>>>>>>>:>>:>:>::>:>:>>>>,6weeeeeeeeeeeeeeeeeeee9<>>>>:>:>>>:%O     X5eettttttt",
"ttttttqe0#                 o%>>>:>:>:>>>:>>>>:>:>>:>:>:>:>>>>:>>>:>>29eeeeeeeeeeeeeeeeeeeeew3>>>>:>:>:>>:#      &0eqtttttt",
"ttttttee5X                O%:>>:>>>:>>>>>>:>>:>:>:>>>>>>>:>>>>:>:>>,6weeeeeeeeeeeeeeeeeeeeee8<>:>>>:>>:>>%X     X6eetttttt",
"tttttqeq*                @%>::>:>>>>>:>>>:>>:>>>>>>:>>:>>>>:>>:>>>>20eeeeeeeeq863579qeeeeeeeq2>>>>>>:>>>>%O      *qeqttttt",
"tttttee8O               O%>>>>:>>>:>>>>:>>::>:>:>>:>:>>:>>:>>>>:>>,6weeeeeeq62,,>,,<28weeeeee6>>:>>>:>:>>%@      O8eettttt",
"tttttee;               O%>::>>>>>>:>>:>:>>>>>>>>>>>>>>>>>>>>>>:>>>20eeeeeq7<,,<3531,>>29weeeeq,>>:>>:>>:>:@       2eettttt",
"tttt0eq#              O%>>>>:>>:>>>>:>>:>>:>>:>>:>>>:>>>:>>:>>>:><8eeeee93,><59wwwq71>><7qeeee2>>>>>>:>:>:#       #qe0tttt",
"ttttwe9o             X$>::>>>>>>:>:>>>>:>>>>>>>>>:>>>>:>>:>>>:>>>3qeeeq8<>>,6qeeeeee8<>><50eee8,>:>>>:>>>>#       o9eqtttt",
"ttttee5              $:>>>:>>:>>>:>>:>>>>:>>>:>>>>>:>>>>>>>>>>:>,9eee05<>>>30eeeeeeee6,>>,50ee01:>>>>>:>::#        5eetttt",
"ttttee-             @%>:>>>>>>::>>:>>>:>>>:>>>>:>>>:>::>>>:>:>>,5eee93<>>><6weeeeeeee0<>>>,5qeq3>>:>>>:>>>@        ;eetttt",
"ttt9ee#            o%>>>:>>:>:>>>>>>>>>>:>>>:>:>::>>:>>:>:>>>>:10ew82>>:>:<8eeeeeeeeeq2>>:>,5qe8>>>>:>>:>%@        #ee9ttt",
"tttqeeO            $:>:>>>>:>>>>:>>:>>:>>:>:>:>>>:>>:>>:>>>>:>,8ee7<>>>>:><9eeeeeeeeew2:>>:><6e9<:>>>>>>>%@        Oee0ttt",
"tttwee            @%>>>>:>>>:>>>>:>>>>>:>>:>>>>:>>>>>>:>:>:>>,5qq6,>>>>>>><7eeeeeeeee01>:>>:>,802>>>:>::>%X        Xeeqttt",
"ttteee           .$::>>>>:>>>:>>>>:>::>:>>:>:>>>>>>:>>>:>>>:>29q6,>>>::>>>>5qeeeeeeee8,>:>>>>>193>>>>>>>>$X         eeettt",
"ttteee           @%>>>>:>>:>>>:>>>>:>>>,,<<>>>:>>:>>>>>>>:>><803>>::>>:>:>><8weeeeee01>>>>>:>>>23,>>:>:>%@          eewttt",
"ttteee          .$:>:>>:>>>>>>>:>:>>>,167873<>:>>>:>:>>:>>>,693,>>>:>>:>>>:>18qeeeq93,>>:>>>>>>,<>>>>>>>%O          eeettt",
"ttteee          O%>>>>:>><,:>>:>>>>>,39qwwwq81>>>>>>>>:>>:,595<>:>>>>>>:>:>>><378751,:>>>>:>>>>>>>>:>>::$.          eewttt",
"ttteee          @:>>:>>>>32>>:>:>:>>10weeewwq7<:>>>:>>>>>>598<>>>:>>:>>>>>>:>>>,<<,>:>>:>>>>:>>>>>>:>>>%@           eeettt",
"ttteee         X$:>>:>>>>581>>>>>>>,8weeeeeeeq5>>>:>>:>>,6q92>>>>>>>>>:>:>>>>>>::>>>>:>>>:>:>::>::>>>>:$.           eewttt",
"tttwee         o%>:>>>>>,208,>:>>:>1qeeeeeeeww7,>>>>>:>,6wq5>>>:>>:>>>>>>:>:>>>>>::>>>:>>:>>>>>:>>>>:>%@           .eewttt",
"tttqeeo        @%>>:>>:>><9w6,>>:>>2weeeeeeeee8<>>>>>><8ww8>>>>>>:>>>:>>:>>:>>>>:>>>>:>>:>>:>:>>>:>>>:$            Oee0ttt",
"ttt9ee#        @:>>>:>>>,>8wq5,>:>>2qeeeeeeeew8,>:>>,28we01:>:>>>>:>>>>>:>>>::>:>>>>>:>>>>>>>>>>:>>>:%X            #ee9ttt",
"ttttee-       .#:>:>>>>:>>3ww03<>>><9eeeeeeeee6<>>>,39wew5>>>>:>>>>>:>>>>>:>>>>>>:>>:>:>>:>:>>:>>:>>:@             ;eetttt",
"ttttee5       .#:>>>:>:>>>10ww05,>>,6eeeeeeee02>>><50eee8<>:>:>:>:>>>>:>>>:>>:>>>>:>>>>:>>>>>>>:>>>:#              5eetttt",
"ttttwe9X      .$>:>>>:>:>>,8eew05<>>18eeeeeeq5,>><8qweeq3>>>>>:>>:>:>>>>:>>>>>>>>:>:>>>>>:>>:>>>::>$X             o9ewtttt",
"tttt0eq#      .@>>>:>>>>>>>2eeewq6<>>170www93<>,39weeee7,>:>>>:>:>>:>:>>>>>:>>:>>:>>>>>:>>>>>>>>>:%o              &qe0tttt",
"tttttee2      .@:>>>:>>:>>>,qeeeee92>>,1353<,>17qweeee02>>>:>>>>>>:>>:>>>:>>>>:>:>>>:>>>>:>:>>:>:%@               2eettttt",
"tttttee8o     .@::>>:>:>>:>>7eeeeeew82<,,>,,27qeeeeeee6,>>>>>:>>:>:>>:>:>>:>:>>>>>:>>:>>>:>>:>>>%o               O8eettttt",
"tttttqeq*      O%>>:>>>:>>>:2qeeeeeeew965368qweeeeeee91>>>:>>>>>>>>>:>>>:>:>>:>>>>>>>:>:>:>:>>:%@                =qe0ttttt",
"ttttttee5X     o%:>>>:>>>:>><8eeeeeeeeeeeeeeeeeeeeeew6,>:>>>>:>>>:>>>>:>>>>:>>>>:>:>:>:>>:>>>:%O                X5eetttttt",
"ttttttqe0#     .#>:>>>:>>>>>>3weeeeeeeeeeeeeeeeeeeee91>>>>:>>>:>>>:>>:>:>>>>>>:>>:>>>>>>>>>:>%o                 &0eqtttttt",
"tttttt8ee6X     @%:>>:>>>:>>,<9eeeeeeeeeeeeeeeeeeeew6,>:>>>:>>>>>>>>>>>>>:>>:>>:>>:>:>:>:>>:$o                 X6ee8tttttt",
"tttttttqeq&     X$>:>>:>>>:>:,6eeeeeeeeeeeeeeeeeeee01>>>>>:>:>>:>>:>>>>>>>:>>>:>>:>>>>>>>:%#X                  *weqttttttt",
"ttttttt8ee8O     @%>>:>>:>>>>>29eeeeeeeeeeeeeeeeeee7>>>>:>>:>:>:>>>:>>:>>>>:>>:>>>>:>>>:>%@.                  O8eetttttttt",
"ttttttttqee4     .$::>:>>>:>>:,7weeeeeeeeeeeeeeeeeq1>:>>>:>>:>>:>:>>>:>:>>:>>:>>>>>>>:>:$o                    4eeqtttttttt",
"ttttttttteew*     X%:>>>:>>>>>>20eeeeeeeeeeeeeeeee7>>>:>>:>>:>>:>:>>:>>>:>:>>>>:>>:>>:%@.                    =weettttttttt",
"ttttttttt0eeq+     o%>>>>:>>>:>,7eeeeeeeeeeeeeeeee1>>>>:>>>>>>>>>>::>>:>>>>>:>>>>:>:%$o                     +qee0ttttttttt",
"ttttttttttqee7o     @%:>:>:>>>>>20eeeeeeeeeeeeeee9:>>:>>:>>>:>>:>>>:>>:>>:>>>>:>>:%$@.                     o7eeqtttttttttt",
"ttttttttttteee4X     @%:>>>>:>:>,6eeeeeeeeeeeeeeq3>>>:>>>>:>>>:>>>>>>>>>:>>:>>>::$@X                      X5eewttttttttttt",
"tttttttttttteew;X     @$:>>>:>>>>10eeeeeeeeeeeee9<>:>>>:>>>:>>>:>>:>>:>>>>>>>::$@X                       X;weetttttttttttt",
"tttttttttttt8weq;.     o#%:>>>:>>>6eeeeeeeeeeeee6,>>:>>>>>>>>>>>>>>>>>>:>>::%$@o.                       X;qee8tttttttttttt",
"ttttttttttttt8eeq;      .@%>:>>>>><0eeeeeeeeeee01>:>>>:>:>>:>>:>>:>>:>>>>>%$O.                         .;wee8ttttttttttttt",
"tttttttttttttt9eee5X      .@%::>>:>3weeeeeeeeee7,,>:>>>>>>:>>>>>:>>:>>:%$@X.                          X6eee8tttttttttttttt",
"ttttttttttttttt9eee6O       X@$%%>:<8eeeeeeeeeq2>>>:>>:>:>:>::>>>>:%%$@o.                            O7eee9ttttttttttttttt",
"tttttttttttttttt9eee9#        .O@%%:10eeeeeeee8<>>:>>:>:>>>:>::%%%#@o.                              #9eee9tttttttttttttttt",
"tttttttttttttttttteee9=X         XO@$4qeeeeeeq5,:>>>:>>>::%%%$@@oX.                               X=0eeetttttttttttttttttt",
"tttttttttttttttttttweeq4+           .@5weeeee8:%%%%%%$$$@@@ooX..                                 +4qeeqttttttttttttttttttt",
"tttttttttttttttttttt0eee8=X           #7eeee0-oXXoooXX..                                       X-9eee0tttttttttttttttttttt",
"ttttttttttttttttttttt8eeeq7#           &9eee6O                                                &7qeew8ttttttttttttttttttttt",
"ttttttttttttttttttttttt0eeew5+          #7q8+                                               +5weee0ttttttttttttttttttttttt",
"tttttttttttttttttttttttt8weeeq4+         o#O                                              +4weeee8tttttttttttttttttttttttt",
"tttttttttttttttttttttttttt0eeeeq5#X                                                    X#5qeeee0tttttttttttttttttttttttttt",
"tttttttttttttttttttttttttttt0eeeeq6*O                                                O*6qeeee0tttttttttttttttttttttttttttt",
"tttttttttttttttttttttttttttttt9weeee94&O                                         .O&40eeeew9tttttttttttttttttttttttttttttt",
"tttttttttttttttttttttttttttttttt8qeeeeq84=+X                                  X+=59qweeeqttttttttttttttttttttttttttttttttt",
"ttttttttttttttttttttttttttttttttttt9qeeeeq074-#o.                        .o#;470weeeeq9ttttttttttttttttttttttttttttttttttt",
"tttttttttttttttttttttttttttttttttttttt9qeeeeewq085;*#+o.          .o+#*;590qweeeewq9tttttttttttttttttttttttttttttttttttttt",
"tttttttttttttttttttttttttttttttttttttttttt0eeeeeeeeeeeeeeeeeeeeeeeeeeeeeeeeeeew0tttttttttttttttttttttttttttttttttttttttttt",
"tttttttttttttttttttttttttttttttttttttttttttttt90qweeeeeeeeeeeeeeeeeeeeeewq09tttttttttttttttttttttttttttttttttttttttttttttt",
"    Xtttttttt     ttttttX     Otttttttttttttttt    tt80qwwee;++++6q0-+    Xtttttt   ttttt    tttttt    ttt.    otttt     t",
"     tttttttO    Otttttt       ttttttttttttttt     &tttttttt+   .ttt&      #tttt     ttt     &tttt+    +tt#     +tt#    ot",
"X    Otttttt     #ttttt#       &tttttttttttttt     &tttttttt#++++ttt&      Otttt     ttt     &tttt+    +tttO    +ttX   .+t",
"o    OtttttO    ottttttX   .   otttttttttttttt     &tttttttttttttttt&       &ttt     ttt     &tttt+    +ttttX    #+    +tt",
"t     ttttto    Ottttt+   X*    #ttttttttttttt     &tttttttt$%%%%ttt&       .ttt     ttt     &tttt+    +tttt&    .    Xttt",
"to    +tttt    XttttttX   +t+   +ttttttttttttt     &tttttttt$>>>>ttt&        +tt     ttt     &tttt+    +ttttt#       .#ttt",
"t#    Xttt+    #ttttt+    tt+   .ttttttttttttt     &tttttttt$>>>>ttt&    X    #t     ttt     &tttt+    +ttttttX      #tttt",
"ttX    ttto   .ttttttO   ottt.   +tttttttttttt     &tttttttt$>>>>ttt&   X#    ot     ttt     &tttt+    +tttttt*     Xttttt",
"tt+    #t+    Ottttt#    X##+    otttttttttttt     &tttttttt$>>>>ttt&   Xt+    +.    ttt     &tttt+    +tttttt.     Xttttt",
"ttt.   Ot+    ttttttO             #ttttttttttt     &tttttttt$>>>>ttt&   XttX   oX    ttt     &tttt+    +ttttt+       +tttt",
"tttX    +    Ottttt&              Ottttttttttt     &tttttttt$>>>>ttt&   Xtt#         ttt     OttttO    +tttt&         #ttt",
"ttt#    X    #tttttO    O     X    #tttttttttt     &tttttttt$>>>>ttt&   XtttO        ttt     ottt#X    +ttt&.   O&    Xttt",
"tttt.       Xttttt&    otttttt&    #tttttttttt     X++++++=t$>>>>ttt&   Xtttt        ttt#      ++      +tttX    #t+    #tt",
"tttt#       Ottttto    +ttttttt     tttttttttt            &t$>>>>ttt&   Xtttt&       tttto            ottt+    ott#     *t",
"ttttt      .ttttt&     &ttttttt+    #ttttttttt            &t$>>>>ttt&   Xttttto      tttt*+         .#ttt#.   .tttt+    .t",
"tttttX     #ttttto    Ottttttttt    .tttttttttt+++++++++++&t@$$$$ttt#   Xttttt+      tttttt#+X++++o+tttttO    ottttt     +",
"tttttttttttttttttttttttttttttttttttttttttttttttttttttttttttttttttttttttttttttttttttttttttttttttttttttttttttttttttttttttttt",
"tttttttttttttttttttttttttttttttttttttttttttttttttttttttttttttttttttttttttttttttttttttttttttttttttttttttttttttttttttttttttt",
"ttttttttttttttttttttttttttttttttttttttttttttttt#.     tttttttttttttttttttttttttttttttttttttttttttttttttttttttttttttttttttt",
"tttttttttttttttttttttttttttttttttttttttttttttt&  O&+##tttttttttttttttttttttttt#+tttttttttttttttttttttttttttttttttttttttttt",
"tttttttttttttttttttttttttttttttttttttttttttttt+ Otttttttttttttttttttttttttttt   tttttttttttttttttttttttttttttttttttttttttt",
"tttttttttttttttttttttttttttttttttttttttttttttt+ +ttttttt++tttttt#+#tt&.+ Ott+X .++&ttt&OoOX&tttt++tto# &tt&X#.&ttttt#.+ +t",
"tttttttttttttttttttttttttttttttttttttttttttttt+ .*ttttttX Ottttt  tt#  O+X#t      &ttO X+X+ +ttt X-o    ##     #ttt+  +O t",
"ttttttttttttttttttttttttttttttttttttttttttttttto X&ttttt& Otttt+ Otto #tttttt   tttt+ o#ttt+ +tt  X+tt#  o#tto +ttt .&tttt",
"ttttttttttttttttttttttttttttttttttttttttttttttttO  Ottttt XttttO +tto +tttttt   tttt+ &tttt# +tt  +ttt#  #tttO +ttt .&tttt",
"ttttttttttttttttttttttttttttttttttttttttttttttttt#  #tttt+ +ttt Xttt+  &ttttt   tttt       O ott  Otttt .tttt+ +ttt& o*ttt",
"tttttttttttttttttttttttttttttttttttttttttttttttttt+X +ttt# ott& +ttttOX +tttt   ttt&  +++++++#tt  ttttt Xtttt+ +tttt& X+tt",
"ttttttttttttttttttttttttttttttttttttttttttttttttttt&  +tttXXtto tttttt#O &ttt   tttt Xtttttttttt  ttttt Xtttt+ +ttttt+X.+t",
"tttttttttttttttttttttttttttttttttttttttttttttttttttto  ttt# +t +ttttttt&o +tt   tttto #ttttttttt  ttttt Xtttt+ +tttttt+ Xt",
"tttttttttttttttttttttttttttttttttttttttttttttttttttt. otttt +& +tttttttt+  tt  Otttt# Ottttttttt  ttttt Xtttt+ +tttttttO +",
"ttttttttttttttttttttttttttttttttttttttttttttttoO&*&X .ttttt+  Xtttt&&.t+. +ttX  +*;tt+ X+ttX+ttt  ttttt Xtttt+ +tt++ttO  &",
"tttttttttttttttttttttttttttttttttttttttttttttt+..  .Otttttt+  +tttttX.  X+ttttO. .+ttt+X.  .OtttXXtttttXOtttt+X+tt#X  .X&t",
"tttttttttttttttttttttttttttttttttttttttttttttttttttttttttttt  &ttttttttttttttttttttttttttttttttttttttttttttttttttttttttttt",
"tttttttttttttttttttttttttttttttttttttttttttttttttttttttttttO +tttttttttttttttttttttttttttttttttttttttttttttttttttttttttttt",
"tttttttttttttttttttttttttttttttttttttttttttttttttttttttttt*. +tttttttttttttttttttttttttttttttttttttttttttttttttttttttttttt",
"ttttttttttttttttttttttttttttttttttttttttttttttttttttttt&##o Ottttttttttttttttttttttttttttttttttttttttttttttttttttttttttttt",
"ttttttttttttttttttttttttttttttttttttttttttttttttttttttt+   +tttttttttttttttttttttttttttttttttttttttttttttttttttttttttttttt"
};
