/* XPM */
static char * exit1_xpm[] = {
"16 16 182 2",
"  	c None",
". 	c #CECECD",
"+ 	c #D7D7D5",
"@ 	c #CFCFCE",
"# 	c #D0D0CE",
"$ 	c #CFCECB",
"% 	c #DCDAD8",
"& 	c #EEEDEC",
"* 	c #FAFAFA",
"= 	c #FEFEFE",
"- 	c #CECBC7",
"; 	c #CFCDC9",
"> 	c #C4C3C0",
", 	c #D1D1CE",
"' 	c #CDCDCB",
") 	c #C6C4BF",
"! 	c #E7E5E3",
"~ 	c #FFFFFF",
"{ 	c #EEEDEB",
"] 	c #D7D5D1",
"^ 	c #C8C6C0",
"/ 	c #C3C0BA",
"( 	c #AFADA9",
"_ 	c #CACAC7",
": 	c #CACAC9",
"< 	c #CBCBCA",
"[ 	c #D6D6D4",
"} 	c #C4C2BD",
"| 	c #DDDBD8",
"1 	c #ADA8A0",
"2 	c #ACA8A0",
"3 	c #ACA79F",
"4 	c #918C86",
"5 	c #969590",
"6 	c #CBCBC8",
"7 	c #D1D0CE",
"8 	c #CCCBC6",
"9 	c #D2D0CC",
"0 	c #494744",
"a 	c #C8C5C0",
"b 	c #B3AFA9",
"c 	c #726F6B",
"d 	c #9A9892",
"e 	c #ADACAA",
"f 	c #D0CFCD",
"g 	c #E5E3E1",
"h 	c #E8E7E5",
"i 	c #B1ADA6",
"j 	c #484643",
"k 	c #B8B6B3",
"l 	c #474643",
"m 	c #4D4B48",
"n 	c #CCC9C5",
"o 	c #A9A59F",
"p 	c #868581",
"q 	c #CECECC",
"r 	c #C9C7C2",
"s 	c #F6F6F5",
"t 	c #C3BFB9",
"u 	c #A59F96",
"v 	c #8B867E",
"w 	c #43403D",
"x 	c #42403C",
"y 	c #44413D",
"z 	c #CECBC6",
"A 	c #B2ADA5",
"B 	c #A49E95",
"C 	c #696764",
"D 	c #C6C5C2",
"E 	c #BAB9B5",
"F 	c #ADA8A1",
"G 	c #A5A098",
"H 	c #8A867F",
"I 	c #43413D",
"J 	c #454340",
"K 	c #C4C1BC",
"L 	c #A49F97",
"M 	c #9D9991",
"N 	c #5D5C58",
"O 	c #BBB9B6",
"P 	c #C3C2BF",
"Q 	c #F6F5F5",
"R 	c #A29D95",
"S 	c #75716C",
"T 	c #413F3C",
"U 	c #C2BFBA",
"V 	c #A19C94",
"W 	c #88847E",
"X 	c #676562",
"Y 	c #C3C3BF",
"Z 	c #C1C0BB",
"` 	c #989389",
" .	c #67625B",
"..	c #393733",
"+.	c #413F3B",
"@.	c #BDBAB4",
"#.	c #393732",
"$.	c #B6B2AB",
"%.	c #625E57",
"&.	c #75736D",
"*.	c #C4C3BE",
"=.	c #C4C2BF",
"-.	c #C7C6C1",
";.	c #B0ACA5",
">.	c #726D65",
",.	c #373531",
"'.	c #3A3834",
").	c #BAB7B1",
"!.	c #898378",
"~.	c #888277",
"{.	c #373530",
"].	c #3C3A35",
"^.	c #A29F99",
"/.	c #514E4A",
"(.	c #95928D",
"_.	c #C5C3C0",
":.	c #C3C3C0",
"<.	c #C0BDB9",
"[.	c #787369",
"}.	c #9D9992",
"|.	c #A9A69F",
"1.	c #79746A",
"2.	c #777268",
"3.	c #8C887F",
"4.	c #8B8882",
"5.	c #62615D",
"6.	c #676560",
"7.	c #A9A7A2",
"8.	c #C1C1BE",
"9.	c #C2C2BF",
"0.	c #C1C1BF",
"a.	c #B5B4B1",
"b.	c #AEABA6",
"c.	c #807B71",
"d.	c #797368",
"e.	c #787368",
"f.	c #736E63",
"g.	c #656056",
"h.	c #534F48",
"i.	c #474540",
"j.	c #65625C",
"k.	c #A09D97",
"l.	c #B8B7B3",
"m.	c #C3C3C1",
"n.	c #D4D4D4",
"o.	c #D0D1D0",
"p.	c #C9C8C6",
"q.	c #B8B6B4",
"r.	c #B4B2AE",
"s.	c #9E9B94",
"t.	c #928E86",
"u.	c #4C4A45",
"v.	c #514F4A",
"w.	c #625F5A",
"x.	c #827F79",
"y.	c #AAA8A3",
"z.	c #C2C1BF",
"A.	c #D0D0CF",
"B.	c #D2D2D1",
"C.	c #E2E3E1",
"D.	c #E0E0DE",
"E.	c #DEDEDB",
"F.	c #DAD9D8",
"G.	c #D2D1D0",
"H.	c #C8C7C4",
"I.	c #BDBBB6",
"J.	c #BCBAB5",
"K.	c #C6C5C1",
"L.	c #D4D4D2",
"M.	c #DDDDDB",
"N.	c #DFDFDD",
"O.	c #DEDEDD",
"P.	c #DADADA",
"Q.	c #D9D9D9",
"R.	c #D7D7D7",
"S.	c #D8D8D7",
"T.	c #D5D5D4",
"U.	c #D4D4D3",
"V.	c #D6D6D5",
"W.	c #D6D6D6",
"X.	c #D5D5D5",
"Y.	c #D7D8D7",
". . . . . . . . . . . . + + + + ",
". . @ # $ % & * = - ; > , . + + ",
"' ' ' ) ! ~ { ] ^ / / / ( _ : < ",
"[ [ } | ~ - 1 1 2 3 4 4 3 5 6 @ ",
"7 7 8 ~ 9 0 0 a b c 0 0 - d e f ",
"6 6 g h i j j j k l l m n o p q ",
"r r s t u v w w w x y z A B C D ",
"E E ~ F G G H I I J K L L M N O ",
"P P Q R R S x x x T T U V W X Y ",
"Z Z | `  .....+.@.#.#.#.$.%.&.*.",
"=.=.-.;.>.,.'.).!.~.{.].^./.(._.",
":.:.: <.[.}.|.1.[.2.3.4.5.6.7.8.",
"9.9.0.a.b.c.d.e.f.g.h.i.j.k.l.m.",
"n.n.o.p.q.r.s.t.u.v.w.x.y.z.A.B.",
"C.C.D.E.F.G.H.I.J.J.J.K.L.M.N.O.",
"P.P.P.Q.Q.R.S.T.U.U.U.V.W.X.Y.U."};
