/* XPM */
static char * next2_xpm[] = {
"64 16 267 2",
"  	c None",
". 	c #131313",
"+ 	c #020202",
"@ 	c #151515",
"# 	c #141414",
"$ 	c #171717",
"% 	c #161616",
"& 	c #181818",
"* 	c #363736",
"= 	c #414240",
"- 	c #3A3A38",
"; 	c #4B4B49",
"> 	c #4A4B49",
", 	c #4A4A49",
"' 	c #494A49",
") 	c #4B4B4A",
"! 	c #4A4A48",
"~ 	c #494A48",
"{ 	c #4B4C4A",
"] 	c #4C4C4A",
"^ 	c #4C4C4B",
"/ 	c #4D4D4B",
"( 	c #4C4D4B",
"_ 	c #4D4E4C",
": 	c #4E4E4C",
"< 	c #4D4D4C",
"[ 	c #4E4F4D",
"} 	c #484847",
"| 	c #7B7C78",
"1 	c #E0E2DB",
"2 	c #3F3F3E",
"3 	c #868783",
"4 	c #81827E",
"5 	c #80817E",
"6 	c #7F807E",
"7 	c #7F7F7C",
"8 	c #7F807D",
"9 	c #7E7F7B",
"0 	c #7E7E7B",
"a 	c #7E7F7C",
"b 	c #7D7E7B",
"c 	c #80817D",
"d 	c #82837F",
"e 	c #81827F",
"f 	c #848481",
"g 	c #858683",
"h 	c #858682",
"i 	c #878884",
"j 	c #898986",
"k 	c #898A86",
"l 	c #898A87",
"m 	c #8A8A88",
"n 	c #8A8B88",
"o 	c #8A8B87",
"p 	c #888985",
"q 	c #888986",
"r 	c #666666",
"s 	c #8C8D89",
"t 	c #8B8C88",
"u 	c #C7C9C5",
"v 	c #FEFEFE",
"w 	c #1A1A1A",
"x 	c #50504F",
"y 	c #919291",
"z 	c #D7D7D5",
"A 	c #000000",
"B 	c #CDCDCB",
"C 	c #CCCDCA",
"D 	c #CFCECC",
"E 	c #CECDCC",
"F 	c #CCCBC9",
"G 	c #CACAC8",
"H 	c #C9CAC7",
"I 	c #C8C7C6",
"J 	c #C9C9C7",
"K 	c #C7C6C4",
"L 	c #C7C6C5",
"M 	c #C8C7C4",
"N 	c #CACAC7",
"O 	c #C9C8C6",
"P 	c #C8C8C6",
"Q 	c #C8C7C5",
"R 	c #C7C7C4",
"S 	c #C6C6C3",
"T 	c #CBCAC8",
"U 	c #CCCBC8",
"V 	c #CBCBC9",
"W 	c #CAC9C8",
"X 	c #CAC9C7",
"Y 	c #DBDDDA",
"Z 	c #030303",
"` 	c #B1B2AF",
" .	c #BFBFBE",
"..	c #B6B6B4",
"+.	c #B9B9B7",
"@.	c #BBBBB8",
"#.	c #BBBBB9",
"$.	c #BABAB8",
"%.	c #BBBAB8",
"&.	c #BCBCB9",
"*.	c #BDBDBB",
"=.	c #BEBEBC",
"-.	c #BCBCBA",
";.	c #B8B8B6",
">.	c #B7B8B5",
",.	c #B7B7B4",
"'.	c #B6B7B4",
").	c #B8B8B5",
"!.	c #B7B8B6",
"~.	c #B9B8B7",
"{.	c #B9B9B6",
"].	c #B6B7B5",
"^.	c #B8B7B5",
"/.	c #BAB9B7",
"(.	c #B7B6B4",
"_.	c #B6B5B3",
":.	c #B5B5B3",
"<.	c #FDFDFD",
"[.	c #434442",
"}.	c #939590",
"|.	c #DBDBD9",
"1.	c #CFCFCD",
"2.	c #CECFCC",
"3.	c #D0D0CD",
"4.	c #D1D1D0",
"5.	c #D2D3D1",
"6.	c #D4D4D2",
"7.	c #D3D4D2",
"8.	c #D2D2D0",
"9.	c #D3D4D1",
"0.	c #D0D0CE",
"a.	c #CDCECC",
"b.	c #CACBC8",
"c.	c #CBCBC8",
"d.	c #CCCCCA",
"e.	c #D1D2CF",
"f.	c #D1D1CF",
"g.	c #C8C9C7",
"h.	c #E5E8E1",
"i.	c #444542",
"j.	c #949691",
"k.	c #D9D9D8",
"l.	c #CFCFCE",
"m.	c #D3D3D1",
"n.	c #D5D5D3",
"o.	c #D6D6D3",
"p.	c #D7D8D6",
"q.	c #D7D7D4",
"r.	c #D9D9D7",
"s.	c #DADAD8",
"t.	c #D9DAD8",
"u.	c #D9DAD7",
"v.	c #DBDBDA",
"w.	c #DCDCDA",
"x.	c #DCDCDB",
"y.	c #DEDEDD",
"z.	c #DFDFDD",
"A.	c #DFDFDE",
"B.	c #E0E0DE",
"C.	c #E2E2E0",
"D.	c #E0E0DF",
"E.	c #E1E3DB",
"F.	c #93958F",
"G.	c #CECECD",
"H.	c #CCCCCB",
"I.	c #CCCCCC",
"J.	c #CECFCD",
"K.	c #CECFCE",
"L.	c #CDCDCC",
"M.	c #CACAC9",
"N.	c #CBCBCB",
"O.	c #CDCECD",
"P.	c #D4D4D3",
"Q.	c #D8D9D8",
"R.	c #DBDBDB",
"S.	c #DADADA",
"T.	c #FFFFFF",
"U.	c #DCDCDC",
"V.	c #E7EAE1",
"W.	c #92948E",
"X.	c #D3D3D2",
"Y.	c #D2D3D0",
"Z.	c #D1D2D0",
"`.	c #D0D0CF",
" +	c #EDEFE7",
".+	c #434441",
"++	c #D6D6D4",
"@+	c #D8D8D7",
"#+	c #D7D7D6",
"$+	c #D2D2D1",
"%+	c #CDCECB",
"&+	c #CBCBCA",
"*+	c #DFE0D9",
"=+	c #474745",
"-+	c #9B9D97",
";+	c #C5C5C3",
">+	c #C7C7C5",
",+	c #C9CAC8",
"'+	c #CCCCC9",
")+	c #C8C8C7",
"!+	c #CECECC",
"~+	c #D1D1CE",
"{+	c #CCCDCB",
"]+	c #E0E3DA",
"^+	c #474846",
"/+	c #9C9E98",
"(+	c #CACBC9",
"_+	c #D6D6D5",
":+	c #D8D9D7",
"<+	c #C7C7C6",
"[+	c #C4C5C3",
"}+	c #D2D4CC",
"|+	c #484946",
"1+	c #979993",
"2+	c #D6D5D3",
"3+	c #D3D2D1",
"4+	c #D2D1D0",
"5+	c #D4D4D1",
"6+	c #D7D6D4",
"7+	c #D8D7D6",
"8+	c #D0CFCE",
"9+	c #C9C8C7",
"0+	c #C6C6C4",
"a+	c #C6C5C4",
"b+	c #C8C9C6",
"c+	c #CBCEC7",
"d+	c #050504",
"e+	c #535450",
"f+	c #9B9C97",
"g+	c #CDCCCB",
"h+	c #D8D8D6",
"i+	c #D5D5D2",
"j+	c #E4E6DE",
"k+	c #0F0F0F",
"l+	c #E2E5DE",
"m+	c #E5E8E0",
"n+	c #DDE0D8",
"o+	c #DBDCD6",
"p+	c #DFE1D9",
"q+	c #DEE0D8",
"r+	c #E0E3DB",
"s+	c #DEE0D9",
"t+	c #E1E4DC",
"u+	c #DFE1DB",
"v+	c #E1E4DB",
"w+	c #E3E5DD",
"x+	c #E3E4DD",
"y+	c #DCDFD6",
"z+	c #D7DAD2",
"A+	c #D6D9D1",
"B+	c #D8DBD3",
"C+	c #D5D7D0",
"D+	c #D4D6CE",
"E+	c #D3D6D0",
"F+	c #D3D6CE",
"G+	c #D1D4CC",
"H+	c #D2D5CD",
"I+	c #D1D3CB",
"J+	c #D6D8D0",
"K+	c #D0D2CA",
"L+	c #CCCEC7",
"M+	c #D0D3CB",
"N+	c #D5D7CF",
"O+	c #CED1CA",
"P+	c #DADCD3",
"Q+	c #3B3C3A",
"R+	c #EBEEE5",
". . . + @ @ . @ @ . # # # # # # . # @ $ $ $ % % % % @ # @ % @ @ @ % % % @ @ @ % % $ $ & & $ % # @ @ @ % % @ @ @ @ % $ $ $ $ & * ",
"@ $ = - ; > > , , > ' ' > > ; ) ! ~ ! ) { { { { { ; { ; ; ; ; ; ; ] { ^ / ( ^ ( ( _ : < < < : : : : : : : : [ : : ; } ~ } ; | 1 ",
". 2 3 4 5 6 7 8 8 8 9 0 a b b a 7 8 7 8 8 c d 4 d d e e e 4 4 d e d 4 f f g 3 g h g i j k l m l n o p q o o r s t k t s t s u v ",
"w x y z A A A B B A A A C A D E A E A A A F G H I J K L L I M J N O P M M M G G G O Q K R M S P N N N N T U r A V C V W X V Y v ",
"Z [ `  .A ..+.A @.A #.$.#.A %.&.A *.=.A -.$.%.%.+.;.>.,.'.;.,.).).+.!.+.;.;.~.+.{.).;.;.+.~.).].).^.;./.{.;.r A A (..._.:.:.<.v ",
"Z [.}.|.A 1.1.A 2.A 3.4.5.A 6.4.A 5.7.A 8.9.7.7.5.5.4.5.0.5.4.4.3.1.1.3.a.V V b.b.V c.d.2.2.e.f.3.0.r r r r r A A A d.H g.c.h.v ",
"+ i.j.k.A l.f.A m.A n.6.7.A 9.o.A 8.4.A n.n.n.p.q.r.s.s.t.u.t.t.t.v.s.w.w.x.w.y.y.z.A.A.B.C.D.D.D.C.r A A A A A A A A z.z.y.E.v ",
"Z i.F.G.A H.I.A J.A 0.0.K.A J.K.A 0.0.A L.I.H.V M.M.M.M.V N.a.a.0.H.V O.4.4.5.4.4.5.5.P.n.p.Q.R.S.v.r A A A A A A A A A T.U.V.v ",
"Z i.W.X.A X.P.A f.A A Y.P.Y.A A P.n.P.A P.9.Y.5.P.Z.Y.5.P.Z.Z.Z.`.`.f.Z.Y.f.5.Y.Y.P.4.4.4.f.2.J.a.2.r A A A A A A A A A T.Y. +v ",
"Z .+W.f.A X.n.A p.A z q.++A @+@+A #+P.A $+6.X.P.P.P.P.z #+P.P.m.e.l.l.1.a.a.%+&+d.d.c.H.&+d.2.2.H.2.r A A A A A A A A T.0.J.*+v ",
"Z =+-+m.A ;+;+A >+A c.,+,+A ,+H A H b.A '+)+,+,+d.,+d.d.!+~+l.1.1.4.l.f.l.l.G.l.1.~+!+!+C l.1.l.Y.5.Z.T.T.T.G.A A A T.{+J.l.]+v ",
"+ ^+/+(+A 6.m.A X.A P.X.X.A P.++A 7.++A ++_+:+s.s._+9.7.7.P.m.m.P.P.P.P.7.7.6.6.f.!+L.B L.d.J.J.4.0.0.J.a.B r A A T.g.<+<+[+}+v ",
"+ |+1+B A 2+9.A 2+A A A 6.A 3+4+A 1.8.A 5+4+8.m.6.6.o.6+t.7+u.7+7+z 2+3+8+D '+'+X B W W 9+9+H H H G M 0+0+;+r A T.a+L >+>+b+c+v ",
"d+e+f+g+++++6.6.q.q.n.h+h+q.q.r.++h+n.n.6.6.6.6.6.m.m.m.6.6.6.m.6.m.6.n.q.q.n.5+e.Y.n.6.i+n.n.o.o.o.o.o.h+q.q.T.++n.n.q.q.o.j+v ",
"k+}.l+m+n+o+p+q+r+r+s+p+t+u+v+w+x+v+q+y+y+z+A+B+B+B+z+z+C+D+A+E+C+F+C+G+H+H+I+H+I+F+J+F+I+K+L+M+M+M+I+N+H+H+O+K+I+K+K+F+I+P+v v ",
"Q+R+v v v v v v v v v v v v v v v v v v v v v v v v v v v v v v v v v v v v v v v v v v v v v v v v v v v v v v v v v v v v v v "};
