<?xml version="1.0" encoding="utf-8"?>
<!-- Generator: Adobe Illustrator 14.0.0, SVG Export Plug-In . SVG Version: 6.00 Build 43363)  -->
<!DOCTYPE svg PUBLIC "-//W3C//DTD SVG 1.0//EN" "http://www.w3.org/TR/2001/REC-SVG-20010904/DTD/svg10.dtd">
<svg version="1.0" id="Layer_1" xmlns="http://www.w3.org/2000/svg" xmlns:xlink="http://www.w3.org/1999/xlink" x="0px" y="0px"
	 width="100px" height="100px" viewBox="0 0 100 100" enable-background="new 0 0 100 100" xml:space="preserve">
<path d="M80.592,61.185H69.188v-22.37h11.404c10.702,0,19.408-8.706,19.408-19.408C100,8.706,91.294,0,80.592,0
	c-10.7,0-19.407,8.706-19.407,19.407v11.405H38.815V19.407C38.815,8.706,30.108,0,19.407,0S0,8.706,0,19.407
	c0,10.702,8.706,19.408,19.407,19.408h11.404v22.37H19.407C8.706,61.185,0,69.891,0,80.592C0,91.294,8.706,100,19.407,100
	s19.408-8.706,19.408-19.408V69.188h22.369v11.404c0,10.702,8.707,19.408,19.407,19.408C91.294,100,100,91.294,100,80.592
	C100,69.891,91.294,61.185,80.592,61.185z M69.188,19.407c0-6.288,5.116-11.404,11.404-11.404c6.289,0,11.405,5.116,11.405,11.404
	c0,6.289-5.116,11.405-11.405,11.405H69.188V19.407z M19.407,30.812c-6.288,0-11.404-5.116-11.404-11.405
	c0-6.288,5.116-11.404,11.404-11.404c6.289,0,11.404,5.116,11.404,11.404v11.405H19.407z M30.812,80.592
	c0,6.289-5.115,11.404-11.404,11.404c-6.288,0-11.404-5.115-11.404-11.404c0-6.288,5.116-11.404,11.404-11.404h11.404V80.592z
	 M38.815,61.185v-22.37h22.369v22.37H38.815z M80.592,91.997c-6.288,0-11.404-5.115-11.404-11.404V69.188h11.404
	c6.289,0,11.405,5.116,11.405,11.404C91.997,86.881,86.881,91.997,80.592,91.997z"/>
</svg>
