/* XPM */
static char *valogo[] = {
/* width height num_colors chars_per_pixel */
"    61    63       33            1",
/* colors */
". c #000000",
"# c #080808",
"a c #101010",
"b c #101818",
"c c #202020",
"d c #282828",
"e c #202c38",
"f c #383c40",
"g c #304060",
"h c #385070",
"i c #484c48",
"j c #585858",
"k c #606060",
"l c #686868",
"m c #787878",
"n c #406088",
"o c #486490",
"p c #506c90",
"q c #587498",
"r c #6880a0",
"s c #7084a8",
"t c #7890a8",
"u c #909090",
"v c #90a0b0",
"w c #98a8c0",
"x c #a8b4c0",
"y c #b8c4c8",
"z c #c8d0d8",
"A c #d8dcd8",
"B c #e8e8e8",
"C c #f0f4f0",
"D c #f8fcf8",
"E c none",
/* pixels */
"EEEEEEEEEEEEEEEEEEEEEEEEEEEEEEEEEEEEEEEEEEEEEEEEEEEEEEEEEEEEE",
"EEEEEEEEEEEEEEEEEEEEEEEEEEEEEEEEEEEEEEEEEEEEEEEEEEEEEEEEEEEEE",
"EEEEEEEEEEEEEEEEEEEEEEEEzAABCDDDDCBAAzEEEEEEEEEEEEEEEEEEEEEEE",
"EEEEEEEEEEEEEEEEEEEEABCCBzvuummumuuvzBCCBAEEEEEEEEEEEEEEEEEEE",
"EEEEEEEEEEEEEEEEEABBAvjd#.#........#.#ejuABBAEEEEEEEEEEEEEEEE",
"EEEEEEEEEEEEEEEBBBvf#....................#guBBBEEEEEEEEEEEEEE",
"EEEEEEEEEEEEEBBBlb...........#.........#b...blABBEEEEEEEEEEEE",
"EEEEEEEEEEEzBBm##......#..#...#..#....#wBj..###mBBzEEEEEEEEEE",
"EEEEEEEEEEABvc.#...#....#...#..#bbeegelCDBf...#.cvCAEEEEEEEEE",
"EEEEEEEEEAAj#....#...#....##eghnooooopACCDAhec...#kBAEEEEEEEE",
"EEEEEEEEBAg#..#....#...##ehoooooooooosCCDDCxonhe..#gBBEEEEEEE",
"EEEEEEEBAe.....#.....#egoooooooooooooEDDDDDCrooohb..cABEEEEEE",
"EEEEEEAAe....#...#.#egoooooooooooooorCDDDDDDEoooone..eBBEEEEE",
"EEEEEAAg#......#..bhoooooooooooooooowDDDDDDDCsoooone..fBAEEEE",
"EEEEzAr#.....#..#eoooooooooooooooooqBDDDDDDDDEpoooonb..mBzEEE",
"EEEEBE##.......bhoooooooooooooooooovDDDDDDDDDCrooooog..#zAEEE",
"EEEzBf#.....#.enooooooooooooooooooqADDDDDDDDDDxooooonc..fBzEE",
"EEEBE........enooooooooooooooooooovCCDDBzzCDDDBqooooof..#EBEE",
"EEEBk.....#.enoooooooooooooooooooqACDBvqsrqwCDDvooooog...jBEE",
"EEzBb......cooooooooooooooooooooowDCEqrACCEprADzoooooh..#bBzE",
"EEBE...#..#noooooooooooooooooooorCCvpoEDDDDvorABrooooh...#zAE",
"EEBu#...#.goooooooooooooooooooooEBsoopBDDDDEoorBvoooog....uBE",
"EECu.....enoooooooooooooooooooovArooopzDDDDvoooswooooe....uBE",
"EECm..#..goooooooooptvqooooooorEqooooosBDDzpoooosooonb..#.mCE",
"EECu....booooroooopzCCBsoooooqEroooooooqvtpoooooooooh.....uCE",
"EECm..#.eooooxsooowDDDDzoooorAvoooooooooooooooooooonc..#..mCE",
"EEBu#..#goooovArooEDDDDApoosBEooooooooooooooooooooog.....#uBE",
"EEBE...#hooooqCzrovDDDDEppvCBroooooooooooooooooooon#..#...zAE",
"EEzCb..#hoooopzDAroECDzrqEDDwoooooooooooooooooooonc....#.cBzE",
"EEECj#..hooooovCCCwqrrqvBDDAqooooooooooooooooooone...#...jBEE",
"EEEBy.#.fooooopBCDDCzzBDDDDvooooooooooooooooooone......##yBEE",
"EEEzBf#.booooopxCCDDDDDDDDApoooooooooooooooooonc.....#..fCzEE",
"EEEEBE#.#hooooosBCDDDDDDDDvoooooooooooooooooohb....#...#zBEEE",
"EEEEzCm..bnoooopEDDDDDDDDBpoooooooooooooooooe#.......#.mDEEEE",
"EEEEEBCf..enoooosCDDDDDDDwooooooooooooooonhb#...#..#..fCBEEEE",
"EEEEEEBBc..enooooEDDDDDDBqoooooooooooooohc.#.....#...eBBEEEEE",
"EEEEEEEBAc..bhooorCDDDDDEpoooooooooooogc#....#.....#cABEEEEEE",
"EEEEEEEECBf...ehnowDDDDDsooooooooonhe##..#....#..#.fBCEEEEEEE",
"EEEEEEEEEBCk#...bfhADDDAoooooonhge##......#....#.#kCBEEEEEEEE",
"EEEEEEEEEEBCvc.....iBDDkegeeea##....#..#...#....cvDAEEEEEEEEE",
"EEEEEEEEEEEzDBm#....jBva......#...#.....#...#.#mBDzEEEEEEEEEE",
"EEEEEEEEEEEEEACAma#..ba.............#....#..bmACBEEEEEEEEEEEE",
"EEEEEEEEEEEEEEzABBuf#.....#..#..#....#...#fuBCBEEEEEEEEEEEEEE",
"EEEEEEEEEEEEEEEEEABCAuje#.....#...#..#ejvACBAEEEEEEEEEEEEEEEE",
"EEEEEEEEEEEEEEEEEEEEABCDByvuummumuuvyCDDBAEEEEEEEEEEEEEEEEEEE",
"kkoEEEEqnvEEvnkqEEEEEEEEmuABCDAuuAzummEEEjvEEokEEEokEvnlvEtok",
"##.vEEo##mEEg##.wEEEEEEk..uEEEmbcEu...mEk##Ek##sEm##qw##aEb#b",
"l#.kEEa##EEw.#b.iEEEEEEo#.sEEEvstEs...bEo..Eo#.uEq#.mEm##c##v",
"Eb#aEw..mEEf.fm##EEEEEEk#.uEEEsooEu..#.ik#.Ek..sEm..mEEf#..iE",
"El##wf.#EEw##iq#.qEEEEEo#.sEEEsooEs##i##f#.Ek#.uEm.#mEEm###EE",
"EE#.f##kEEi#..#..cEEEEEk#.uEEEsooEu.#Eb.#.#Eo..mEm#.qEwa#..iE",
"EEg.#.#wEw##fkji#.mEEEEo#.jmmrrpoEs.#Ev....Em..fqb..mEc.bi##w",
"EEv#..fEEi#.mEEE##fEEEEk.....dsooEu.#EEi#..EEe..#..iEi#.vw#.b",
"EEEkkovEEoklEEEEvjqEEEEEmqmmmmvssEvkkEEvjokEEEmlqmvEEkokEEtkk",
"EEEEEEEEEEEEEEEEEEEEEEEEqkktEEEEEEEEEEEEEEEEEEEEEEEEEEEEEEEEE",
"EEEEEEEEEEEEEEEEEEEEEEEsarmwEEEEEEEEEEEglEEEEEEEEEEEEEEEEEEEE",
"EEEEEEEEEEEEEEEEEEEEEEEv#mEEmgEEhjtchms#ekwffhfwkgjffiibvEffi",
"EEEEEEEEEEEEEEEEEEEEEEEEvagEEavEavlavEE#jElbkkclkbEw.wEaqEbkE",
"EEEEEEEEEEEEEEEEEEEEEEEEEvciEgmmfEEibwE.oEgiqmqwnkEE#EEbmEwai",
"EEEEEEEEEEEEEEEEEEEEEEEEEEk#EvbfmEEEjaE.mEmbEEEElnEE#EEbmEEv#",
"EEEEEEEEEEEEEEEEEEEEEEErceavEEc#EEjgaiEf#fEibkcEklEEbEEcmqffb",
"EEEEEEEEEEEEEEEEEEEEEEEEEEEEEEfiEEEEEEEEEEEEEEEEEEEEEEEEEEEEE",
"EEEEEEEEEEEEEEEEEEEEEEEEEEEEsk#wEEEEEEEEEEEEEEEEEEEEEEEEEEEEE"
};
