<?xml version="1.0" standalone="yes"?>
<svg width="1400" height="1400">
<path style="fill:#fefefe; stroke:none;" d="M0 0L0 1400L1400 1400L1400 0L0 0z"/>
<path style="fill:#aaaaaa; stroke:none;" d="M726 69L726 72L728 72L728 69L726 69z"/>
<path style="fill:#565656; stroke:none;" d="M726 72L726 74L728 74L728 72L726 72z"/>
<path style="fill:#020202; stroke:none;" d="M726 74C724.726 90.1356 720.946 106.07 718.286 122C714.147 146.786 709.809 172.647 697.691 195C692.941 203.763 687.434 212.226 681.192 220C679.374 222.265 676.234 227.401 672.714 225.94C665.124 222.787 657.143 212.009 651.714 205.961C631.584 183.534 619.721 154.959 609.206 127C605.441 116.989 601.486 94.4515 593 88C594.956 98.5334 594.361 109.357 595.089 120C597.214 151.017 598.469 183.794 590.31 214C586.86 226.771 579.456 237.737 575 250C559.094 241.631 542.873 231.699 530.089 218.911C504.556 193.368 489.558 159.462 468 131L467 131C467.245 141.47 472.243 151.942 474.911 162C481.045 185.12 487.275 209.168 489.826 233C492.03 253.583 484.434 272.133 482 292C444.95 282.39 418.849 262.827 391.428 236.804C379.073 225.078 365.319 204.149 350 197C365.447 235.618 392.306 269.79 398.421 312C399.829 321.72 400.004 331.195 400 341C399.999 344.194 400.861 349.926 397.566 351.883C395.179 353.301 390.641 352.127 388 351.914C378.564 351.156 369.124 349.317 360 346.849C333.222 339.605 309.069 324.45 286 309.265C275.439 302.313 263.283 290.186 251 287C280.059 333.466 330.96 370.93 331 431C337.016 426.294 341.086 418.902 345.923 413C356.58 399.996 367.094 386.925 379 375C418.042 335.895 462.156 303.058 511.424 277.953C664.979 199.709 849.001 214.927 993 305.63C1027.95 327.648 1060.53 355.289 1088.17 386C1098.95 397.976 1113.23 411.206 1120 426C1124.39 423.186 1124.07 416.743 1125.29 412C1128.17 400.749 1130.77 389.794 1135.33 379C1144.95 356.267 1162.62 335.406 1178.48 316.714C1186.49 307.269 1198.17 296.406 1203 285C1190.29 289.659 1178.36 299.99 1167 307.326C1144.52 321.837 1120.87 336.375 1095 343.576C1085.89 346.111 1064.29 354.067 1055.43 347.972C1052.41 345.894 1053.01 341.17 1053 338C1052.98 328.375 1053.87 318.523 1055.27 309C1059.7 278.944 1075.78 250.729 1089.43 224C1094.24 214.56 1100.86 205.13 1104 195C1093.39 200.571 1084.47 213.583 1075.96 221.975C1048.88 248.688 1011.15 288.036 970 289C967.89 272.314 961.955 254.957 963.089 238C965.603 200.415 980.884 165.568 988 129C982.361 131.865 980.574 138.766 977.29 143.83C970.953 153.603 964.046 163.008 957.866 172.911C940.002 201.537 910.563 239.287 876 248C874.05 232.367 863.298 216.913 860.003 201C855.355 178.551 856.966 155.724 857.961 133C858.612 118.122 858.271 102.701 861 88C856.694 90.8453 856.143 96.3818 854.465 101C851.073 110.338 847.442 119.84 843.652 129C830.047 161.886 813.53 206.583 780.015 224.624C775.686 226.953 773.121 222.031 770.884 219C764.991 211.016 759.884 202.618 755 194C736.013 160.494 730.993 111.925 728 74L726 74z"/>
<path style="fill:#b2b2b2; stroke:none;" d="M860 83L861 88L862 88L860 83z"/>
<path style="fill:#868686; stroke:none;" d="M592 84L595 88L592 84z"/>
<path style="fill:#5a5a5a; stroke:none;" d="M860 85L859 88L860 85z"/>
<path style="fill:#767676; stroke:none;" d="M593 90L593 97L594 97L593 90z"/>
<path style="fill:#6e6e6e; stroke:none;" d="M860 90L860 95L861 95L860 90z"/>
<path style="fill:#5a5a5a; stroke:none;" d="M596 93L597 97L598 97L596 93z"/>
<path style="fill:#bababa; stroke:none;" d="M593 97L593 103L594 103L593 97z"/>
<path style="fill:#8a8a8a; stroke:none;" d="M855.333 97.6666L855.667 98.3334L855.333 97.6666z"/>
<path style="fill:#929292; stroke:none;" d="M854.333 99.6666L854.667 100.333L854.333 99.6666z"/>
<path style="fill:#424242; stroke:none;" d="M859 99L859 103L860 103L859 99z"/>
<path style="fill:#868686; stroke:none;" d="M599.333 100.667L599.667 101.333L599.333 100.667z"/>
<path style="fill:#a2a2a2; stroke:none;" d="M853 103L852 106L853 103z"/>
<path style="fill:#9a9a9a; stroke:none;" d="M594 104L594 117L595 117L594 104z"/>
<path style="fill:#aeaeae; stroke:none;" d="M859 104L859 116L860 116L859 104z"/>
<path style="fill:#929292; stroke:none;" d="M603.333 111.667L603.667 112.333L603.333 111.667z"/>
<path style="fill:#666666; stroke:none;" d="M849.333 113.667L849.667 114.333L849.333 113.667z"/>
<path style="fill:#9e9e9e; stroke:none;" d="M848.333 115.667L848.667 116.333L848.333 115.667z"/>
<path style="fill:#828282; stroke:none;" d="M858 118L858 136L859 136L858 118M595 123L595 146L596 146L595 123z"/>
<path style="fill:#565656; stroke:none;" d="M988 125L988 130L989 130L990 125L988 125z"/>
<path style="fill:#6a6a6a; stroke:none;" d="M844.333 126.667L844.667 127.333L844.333 126.667z"/>
<path style="fill:#6e6e6e; stroke:none;" d="M609.333 127.667L609.667 128.333L609.333 127.667z"/>
<path style="fill:#565656; stroke:none;" d="M465 128L467 132L465 128z"/>
<path style="fill:#6a6a6a; stroke:none;" d="M843.333 128.667L843.667 129.333L843.333 128.667z"/>
<path style="fill:#969696; stroke:none;" d="M610.333 129.667L610.667 130.333L610.333 129.667z"/>
<path style="fill:#8e8e8e; stroke:none;" d="M736 129L736 132L737 132L736 129z"/>
<path style="fill:#7a7a7a; stroke:none;" d="M469.333 132.667L469.667 133.333L469.333 132.667z"/>
<path style="fill:#727272; stroke:none;" d="M716 132L716 135L717 135L716 132z"/>
<path style="fill:#a2a2a2; stroke:none;" d="M841.333 132.667L841.667 133.333L841.333 132.667z"/>
<path style="fill:#8e8e8e; stroke:none;" d="M715.333 137.667L715.667 138.333L715.333 137.667z"/>
<path style="fill:#525252; stroke:none;" d="M857 137L857 148L858 148L857 137z"/>
<path style="fill:#5e5e5e; stroke:none;" d="M839.333 138.667L839.667 139.333L839.333 138.667z"/>
<path style="fill:#727272; stroke:none;" d="M738 140L738 143L739 143L738 140z"/>
<path style="fill:#8e8e8e; stroke:none;" d="M714 142L714 145L715 145L714 142z"/>
<path style="fill:#424242; stroke:none;" d="M977 143L976 146L977 143z"/>
<path style="fill:#8e8e8e; stroke:none;" d="M739 145L739 148L740 148L739 145z"/>
<path style="fill:#767676; stroke:none;" d="M836.333 145.667L836.667 146.333L836.333 145.667z"/>
<path style="fill:#8a8a8a; stroke:none;" d="M835.333 147.667L835.667 148.333L835.333 147.667z"/>
<path style="fill:#9e9e9e; stroke:none;" d="M857 148L857 180L858 180L857 148z"/>
<path style="fill:#727272; stroke:none;" d="M740 150L740 153L741 153L740 150z"/>
<path style="fill:#868686; stroke:none;" d="M619.333 151.667L619.667 152.333L619.333 151.667z"/>
<path style="fill:#6e6e6e; stroke:none;" d="M833.333 152.667L833.667 153.333L833.333 152.667z"/>
<path style="fill:#4a4a4a; stroke:none;" d="M981 152L980 157L981 157L981 152z"/>
<path style="fill:#9a9a9a; stroke:none;" d="M472 153L472 156L473 156L472 153z"/>
<path style="fill:#5e5e5e; stroke:none;" d="M474 159L474 163L475 163L474 159z"/>
<path style="fill:#727272; stroke:none;" d="M742.333 159.667L742.667 160.333L742.333 159.667z"/>
<path style="fill:#8e8e8e; stroke:none;" d="M979 159L979 162L980 162L979 159z"/>
<path style="fill:#727272; stroke:none;" d="M743.333 163.667L743.667 164.333L743.333 163.667z"/>
<path style="fill:#969696; stroke:none;" d="M475 164L475 168L476 168L475 164z"/>
<path style="fill:#727272; stroke:none;" d="M744.333 167.667L744.667 168.333L744.333 167.667z"/>
<path style="fill:#5a5a5a; stroke:none;" d="M826 168L825 171L826 168z"/>
<path style="fill:#b2b2b2; stroke:none;" d="M976 170L976 174L977 174L976 170z"/>
<path style="fill:#525252; stroke:none;" d="M957 173L956 176L957 173z"/>
<path style="fill:#727272; stroke:none;" d="M706.333 174.667L706.667 175.333L706.333 174.667M746.333 174.667L746.667 175.333L746.333 174.667z"/>
<path style="fill:#929292; stroke:none;" d="M478 176L478 179L479 179L478 176z"/>
<path style="fill:#828282; stroke:none;" d="M595 176L595 189L596 189L595 176z"/>
<path style="fill:#3e3e3e; stroke:none;" d="M857 180L857 188L858 188L857 180z"/>
<path style="fill:#8a8a8a; stroke:none;" d="M973 182L973 186L974 186L973 182z"/>
<path style="fill:#4e4e4e; stroke:none;" d="M481 187L481 191L482 191L481 187z"/>
<path style="fill:#b2b2b2; stroke:none;" d="M594 190L594 194L595 194L594 190z"/>
<path style="fill:#9a9a9a; stroke:none;" d="M858 190L858 194L859 194L858 190z"/>
<path style="fill:#727272; stroke:none;" d="M482 192L482 196L483 196L482 192z"/>
<path style="fill:#a6a6a6; stroke:none;" d="M1105 192L1105 195L1106 195L1107 192L1105 192z"/>
<path style="fill:#828282; stroke:none;" d="M348 193L352 197L348 193z"/>
<path style="fill:#565656; stroke:none;" d="M1104 193L1105 196L1104 193z"/>
<path style="fill:#4e4e4e; stroke:none;" d="M594 194L594 198L595 198L594 194z"/>
<path style="fill:#626262; stroke:none;" d="M970 194L970 197L971 197L970 194z"/>
<path style="fill:#868686; stroke:none;" d="M483 197L483 200L484 200L483 197M969 199L969 202L970 202L969 199z"/>
<path style="fill:#828282; stroke:none;" d="M1101.33 200.667L1101.67 201.333L1101.33 200.667z"/>
<path style="fill:#8a8a8a; stroke:none;" d="M352.333 201.667L352.667 202.333L352.333 201.667z"/>
<path style="fill:#626262; stroke:none;" d="M484 202L484 205L485 205L484 202z"/>
<path style="fill:#727272; stroke:none;" d="M968 203L968 206L969 206L968 203z"/>
<path style="fill:#6e6e6e; stroke:none;" d="M485 206L485 210L486 210L485 206z"/>
<path style="fill:#929292; stroke:none;" d="M861.333 206.667L861.667 207.333L861.333 206.667z"/>
<path style="fill:#7a7a7a; stroke:none;" d="M967 208L967 211L968 211L967 208z"/>
<path style="fill:#bebebe; stroke:none;" d="M357 211L360 216L357 211z"/>
<path style="fill:#929292; stroke:none;" d="M590 211L590 214L591 214L590 211z"/>
<path style="fill:#bababa; stroke:none;" d="M966 213L966 219L967 219L966 213z"/>
<path style="fill:#969696; stroke:none;" d="M864.333 216.667L864.667 217.333L864.333 216.667z"/>
<path style="fill:#8a8a8a; stroke:none;" d="M1091.33 219.667L1091.67 220.333L1091.33 219.667z"/>
<path style="fill:#7e7e7e; stroke:none;" d="M587.333 221.667L587.667 222.333L587.333 221.667z"/>
<path style="fill:#969696; stroke:none;" d="M866.333 222.667L866.667 223.333L866.333 222.667M363 223L365 226L363 223z"/>
<path style="fill:#929292; stroke:none;" d="M1089 223L1088 227L1089 227L1089 223z"/>
<path style="fill:#9e9e9e; stroke:none;" d="M964 224L964 230L965 230L964 224z"/>
<path style="fill:#7a7a7a; stroke:none;" d="M867.333 225.667L867.667 226.333L867.333 225.667z"/>
<path style="fill:#868686; stroke:none;" d="M365.333 226.667L365.667 227.333L365.333 226.667z"/>
<path style="fill:#969696; stroke:none;" d="M488 226L488 229L489 229L488 226M585.333 226.667L585.667 227.333L585.333 226.667z"/>
<path style="fill:#525252; stroke:none;" d="M701 227L701 228L707 228L701 227z"/>
<path style="fill:#aaaaaa; stroke:none;" d="M707 227L707 228L715 228L707 227M738 227L738 228L748 228L738 227z"/>
<path style="fill:#525252; stroke:none;" d="M748 227L748 228L754 228L748 227M688 228L688 229L692 229L688 228z"/>
<path style="fill:#aaaaaa; stroke:none;" d="M692 228L692 229L696 229L692 228M759 228L759 229L764 229L759 228z"/>
<path style="fill:#525252; stroke:none;" d="M764 228L764 229L768 229L764 228z"/>
<path style="fill:#aaaaaa; stroke:none;" d="M681 229L681 230L685 230L681 229M771 229L771 230L775 230L771 229z"/>
<path style="fill:#4e4e4e; stroke:none;" d="M489 230L489 235L490 235L489 230z"/>
<path style="fill:#8a8a8a; stroke:none;" d="M669 230L669 231L676 231L669 230z"/>
<path style="fill:#9e9e9e; stroke:none;" d="M781 230L781 231L788 231L781 230z"/>
<path style="fill:#7a7a7a; stroke:none;" d="M869.333 230.667L869.667 231.333L869.333 230.667z"/>
<path style="fill:#5a5a5a; stroke:none;" d="M660 231L660 232L667 232L660 231z"/>
<path style="fill:#666666; stroke:none;" d="M790 231L790 232L797 232L790 231z"/>
<path style="fill:#aeaeae; stroke:none;" d="M655 232L655 233L663 233L655 232z"/>
<path style="fill:#666666; stroke:none;" d="M800 232L800 233L811 234L800 232z"/>
<path style="fill:#bebebe; stroke:none;" d="M648 233L648 234L653 234L648 233z"/>
<path style="fill:#bababa; stroke:none;" d="M636 235L636 236L648 235L636 235z"/>
<path style="fill:#464646; stroke:none;" d="M963 234L963 247L964 247L963 234z"/>
<path style="fill:#929292; stroke:none;" d="M489 235L489 251L490 251L489 235z"/>
<path style="fill:#8a8a8a; stroke:none;" d="M818 235L818 236L821 236L818 235z"/>
<path style="fill:#6e6e6e; stroke:none;" d="M871.333 235.667L871.667 236.333L871.333 235.667z"/>
<path style="fill:#969696; stroke:none;" d="M1083.33 235.667L1083.67 236.333L1083.33 235.667z"/>
<path style="fill:#626262; stroke:none;" d="M581.333 236.667L581.667 237.333L581.333 236.667z"/>
<path style="fill:#7a7a7a; stroke:none;" d="M631 236L631 237L634 237L631 236M823 236L823 237L826 237L823 236z"/>
<path style="fill:#9e9e9e; stroke:none;" d="M627.667 237.333L628.333 237.667L627.667 237.333z"/>
<path style="fill:#6a6a6a; stroke:none;" d="M828 237L828 238L831 238L828 237z"/>
<path style="fill:#a2a2a2; stroke:none;" d="M1082.33 237.667L1082.67 238.333L1082.33 237.667z"/>
<path style="fill:#929292; stroke:none;" d="M622 238L622 239L625 239L622 238M832.667 238.333L833.333 238.667L832.667 238.333z"/>
<path style="fill:#828282; stroke:none;" d="M617 239L617 240L620 240L617 239M837.667 239.333L838.333 239.667L837.667 239.333z"/>
<path style="fill:#bebebe; stroke:none;" d="M611 241L611 242L615 241L611 241z"/>
<path style="fill:#626262; stroke:none;" d="M608 241L608 242L611 242L608 241z"/>
<path style="fill:#aeaeae; stroke:none;" d="M601 243L601 244L606 244L601 243z"/>
<path style="fill:#727272; stroke:none;" d="M598.667 244.333L599.333 244.667L598.667 244.333M856 244L856 245L859 245L856 244z"/>
<path style="fill:#b6b6b6; stroke:none;" d="M592 246L592 247L596 246L592 246z"/>
<path style="fill:#626262; stroke:none;" d="M860 245L860 246L863 246L860 245z"/>
<path style="fill:#9e9e9e; stroke:none;" d="M1078.33 245.667L1078.67 246.333L1078.33 245.667z"/>
<path style="fill:#6e6e6e; stroke:none;" d="M375.333 246.667L375.667 247.333L375.333 246.667z"/>
<path style="fill:#b6b6b6; stroke:none;" d="M876 246L879 248L879 247L876 246z"/>
<path style="fill:#727272; stroke:none;" d="M880.667 246.333L881.333 246.667L880.667 246.333z"/>
<path style="fill:#8a8a8a; stroke:none;" d="M588 247L588 248L591 248L588 247z"/>
<path style="fill:#868686; stroke:none;" d="M1077.33 247.667L1077.67 248.333L1077.33 247.667z"/>
<path style="fill:#9a9a9a; stroke:none;" d="M376 249L377 253L378 253L376 249z"/>
<path style="fill:#969696; stroke:none;" d="M573.667 249.333L574.333 249.667L573.667 249.333z"/>
<path style="fill:#868686; stroke:none;" d="M581 249L581 250L584 250L581 249z"/>
<path style="fill:#9e9e9e; stroke:none;" d="M964 249L964 254L965 254L964 249z"/>
<path style="fill:#727272; stroke:none;" d="M578 250L578 251L581 251L578 250z"/>
<path style="fill:#828282; stroke:none;" d="M875.667 250.333L876.333 250.667L875.667 250.333z"/>
<path style="fill:#868686; stroke:none;" d="M1075.33 251.667L1075.67 252.333L1075.33 251.667z"/>
<path style="fill:#aaaaaa; stroke:none;" d="M570 253L570 254L575 253L570 253z"/>
<path style="fill:#8e8e8e; stroke:none;" d="M379.333 255.667L379.667 256.333L379.333 255.667z"/>
<path style="fill:#bababa; stroke:none;" d="M488 255L488 259L489 259L488 255z"/>
<path style="fill:#565656; stroke:none;" d="M488 259L488 263L489 263L488 259z"/>
<path style="fill:#626262; stroke:none;" d="M552 259L552 260L555 260L552 259z"/>
<path style="fill:#b2b2b2; stroke:none;" d="M700 259L700 260L707 260L700 259z"/>
<path style="fill:#5e5e5e; stroke:none;" d="M707 259L707 260L714 260L707 259z"/>
<path style="fill:#020202; stroke:none;" d="M970 1099L954.684 1073L912 1004C903.842 1005.87 896.412 1011.92 889 1015.74C874.735 1023.1 860.138 1029.92 845 1035.31C788.435 1055.46 726.211 1062.42 667 1050.6C607.308 1038.68 552.594 1012.73 506 973.41C469.989 943.023 441.75 904.998 420.753 863C340.183 701.84 406.681 501.068 563 413.862C624.951 379.301 692.092 368.095 762 372.911C801.848 375.655 842.303 387.907 878 405.753C917.207 425.354 952.894 451.218 982.166 484C1018.24 524.404 1044.37 571.893 1059.14 624C1073.21 673.629 1075.47 728.472 1064.79 779C1060 801.656 1050.28 822.705 1045 845C1030.81 837.131 1017.5 827.329 1004 818.333C999.667 815.445 990.431 811.557 988.212 806.674C986.711 803.371 989.639 798.201 990.576 795C993.174 786.115 995.672 777.102 997.389 768C1002.95 738.51 1005.11 707.777 1000.73 678C989.513 601.862 949.618 531.231 885 487.67C781.695 418.029 641.278 424.311 547 507.155C521.345 529.699 501.612 556.232 485.139 586C481.727 592.165 470.02 609.86 473.132 616.907C474.996 621.128 481.347 623.595 485 626.003C494.354 632.171 503.805 638.329 513 644.721C550.9 671.067 590.061 695.603 628 721.883C726.883 790.38 827.969 855.857 928 922.667C957.677 942.487 987.286 962.41 1017 982.166C1033.54 993.16 1051.71 1003.34 1067 1016C1076.59 1009.1 1084.16 997.325 1091.35 988C1111.14 962.324 1127.06 934.277 1140.78 905C1208.68 760.154 1192.45 585.269 1101.97 454C1076.52 417.07 1045.21 383.968 1010 356.211C859.98 237.958 644.903 227.949 484 330.053C440.728 357.513 401.935 392.573 370.424 433C249.177 588.555 242.569 812.083 355.72 974C381.422 1010.78 412.593 1043.98 448 1071.58C562.321 1160.68 713.786 1189.27 853 1150.58C894.885 1138.93 932.226 1119.95 970 1099z"/>
<path style="fill:#8a8a8a; stroke:none;" d="M746 259L746 260L755 260L746 259z"/>
<path style="fill:#828282; stroke:none;" d="M550.667 260.333L551.333 260.667L550.667 260.333z"/>
<path style="fill:#9a9a9a; stroke:none;" d="M687 260L687 261L694 261L687 260z"/>
<path style="fill:#aeaeae; stroke:none;" d="M763 260L763 261L768 261L763 260M545 262L545 263L550 262L545 262z"/>
<path style="fill:#8e8e8e; stroke:none;" d="M677 261L677 262L682 262L677 261z"/>
<path style="fill:#565656; stroke:none;" d="M965 261L965 265L966 265L965 261z"/>
<path style="fill:#7a7a7a; stroke:none;" d="M669 262L669 263L674 263L669 262z"/>
<path style="fill:#969696; stroke:none;" d="M782 262L782 263L786 263L782 262z"/>
<path style="fill:#b6b6b6; stroke:none;" d="M909 262L909 263L914 264L914 263L909 262z"/>
<path style="fill:#666666; stroke:none;" d="M790 263L790 264L793 264L790 263z"/>
<path style="fill:#969696; stroke:none;" d="M656 264L656 265L659 265L656 264z"/>
<path style="fill:#6e6e6e; stroke:none;" d="M797 264L797 265L800 265L797 264z"/>
<path style="fill:#666666; stroke:none;" d="M487 265L487 269L488 269L487 265z"/>
<path style="fill:#929292; stroke:none;" d="M650 265L650 266L653 266L650 265z"/>
<path style="fill:#6a6a6a; stroke:none;" d="M803 265L803 266L806 266L803 265z"/>
<path style="fill:#767676; stroke:none;" d="M645 266L645 267L648 267L645 266M809 266L809 267L812 267L809 266z"/>
<path style="fill:#6e6e6e; stroke:none;" d="M1068.33 266.667L1068.67 267.333L1068.33 266.667z"/>
<path style="fill:#6a6a6a; stroke:none;" d="M640 267L640 268L643 268L640 267M814 267L814 268L817 268L814 267z"/>
<path style="fill:#525252; stroke:none;" d="M966 267L966 271L967 271L966 267z"/>
<path style="fill:#6a6a6a; stroke:none;" d="M635 268L635 269L638 269L635 268z"/>
<path style="fill:#9e9e9e; stroke:none;" d="M820.667 268.333L821.333 268.667L820.667 268.333z"/>
<path style="fill:#a2a2a2; stroke:none;" d="M385.333 269.667L385.667 270.333L385.333 269.667z"/>
<path style="fill:#7a7a7a; stroke:none;" d="M630 269L630 270L633 270L630 269M824 269L824 270L827 270L824 269z"/>
<path style="fill:#9e9e9e; stroke:none;" d="M1067.33 269.667L1067.67 270.333L1067.33 269.667z"/>
<path style="fill:#5e5e5e; stroke:none;" d="M626.667 270.333L627.333 270.667L626.667 270.333z"/>
<path style="fill:#9a9a9a; stroke:none;" d="M829.667 270.333L830.333 270.667L829.667 270.333z"/>
<path style="fill:#8a8a8a; stroke:none;" d="M833.667 271.333L834.333 271.667L833.667 271.333z"/>
<path style="fill:#868686; stroke:none;" d="M837 272L837 273L840 273L837 272z"/>
<path style="fill:#666666; stroke:none;" d="M387.333 273.667L387.667 274.333L387.333 273.667z"/>
<path style="fill:#8a8a8a; stroke:none;" d="M841.667 273.333L842.333 273.667L841.667 273.333z"/>
<path style="fill:#767676; stroke:none;" d="M1065 273L1065 276L1066 276L1065 273z"/>
<path style="fill:#969696; stroke:none;" d="M845.667 274.333L846.333 274.667L845.667 274.333z"/>
<path style="fill:#b6b6b6; stroke:none;" d="M936 274L936 275L941 276L941 275L936 274z"/>
<path style="fill:#6a6a6a; stroke:none;" d="M606.667 275.333L607.333 275.667L606.667 275.333z"/>
<path style="fill:#929292; stroke:none;" d="M388.333 276.667L388.667 277.333L388.333 276.667z"/>
<path style="fill:#8a8a8a; stroke:none;" d="M941.667 276.333L942.333 276.667L941.667 276.333z"/>
<path style="fill:#767676; stroke:none;" d="M1064 276L1063 280L1064 280L1064 276z"/>
<path style="fill:#6a6a6a; stroke:none;" d="M599.667 277.333L600.333 277.667L599.667 277.333z"/>
<path style="fill:#969696; stroke:none;" d="M859.667 278.333L860.333 278.667L859.667 278.333z"/>
<path style="fill:#bebebe; stroke:none;" d="M506 280L506 281L510 280L506 280z"/>
<path style="fill:#8e8e8e; stroke:none;" d="M448.667 280.333L449.333 280.667L448.667 280.333z"/>
<path style="fill:#a2a2a2; stroke:none;" d="M484 280L484 283L485 283L484 280z"/>
<path style="fill:#969696; stroke:none;" d="M998.667 280.333L999.333 280.667L998.667 280.333z"/>
<path style="fill:#868686; stroke:none;" d="M450.667 281.333L451.333 281.667L450.667 281.333z"/>
<path style="fill:#969696; stroke:none;" d="M1062.33 281.667L1062.67 282.333L1062.33 281.667z"/>
<path style="fill:#9e9e9e; stroke:none;" d="M1206 281L1205 285L1206 285L1206 281z"/>
<path style="fill:#727272; stroke:none;" d="M452 282L452 283L455 283L452 282z"/>
<path style="fill:#4a4a4a; stroke:none;" d="M969 282L969 286L970 286L969 282z"/>
<path style="fill:#929292; stroke:none;" d="M993.667 282.333L994.333 282.667L993.667 282.333z"/>
<path style="fill:#b6b6b6; stroke:none;" d="M248 283L249 287L250 287L248 283z"/>
<path style="fill:#929292; stroke:none;" d="M455.667 283.333L456.333 283.667L455.667 283.333z"/>
<path style="fill:#a2a2a2; stroke:none;" d="M955 283L958 285L955 283z"/>
<path style="fill:#424242; stroke:none;" d="M1202 285L1203 286L1205 283L1202 285z"/>
<path style="fill:#9e9e9e; stroke:none;" d="M391.333 284.667L391.667 285.333L391.333 284.667z"/>
<path style="fill:#767676; stroke:none;" d="M457.667 284.333L458.333 284.667L457.667 284.333z"/>
<path style="fill:#626262; stroke:none;" d="M988.667 284.333L989.333 284.667L988.667 284.333z"/>
<path style="fill:#a2a2a2; stroke:none;" d="M1061.33 284.667L1061.67 285.333L1061.33 284.667z"/>
<path style="fill:#565656; stroke:none;" d="M250 285L253 287L253 286L250 285z"/>
<path style="fill:#868686; stroke:none;" d="M460.667 285.333L461.333 285.667L460.667 285.333z"/>
<path style="fill:#666666; stroke:none;" d="M483.333 285.667L483.667 286.333L483.333 285.667z"/>
<path style="fill:#5e5e5e; stroke:none;" d="M985 285L985 286L988 286L985 285z"/>
<path style="fill:#767676; stroke:none;" d="M970.333 287.667L970.667 288.333L970.333 287.667z"/>
<path style="fill:#9e9e9e; stroke:none;" d="M977.667 287.333L978.333 287.667L977.667 287.333z"/>
<path style="fill:#8a8a8a; stroke:none;" d="M973 288L973 289L977 289L973 288z"/>
<path style="fill:#8e8e8e; stroke:none;" d="M475.667 290.333L476.333 290.667L475.667 290.333z"/>
<path style="fill:#6e6e6e; stroke:none;" d="M485 291L485 292L488 292L485 291z"/>
<path style="fill:#424242; stroke:none;" d="M972 292L976 295L972 292z"/>
<path style="fill:#9e9e9e; stroke:none;" d="M1057 296L1057 300L1058 300L1057 296z"/>
<path style="fill:#bebebe; stroke:none;" d="M468 303L473 301L468 303z"/>
<path style="fill:#969696; stroke:none;" d="M1056 301L1056 307L1057 307L1056 301z"/>
<path style="fill:#626262; stroke:none;" d="M1055 307L1055 311L1056 311L1055 307z"/>
<path style="fill:#565656; stroke:none;" d="M284 308L287 310L284 308z"/>
<path style="fill:#c6c6c6; stroke:none;" d="M450 315L457 310L450 315z"/>
<path style="fill:#a2a2a2; stroke:none;" d="M289.667 311.333L290.333 311.667L289.667 311.333z"/>
<path style="fill:#666666; stroke:none;" d="M1054 314L1054 318L1055 318L1054 314z"/>
<path style="fill:#bababa; stroke:none;" d="M399 320L399 331L400 331L399 320z"/>
<path style="fill:#929292; stroke:none;" d="M308.667 323.333L309.333 323.667L308.667 323.333z"/>
<path style="fill:#aaaaaa; stroke:none;" d="M1172 323L1171 326L1172 323z"/>
<path style="fill:#969696; stroke:none;" d="M312 325L315 327L312 325z"/>
<path style="fill:#565656; stroke:none;" d="M1053 327L1053 347L1054 347L1053 327z"/>
<path style="fill:#8a8a8a; stroke:none;" d="M317 328L320 330L317 328z"/>
<path style="fill:#9a9a9a; stroke:none;" d="M1168 328L1167 331L1168 328z"/>
<path style="fill:#929292; stroke:none;" d="M1123.67 332.333L1124.33 332.667L1123.67 332.333z"/>
<path style="fill:#aeaeae; stroke:none;" d="M1165 332L1164 335L1165 332z"/>
<path style="fill:#8a8a8a; stroke:none;" d="M329.667 335.333L330.333 335.667L329.667 335.333z"/>
<path style="fill:#929292; stroke:none;" d="M1117.67 335.333L1118.33 335.667L1117.67 335.333z"/>
<path style="fill:#6a6a6a; stroke:none;" d="M1113.67 337.333L1114.33 337.667L1113.67 337.333z"/>
<path style="fill:#9a9a9a; stroke:none;" d="M335.667 338.333L336.333 338.667L335.667 338.333z"/>
<path style="fill:#828282; stroke:none;" d="M1108.67 339.333L1109.33 339.667L1108.67 339.333z"/>
<path style="fill:#8a8a8a; stroke:none;" d="M339.667 340.333L340.333 340.667L339.667 340.333z"/>
<path style="fill:#828282; stroke:none;" d="M1105.67 340.333L1106.33 340.667L1105.67 340.333z"/>
<path style="fill:#929292; stroke:none;" d="M1158 341L1157 344L1158 341z"/>
<path style="fill:#828282; stroke:none;" d="M344.667 342.333L345.333 342.667L344.667 342.333z"/>
<path style="fill:#3e3e3e; stroke:none;" d="M1075 347L1075 348L1086 347L1075 347z"/>
<path style="fill:#828282; stroke:none;" d="M399 347L399 351L400 351L399 347z"/>
<path style="fill:#4e4e4e; stroke:none;" d="M1067 348L1067 349L1072 349L1067 348z"/>
<path style="fill:#bebebe; stroke:none;" d="M299 349L301 352L299 349z"/>
<path style="fill:#aaaaaa; stroke:none;" d="M370 349L370 350L375 350L370 349z"/>
<path style="fill:#bababa; stroke:none;" d="M377 350L377 351L382 351L377 350z"/>
<path style="fill:#aaaaaa; stroke:none;" d="M384 351L384 352L392 352L384 351z"/>
<path style="fill:#8e8e8e; stroke:none;" d="M394 352L394 353L399 353L394 352z"/>
<path style="fill:#969696; stroke:none;" d="M398 355L398 357L400 355L398 355z"/>
<path style="fill:#9a9a9a; stroke:none;" d="M307.333 360.667L307.667 361.333L307.333 360.667z"/>
<path style="fill:#8e8e8e; stroke:none;" d="M309.333 363.667L309.667 364.333L309.333 363.667z"/>
<path style="fill:#7e7e7e; stroke:none;" d="M1139.33 369.667L1139.67 370.333L1139.33 369.667z"/>
<path style="fill:#767676; stroke:none;" d="M705 371L705 372L713 372L705 371z"/>
<path style="fill:#aaaaaa; stroke:none;" d="M740 371L740 372L745 372L740 371z"/>
<path style="fill:#6a6a6a; stroke:none;" d="M745 371L745 372L750 372L745 371z"/>
<path style="fill:#4e4e4e; stroke:none;" d="M1074 371L1077 373L1074 371z"/>
<path style="fill:#828282; stroke:none;" d="M1138.33 371.667L1138.67 372.333L1138.33 371.667z"/>
<path style="fill:#969696; stroke:none;" d="M693 372L693 373L701 373L693 372z"/>
<path style="fill:#868686; stroke:none;" d="M684 373L684 374L691 374L684 373z"/>
<path style="fill:#6a6a6a; stroke:none;" d="M769 373L769 374L772 374L769 373z"/>
<path style="fill:#9a9a9a; stroke:none;" d="M775 374L775 375L778 375L775 374z"/>
<path style="fill:#626262; stroke:none;" d="M671 375L671 376L674 376L671 375z"/>
<path style="fill:#8a8a8a; stroke:none;" d="M782 375L782 376L785 376L782 375z"/>
<path style="fill:#828282; stroke:none;" d="M666.667 376.333L667.333 376.667L666.667 376.333M788 376L788 377L791 377L788 376z"/>
<path style="fill:#5e5e5e; stroke:none;" d="M317.333 377.667L317.667 378.333L317.333 377.667z"/>
<path style="fill:#929292; stroke:none;" d="M661 377L661 378L664 378L661 377M793 377L793 378L796 378L793 377z"/>
<path style="fill:#8e8e8e; stroke:none;" d="M656 378L656 379L659 379L656 378M798.667 378.333L799.333 378.667L798.667 378.333z"/>
<path style="fill:#a2a2a2; stroke:none;" d="M1135.33 378.667L1135.67 379.333L1135.33 378.667z"/>
<path style="fill:#727272; stroke:none;" d="M803 379L803 380L806 380L803 379z"/>
<path style="fill:#828282; stroke:none;" d="M647.667 380.333L648.333 380.667L647.667 380.333M807 380L807 381L810 381L807 380z"/>
<path style="fill:#7a7a7a; stroke:none;" d="M1134.33 380.667L1134.67 381.333L1134.33 380.667z"/>
<path style="fill:#868686; stroke:none;" d="M643.667 381.333L644.333 381.667L643.667 381.333z"/>
<path style="fill:#6a6a6a; stroke:none;" d="M819.667 383.333L820.333 383.667L819.667 383.333z"/>
<path style="fill:#626262; stroke:none;" d="M826.667 385.333L827.333 385.667L826.667 385.333z"/>
<path style="fill:#7a7a7a; stroke:none;" d="M321.333 387.667L321.667 388.333L321.333 387.667z"/>
<path style="fill:#666666; stroke:none;" d="M323 392L323 395L324 395L323 392z"/>
<path style="fill:#6e6e6e; stroke:none;" d="M1129.33 394.667L1129.67 395.333L1129.33 394.667z"/>
<path style="fill:#4a4a4a; stroke:none;" d="M1128 398L1127 403L1128 403L1128 398z"/>
<path style="fill:#767676; stroke:none;" d="M325.333 399.667L325.667 400.333L325.333 399.667z"/>
<path style="fill:#5e5e5e; stroke:none;" d="M327.333 406.667L327.667 407.333L327.333 406.667M329 415L329 418L330 418L329 415z"/>
<path style="fill:#9e9e9e; stroke:none;" d="M330 421L330 427L331 427L330 421z"/>
<path style="fill:#868686; stroke:none;" d="M1122 425L1123 428L1122 425z"/>
<path style="fill:#aaaaaa; stroke:none;" d="M706 439L706 440L711 440L706 439z"/>
<path style="fill:#5e5e5e; stroke:none;" d="M711 439L711 440L716 440L711 439M738 439L738 440L747 440L738 439z"/>
<path style="fill:#626262; stroke:none;" d="M689 441L689 442L693 442L689 441M763 441L763 442L766 442L763 441z"/>
<path style="fill:#8e8e8e; stroke:none;" d="M683 442L683 443L686 443L683 442z"/>
<path style="fill:#666666; stroke:none;" d="M770 442L770 443L773 443L770 442z"/>
<path style="fill:#9a9a9a; stroke:none;" d="M677.667 443.333L678.333 443.667L677.667 443.333z"/>
<path style="fill:#6a6a6a; stroke:none;" d="M776.667 443.333L777.333 443.667L776.667 443.333z"/>
<path style="fill:#929292; stroke:none;" d="M672.667 444.333L673.333 444.667L672.667 444.333M782 444L782 445L785 445L782 444z"/>
<path style="fill:#6e6e6e; stroke:none;" d="M668.667 445.333L669.333 445.667L668.667 445.333z"/>
<path style="fill:#a2a2a2; stroke:none;" d="M787.667 445.333L788.333 445.667L787.667 445.333z"/>
<path style="fill:#929292; stroke:none;" d="M791.667 446.333L792.333 446.667L791.667 446.333z"/>
<path style="fill:#8e8e8e; stroke:none;" d="M795.667 447.333L796.333 447.667L795.667 447.333z"/>
<path style="fill:#9e9e9e; stroke:none;" d="M799.667 448.333L800.333 448.667L799.667 448.333M806.667 450.333L807.333 450.667L806.667 450.333z"/>
<path style="fill:#666666; stroke:none;" d="M290.333 591.667L290.667 592.333L290.333 591.667z"/>
<path style="fill:#6a6a6a; stroke:none;" d="M1166.33 591.667L1166.67 592.333L1166.33 591.667z"/>
<path style="fill:#868686; stroke:none;" d="M287 602L287 605L288 605L287 602z"/>
<path style="fill:#5e5e5e; stroke:none;" d="M285.333 611.667L285.667 612.333L285.333 611.667M1171.33 611.667L1171.67 612.333L1171.33 611.667z"/>
<path style="fill:#767676; stroke:none;" d="M284 615L284 618L285 618L284 615z"/>
<path style="fill:#7a7a7a; stroke:none;" d="M1172.33 615.667L1172.67 616.333L1172.33 615.667z"/>
<path style="fill:#666666; stroke:none;" d="M283 620L283 623L284 623L283 620z"/>
<path style="fill:#6a6a6a; stroke:none;" d="M1173.33 620.667L1173.67 621.333L1173.33 620.667z"/>
<path style="fill:#9a9a9a; stroke:none;" d="M282.333 624.667L282.667 625.333L282.333 624.667z"/>
<path style="fill:#6a6a6a; stroke:none;" d="M1174.33 625.667L1174.67 626.333L1174.33 625.667z"/>
<path style="fill:#8a8a8a; stroke:none;" d="M396.333 628.667L396.667 629.333L396.333 628.667z"/>
<path style="fill:#868686; stroke:none;" d="M1060.33 628.667L1060.67 629.333L1060.33 628.667z"/>
<path style="fill:#767676; stroke:none;" d="M281.333 630.667L281.667 631.333L281.333 630.667M1175 630L1175 633L1176 633L1175 630z"/>
<path style="fill:#868686; stroke:none;" d="M395.333 632.667L395.667 633.333L395.333 632.667z"/>
<path style="fill:#828282; stroke:none;" d="M1061 632L1061 635L1062 635L1061 632z"/>
<path style="fill:#929292; stroke:none;" d="M280 635L280 638L281 638L280 635M1176 635L1176 638L1177 638L1176 635z"/>
<path style="fill:#767676; stroke:none;" d="M394 636L394 639L395 639L394 636z"/>
<path style="fill:#929292; stroke:none;" d="M279 641L279 644L280 644L279 641z"/>
<path style="fill:#8e8e8e; stroke:none;" d="M393.333 641.667L393.667 642.333L393.333 641.667M1063 641L1063 644L1064 644L1063 641z"/>
<path style="fill:#969696; stroke:none;" d="M1177 641L1177 644L1178 644L1177 641M392.333 646.667L392.667 647.333L392.333 646.667z"/>
<path style="fill:#929292; stroke:none;" d="M1064 646L1064 649L1065 649L1064 646z"/>
<path style="fill:#666666; stroke:none;" d="M1178 647L1178 652L1179 652L1178 647z"/>
<path style="fill:#868686; stroke:none;" d="M391 651L391 654L392 654L391 651z"/>
<path style="fill:#828282; stroke:none;" d="M1065.33 651.667L1065.67 652.333L1065.33 651.667z"/>
<path style="fill:#6e6e6e; stroke:none;" d="M996.333 653.667L996.667 654.333L996.333 653.667z"/>
<path style="fill:#969696; stroke:none;" d="M1179 655L1179 658L1180 658L1179 655z"/>
<path style="fill:#666666; stroke:none;" d="M390 656L390 659L391 659L390 656z"/>
<path style="fill:#626262; stroke:none;" d="M1066 656L1066 659L1067 659L1066 656z"/>
<path style="fill:#929292; stroke:none;" d="M997.333 657.667L997.667 658.333L997.333 657.667z"/>
<path style="fill:#9e9e9e; stroke:none;" d="M389 662L389 666L390 666L389 662z"/>
<path style="fill:#9a9a9a; stroke:none;" d="M998.333 662.667L998.667 663.333L998.333 662.667z"/>
<path style="fill:#8e8e8e; stroke:none;" d="M1180 662L1180 667L1181 667L1180 662M999 668L999 671L1000 671L999 668z"/>
<path style="fill:#868686; stroke:none;" d="M1068 669L1068 673L1069 673L1068 669z"/>
<path style="fill:#9a9a9a; stroke:none;" d="M275 672L275 679L276 679L275 672z"/>
<path style="fill:#a2a2a2; stroke:none;" d="M1000 674L1000 677L1001 677L1000 674z"/>
<path style="fill:#464646; stroke:none;" d="M1181 675L1181 681L1182 681L1181 675z"/>
<path style="fill:#7e7e7e; stroke:none;" d="M387 678L387 682L388 682L387 678z"/>
<path style="fill:#969696; stroke:none;" d="M1069 678L1069 683L1070 683L1069 678z"/>
<path style="fill:#b2b2b2; stroke:none;" d="M1182 685L1182 692L1183 692L1182 685z"/>
<path style="fill:#a2a2a2; stroke:none;" d="M274 686L274 692L275 692L274 686z"/>
<path style="fill:#9e9e9e; stroke:none;" d="M386 689L386 700L387 700L386 689z"/>
<path style="fill:#767676; stroke:none;" d="M1070 690L1070 698L1071 698L1070 690z"/>
<path style="fill:#aaaaaa; stroke:none;" d="M1002 691L1002 697L1003 697L1002 691z"/>
<path style="fill:#525252; stroke:none;" d="M274 692L274 700L275 700L274 692z"/>
<path style="fill:#5e5e5e; stroke:none;" d="M1182 692L1182 699L1183 699L1182 692z"/>
<path style="fill:#5a5a5a; stroke:none;" d="M1002 723L1002 732L1003 732L1002 723z"/>
<path style="fill:#aeaeae; stroke:none;" d="M386 724L386 731L387 731L386 724z"/>
<path style="fill:#464646; stroke:none;" d="M1182 725L1182 734L1183 734L1182 725z"/>
<path style="fill:#525252; stroke:none;" d="M274 727L274 735L275 735L274 727z"/>
<path style="fill:#6a6a6a; stroke:none;" d="M1070 729L1070 735L1071 735L1070 729z"/>
<path style="fill:#4a4a4a; stroke:none;" d="M386 731L386 737L387 737L386 731z"/>
<path style="fill:#a2a2a2; stroke:none;" d="M1182 734L1182 741L1183 741L1182 734z"/>
<path style="fill:#aeaeae; stroke:none;" d="M274 735L274 741L275 741L274 735z"/>
<path style="fill:#9a9a9a; stroke:none;" d="M387 741L387 747L388 747L387 741z"/>
<path style="fill:#aaaaaa; stroke:none;" d="M275 748L275 753L276 753L275 748z"/>
<path style="fill:#5e5e5e; stroke:none;" d="M1000 748L1000 751L1001 751L1000 748z"/>
<path style="fill:#aeaeae; stroke:none;" d="M1181 748L1181 754L1182 754L1181 748z"/>
<path style="fill:#6a6a6a; stroke:none;" d="M1068 752L1068 757L1069 757L1068 752z"/>
<path style="fill:#666666; stroke:none;" d="M999 755L999 758L1000 758L999 755z"/>
<path style="fill:#6e6e6e; stroke:none;" d="M276 757L276 762L277 762L276 757z"/>
<path style="fill:#9e9e9e; stroke:none;" d="M389 760L389 763L390 763L389 760z"/>
<path style="fill:#565656; stroke:none;" d="M1067 760L1067 765L1068 765L1067 760z"/>
<path style="fill:#6a6a6a; stroke:none;" d="M998 761L998 764L999 764L998 761z"/>
<path style="fill:#8e8e8e; stroke:none;" d="M390 767L390 770L391 770L390 767z"/>
<path style="fill:#929292; stroke:none;" d="M997 767L997 770L998 770L997 767z"/>
<path style="fill:#8a8a8a; stroke:none;" d="M1066 767L1066 770L1067 770L1066 767z"/>
<path style="fill:#a2a2a2; stroke:none;" d="M996.333 772.667L996.667 773.333L996.333 772.667z"/>
<path style="fill:#868686; stroke:none;" d="M391.333 773.667L391.667 774.333L391.333 773.667z"/>
<path style="fill:#828282; stroke:none;" d="M1065 773L1065 776L1066 776L1065 773z"/>
<path style="fill:#626262; stroke:none;" d="M278 775L278 778L279 778L278 775z"/>
<path style="fill:#666666; stroke:none;" d="M1178 775L1178 778L1179 778L1178 775z"/>
<path style="fill:#929292; stroke:none;" d="M995.333 776.667L995.667 777.333L995.333 776.667M392 778L392 781L393 781L392 778z"/>
<path style="fill:#969696; stroke:none;" d="M1064 778L1064 781L1065 781L1064 778z"/>
<path style="fill:#8e8e8e; stroke:none;" d="M994.333 780.667L994.667 781.333L994.333 780.667z"/>
<path style="fill:#6a6a6a; stroke:none;" d="M279 782L279 785L280 785L279 782z"/>
<path style="fill:#bababa; stroke:none;" d="M1177 782L1177 786L1178 786L1177 782z"/>
<path style="fill:#8e8e8e; stroke:none;" d="M1063.33 783.667L1063.67 784.333L1063.33 783.667z"/>
<path style="fill:#9a9a9a; stroke:none;" d="M993.333 784.667L993.667 785.333L993.333 784.667z"/>
<path style="fill:#bababa; stroke:none;" d="M280 788L280 792L281 792L280 788z"/>
<path style="fill:#767676; stroke:none;" d="M394 788L394 791L395 791L394 788z"/>
<path style="fill:#727272; stroke:none;" d="M1062.33 788.667L1062.67 789.333L1062.33 788.667z"/>
<path style="fill:#666666; stroke:none;" d="M1176 788L1176 791L1177 791L1176 788z"/>
<path style="fill:#9e9e9e; stroke:none;" d="M991.333 791.667L991.667 792.333L991.333 791.667z"/>
<path style="fill:#767676; stroke:none;" d="M281 794L281 797L282 797L281 794M1175.33 794.667L1175.67 795.333L1175.33 794.667z"/>
<path style="fill:#666666; stroke:none;" d="M282.333 799.667L282.667 800.333L282.333 799.667z"/>
<path style="fill:#828282; stroke:none;" d="M1059.33 800.667L1059.67 801.333L1059.33 800.667z"/>
<path style="fill:#9a9a9a; stroke:none;" d="M1174.33 800.667L1174.67 801.333L1174.33 800.667z"/>
<path style="fill:#666666; stroke:none;" d="M283 804L283 807L284 807L283 804z"/>
<path style="fill:#6a6a6a; stroke:none;" d="M398.333 804.667L398.667 805.333L398.333 804.667M1058.33 804.667L1058.67 805.333L1058.33 804.667z"/>
<path style="fill:#9e9e9e; stroke:none;" d="M1173.33 805.667L1173.67 806.333L1173.33 805.667z"/>
<path style="fill:#767676; stroke:none;" d="M284.333 809.667L284.667 810.333L284.333 809.667z"/>
<path style="fill:#7a7a7a; stroke:none;" d="M1172 809L1172 812L1173 812L1172 809z"/>
<path style="fill:#626262; stroke:none;" d="M400.333 811.667L400.667 812.333L400.333 811.667M1056.33 811.667L1056.67 812.333L1056.33 811.667z"/>
<path style="fill:#969696; stroke:none;" d="M285.333 814.667L285.667 815.333L285.333 814.667M1171.33 814.667L1171.67 815.333L1171.33 814.667z"/>
<path style="fill:#8a8a8a; stroke:none;" d="M286 818L286 821L287 821L286 818M1170.33 818.667L1170.67 819.333L1170.33 818.667z"/>
<path style="fill:#828282; stroke:none;" d="M287 822L287 825L288 825L287 822M1169.33 822.667L1169.67 823.333L1169.33 822.667z"/>
<path style="fill:#868686; stroke:none;" d="M288.333 826.667L288.667 827.333L288.333 826.667M1168.33 826.667L1168.67 827.333L1168.33 826.667z"/>
<path style="fill:#969696; stroke:none;" d="M289.333 830.667L289.667 831.333L289.333 830.667M1167.33 830.667L1167.67 831.333L1167.33 830.667z"/>
<path style="fill:#020202; stroke:none;" d="M331 997C330.631 1041.6 299.87 1078.88 273.789 1112C266.338 1121.46 257.016 1130.59 251 1141C262.838 1137.93 274.726 1126.31 285 1119.67C309.399 1103.91 333.644 1087.92 362 1080.63C370.278 1078.5 388.705 1072.3 396.852 1075.62C400.796 1077.23 399.998 1082.57 400 1086C400.004 1095.43 399.68 1104.62 399.025 1114C396.08 1156.13 365.171 1193.07 350 1231C365.284 1223.87 379.089 1202.91 391.428 1191.2C418.896 1165.13 444.89 1145.63 482 1136C486.683 1152.63 490.72 1170.63 489.961 1188C488.298 1226.03 473.178 1261.11 466 1298C474.762 1292.38 480.012 1277.53 485.884 1269C504.483 1242 520.906 1214.2 547.911 1194.67C554.685 1189.77 563.684 1181.86 571.982 1180C576.278 1179.03 578.037 1183.87 579.575 1187C583.911 1195.82 586.48 1204.96 590.13 1214C596.888 1230.74 596 1250.3 596 1268C596 1291.57 597.31 1316.79 593 1340C601.033 1334.08 604.177 1312.37 607.922 1303C619.299 1274.53 630.163 1246.15 650.834 1223C656.491 1216.66 664.775 1205.32 672.83 1202.06C676.374 1200.63 679.366 1205.72 681.193 1208C687.422 1215.79 692.938 1224.23 697.691 1233C716.44 1267.58 722.931 1315.12 726 1354L728 1354C731.054 1315.31 736.281 1267.17 755.576 1233C760.052 1225.07 764.792 1217.38 770.152 1210C771.78 1207.76 774.164 1203.14 777.174 1202.62C780.329 1202.07 783.846 1206.12 786 1207.92C793.669 1214.31 800.53 1221.4 806.996 1229C833.252 1259.85 846.911 1304.27 860 1342L861 1342C858.439 1309.56 852.779 1273.47 857.428 1241C859.165 1228.87 861.97 1216.51 866.228 1205C869.249 1196.84 874.379 1188.5 876 1180C889.239 1183.34 902.546 1193.49 912.961 1201.99C944.258 1227.53 965.805 1266.17 987 1300L988 1300L963.184 1191L970 1139C981.547 1139.27 994.747 1145.21 1005 1150.24C1032.35 1163.68 1054.4 1184.76 1075.96 1206.02C1084.58 1214.52 1093.43 1227.16 1104 1233C1094.38 1201.8 1072.74 1173.9 1061.37 1143C1053.88 1122.65 1053 1100.47 1053 1079C1087.79 1079 1118.59 1090.35 1148 1108.72C1157.13 1114.42 1167.04 1119.48 1175.83 1125.64C1184.31 1131.57 1193.75 1140.65 1204 1143C1176.16 1098.49 1123.52 1060.97 1123 1003C1115.51 1006.03 1111.91 1014.09 1106.87 1020C1094.87 1034.07 1083.14 1047.95 1069.96 1060.96C1034.11 1096.37 992.22 1125.5 947.83 1148.98C792.523 1231.11 597.818 1212.91 454 1116.25C424.99 1096.75 396.682 1072.86 373.17 1047C363.432 1036.29 354.192 1025.34 345.22 1014C340.664 1008.24 336.998 1001.35 331 997z"/>
<path style="fill:#727272; stroke:none;" d="M1122 1000L1119 1005L1122 1000z"/>
<path style="fill:#9a9a9a; stroke:none;" d="M330 1001L330 1005L331 1005L330 1001z"/>
<path style="fill:#424242; stroke:none;" d="M1123 1005L1123 1011L1124 1011L1123 1005z"/>
<path style="fill:#9e9e9e; stroke:none;" d="M1124 1010L1124 1013L1125 1013L1124 1010z"/>
<path style="fill:#929292; stroke:none;" d="M1128 1027L1128 1030L1129 1030L1128 1027z"/>
<path style="fill:#9e9e9e; stroke:none;" d="M324.333 1029.67L324.667 1030.33L324.333 1029.67M323 1033L322 1037L323 1037L323 1033z"/>
<path style="fill:#868686; stroke:none;" d="M1130.33 1034.67L1130.67 1035.33L1130.33 1034.67z"/>
<path style="fill:#7a7a7a; stroke:none;" d="M1132.33 1040.67L1132.67 1041.33L1132.33 1040.67M320.333 1041.67L320.667 1042.33L320.333 1041.67z"/>
<path style="fill:#626262; stroke:none;" d="M826.667 1041.33L827.333 1041.67L826.667 1041.33z"/>
<path style="fill:#8e8e8e; stroke:none;" d="M632.667 1042.33L633.333 1042.67L632.667 1042.33z"/>
<path style="fill:#929292; stroke:none;" d="M319.333 1043.67L319.667 1044.33L319.333 1043.67z"/>
<path style="fill:#6a6a6a; stroke:none;" d="M819.667 1043.33L820.333 1043.67L819.667 1043.33z"/>
<path style="fill:#8a8a8a; stroke:none;" d="M643.667 1045.33L644.333 1045.67L643.667 1045.33z"/>
<path style="fill:#868686; stroke:none;" d="M647 1046L647 1047L650 1047L647 1046z"/>
<path style="fill:#767676; stroke:none;" d="M651 1047L651 1048L654 1048L651 1047M803 1047L803 1048L806 1048L803 1047z"/>
<path style="fill:#8e8e8e; stroke:none;" d="M656.667 1048.33L657.333 1048.67L656.667 1048.33z"/>
<path style="fill:#727272; stroke:none;" d="M1135.33 1048.67L1135.67 1049.33L1135.33 1048.67z"/>
<path style="fill:#969696; stroke:none;" d="M661 1049L661 1050L664 1050L661 1049M793.667 1049.33L794.333 1049.67L793.667 1049.33z"/>
<path style="fill:#868686; stroke:none;" d="M666 1050L666 1051L669 1051L666 1050M788 1050L788 1051L791 1051L788 1050z"/>
<path style="fill:#7e7e7e; stroke:none;" d="M1136.33 1050.67L1136.67 1051.33L1136.33 1050.67z"/>
<path style="fill:#666666; stroke:none;" d="M671 1051L671 1052L674 1052L671 1051z"/>
<path style="fill:#8e8e8e; stroke:none;" d="M782 1051L782 1052L785 1052L782 1051M315.333 1052.67L315.667 1053.33L315.333 1052.67z"/>
<path style="fill:#9e9e9e; stroke:none;" d="M775 1052L775 1053L778 1053L775 1052z"/>
<path style="fill:#828282; stroke:none;" d="M693 1054L693 1055L699 1055L693 1054z"/>
<path style="fill:#9a9a9a; stroke:none;" d="M756 1054L756 1055L764 1055L756 1054z"/>
<path style="fill:#6a6a6a; stroke:none;" d="M704 1055L704 1056L711 1056L704 1055z"/>
<path style="fill:#aeaeae; stroke:none;" d="M740 1055L740 1056L748 1056L740 1055z"/>
<path style="fill:#5e5e5e; stroke:none;" d="M307.333 1066.67L307.667 1067.33L307.333 1066.67z"/>
<path style="fill:#969696; stroke:none;" d="M398.667 1072.33L399.333 1072.67L398.667 1072.33z"/>
<path style="fill:#8a8a8a; stroke:none;" d="M302.333 1073.67L302.667 1074.33L302.333 1073.67z"/>
<path style="fill:#6a6a6a; stroke:none;" d="M391 1075L391 1076L399 1076L391 1075z"/>
<path style="fill:#a6a6a6; stroke:none;" d="M384 1076L384 1077L389 1077L384 1076z"/>
<path style="fill:#d6d6d6; stroke:none;" d="M399 1076L399 1096L400 1096L399 1076z"/>
<path style="fill:#bababa; stroke:none;" d="M377 1077L377 1078L382 1078L377 1077z"/>
<path style="fill:#aaaaaa; stroke:none;" d="M370 1078L370 1079L375 1079L370 1078z"/>
<path style="fill:#565656; stroke:none;" d="M1053 1079L1053 1101L1054 1101L1053 1079z"/>
<path style="fill:#4e4e4e; stroke:none;" d="M1067 1079L1067 1080L1072 1080L1067 1079z"/>
<path style="fill:#3e3e3e; stroke:none;" d="M1077 1080L1077 1081L1086 1082L1077 1080z"/>
<path style="fill:#828282; stroke:none;" d="M344.667 1085.33L345.333 1085.67L344.667 1085.33M1105.67 1087.33L1106.33 1087.67L1105.67 1087.33M1108.67 1088.33L1109.33 1088.67L1108.67 1088.33z"/>
<path style="fill:#626262; stroke:none;" d="M1160 1088L1162 1091L1160 1088z"/>
<path style="fill:#9a9a9a; stroke:none;" d="M335.667 1089.33L336.333 1089.67L335.667 1089.33z"/>
<path style="fill:#6a6a6a; stroke:none;" d="M1113.67 1090.33L1114.33 1090.67L1113.67 1090.33z"/>
<path style="fill:#8e8e8e; stroke:none;" d="M1117.67 1092.33L1118.33 1092.67L1117.67 1092.33z"/>
<path style="fill:#666666; stroke:none;" d="M1163 1092L1165 1095L1163 1092z"/>
<path style="fill:#bebebe; stroke:none;" d="M425 1095L428 1097L425 1095z"/>
<path style="fill:#bababa; stroke:none;" d="M399 1097L399 1104L400 1104L399 1097z"/>
<path style="fill:#828282; stroke:none;" d="M1127.67 1097.33L1128.33 1097.67L1127.67 1097.33z"/>
<path style="fill:#666666; stroke:none;" d="M1131.67 1099.33L1132.33 1099.67L1131.67 1099.33M1171.33 1102.67L1171.67 1103.33L1171.33 1102.67z"/>
<path style="fill:#626262; stroke:none;" d="M1138.67 1103.33L1139.33 1103.67L1138.67 1103.33z"/>
<path style="fill:#6e6e6e; stroke:none;" d="M399 1104L399 1110L400 1110L399 1104z"/>
<path style="fill:#8e8e8e; stroke:none;" d="M1054 1105L1054 1110L1055 1110L1054 1105z"/>
<path style="fill:#8a8a8a; stroke:none;" d="M1147 1108L1150 1110L1147 1108z"/>
<path style="fill:#4a4a4a; stroke:none;" d="M1177 1110L1179 1113L1177 1110M398 1114L398 1120L399 1120L398 1114z"/>
<path style="fill:#767676; stroke:none;" d="M1055 1115L1055 1121L1056 1121L1055 1115z"/>
<path style="fill:#464646; stroke:none;" d="M1181 1115L1183 1118L1181 1115z"/>
<path style="fill:#7a7a7a; stroke:none;" d="M397 1120L397 1123L398 1123L397 1120z"/>
<path style="fill:#6a6a6a; stroke:none;" d="M1170 1122L1173 1124L1170 1122z"/>
<path style="fill:#525252; stroke:none;" d="M1056 1123L1056 1127L1057 1127L1056 1123z"/>
<path style="fill:#424242; stroke:none;" d="M396 1125L396 1129L397 1129L396 1125z"/>
<path style="fill:#bebebe; stroke:none;" d="M468 1125L471 1127L468 1125z"/>
<path style="fill:#4e4e4e; stroke:none;" d="M1175 1125L1178 1127L1175 1125z"/>
<path style="fill:#767676; stroke:none;" d="M470 1127L470 1128L474 1129L474 1128L470 1127z"/>
<path style="fill:#4a4a4a; stroke:none;" d="M1057 1128L1057 1132L1058 1132L1057 1128z"/>
<path style="fill:#b2b2b2; stroke:none;" d="M478 1131L481 1133L478 1131z"/>
<path style="fill:#464646; stroke:none;" d="M972 1136L976 1133L972 1136z"/>
<path style="fill:#868686; stroke:none;" d="M393.333 1136.67L393.667 1137.33L393.333 1136.67z"/>
<path style="fill:#6e6e6e; stroke:none;" d="M485 1136L485 1137L489 1138L489 1137L485 1136z"/>
<path style="fill:#8e8e8e; stroke:none;" d="M475.667 1137.33L476.333 1137.67L475.667 1137.33z"/>
<path style="fill:#727272; stroke:none;" d="M482 1137L482 1140L483 1140L482 1137z"/>
<path style="fill:#a2a2a2; stroke:none;" d="M965.667 1138.33L966.333 1138.67L965.667 1138.33z"/>
<path style="fill:#8e8e8e; stroke:none;" d="M392.333 1139.67L392.667 1140.33L392.333 1139.67z"/>
<path style="fill:#868686; stroke:none;" d="M973 1139L973 1140L977 1140L973 1139M1060.33 1139.67L1060.67 1140.33L1060.33 1139.67z"/>
<path style="fill:#9e9e9e; stroke:none;" d="M977.667 1140.33L978.333 1140.67L977.667 1140.33z"/>
<path style="fill:#b6b6b6; stroke:none;" d="M249 1141L248 1145L249 1145L249 1141z"/>
<path style="fill:#4e4e4e; stroke:none;" d="M250 1143L253 1142L250 1143z"/>
<path style="fill:#7e7e7e; stroke:none;" d="M391.333 1142.67L391.667 1143.33L391.333 1142.67z"/>
<path style="fill:#868686; stroke:none;" d="M460.667 1142.33L461.333 1142.67L460.667 1142.33z"/>
<path style="fill:#aeaeae; stroke:none;" d="M497 1142L497 1143L502 1145L502 1144L497 1142z"/>
<path style="fill:#b2b2b2; stroke:none;" d="M969 1142L969 1146L970 1146L969 1142z"/>
<path style="fill:#7e7e7e; stroke:none;" d="M1061.33 1142.67L1061.67 1143.33L1061.33 1142.67z"/>
<path style="fill:#767676; stroke:none;" d="M457.667 1143.33L458.333 1143.67L457.667 1143.33z"/>
<path style="fill:#626262; stroke:none;" d="M988.667 1143.33L989.333 1143.67L988.667 1143.33z"/>
<path style="fill:#5e5e5e; stroke:none;" d="M1202 1143L1205 1145L1202 1143z"/>
<path style="fill:#9e9e9e; stroke:none;" d="M1205 1143L1204 1146L1207 1146L1205 1143z"/>
<path style="fill:#929292; stroke:none;" d="M455.667 1144.33L456.333 1144.67L455.667 1144.33z"/>
<path style="fill:#6e6e6e; stroke:none;" d="M452 1145L452 1146L455 1146L452 1145z"/>
<path style="fill:#929292; stroke:none;" d="M993.667 1145.33L994.333 1145.67L993.667 1145.33z"/>
<path style="fill:#6a6a6a; stroke:none;" d="M1062.33 1145.67L1062.67 1146.33L1062.33 1145.67z"/>
<path style="fill:#868686; stroke:none;" d="M450.667 1146.33L451.333 1146.67L450.667 1146.33z"/>
<path style="fill:#8e8e8e; stroke:none;" d="M448.667 1147.33L449.333 1147.67L448.667 1147.33z"/>
<path style="fill:#929292; stroke:none;" d="M998.667 1147.33L999.333 1147.67L998.667 1147.33z"/>
<path style="fill:#6a6a6a; stroke:none;" d="M507.667 1148.33L508.333 1148.67L507.667 1148.33z"/>
<path style="fill:#5a5a5a; stroke:none;" d="M945 1149L945 1150L950 1149L945 1149z"/>
<path style="fill:#666666; stroke:none;" d="M599.667 1149.33L600.333 1149.67L599.667 1149.33z"/>
<path style="fill:#727272; stroke:none;" d="M388.333 1150.67L388.667 1151.33L388.333 1150.67z"/>
<path style="fill:#666666; stroke:none;" d="M606.667 1151.33L607.333 1151.67L606.667 1151.33z"/>
<path style="fill:#8e8e8e; stroke:none;" d="M941.667 1151.33L942.333 1151.67L941.667 1151.33z"/>
<path style="fill:#929292; stroke:none;" d="M845.667 1152.33L846.333 1152.67L845.667 1152.33z"/>
<path style="fill:#7e7e7e; stroke:none;" d="M939.667 1152.33L940.333 1152.67L939.667 1152.33z"/>
<path style="fill:#7a7a7a; stroke:none;" d="M1065 1152L1065 1155L1066 1155L1065 1152z"/>
<path style="fill:#868686; stroke:none;" d="M841.667 1153.33L842.333 1153.67L841.667 1153.33z"/>
<path style="fill:#828282; stroke:none;" d="M617 1154L617 1155L620 1155L617 1154M837.667 1154.33L838.333 1154.67L837.667 1154.33z"/>
<path style="fill:#868686; stroke:none;" d="M833 1155L833 1156L836 1156L833 1155z"/>
<path style="fill:#5e5e5e; stroke:none;" d="M626.667 1156.33L627.333 1156.67L626.667 1156.33z"/>
<path style="fill:#969696; stroke:none;" d="M829.667 1156.33L830.333 1156.67L829.667 1156.33z"/>
<path style="fill:#5e5e5e; stroke:none;" d="M1017.67 1156.33L1018.33 1156.67L1017.67 1156.33z"/>
<path style="fill:#727272; stroke:none;" d="M385.333 1157.67L385.667 1158.33L385.333 1157.67z"/>
<path style="fill:#767676; stroke:none;" d="M630 1157L630 1158L633 1158L630 1157M824 1157L824 1158L827 1158L824 1157z"/>
<path style="fill:#7e7e7e; stroke:none;" d="M1067.33 1157.67L1067.67 1158.33L1067.33 1157.67z"/>
<path style="fill:#666666; stroke:none;" d="M635 1158L635 1159L638 1159L635 1158M819 1158L819 1159L822 1159L819 1158z"/>
<path style="fill:#b2b2b2; stroke:none;" d="M487 1159L487 1163L488 1163L487 1159z"/>
<path style="fill:#666666; stroke:none;" d="M640 1159L640 1160L643 1160L640 1159M814 1159L814 1160L817 1160L814 1159z"/>
<path style="fill:#767676; stroke:none;" d="M645.667 1160.33L646.333 1160.67L645.667 1160.33M809 1160L809 1161L812 1161L809 1160z"/>
<path style="fill:#929292; stroke:none;" d="M650 1161L650 1162L653 1162L650 1161z"/>
<path style="fill:#bababa; stroke:none;" d="M803 1161L803 1162L807 1162L803 1161z"/>
<path style="fill:#5e5e5e; stroke:none;" d="M965 1161L965 1167L966 1167L965 1161M383.333 1162.67L383.667 1163.33L383.333 1162.67z"/>
<path style="fill:#464646; stroke:none;" d="M656 1162L656 1163L660 1163L656 1162z"/>
<path style="fill:#6a6a6a; stroke:none;" d="M797 1162L797 1163L800 1163L797 1162z"/>
<path style="fill:#626262; stroke:none;" d="M790 1163L790 1164L793 1164L790 1163z"/>
<path style="fill:#aeaeae; stroke:none;" d="M543 1164L543 1165L548 1166L548 1165L543 1164M909 1165L909 1166L914 1165L909 1165z"/>
<path style="fill:#828282; stroke:none;" d="M488 1165L488 1169L489 1169L488 1165z"/>
<path style="fill:#6e6e6e; stroke:none;" d="M772 1165L772 1166L777 1166L772 1165z"/>
<path style="fill:#828282; stroke:none;" d="M381.333 1166.67L381.667 1167.33L381.333 1166.67z"/>
<path style="fill:#464646; stroke:none;" d="M547 1166L547 1167L552 1168L552 1167L547 1166z"/>
<path style="fill:#969696; stroke:none;" d="M687 1166L687 1167L695 1167L687 1166z"/>
<path style="fill:#aaaaaa; stroke:none;" d="M763 1166L763 1167L769 1167L763 1166z"/>
<path style="fill:#6e6e6e; stroke:none;" d="M1071.33 1166.67L1071.67 1167.33L1071.33 1166.67z"/>
<path style="fill:#bebebe; stroke:none;" d="M699 1167L699 1168L705 1168L699 1167z"/>
<path style="fill:#666666; stroke:none;" d="M705 1167L705 1168L712 1168L705 1167z"/>
<path style="fill:#6e6e6e; stroke:none;" d="M745 1167L745 1168L750 1168L745 1167z"/>
<path style="fill:#aeaeae; stroke:none;" d="M750 1167L750 1168L757 1168L750 1167z"/>
<path style="fill:#626262; stroke:none;" d="M552 1168L552 1169L555 1169L552 1168z"/>
<path style="fill:#b2b2b2; stroke:none;" d="M893 1171L893 1172L898 1171L893 1171z"/>
<path style="fill:#cacaca; stroke:none;" d="M964 1170L964 1184L965 1184L964 1170z"/>
<path style="fill:#767676; stroke:none;" d="M1073.33 1170.67L1073.67 1171.33L1073.33 1170.67z"/>
<path style="fill:#5e5e5e; stroke:none;" d="M377.333 1175.67L377.667 1176.33L377.333 1175.67z"/>
<path style="fill:#6e6e6e; stroke:none;" d="M572 1175L572 1176L575 1176L572 1175z"/>
<path style="fill:#a2a2a2; stroke:none;" d="M1075 1175L1077 1178L1075 1175z"/>
<path style="fill:#8e8e8e; stroke:none;" d="M489 1177L489 1193L490 1193L489 1177z"/>
<path style="fill:#727272; stroke:none;" d="M578 1177L578 1178L581 1178L578 1177z"/>
<path style="fill:#828282; stroke:none;" d="M875.667 1177.33L876.333 1177.67L875.667 1177.33z"/>
<path style="fill:#8a8a8a; stroke:none;" d="M588 1180L588 1181L591 1181L588 1180z"/>
<path style="fill:#b6b6b6; stroke:none;" d="M876 1182L879 1181L876 1182z"/>
<path style="fill:#828282; stroke:none;" d="M374.333 1181.67L374.667 1182.33L374.333 1181.67z"/>
<path style="fill:#727272; stroke:none;" d="M880.667 1181.33L881.333 1181.67L880.667 1181.33z"/>
<path style="fill:#767676; stroke:none;" d="M594.667 1182.33L595.333 1182.67L594.667 1182.33z"/>
<path style="fill:#666666; stroke:none;" d="M860 1182L860 1183L863 1183L860 1182z"/>
<path style="fill:#767676; stroke:none;" d="M598.667 1183.33L599.333 1183.67L598.667 1183.33M856 1183L856 1184L859 1184L856 1183z"/>
<path style="fill:#868686; stroke:none;" d="M372.333 1185.67L372.667 1186.33L372.333 1185.67z"/>
<path style="fill:#4e4e4e; stroke:none;" d="M963 1185L963 1194L964 1194L963 1185z"/>
<path style="fill:#666666; stroke:none;" d="M1080.33 1185.67L1080.67 1186.33L1080.33 1185.67z"/>
<path style="fill:#bebebe; stroke:none;" d="M608 1186L608 1187L614 1187L608 1186z"/>
<path style="fill:#828282; stroke:none;" d="M873.333 1186.67L873.667 1187.33L873.333 1186.67M617.667 1188.33L618.333 1188.67L617.667 1188.33M837.667 1188.33L838.333 1188.67L837.667 1188.33z"/>
<path style="fill:#929292; stroke:none;" d="M622.667 1189.33L623.333 1189.67L622.667 1189.33z"/>
<path style="fill:#5e5e5e; stroke:none;" d="M833.667 1189.33L834.333 1189.67L833.667 1189.33z"/>
<path style="fill:#6e6e6e; stroke:none;" d="M626 1190L626 1191L629 1191L626 1190M828.667 1190.33L829.333 1190.67L828.667 1190.33z"/>
<path style="fill:#7e7e7e; stroke:none;" d="M631 1191L631 1192L634 1192L631 1191M823 1191L823 1192L826 1192L823 1191z"/>
<path style="fill:#bebebe; stroke:none;" d="M1083 1191L1085 1194L1083 1191z"/>
<path style="fill:#aeaeae; stroke:none;" d="M636 1192L636 1193L648 1194L636 1192z"/>
<path style="fill:#8e8e8e; stroke:none;" d="M818 1192L818 1193L821 1193L818 1192z"/>
<path style="fill:#5a5a5a; stroke:none;" d="M368 1194L367 1198L368 1198L368 1194z"/>
<path style="fill:#aaaaaa; stroke:none;" d="M648 1194L648 1195L653 1195L648 1194z"/>
<path style="fill:#3a3a3a; stroke:none;" d="M800 1195L800 1196L811 1195L800 1195z"/>
<path style="fill:#aeaeae; stroke:none;" d="M655 1195L655 1196L663 1196L655 1195z"/>
<path style="fill:#969696; stroke:none;" d="M488 1196L488 1202L489 1202L488 1196z"/>
<path style="fill:#5e5e5e; stroke:none;" d="M584.333 1196.67L584.667 1197.33L584.333 1196.67z"/>
<path style="fill:#5a5a5a; stroke:none;" d="M660 1196L660 1197L667 1197L660 1196z"/>
<path style="fill:#626262; stroke:none;" d="M790 1196L790 1197L796 1197L790 1196z"/>
<path style="fill:#8a8a8a; stroke:none;" d="M669 1197L669 1198L676 1198L669 1197z"/>
<path style="fill:#9e9e9e; stroke:none;" d="M781 1197L781 1198L788 1198L781 1197z"/>
<path style="fill:#aaaaaa; stroke:none;" d="M681 1198L681 1199L685 1199L681 1198M771 1198L771 1199L775 1199L771 1198z"/>
<path style="fill:#5a5a5a; stroke:none;" d="M964 1198L964 1204L965 1204L964 1198z"/>
<path style="fill:#565656; stroke:none;" d="M688 1199L688 1200L692 1200L688 1199z"/>
<path style="fill:#aaaaaa; stroke:none;" d="M692 1199L692 1200L696 1200L692 1199M759 1199L759 1200L764 1200L759 1199z"/>
<path style="fill:#565656; stroke:none;" d="M764 1199L764 1200L768 1200L764 1199M701 1200L701 1201L707 1201L701 1200z"/>
<path style="fill:#aaaaaa; stroke:none;" d="M707 1200L707 1201L715 1201L707 1200M738 1200L738 1201L748 1201L738 1200z"/>
<path style="fill:#565656; stroke:none;" d="M748 1200L748 1201L754 1201L748 1200z"/>
<path style="fill:#a2a2a2; stroke:none;" d="M363.333 1203.67L363.667 1204.33L363.333 1203.67z"/>
<path style="fill:#9e9e9e; stroke:none;" d="M965 1205L965 1208L966 1208L965 1205z"/>
<path style="fill:#929292; stroke:none;" d="M487 1206L487 1210L488 1210L487 1206z"/>
<path style="fill:#8e8e8e; stroke:none;" d="M865.333 1206.67L865.667 1207.33L865.333 1206.67z"/>
<path style="fill:#a2a2a2; stroke:none;" d="M361.333 1207.67L361.667 1208.33L361.333 1207.67z"/>
<path style="fill:#666666; stroke:none;" d="M966 1212L966 1215L967 1215L966 1212z"/>
<path style="fill:#424242; stroke:none;" d="M590 1214L591 1219L592 1219L590 1214z"/>
<path style="fill:#7e7e7e; stroke:none;" d="M967 1217L967 1220L968 1220L967 1217z"/>
<path style="fill:#7a7a7a; stroke:none;" d="M485 1218L485 1222L486 1222L485 1218z"/>
<path style="fill:#bebebe; stroke:none;" d="M1098 1220L1100 1223L1098 1220z"/>
<path style="fill:#8a8a8a; stroke:none;" d="M968 1221L968 1225L969 1225L968 1221z"/>
<path style="fill:#666666; stroke:none;" d="M484 1223L484 1227L485 1227L484 1223z"/>
<path style="fill:#aeaeae; stroke:none;" d="M352 1225L351 1228L352 1225z"/>
<path style="fill:#868686; stroke:none;" d="M969 1226L969 1229L970 1229L969 1226z"/>
<path style="fill:#969696; stroke:none;" d="M1101 1226L1103 1229L1101 1226z"/>
<path style="fill:#8a8a8a; stroke:none;" d="M483 1228L483 1231L484 1231L483 1228z"/>
<path style="fill:#bababa; stroke:none;" d="M859 1228L859 1232L860 1232L859 1228z"/>
<path style="fill:#828282; stroke:none;" d="M348 1234L352 1231L348 1234z"/>
<path style="fill:#666666; stroke:none;" d="M970 1231L970 1234L971 1234L970 1231z"/>
<path style="fill:#828282; stroke:none;" d="M482 1232L482 1236L483 1236L482 1232z"/>
<path style="fill:#565656; stroke:none;" d="M1104 1232L1105 1235L1104 1232z"/>
<path style="fill:#a2a2a2; stroke:none;" d="M594 1233L594 1237L595 1237L594 1233z"/>
<path style="fill:#a6a6a6; stroke:none;" d="M1105 1233L1107 1236L1105 1233z"/>
<path style="fill:#6a6a6a; stroke:none;" d="M481 1237L481 1240L482 1240L481 1237z"/>
<path style="fill:#828282; stroke:none;" d="M595 1239L595 1252L596 1252L595 1239z"/>
<path style="fill:#9a9a9a; stroke:none;" d="M857 1240L857 1285L858 1285C858 1272.26 861.91 1251.7 857 1240z"/>
<path style="fill:#a2a2a2; stroke:none;" d="M973 1242L973 1246L974 1246L973 1242z"/>
<path style="fill:#6e6e6e; stroke:none;" d="M974 1247L974 1250L975 1250L974 1247z"/>
<path style="fill:#8e8e8e; stroke:none;" d="M478 1249L478 1252L479 1252L478 1249z"/>
<path style="fill:#4a4a4a; stroke:none;" d="M477 1253L477 1257L478 1257L477 1253z"/>
<path style="fill:#8e8e8e; stroke:none;" d="M745.333 1255.67L745.667 1256.33L745.333 1255.67z"/>
<path style="fill:#8a8a8a; stroke:none;" d="M627 1257L626 1260L627 1257z"/>
<path style="fill:#aaaaaa; stroke:none;" d="M475 1260L475 1264L476 1264L475 1260z"/>
<path style="fill:#bebebe; stroke:none;" d="M474 1265L473 1270L474 1270L474 1265z"/>
<path style="fill:#9e9e9e; stroke:none;" d="M623 1266L622 1269L623 1266z"/>
<path style="fill:#8e8e8e; stroke:none;" d="M979 1266L979 1269L980 1269L979 1266z"/>
<path style="fill:#9e9e9e; stroke:none;" d="M830.333 1267.67L830.667 1268.33L830.333 1267.67z"/>
<path style="fill:#aeaeae; stroke:none;" d="M485 1269L484 1272L485 1269z"/>
<path style="fill:#6e6e6e; stroke:none;" d="M620.333 1271.67L620.667 1272.33L620.333 1271.67z"/>
<path style="fill:#b2b2b2; stroke:none;" d="M969 1272L971 1275L969 1272z"/>
<path style="fill:#8e8e8e; stroke:none;" d="M712.333 1274.67L712.667 1275.33L712.333 1274.67z"/>
<path style="fill:#868686; stroke:none;" d="M619 1275L618 1278L619 1275z"/>
<path style="fill:#727272; stroke:none;" d="M740 1275L740 1278L741 1278L740 1275z"/>
<path style="fill:#9a9a9a; stroke:none;" d="M834.333 1276.67L834.667 1277.33L834.333 1276.67z"/>
<path style="fill:#727272; stroke:none;" d="M982 1277L983 1283L984 1283L982 1277z"/>
<path style="fill:#b2b2b2; stroke:none;" d="M478 1280L477 1283L478 1280z"/>
<path style="fill:#8e8e8e; stroke:none;" d="M739 1280L739 1283L740 1283L739 1280z"/>
<path style="fill:#929292; stroke:none;" d="M616.333 1281.67L616.667 1282.33L616.333 1281.67z"/>
<path style="fill:#9e9e9e; stroke:none;" d="M595 1282L595 1299L596 1299L595 1282z"/>
<path style="fill:#8e8e8e; stroke:none;" d="M714 1283L714 1286L715 1286L714 1283z"/>
<path style="fill:#868686; stroke:none;" d="M837.333 1283.67L837.667 1284.33L837.333 1283.67z"/>
<path style="fill:#727272; stroke:none;" d="M738 1285L738 1288L739 1288L738 1285z"/>
<path style="fill:#7e7e7e; stroke:none;" d="M838.333 1285.67L838.667 1286.33L838.333 1285.67z"/>
<path style="fill:#b2b2b2; stroke:none;" d="M984 1285L985 1290L986 1290L984 1285z"/>
<path style="fill:#969696; stroke:none;" d="M614.333 1286.67L614.667 1287.33L614.333 1286.67z"/>
<path style="fill:#424242; stroke:none;" d="M857 1287L857 1291L858 1291L857 1287z"/>
<path style="fill:#8e8e8e; stroke:none;" d="M715 1288L715 1291L716 1291L715 1288z"/>
<path style="fill:#929292; stroke:none;" d="M840.333 1290.67L840.667 1291.33L840.333 1290.67z"/>
<path style="fill:#9a9a9a; stroke:none;" d="M612.333 1291.67L612.667 1292.33L612.333 1291.67z"/>
<path style="fill:#8a8a8a; stroke:none;" d="M858 1292L858 1310L859 1310L858 1292z"/>
<path style="fill:#727272; stroke:none;" d="M716 1293L716 1296L717 1296L716 1293z"/>
<path style="fill:#7a7a7a; stroke:none;" d="M987.333 1295.67L987.667 1296.33L987.333 1295.67z"/>
<path style="fill:#8e8e8e; stroke:none;" d="M736 1296L736 1299L737 1299L736 1296z"/>
<path style="fill:#525252; stroke:none;" d="M465 1298L465 1300L467 1300L467 1298L465 1298z"/>
<path style="fill:#969696; stroke:none;" d="M843.333 1298.67L843.667 1299.33L843.333 1298.67z"/>
<path style="fill:#565656; stroke:none;" d="M988 1298L987 1301L988 1298M595 1299L595 1304L596 1304L595 1299z"/>
<path style="fill:#a2a2a2; stroke:none;" d="M609.333 1299.67L609.667 1300.33L609.333 1299.67z"/>
<path style="fill:#aeaeae; stroke:none;" d="M464 1302L467 1300L464 1302z"/>
<path style="fill:#b2b2b2; stroke:none;" d="M989 1300C987.702 1302.18 987.789 1302.69 990 1304L989 1300z"/>
<path style="fill:#6a6a6a; stroke:none;" d="M608.333 1301.67L608.667 1302.33L608.333 1301.67z"/>
<path style="fill:#626262; stroke:none;" d="M607.333 1303.67L607.667 1304.33L607.333 1303.67z"/>
<path style="fill:#666666; stroke:none;" d="M594 1311L594 1324L595 1324L594 1311z"/>
<path style="fill:#828282; stroke:none;" d="M859 1311L859 1324L860 1324L859 1311z"/>
<path style="fill:#9a9a9a; stroke:none;" d="M849.333 1313.67L849.667 1314.33L849.333 1313.67z"/>
<path style="fill:#6a6a6a; stroke:none;" d="M850.333 1315.67L850.667 1316.33L850.333 1315.67z"/>
<path style="fill:#8a8a8a; stroke:none;" d="M602.333 1317.67L602.667 1318.33L602.333 1317.67z"/>
<path style="fill:#9e9e9e; stroke:none;" d="M851.333 1318.67L851.667 1319.33L851.333 1318.67z"/>
<path style="fill:#aaaaaa; stroke:none;" d="M721 1321L721 1325L722 1325L721 1321z"/>
<path style="fill:#868686; stroke:none;" d="M600.333 1322.67L600.667 1323.33L600.333 1322.67z"/>
<path style="fill:#8e8e8e; stroke:none;" d="M853.333 1323.67L853.667 1324.33L853.333 1323.67z"/>
<path style="fill:#bababa; stroke:none;" d="M593 1325L593 1331L594 1331L593 1325z"/>
<path style="fill:#6e6e6e; stroke:none;" d="M599 1326L598 1330L599 1330L599 1326z"/>
<path style="fill:#aaaaaa; stroke:none;" d="M731 1326L731 1330L732 1330L731 1326z"/>
<path style="fill:#767676; stroke:none;" d="M593 1331L593 1338L594 1338L593 1331z"/>
<path style="fill:#7e7e7e; stroke:none;" d="M856.333 1331.67L856.667 1332.33L856.333 1331.67z"/>
<path style="fill:#727272; stroke:none;" d="M860 1333L860 1338L861 1338L860 1333z"/>
<path style="fill:#7e7e7e; stroke:none;" d="M857.333 1334.67L857.667 1335.33L857.333 1334.67z"/>
<path style="fill:#6e6e6e; stroke:none;" d="M858.333 1336.67L858.667 1337.33L858.333 1336.67z"/>
<path style="fill:#b6b6b6; stroke:none;" d="M592 1340L592 1344L595 1340L592 1340z"/>
<path style="fill:#a2a2a2; stroke:none;" d="M861 1340L859 1341L862 1345L861 1340z"/>
<path style="fill:#565656; stroke:none;" d="M726 1354L726 1356L728 1356L728 1354L726 1354z"/>
<path style="fill:#aaaaaa; stroke:none;" d="M726 1356L726 1359L728 1359L728 1356L726 1356z"/>
</svg>
