/* XPM */
static char *alpha_mod[] = {
/* width height num_colors chars_per_pixel */
"    20    20      197            2",
/* colors */
".. c #000000",
".# c #424242",
".a c #515151",
".b c #566ab2",
".c c #5971b6",
".d c #5b5d9f",
".e c #5b77b9",
".f c #5d5e99",
".g c #607cba",
".h c #615ea0",
".i c #625f9b",
".j c #6264b2",
".k c #626cb7",
".l c #635aa4",
".m c #635c8f",
".n c #6460a3",
".o c #64629f",
".p c #6473b9",
".q c #665f93",
".r c #6667a6",
".s c #6669a3",
".t c #6679bb",
".u c #6763a8",
".v c #676499",
".w c #676aad",
".x c #676ead",
".y c #6771ad",
".z c #677eb7",
".A c #685884",
".B c #685ca7",
".C c #686ba0",
".D c #6a66ae",
".E c #6b5eaa",
".F c #6b6394",
".G c #6b6d9f",
".H c #6b71b6",
".I c #6b7db9",
".J c #6c5984",
".K c #6c6db5",
".L c #6d5d8a",
".M c #6f60ae",
".N c #6f6dbb",
".O c #6f75bd",
".P c #705eb2",
".Q c #706490",
".R c #7065b7",
".S c #7067b4",
".T c #717abd",
".U c #745276",
".V c #747db0",
".W c #747eb4",
".X c #755b82",
".Y c #7562b3",
".Z c #75638c",
".0 c #766dbb",
".1 c #775579",
".2 c #777eb9",
".3 c #7868b9",
".4 c #7a76bf",
".5 c #7b5bb2",
".6 c #7b6fbe",
".7 c #7c62b8",
".8 c #7ca8b3",
".9 c #7d4b69",
"#. c #7d597b",
"## c #7d66bb",
"#a c #7fa2b2",
"#b c #8056b2",
"#c c #805eb7",
"#d c #807fb3",
"#e c #824c68",
"#f c #82516f",
"#g c #825cb6",
"#h c #827dab",
"#i c #8399b2",
"#j c #845877",
"#k c #847aa4",
"#l c #84a8b8",
"#m c #8566be",
"#n c #8572c2",
"#o c #8761bb",
"#p c #87a2b8",
"#q c #8969c0",
"#r c #898db2",
"#s c #8b5bb9",
"#t c #8c455a",
"#u c #8c4e67",
"#v c #8c60bc",
"#w c #8ca6bd",
"#x c #8e76c7",
"#y c #8f475d",
"#z c #8f50b2",
"#A c #8f58b7",
"#B c #9057b7",
"#C c #916cc5",
"#D c #917eb2",
"#E c #93789e",
"#F c #943e50",
"#G c #944c62",
"#H c #9452b4",
"#I c #947bcd",
"#J c #965ebf",
"#K c #9664c1",
"#L c #974fb2",
"#M c #9759bc",
"#N c #97a1c2",
"#O c #986eb2",
"#P c #987496",
"#Q c #9955ba",
"#R c #995bbc",
"#S c #9971ca",
"#T c #9a3f4f",
"#U c #9a4355",
"#V c #9a4db2",
"#W c #9b54b7",
"#X c #9b7fd4",
"#Y c #9c51b7",
"#Z c #9d68c6",
"#0 c #9e4fb2",
"#1 c #9e4fb5",
"#2 c #9e5fb2",
"#3 c #a04eb2",
"#4 c #a06db8",
"#5 c #a076d0",
"#6 c #a152b2",
"#7 c #a154b2",
"#8 c #a23944",
"#9 c #a24150",
"a. c #a254b7",
"a# c #a260c2",
"aa c #a359bc",
"ab c #a399c7",
"ac c #a44fb5",
"ad c #a453bc",
"ae c #a457bf",
"af c #a461b8",
"ag c #a53b47",
"ah c #a54eb7",
"ai c #a550ba",
"aj c #a558b8",
"ak c #a56dcb",
"al c #a750b5",
"am c #a77ad6",
"an c #a85bbc",
"ao c #a865c7",
"ap c #a960c2",
"aq c #a961bd",
"ar c #ab4db7",
"as c #ab72d1",
"at c #ac363e",
"au c #ac6e87",
"av c #ad3942",
"aw c #ad4dba",
"ax c #ad63c2",
"ay c #ae4db7",
"az c #ae4ebc",
"aA c #ae6bcc",
"aB c #af51bf",
"aC c #af65c7",
"aD c #b07fdc",
"aE c #b090cd",
"aF c #b14bba",
"aG c #b288cd",
"aH c #b3343a",
"aI c #b376d7",
"aJ c #b44bbc",
"aK c #b56ccd",
"aL c #b570d2",
"aM c #b64ebf",
"aN c #bb87d2",
"aO c #bc70d2",
"aP c #be81d2",
"aQ c #bf75d2",
"aR c #bf7ad2",
"aS c #c3c1eb",
"aT c #c77bd8",
"aU c #c77fd8",
"aV c #c9b6eb",
"aW c #cab4eb",
"aX c #cea9eb",
"aY c #d0a6eb",
"aZ c #d17add",
"a0 c #d1ddfd",
"a1 c #d1dffd",
"a2 c #d39ceb",
"a3 c #d39deb",
"a4 c #d49deb",
"a5 c #d58deb",
"a6 c #d599eb",
"a7 c #d68deb",
"a8 c #d692eb",
"a9 c #d694eb",
"b. c #d6d3fd",
"b# c #d8d0fd",
"ba c #dcc7fd",
"bb c #dfc2fd",
"bc c None",
/* pixels */
"bcbcbcbcbcbcbcbcbcbcbcbcbcbcbcbcbcbcbcbc",
"..................................bcbcbc",
"...8#a#i#r#D#O#2#7#3#V#z#b.P.j.b..bcbcbc",
"..#l#pa0b#bb#4afaja.#W#A#c.R.k.c...#.abc",
"..#wa1aSaWaYa6aqanaa#R#v##.N.p.e...#.abc",
"..#Nb.aVaXa2a8axapa##K#q.6.O.t.g...#.abc",
"..abbaaXa3a9a5aCao#Z#C#n.4.T.I.z...#.abc",
"..aEaGa4a9a7aKaAak#S#x.l.d.2.W.V...#.abc",
"..aNaPaRaQaOaLas#5#I.B.h.f#d#h#k...#.abc",
"..aUaT#6#0#LaIam#X.E.n.i.m.A#E#P...#.abc",
"..aZalac#1#HaD.5.M.u.o.q.J.U.9au...#.abc",
"..ayarah#Y#B#g.Y.D.r.v.L.1#e#t#F...#.abc",
"..aFawai#Q#s.7.S.w.s.F.X#f#y#T#8...#.abc",
"..aJazad#M#o.3.K.x.C.Q#.#u#Uagat...#.abc",
"..aMaBae#J#m.0.H.y.G.Z#j#G#9avaH...#.abc",
"...................................#.abc",
"bcbc.#.#.#.#.#.#.#.#.#.#.#.#.#.#.#.#.abc",
"bcbc.a.a.a.a.a.a.a.a.a.a.a.a.a.a.a.a.abc",
"bcbcbcbcbcbcbcbcbcbcbcbcbcbcbcbcbcbcbcbc",
"bcbcbcbcbcbcbcbcbcbcbcbcbcbcbcbcbcbcbcbc"
};
