/* XPM */
static char *blue_mod[] = {
/* width height num_colors chars_per_pixel */
"    20    20       22            1",
/* colors */
". c #000000",
"# c #143f6f",
"a c #194576",
"b c #1e497d",
"c c #244e83",
"d c #29548a",
"e c #2a558b",
"f c #2f5890",
"g c #345e97",
"h c #355f98",
"i c #3a649d",
"j c #4169a6",
"k c #424242",
"l c #4474bb",
"m c #515151",
"n c #5181c8",
"o c #5f91d4",
"p c #6d9dde",
"q c #7eade7",
"r c #aed4f7",
"s c None",
"t c #ffffff",
/* pixels */
".................sss",
".bbbbbbbbbbbbbbb.sss",
".eettteeeeeeeeee.kms",
".htrrrrhhhhhhhhh.kms",
".jtrrrrjjjjjjjjj.kms",
".ltrrrrlllllllll.kms",
".nnrrrnnnnn##nnn.kms",
".oooooooooaaaooo.kms",
".ppbbbpppbbbbbpp.kms",
".qccccqccccccccq.kms",
".ddddddddddddddd.kms",
".fffffffffffffff.kms",
".ggggggggggggggg.kms",
".iiiiiiiiiiiiiii.kms",
".................kms",
"sskkkkkkkkkkkkkkkkms",
"ssmmmmmmmmmmmmmmmmms",
"ssssssssssssssssssss",
"ssssssssssssssssssss",
"ssssssssssssssssssss"
};
