/* XPM */
static char *brite_mod[] = {
/* width height num_colors chars_per_pixel */
"    20    20       23            1",
/* colors */
". c #000000",
"# c #010101",
"a c #050505",
"b c #060606",
"c c #070707",
"d c #0c0c0c",
"e c #0e0e0e",
"f c #131313",
"g c #151515",
"h c #191919",
"i c #2254a5",
"j c #282828",
"k c #2e2e2e",
"l c #2e60b1",
"m c #343434",
"n c #454545",
"o c #474747",
"p c #4779ca",
"q c #7cadff",
"r c #929292",
"s c #e8e8e8",
"t c None",
"u c #ffffff",
/* pixels */
"tttttttttttttttttttt",
"tttttttt....nttttttt",
"ttttteajoosur.mttttt",
"tttt#joooosuuur.tttt",
"ttt#jooooosuuuurcttt",
"ttejoooooosuuuuurmtt",
"ttaooooooosuuuuuugtt",
"tfjooooooosuuuuuurnt",
"tdooooiiilpqqquuuukt",
"tboooiiiilpqqqquuuht",
"tboooiiiilpqqqquuuht",
"tdooooiiilpqqquuuukt",
"tfjooooooosuuuuuurnt",
"ttaooooooosuuuuuugtt",
"ttejoooooosuuuuurmtt",
"ttt.jooooosuuuurcttt",
"tttt#joooosuuur.tttt",
"ttttt..joosurg.ttttt",
"tttttttf....tttttttt",
"tttttttttttttttttttt"
};
