/* XPM */
static char *cam_mod[] = {
/* width height num_colors chars_per_pixel */
"    20    20       83            2",
/* colors */
".. c #000000",
".# c #010101",
".a c #080808",
".b c #090909",
".c c #0b0b0b",
".d c #0c0c0c",
".e c #0d0d0d",
".f c #3c3c3c",
".g c #404040",
".h c #484848",
".i c #4b4b4b",
".j c #505050",
".k c #525252",
".l c #555555",
".m c #575757",
".n c #595959",
".o c #5e5e5e",
".p c #5f5f5f",
".q c #626262",
".r c #6c6c6c",
".s c #6f6f6f",
".t c #777777",
".u c #797979",
".v c #7a7a7a",
".w c #7d7d7d",
".x c #7e7e7e",
".y c #7f7f7f",
".z c #838383",
".A c #848484",
".B c #878787",
".C c #888888",
".D c #8b8b8b",
".E c #8c8c8c",
".F c #8f8f8f",
".G c #939393",
".H c #959595",
".I c #969696",
".J c #989898",
".K c #999999",
".L c #9e9e9e",
".M c #a0a0a0",
".N c #a1a1a1",
".O c #a3a3a3",
".P c #a4a4a4",
".Q c #a5a5a5",
".R c #a7a7a7",
".S c #a8a8a8",
".T c #aaaaaa",
".U c #acacac",
".V c #adadad",
".W c #aeaeae",
".X c #afafaf",
".Y c #b2b2b2",
".Z c #b6b6b6",
".0 c #b7b7b7",
".1 c #b9b9b9",
".2 c #bcbcbc",
".3 c #bebebe",
".4 c #bfbfbf",
".5 c #c1c1c1",
".6 c #c3c3c3",
".7 c #c5c5c5",
".8 c #c6c6c6",
".9 c #cccccc",
"#. c #cecece",
"## c #cfcfcf",
"#a c #d0d0d0",
"#b c #d1d1d1",
"#c c #d4d4d4",
"#d c #d6d6d6",
"#e c #d9d9d9",
"#f c #dbdbdb",
"#g c #dcdcdc",
"#h c #dedede",
"#i c #e1e1e1",
"#j c #e5e5e5",
"#k c #e8e8e8",
"#l c #e9e9e9",
"#m c #eaeaea",
"#n c #ececec",
"#o c #eeeeee",
"#p c #f3f3f3",
"#q c None",
/* pixels */
"#q#q#q#q#q#q#q#q#q#q#q#q#q#q#q#q#q#q#q#q",
"#q#q#q#q#q#q#q.#.d.d.c.#....#q#q#q#q#q#q",
"#q#q#q#q#q.#.e.p.T.R.M.l.c.#..#q#q#q#q#q",
"#q#q#q#q.#.o.Y.2.4.2.Y.Q.H.i.#..#q#q#q#q",
"#q#q#q#q.e.Y.6###c##.6.Y.M.E.b..#q#q#q#q",
"#q#q#q.#.p.2###i#l#i##.2.R.G.h.#..#q#q#q",
"#q#q#q.d.T.4.n.q.r.q.n.j#f.H.y.a..#q#q#q",
"#q#q#q.d.R.2.m..........#e.G.x.a..#q#q#q",
"#q#q#q.c.M.Y.k#m#n#m#j#h#d.E.u.a..#q#q#q",
"#q#q#q.#.l.Q.Y.2.4.2.Y.Q.H.z.g.#..#q#q#q",
"#q#q#q#q.c.H.M.R.T.R.M.H.B.t.a..#q#q#q#q",
"#q#q#q#q.#.i.E.G.H.G.E.z.t.f.#..#q#q#q#q",
"#q#q#q#q#q.#.b.h.y.x.u.g.a.#......#q#q#q",
"#q#q#q#q#q..#p.#.a.a.a.#.X.P........#q#q",
"#q#q#q#q..#p#o#j#f#a.7.1.W.O.J........#q",
"#q#q#q..#j#k#j#h#d.9.5.0.U.N.I.D........",
"#q#q..#d#f#g#f#d#..8.2.Y.S.L.G.C.w......",
"#q...8.9#a#b#a.9.8.3.Z.V.O.K.F.A.v.s..#q",
"#q....................................#q",
"#q#q#q#q#q#q#q#q#q#q#q#q#q#q#q#q#q#q#q#q"
};
