/* XPM */
static char *main_mod[] = {
/* width height num_colors chars_per_pixel */
"    18    18      229            2",
/* colors */
".. c #000000",
".# c #000037",
".a c #00043d",
".b c #00053e",
".c c #00063e",
".d c #00063f",
".e c #00073f",
".f c #000740",
".g c #000741",
".h c #000841",
".i c #003a4b",
".j c #003f51",
".k c #004458",
".l c #00495e",
".m c #004c62",
".n c #004e64",
".o c #005269",
".p c #00566e",
".q c #005a72",
".r c #005c75",
".s c #005c76",
".t c #005f79",
".u c #00607c",
".v c #00627e",
".w c #00637f",
".x c #006480",
".y c #01063f",
".z c #020740",
".A c #030741",
".B c #030842",
".C c #030943",
".D c #044057",
".E c #074a62",
".F c #084760",
".G c #09475d",
".H c #09506a",
".I c #0a6685",
".J c #0b6888",
".K c #0c124c",
".L c #0c445e",
".M c #0c455d",
".N c #0c6781",
".O c #0d5874",
".P c #0e4763",
".Q c #0e4b68",
".R c #0e6888",
".S c #0f4863",
".T c #0f6c8d",
".U c #114e6b",
".V c #11607e",
".W c #11698a",
".X c #13506e",
".Y c #136583",
".Z c #136989",
".0 c #154f6e",
".1 c #164e6b",
".2 c #165d7e",
".3 c #174d6b",
".4 c #175472",
".5 c #194f6f",
".6 c #197994",
".7 c #1a6083",
".8 c #1b4a60",
".9 c #1b5a7a",
"#. c #1b6284",
"## c #1b657d",
"#a c #1c5b7b",
"#b c #1c5b7e",
"#c c #1c6386",
"#d c #1c648a",
"#e c #1d6381",
"#f c #1d6485",
"#g c #1d6488",
"#h c #1d748d",
"#i c #1e5273",
"#j c #1e6083",
"#k c #1f5476",
"#l c #1f6282",
"#m c #1f6385",
"#n c #1f6482",
"#o c #204b6a",
"#p c #206688",
"#q c #206689",
"#r c #206786",
"#s c #216985",
"#t c #216a8c",
"#u c #235a6c",
"#v c #235f73",
"#w c #236d87",
"#x c #245c6e",
"#y c #256b82",
"#z c #256e92",
"#A c #264557",
"#B c #265a80",
"#C c #274254",
"#D c #275d83",
"#E c #284c5f",
"#F c #286d91",
"#G c #296e97",
"#H c #2a6d8a",
"#I c #2b7091",
"#J c #2d6d98",
"#K c #2d7699",
"#L c #2e8aa6",
"#M c #2f7294",
"#N c #3178a0",
"#O c #317a9b",
"#P c #336f92",
"#Q c #337b91",
"#R c #337ca3",
"#S c #347c9a",
"#T c #367d9f",
"#U c #367f96",
"#V c #367fa4",
"#W c #36a9ca",
"#X c #377a91",
"#Y c #3780a6",
"#Z c #387eae",
"#0 c #3881b2",
"#1 c #39596a",
"#2 c #3980a6",
"#3 c #3a83a4",
"#4 c #3badce",
"#5 c #3c87a7",
"#6 c #3eb1d2",
"#7 c #3f849c",
"#8 c #3f86ab",
"#9 c #4096b1",
"a. c #41738c",
"a# c #4188b6",
"aa c #4189b0",
"ab c #4289aa",
"ac c #428aaa",
"ad c #428db4",
"ae c #448caf",
"af c #44b6d6",
"ag c #4590b9",
"ah c #459dc3",
"ai c #4690b2",
"aj c #47b9da",
"ak c #4890b9",
"al c #489fc2",
"am c #4991b3",
"an c #4a95c0",
"ao c #4ba2c2",
"ap c #4dbedf",
"aq c #4e99c2",
"ar c #4f97b5",
"as c #4f9bc2",
"at c #4f9bc4",
"au c #4fc0e0",
"av c #519abf",
"aw c #529dc4",
"ax c #52a9c9",
"ay c #539ec9",
"az c #559fc1",
"aA c #55bad6",
"aB c #55c5e6",
"aC c #56a0c6",
"aD c #56a3d1",
"aE c #58a2bb",
"aF c #5aa3cb",
"aG c #5aa5cd",
"aH c #5ac1de",
"aI c #5ec7e4",
"aJ c #5f819d",
"aK c #5fb4d6",
"aL c #60abc4",
"aM c #678592",
"aN c #6a8aa7",
"aO c #6b8896",
"aP c #6bcae5",
"aQ c #7394a6",
"aR c #73cae2",
"aS c #747993",
"aT c #758896",
"aU c #7790a0",
"aV c #78c7de",
"aW c #78c7e7",
"aX c #78d4ee",
"aY c #798e9c",
"aZ c #7dbfe4",
"a0 c #7fc1e4",
"a1 c #818aa0",
"a2 c #81e2fd",
"a3 c #84c8e5",
"a4 c #84dbf4",
"a5 c #86bdd7",
"a6 c #86d8ef",
"a7 c #91c5e1",
"a8 c #91d2e4",
"a9 c #91dcf1",
"b. c #91ddf2",
"b# c #91e3f9",
"ba c #92def4",
"bb c #93ddf2",
"bc c #94e0f5",
"bd c #95889d",
"be c #95e1f6",
"bf c #96e2f8",
"bg c #97def5",
"bh c #97e4f9",
"bi c #98dff6",
"bj c #98e0f6",
"bk c #98e5fa",
"bl c #99e1f8",
"bm c #99e6fb",
"bn c #9ae7fc",
"bo c #9be3fa",
"bp c #9ce8fd",
"bq c #9d858b",
"br c #9de5fc",
"bs c #9de7fc",
"bt c #9de8fe",
"bu c #9ee6fc",
"bv c #9ee9fe",
"bw c #9feaff",
"bx c #a2898e",
"by c #a3ebff",
"bz c #a48b91",
"bA c #a7e2f2",
"bB c #ab9ca3",
"bC c #c0989c",
"bD c #c1a6b6",
"bE c #cceff9",
"bF c #e1b1b2",
"bG c #e1b2b3",
"bH c #e7b5b5",
"bI c #f3fcfe",
/* pixels */
"....................................",
"..bybwbvbtbpbnbmbkbhbfbebcbab.a9.K..",
"..bwa2b#a4aXaIaHaAaLaE#9#L#7#X.N.h..",
"..bvb#bIbEbAaPaRaVbHbBaYaUbCbq#v.f..",
"..bta4bEa6aBapaf#4bGaO#haTbz#x.m.d..",
"..bpaXbAaBauaj#6#WbFaM.6aQbx#u.r.h..",
"..bsaWa3aKaxaoalahbDa1aJaNbdaS#P.C..",
"..bua0a5arazaGas#5a.#1#E.8#A#C#o.z..",
"..braZa7aCavac#S#y###e#m#G#j.F.D.b..",
"..boaFamabaqag#O#s#w.2#d#0#Z#b.S.y..",
"..blakaeanaDay#Y#t#n.7#Ra##J.U.1.z..",
"..bj#8#T#Vadawatai#3aaae#M.X.L#k.A..",
"..bi#2#I#r#f#z#K#U#Q#H.9.Q.P.5#D.B..",
"..bg#N#F#p#.#c#g#q#l#a.4.0.3#i#B.A..",
"..bb.T.J.I.I.R.W.Z.Y.V.O.H.E.G.M.c..",
"..a9.x.w.v.u.t.s.q.p.o.n.l.k.j.i.a..",
"..a8.h.h.h.h.g.g.f.f.e.e.c.b.b.a.#..",
"...................................."
};
