/* XPM */
static char *rotate_mod[] = {
/* width height num_colors chars_per_pixel */
"    20    20       46            1",
/* colors */
". c #000000",
"# c #001821",
"a c #001923",
"b c #020000",
"c c #030000",
"d c #100000",
"e c #150000",
"f c #236f92",
"g c #297396",
"h c #2e7799",
"i c #2f789a",
"j c #317a9c",
"k c #337c9e",
"l c #3881a3",
"m c #3d85a6",
"n c #498db0",
"o c #4e91b3",
"p c #5294b3",
"q c #5796b4",
"r c #5f99b4",
"s c #70a5bd",
"t c #73a8c0",
"u c #76aac3",
"v c #79acc4",
"w c #7cafc7",
"x c #7fb2ca",
"y c #82b4cb",
"z c #83b5cc",
"A c #84b6cd",
"B c #8ebdd3",
"C c #97c5d8",
"D c #9dcadc",
"E c #a1ccde",
"F c #a7d2e2",
"G c #abd4e4",
"H c #b0d8e7",
"I c #b3dbe8",
"J c #bce0eb",
"K c #c1e4ee",
"L c #c4e5ef",
"M c #cdebf2",
"N c #d1edf4",
"O c #d4eef5",
"P c #ddf4f8",
"Q c #e1f5f8",
"R c None",
/* pixels */
"RRRRRRRRRRRRRRRRRRRR",
"RRRRRRRbeeeecRRRRRRR",
"RRRRRcenKJIGlecRRRRR",
"RRRRcoONMLJHFDjcRRRR",
"RRRcpPQhdeeemEChcRRR",
"RRcoPrebRRRRcemBmcRR",
"RReOQeRRRRRRRReBAeRR",
"RcnNqcRRRRRRRRcizfcR",
"ReKMaRRRRRRRRRReyveR",
"ReJLaRRRRRRRR..exueR",
"ReIJ#RRRRRRRR.wwwteR",
"ReGH#RRRRRRRR.wwwseR",
"RclFmcRRRRRRR.wwww.R",
"RReDEeRRRRRRR.wwww..",
"RRcjCkecRRRRR.wwwc..",
"RRRchBBieee.R.....RR",
"RRRRcgAzyxw.RRRRRRRR",
"RRRRRcefvut.RRRRRRRR",
"RRRRRRRceee.RRRRRRRR",
"RRRRRRRRRRRRRRRRRRRR"
};
