/* XPM */
static char *scale_mod[] = {
/* width height num_colors chars_per_pixel */
"    20    20       73            2",
/* colors */
".. c #000000",
".# c #0f3b28",
".a c #103a29",
".b c #113929",
".c c #13372a",
".d c #14352b",
".e c #15342b",
".f c #16332c",
".g c #17302d",
".h c #17312d",
".i c #192e2e",
".j c #1b2b30",
".k c #1b2c2f",
".l c #1c2a30",
".m c #1d2931",
".n c #1e2831",
".o c #1f2632",
".p c #1f2633",
".q c #212434",
".r c #363853",
".s c #393456",
".t c #3c2f58",
".u c #466175",
".v c #4b5a78",
".w c #4cdda9",
".x c #4f537b",
".y c #52d4ae",
".z c #54d1af",
".A c #554c7f",
".B c #59ccb2",
".C c #5ba8a7",
".D c #5c5662",
".E c #5dc6b5",
".F c #5fc3b6",
".G c #639dad",
".H c #65bbba",
".I c #6b93b2",
".J c #6cb2bf",
".K c #6eafc0",
".L c #7289b8",
".M c #72aac3",
".N c #77a4c6",
".O c #79a1c7",
".P c #7f98cc",
".Q c #7f99cb",
".R c #8590d0",
".S c #878291",
".T c #878dd1",
".U c #8c88d4",
".V c #927fd8",
".W c #9877dd",
".X c #9f6ee1",
".Y c #a566e5",
".Z c #ac5de9",
".0 c #b255ee",
".1 c #b84cf2",
".2 c #bf43f6",
".3 c #ccc9dc",
".4 c #dee5f2",
".5 c #e0e2f3",
".6 c #e0e3f3",
".7 c #e2e1f4",
".8 c #e3def5",
".9 c #e5dcf6",
"#. c #e6daf7",
"## c #e8d8f8",
"#a c #ead6f9",
"#b c #ebd4fa",
"#c c #edd2fb",
"#d c #eecffc",
"#e c #f0cdfd",
"#f c #f2cbff",
"#g c None",
/* pixels */
"............................#g#g#g#g#g#g",
"..#f#e#d#c#b#a###..9.8.7.6..#g#g#g#g#g#g",
"..#e.2.1.0.Z.Y.X.W.V.U.R.o..#g#g#g#g#g#g",
"..#d.1.0.Z.Y.X.W.V.U.R.Q.n..#g#g#g#g#g#g",
"..#c.0.Z.Y.X.W.V.U.R.Q.O.l..#g#g#g#g#g#g",
"..#b.Z.Y.X.W.V.U.R.Q.O.M.k..#g#g#g#g#g#g",
"..#a.Y.X.W.V.U.R.Q.O.M.J.i..#g#g#g#g#g#g",
"..##.X.W.V.U.R.Q.O.M.J.H.g..#g#g#g#g#g#g",
"..#..W.V.U.R.Q.O.M.J.H.F.f..#g#g#g#g#g#g",
"...9.V.U.R.Q.O.M.J.H.F.B.d..#g#g#g#g#g#g",
"...8.U.R.Q.O.M.J.H.F.B.y.c..............",
"...7.R.Q.O.M.J.H.F.B.y.w.b...D.S.3.5.4..",
"...q.o.n.l.k.i.g.f.d.c.b.#...t.A.T.P.m..",
".............................s.x.L.N.j..",
"#g#g#g#g#g#g#g#g#g#g...D.t.s.r.v.I.K.i..",
"#g#g#g#g#g#g#g#g#g#g...S.A.x.v.u.G.H.h..",
"#g#g#g#g#g#g#g#g#g#g...3.T.L.I.G.C.E.e..",
"#g#g#g#g#g#g#g#g#g#g...5.P.N.K.H.E.z.c..",
"#g#g#g#g#g#g#g#g#g#g...p.m.j.i.h.e.c.a..",
"#g#g#g#g#g#g#g#g#g#g...................."
};
