/* XPM */
static char *sgrab_mod[] = {
/* width height num_colors chars_per_pixel */
"    20    20       31            1",
/* colors */
". c #000000",
"# c #3041a3",
"a c #3448a3",
"b c #350000",
"c c #3851a3",
"d c #393fff",
"e c #3c59a3",
"f c #3f4cff",
"g c #4659ff",
"h c #4c66ff",
"i c #5272ff",
"j c #591100",
"k c #593500",
"l c #597fff",
"m c #5f8cff",
"n c #666666",
"o c #6698ff",
"p c #6ca5ff",
"q c #72b2ff",
"r c #79bfff",
"s c #886622",
"t c #997326",
"u c #aa7f2a",
"v c #acb4d9",
"w c #bb8c2e",
"x c #c6c6c6",
"y c #cc9933",
"z c #cc9966",
"A c None",
"B c #ffcc99",
"C c #ffffcc",
/* pixels */
".................AAA",
".nxddddddddddddd.AAA",
".xnfffffffffffff.AAA",
".nxggggkjjjjjjgg.AAA",
".xnhhhhj#####bhh.AAA",
".iiiiiijavaaabii.AAA",
".lllllljcccccbll.AAA",
".mmmmmmjeeee.....AAA",
".oooooobbbbb.C.C..AA",
".ppssppppp...B.B.C.A",
".qttttqqq.Cz.B.B.B.A",
".uuuuuuru.Bz.B.B.B.A",
".wwwwwwww.BBBzzzzz.A",
".yyyyyyyy.CBBBBBBz.A",
".yyyyyyyyy.BBBBzzz.A",
".yyyyyyyyyy.CBBz..AA",
"............BBBz.AAA",
"AAAAAAAAAAA.BBBz.AAA",
"AAAAAAAAAAA.BBBz.AAA",
"AAAAAAAAAAA......AAA"
};
