/* XPM */
static char *texmap_mod[] = {
/* width height num_colors chars_per_pixel */
"    20    20      244            2",
/* colors */
".. c #000000",
".# c #000005",
".a c #010114",
".b c #020214",
".c c #030202",
".d c #030213",
".e c #030358",
".f c #040202",
".g c #050457",
".h c #060411",
".i c #090555",
".j c #0a080d",
".k c #0c0709",
".l c #0c070a",
".m c #0c080b",
".n c #0f1283",
".o c #100809",
".p c #131313",
".q c #131581",
".r c #15137c",
".s c #1b187b",
".t c #252525",
".u c #2830dd",
".v c #2d39db",
".w c #30407d",
".x c #3128d0",
".y c #323232",
".z c #333333",
".A c #343ad3",
".B c #374678",
".C c #382527",
".D c #383dd5",
".E c #384475",
".F c #392124",
".G c #392a5b",
".H c #3a2967",
".I c #3a3a3a",
".J c #3a4bd2",
".K c #3b2524",
".L c #3b2bc6",
".M c #3b4173",
".N c #3b4b76",
".O c #3d3d3d",
".P c #3e3ec9",
".Q c #4252ce",
".R c #435271",
".S c #452424",
".T c #453cc0",
".U c #4558c8",
".V c #462424",
".W c #4830ba",
".X c #4b44c9",
".Y c #4c58c1",
".Z c #4e404b",
".0 c #4f3eb7",
".1 c #4f58c5",
".2 c #503743",
".3 c #505c70",
".4 c #5150bb",
".5 c #51534f",
".6 c #524145",
".7 c #52524f",
".8 c #553aaf",
".9 c #565d46",
"#. c #574db4",
"## c #576ac1",
"#a c #585c46",
"#b c #5a4758",
"#c c #5a48ae",
"#d c #5b5f48",
"#e c #5c5c5b",
"#f c #5c636f",
"#g c #5f625d",
"#h c #6057ad",
"#i c #637fb7",
"#j c #65656f",
"#k c #663440",
"#l c #665cb6",
"#m c #676db6",
"#n c #68343f",
"#o c #68353f",
"#p c #695aa1",
"#q c #697ab5",
"#r c #6a5e6e",
"#s c #6c3941",
"#t c #6c68a2",
"#u c #6f86ba",
"#v c #7272b3",
"#w c #7885ab",
"#x c #796b93",
"#y c #7988bd",
"#z c #7a7796",
"#A c #7a94b9",
"#B c #7b7da8",
"#C c #7c80ac",
"#D c #7d4650",
"#E c #8070a6",
"#F c #845ea3",
"#G c #858aa2",
"#H c #867a89",
"#I c #869ebe",
"#J c #888ba3",
"#K c #8a8595",
"#L c #8a91be",
"#M c #8b7585",
"#N c #8d849d",
"#O c #8e6d87",
"#P c #8ea5ba",
"#Q c #9199b9",
"#R c #91a38b",
"#S c #91a5c3",
"#T c #948598",
"#U c #957a97",
"#V c #959db1",
"#W c #9698a6",
"#X c #978399",
"#Y c #978ca0",
"#Z c #988898",
"#0 c #9a8093",
"#1 c #9a9281",
"#2 c #9bb4c2",
"#3 c #9d6a93",
"#4 c #9fa0d1",
"#5 c #9fa892",
"#6 c #9fb2bb",
"#7 c #a0819d",
"#8 c #a09aa8",
"#9 c #a1aec7",
"a. c #a3748b",
"a# c #a3a290",
"aa c #a4798c",
"ab c #a49ea8",
"ac c #a4a8a3",
"ad c #a4aab5",
"ae c #a4b1c4",
"af c #a6aa96",
"ag c #a6b1be",
"ah c #a6bdc8",
"ai c #a77399",
"aj c #a86485",
"ak c #ab6892",
"al c #ac5b7f",
"am c #acb4bd",
"an c #acc2c5",
"ao c #ad6089",
"ap c #ad89ad",
"aq c #ae6e85",
"ar c #aeb1b5",
"as c #af7083",
"at c #afb5d5",
"au c #afc3ac",
"av c #b15979",
"aw c #b15b7b",
"ax c #b17ba7",
"ay c #b1b9b3",
"az c #b4bec2",
"aA c #b5667b",
"aB c #b5729d",
"aC c #b6c4d0",
"aD c #b6d3b0",
"aE c #b86076",
"aF c #b8c3ca",
"aG c #b8cdcd",
"aH c #b96a7a",
"aI c #b96b8e",
"aJ c #b99fbd",
"aK c #b9c5cf",
"aL c #b9c6c8",
"aM c #bbccbb",
"aN c #bc92b7",
"aO c #bcc6c1",
"aP c #bd647d",
"aQ c #bec8db",
"aR c #bf88ad",
"aS c #c37e9e",
"aT c #c3d9c0",
"aU c #c5cfce",
"aV c #c6b6c9",
"aW c #c7758d",
"aX c #c7d2d3",
"aY c #c7ddc0",
"aZ c #c8d5ca",
"a0 c #c8dcba",
"a1 c #c9aac5",
"a2 c #c9d4d9",
"a3 c #cad3d6",
"a4 c #cb9fbb",
"a5 c #ccd5da",
"a6 c #ccd8de",
"a7 c #cd93ac",
"a8 c #cfcbd5",
"a9 c #d0869a",
"b. c #d0ded0",
"b# c #d17787",
"ba c #d2dbbf",
"bb c #d3dbd7",
"bc c #d4b1a1",
"bd c #d4cad6",
"be c #d5c8b3",
"bf c #d5e1cb",
"bg c #d5e2d1",
"bh c #d6a7b8",
"bi c #d6b6c7",
"bj c #d6c1d1",
"bk c #d6d5bd",
"bl c #d78591",
"bm c #d797a5",
"bn c #d8d7dd",
"bo c #d8e2e3",
"bp c #d9a39e",
"bq c #da9499",
"br c #dbc0b5",
"bs c #dbdee3",
"bt c #dbdfe1",
"bu c #dca7ad",
"bv c #dcdfcd",
"bw c #ddb5b3",
"bx c #ddb9c1",
"by c #ddd4c5",
"bz c #dde4de",
"bA c #dee1e5",
"bB c #dfcad2",
"bC c #e0e0e5",
"bD c #e1c7c7",
"bE c #e1d0c9",
"bF c #e1d5de",
"bG c #e1e6da",
"bH c #e2dce3",
"bI c #e2e6e8",
"bJ c #e3e8e1",
"bK c #e4e1d8",
"bL c #e5d8da",
"bM c #e8e0dd",
"bN c #e9e7ec",
"bO c #e9e8eb",
"bP c #e9eaeb",
"bQ c #ece6e9",
"bR c #ecece8",
"bS c #efeff1",
"bT c #f0edf1",
"bU c #f0f1f0",
"bV c #f2efef",
"bW c None",
"bX c #ffffff",
/* pixels */
"bWbWbWbWbWbWbWbWbWbWbWbWbWbWbWbWbWbWbWbW",
"bWbWbWbWbWbW.z.O.I.y.t.p..bWbWbWbWbWbWbW",
"bWbWbWbW#a.7#1bcbpbqblb##D.o.o.VbWbWbWbW",
"bWbWbW#d#ea#bebrbwbubma9aWaP#n.f.SbWbWbW",
"bWbW.9#eafbkbybEbDbxbha7aSaIaw#k.f.VbWbW",
"bWbW.5#5babvbKbMbLbBbia4aRaBaoav#o.obWbW",
"bWbW#ga0bfbGbRbVbQbFbja1aNaxakalaE.obWbW",
"bW.I#RaYbgbJbUbXbTbHbdaVaJapaiajaA#s..bW",
"bW.IaDaTb.bzbPbSbNbObCbna8#r#7a.asaH..bW",
"bW.yauaMaZbbbtbAbsbIaXaLam#j#Y#0aaaq..bW",
"bW.tacayaOaUa3a5a2boaGan#6#f#J#N#U#3..bW",
"bW.p#ZabarazaFaKaCa6ah#2#P.3#w#B#E#F..bW",
"bW..#b#X#8adagae#9aQ#S#I#A.R#q#m#l.H..bW",
"bWbW.l#O#T#W#V#Q#Lat#y#u#i.N##.1.X.hbWbW",
"bWbW.k.2#M#K#G#C#v#4.M.E.B.w.Q.D.s.dbWbW",
"bWbW.F.c.6#H#z#t#h#..4.Y.U.J.v.q.#.ibWbW",
"bWbWbW.K.c.Z#x#p#c.0.T.P.A.u.n.#.gbWbWbW",
"bWbWbWbW.C.m.j.G.8.W.L.x.r.b.a.ebWbWbWbW",
"bWbWbWbWbWbWbW............bWbWbWbWbWbWbW",
"bWbWbWbWbWbWbWbWbWbWbWbWbWbWbWbWbWbWbWbW"
};
