#define cursor_width 16
#define cursor_height 16
#define cursor_x_hot 1
#define cursor_y_hot 1
static char cursor_bits[] = {
   0xf8, 0xff, 0xe6, 0xff, 0x9e, 0xff, 0x7d, 0xfe, 0xfd, 0xf9, 0xfb, 0xe7,
   0xfb, 0xdf, 0xf7, 0xe7, 0xf7, 0xfb, 0xef, 0xf7, 0xef, 0xee, 0x5f, 0xdd,
   0x5f, 0xeb, 0xbf, 0xf7, 0xff, 0xff, 0xff, 0xff };
