#define resize_h_width 16
#define resize_h_height 16
#define resize_h_x_hot 7
#define resize_h_y_hot 7
static char resize_h_bits[] = {
   0xff, 0xff, 0xff, 0xff, 0xff, 0xff, 0xff, 0xff, 0x9f, 0xf9, 0xa7, 0xe5,
   0x39, 0x9c, 0xfe, 0x7f, 0x39, 0x9c, 0xa7, 0xe5, 0x9f, 0xf9, 0xff, 0xff,
   0xff, 0xff, 0xff, 0xff, 0xff, 0xff, 0xff, 0xff };
