#define resize_v_width 16
#define resize_v_height 16
#define resize_v_x_hot 8
#define resize_v_y_hot 6
static char resize_v_bits[] = {
   0xff, 0xfe, 0x7f, 0xfd, 0x7f, 0xfd, 0xbf, 0xfb, 0xbf, 0xfb, 0xdf, 0xf7,
   0x1f, 0xf1, 0x7f, 0xfd, 0x7f, 0xfd, 0x1f, 0xf1, 0xdf, 0xf7, 0xbf, 0xfb,
   0xbf, 0xfb, 0x7f, 0xfd, 0x7f, 0xfd, 0xff, 0xfe };
