#define resize_bl_width 16
#define resize_bl_height 16
#define resize_bl_x_hot 9
#define resize_bl_y_hot 4
static char resize_bl_bits[] = {
   0xff, 0x1f, 0xff, 0x63, 0xff, 0x7d, 0xff, 0xbb, 0xff, 0xbd, 0xbf, 0xae,
   0x5f, 0xd7, 0xdf, 0xfb, 0xdf, 0xfd, 0xef, 0xfb, 0x6f, 0xfc, 0x8f, 0xff,
   0xff, 0xff, 0xff, 0xff, 0xff, 0xff, 0xff, 0xff };
