#define resize_br_width 16
#define resize_br_height 16
#define resize_br_x_hot 5
#define resize_br_y_hot 5
static char max_bits[] = {
   0xf8, 0xff, 0xc6, 0xff, 0xbe, 0xff, 0xdd, 0xff, 0xbd, 0xff, 0x75, 0xfd,
   0xeb, 0xfa, 0xdf, 0xfb, 0xbf, 0xfb, 0xdf, 0xf7, 0x3f, 0xf6, 0xff, 0xf1,
   0xff, 0xff, 0xff, 0xff, 0xff, 0xff, 0xff, 0xff };
