/* XPM */
static char * exit2_xpm[] = {
"16 16 184 2",
"  	c None",
". 	c #CECECD",
"+ 	c #D7D7D5",
"@ 	c #CFCFCE",
"# 	c #D0D0CE",
"$ 	c #CFCECB",
"% 	c #92908D",
"& 	c #434241",
"* 	c #111111",
"= 	c #010101",
"- 	c #CFCCC8",
"; 	c #CFCDC9",
"> 	c #D2D1CE",
", 	c #D1D1CE",
"' 	c #D4D3D2",
") 	c #CDCDCB",
"! 	c #C6C4BF",
"~ 	c #4F4D4B",
"{ 	c #000000",
"] 	c #383735",
"^ 	c #82807C",
"/ 	c #B1AFA9",
"( 	c #C4C1BB",
"_ 	c #CDCBC7",
": 	c #CACAC7",
"< 	c #CACAC9",
"[ 	c #CBCBCA",
"} 	c #D6D6D4",
"| 	c #C4C2BD",
"1 	c #454340",
"2 	c #65625E",
"3 	c #ABA69E",
"4 	c #ABA79F",
"5 	c #ADA8A0",
"6 	c #918D86",
"7 	c #CAC7C3",
"8 	c #CBCBC8",
"9 	c #D1D0CE",
"0 	c #83807C",
"a 	c #696763",
"b 	c #484644",
"c 	c #C7C4BF",
"d 	c #B2AEA8",
"e 	c #73706C",
"f 	c #494744",
"g 	c #C3BFBA",
"h 	c #D0CFCD",
"i 	c #393836",
"j 	c #32312F",
"k 	c #AFABA4",
"l 	c #474542",
"m 	c #B7B5B2",
"n 	c #484643",
"o 	c #4D4B49",
"p 	c #CDCAC6",
"q 	c #B4B0A9",
"r 	c #D7D6D2",
"s 	c #CECECC",
"t 	c #C9C7C2",
"u 	c #0D0D0C",
"v 	c #6E6A64",
"w 	c #A39D94",
"x 	c #89847C",
"y 	c #42403C",
"z 	c #43403D",
"A 	c #44423E",
"B 	c #CFCBC7",
"C 	c #B3AEA6",
"D 	c #A59F96",
"E 	c #D7D5D2",
"F 	c #C6C5C2",
"G 	c #BAB9B5",
"H 	c #959089",
"I 	c #A39E96",
"J 	c #88847D",
"K 	c #42403D",
"L 	c #464440",
"M 	c #C5C2BD",
"N 	c #A5A098",
"O 	c #A8A49C",
"P 	c #D5D4D0",
"Q 	c #BBB9B6",
"R 	c #C3C2BF",
"S 	c #0D0C0C",
"T 	c #A09B93",
"U 	c #74706A",
"V 	c #413F3B",
"W 	c #413F3C",
"X 	c #C3C0BB",
"Y 	c #A29D95",
"Z 	c #B0ACA5",
"` 	c #D5D3D0",
" .	c #C3C3BF",
"..	c #C1C0BB",
"+.	c #312F2C",
"@.	c #807B71",
"#.	c #656159",
"$.	c #393632",
"%.	c #403E3A",
"&.	c #BDB9B3",
"*.	c #393732",
"=.	c #B6B2AB",
"-.	c #B8B4AD",
";.	c #C4C3BE",
">.	c #C4C2BF",
",.	c #7D7B77",
"'.	c #5B5750",
").	c #716C63",
"!.	c #373430",
"~.	c #3A3733",
"{.	c #B9B6B0",
"].	c #888277",
"^.	c #898378",
"/.	c #373530",
"(.	c #3D3A36",
"_.	c #C1BEB8",
":.	c #B8B5B0",
"<.	c #C5C3C0",
"[.	c #C3C3C0",
"}.	c #53524D",
"|.	c #767167",
"1.	c #9B9890",
"2.	c #A8A49E",
"3.	c #777268",
"4.	c #787369",
"5.	c #8D8880",
"6.	c #AFACA6",
"7.	c #C8C5C1",
"8.	c #AFADA8",
"9.	c #A9A7A2",
"0.	c #C1C1BE",
"a.	c #C2C2BF",
"b.	c #C1C1BF",
"c.	c #B5B4B1",
"d.	c #706D66",
"e.	c #7D796F",
"f.	c #777166",
"g.	c #767166",
"h.	c #7C766C",
"i.	c #8C877E",
"j.	c #A8A59E",
"k.	c #C0BDB8",
"l.	c #ADAAA4",
"m.	c #A09D97",
"n.	c #B8B7B3",
"o.	c #C3C3C1",
"p.	c #D4D4D4",
"q.	c #D0D1D0",
"r.	c #C9C8C6",
"s.	c #B8B6B4",
"t.	c #969490",
"u.	c #9D9A93",
"v.	c #908C84",
"w.	c #C3C0BD",
"x.	c #BFBCB8",
"y.	c #B3B0AA",
"z.	c #A5A29C",
"A.	c #AAA8A3",
"B.	c #C2C1BF",
"C.	c #D0D0CF",
"D.	c #D2D2D1",
"E.	c #E2E3E1",
"F.	c #E0E0DE",
"G.	c #DEDEDB",
"H.	c #DAD9D8",
"I.	c #D2D1D0",
"J.	c #C8C7C4",
"K.	c #BDBBB6",
"L.	c #BCBAB5",
"M.	c #C6C5C1",
"N.	c #D4D4D2",
"O.	c #DDDDDB",
"P.	c #DFDFDD",
"Q.	c #DEDEDD",
"R.	c #DADADA",
"S.	c #D9D9D9",
"T.	c #D7D7D7",
"U.	c #D8D8D7",
"V.	c #D5D5D4",
"W.	c #D4D4D3",
"X.	c #D6D6D5",
"Y.	c #D6D6D6",
"Z.	c #D5D5D5",
"`.	c #D7D8D7",
". . . . . . . . . . . . + + + + ",
". . @ # $ % & * = - ; > , ' + + ",
") ) ) ! ~ { ] ^ / ( ( ( _ : < [ ",
"} } | 1 { 2 3 3 4 5 6 6 5 7 8 @ ",
"9 9 0 { a b b c d e f f - g h h ",
"8 8 i j k l l l m n n o p q r s ",
"t t u v w x y y y z A B C D E F ",
"G G { H I I J K K L M N N O P Q ",
"R R S T T U V V W y y X Y Z `  .",
"....+.@.#.$.$.%.&.*.*.*.=.-.! ;.",
">.>.,.'.).!.~.{.].^./.(._.t :.<.",
"[.[.< }.|.1.2.3.3.4.5.6.7.8.9.0.",
"a.a.b.c.d.e.f.g.h.i.j.k.l.m.n.o.",
"p.p.q.r.s.t.u.v.w.x.y.z.A.B.C.D.",
"E.E.F.G.H.I.J.K.L.L.L.M.N.O.P.Q.",
"R.R.R.S.S.T.U.V.W.W.W.X.Y.Z.`.W."};
