/* XPM */
static char * prev1_xpm[] = {
"64 16 260 2",
"  	c None",
". 	c #FEFEFE",
"+ 	c #EBEEE5",
"@ 	c #3B3C3A",
"# 	c #DADCD3",
"$ 	c #D1D3CB",
"% 	c #D3D6CE",
"& 	c #D0D2CA",
"* 	c #CED1CA",
"= 	c #D2D5CD",
"- 	c #D5D7CF",
"; 	c #D0D3CB",
"> 	c #CCCEC7",
", 	c #D6D8D0",
"' 	c #D1D4CC",
") 	c #D5D7D0",
"! 	c #D3D6D0",
"~ 	c #D6D9D1",
"{ 	c #D4D6CE",
"] 	c #D7DAD2",
"^ 	c #D8DBD3",
"/ 	c #DCDFD6",
"( 	c #DEE0D8",
"_ 	c #E1E4DB",
": 	c #E3E4DD",
"< 	c #E3E5DD",
"[ 	c #DFE1DB",
"} 	c #E1E4DC",
"| 	c #DFE1D9",
"1 	c #DEE0D9",
"2 	c #E0E3DB",
"3 	c #DBDCD6",
"4 	c #DDE0D8",
"5 	c #E5E8E0",
"6 	c #E2E5DE",
"7 	c #939590",
"8 	c #0F0F0F",
"9 	c #E4E6DE",
"0 	c #D6D6D3",
"a 	c #D7D7D4",
"b 	c #D5D5D3",
"c 	c #D6D6D4",
"d 	c #666666",
"e 	c #D8D8D6",
"f 	c #D5D5D2",
"g 	c #D4D4D2",
"h 	c #D2D3D0",
"i 	c #D1D2CF",
"j 	c #D4D4D1",
"k 	c #D3D3D1",
"l 	c #D9D9D7",
"m 	c #CDCCCB",
"n 	c #9B9C97",
"o 	c #535450",
"p 	c #050504",
"q 	c #CBCEC7",
"r 	c #C8C9C6",
"s 	c #C7C7C5",
"t 	c #C7C6C5",
"u 	c #C6C5C4",
"v 	c #000000",
"w 	c #FFFFFF",
"x 	c #C5C5C3",
"y 	c #C6C6C4",
"z 	c #C8C7C4",
"A 	c #CACAC8",
"B 	c #C9CAC7",
"C 	c #CAC9C8",
"D 	c #CCCCC9",
"E 	c #CFCECC",
"F 	c #D7D7D5",
"G 	c #D8D7D6",
"H 	c #D9DAD7",
"I 	c #D9DAD8",
"J 	c #D2D2D0",
"K 	c #D2D1D0",
"L 	c #D0D0CD",
"M 	c #D3D4D1",
"N 	c #D6D5D3",
"O 	c #D6D6D5",
"P 	c #D4D4D3",
"Q 	c #CDCDCB",
"R 	c #979993",
"S 	c #484946",
"T 	c #020202",
"U 	c #D2D4CC",
"V 	c #C4C5C3",
"W 	c #C7C7C6",
"X 	c #C8C9C7",
"Y 	c #CDCECC",
"Z 	c #CECFCD",
"` 	c #D0D0CE",
" .	c #D1D1D0",
"..	c #CCCCCA",
"+.	c #CDCDCC",
"@.	c #D1D1CF",
"#.	c #D3D4D2",
"$.	c #DADAD8",
"%.	c #D7D7D6",
"&.	c #D3D3D2",
"*.	c #CACBC9",
"=.	c #9C9E98",
"-.	c #474846",
";.	c #E0E3DA",
">.	c #CFCFCE",
",.	c #CCCDCB",
"'.	c #CECECD",
").	c #D1D2D0",
"!.	c #D2D3D1",
"~.	c #CCCDCA",
"{.	c #CECECC",
"].	c #CFCFCD",
"^.	c #C9CAC8",
"/.	c #C8C8C7",
"(.	c #CACBC8",
"_.	c #CBCBC9",
":.	c #CBCBC8",
"<.	c #9B9D97",
"[.	c #474745",
"}.	c #030303",
"|.	c #DFE0D9",
"1.	c #CECFCC",
"2.	c #CCCCCB",
"3.	c #CBCBCA",
"4.	c #D2D2D1",
"5.	c #D8D8D7",
"6.	c #D7D8D6",
"7.	c #92948E",
"8.	c #434441",
"9.	c #EDEFE7",
"0.	c #D0D0CF",
"a.	c #444542",
"b.	c #E7EAE1",
"c.	c #DCDCDC",
"d.	c #DDDDDC",
"e.	c #DBDBDA",
"f.	c #DADADA",
"g.	c #DBDBDB",
"h.	c #CACAC9",
"i.	c #CCCCCC",
"j.	c #CECFCE",
"k.	c #93958F",
"l.	c #E1E3DB",
"m.	c #DEDEDD",
"n.	c #DFDFDD",
"o.	c #E2E2E0",
"p.	c #E0E0DF",
"q.	c #E0E0DE",
"r.	c #DFDFDE",
"s.	c #DCDCDA",
"t.	c #DCDCDB",
"u.	c #D9D9D8",
"v.	c #949691",
"w.	c #E5E8E1",
"x.	c #DBDBD9",
"y.	c #434442",
"z.	c #FDFDFD",
"A.	c #B5B5B3",
"B.	c #B6B5B3",
"C.	c #B6B6B4",
"D.	c #B7B6B4",
"E.	c #B8B8B6",
"F.	c #B9B9B6",
"G.	c #BAB9B7",
"H.	c #B8B7B5",
"I.	c #B8B8B5",
"J.	c #B6B7B5",
"K.	c #B9B8B7",
"L.	c #B9B9B7",
"M.	c #B7B8B6",
"N.	c #B7B7B4",
"O.	c #B6B7B4",
"P.	c #B7B8B5",
"Q.	c #BBBAB8",
"R.	c #BABAB8",
"S.	c #BDBDBB",
"T.	c #BEBEBC",
"U.	c #BCBCBA",
"V.	c #BCBCB9",
"W.	c #BBBBB9",
"X.	c #BBBBB8",
"Y.	c #B7B7B5",
"Z.	c #BFBFBE",
"`.	c #B1B2AF",
" +	c #4E4F4D",
".+	c #DBDDDA",
"++	c #CAC9C7",
"@+	c #CCCBC8",
"#+	c #CBCAC8",
"$+	c #CACAC7",
"%+	c #C8C8C6",
"&+	c #C7C7C4",
"*+	c #C7C6C4",
"=+	c #C8C7C5",
"-+	c #C9C8C6",
";+	c #C9C9C7",
">+	c #C8C7C6",
",+	c #CCCBC9",
"'+	c #CECDCC",
")+	c #CDCDCA",
"!+	c #CFCECD",
"~+	c #919291",
"{+	c #50504F",
"]+	c #1A1A1A",
"^+	c #C7C9C5",
"/+	c #8C8D89",
"(+	c #8B8C88",
"_+	c #898A86",
":+	c #8A8B87",
"<+	c #888986",
"[+	c #888985",
"}+	c #8A8B88",
"|+	c #898A87",
"1+	c #8A8A88",
"2+	c #898986",
"3+	c #878884",
"4+	c #858683",
"5+	c #858682",
"6+	c #868783",
"7+	c #848481",
"8+	c #81827E",
"9+	c #82837F",
"0+	c #81827F",
"a+	c #80817D",
"b+	c #7F807D",
"c+	c #7F7F7C",
"d+	c #7E7F7C",
"e+	c #7D7E7B",
"f+	c #7E7E7B",
"g+	c #7E7F7B",
"h+	c #7F807E",
"i+	c #80817E",
"j+	c #3F3F3E",
"k+	c #131313",
"l+	c #E0E2DB",
"m+	c #7B7C78",
"n+	c #4B4B49",
"o+	c #484847",
"p+	c #494A48",
"q+	c #4E4E4C",
"r+	c #4D4D4C",
"s+	c #4D4E4C",
"t+	c #4C4D4B",
"u+	c #4C4C4B",
"v+	c #4D4D4B",
"w+	c #4B4C4A",
"x+	c #4C4C4A",
"y+	c #4B4B4A",
"z+	c #4A4A48",
"A+	c #4A4B49",
"B+	c #494A49",
"C+	c #4A4A49",
"D+	c #3A3A38",
"E+	c #414240",
"F+	c #171717",
"G+	c #151515",
"H+	c #363736",
"I+	c #181818",
"J+	c #161616",
"K+	c #141414",
". . . . . . . . . . . . . . . . . . . . . . . . . . . . . . . . . . . . . . . . . . . . . . . . . . . . . . . . . . . . . . + @ ",
". . # $ % & & $ & * = = - $ ; ; ; > & $ % , % $ = $ = = ' ) % ) ! ~ { ) ] ] ^ ^ ^ ~ ] / / ( _ : < _ [ } | 1 2 2 ( | 3 4 5 6 7 8 ",
". 9 0 a a b b c d a a e 0 0 0 0 0 b b f g b h i j b a a b g k g k g g g k k k g g g g g b b e c l a a e e b a a g g c c m n o p ",
". q r s s t u d v w x y y z A B B v v v C C v v v D E v v v F v G H v I v 0 g v v J K v g J v L K v v g g g M N O M N P Q R S T ",
". U V W W X d v v w Q Y Z ` `  .Z v ..+.v +.v @.g v #.v P P P v k k v #.v M v $.$.v O v %.c v c v P P &.&.P &.&.&.k g g *.=.-.T ",
". ;.>.Z ,.d v v v '.d d d ).!.h >.v >.~.v {.v ].>.v >.v @.>. .v ].>.v {.v ..v ..^.v /.v B (.v ^.v ^._.^.^.:.W s y x x y k <.[.}.",
". |.Z ` d v v v v v v v v w 1.2.1.v ..3.v :.v ..3.v Y v ].>.>.v k P v %.v P v P P v g v 4.P v c v 5.%.c a F 6.6.5.b &.a @.7.8.}.",
". 9.h d v v v v v v v v v w 1.Y Z v @. .v  .v h h v @.v ).@.0.v ).).v P v h v P !.v M v P P v P b v h P h k ).@.g P &.P &.7.a.}.",
". b.c.d.v v v v v v v v v w e.f.g.v v v P !.v v v !. .v v _.2.` v Y v _.v h.v h._.v i.v ` ` v ` j.Z v j.` ` 0.Z i.i.2.>.'.k.a.}.",
". l.m.n.n.v v v v v v v v w o.p.p.v o.q.r.r.v m.v s.t.v s.$.e.I v I v I v $.v a 6.v b v M  .v #.0 M v #.g b P k ).@.>.@.u.v.a.T ",
". w.:.X B ..v v v w w w w w ` L @.v 1.1...:.v (.v _._.v L ].].L v  .v ` v  .v !.#.v M v J #.v 0. .g v !. .L Y 1.L ].].0.x.7 y.}.",
". z.A.A.B.C.D.v v w E.F.G.E.H.I.J.v K.L.E.E.v F.L.v E.v L.M.L.I.v N.v O.v P.v L.Q.v R.v S.T.v U.V.Q.v W.R.W.R.X.G.L.C.Y.Z.`. +}.",
". .+_.++C _.~._.v w @+#+$+$+$+$+%+v z &+*+=+v A A v z v v v -+$+;+v >+t v *+;+v v A ,+D v v '+'+v v ..~.)+'+!+Q Q !+!+..F ~+{+]+",
". ^+/+(+/+(+_+(+w w :+:+<+[+:+}+|+1+|+_+2+3+4+5+4+6+4+7+7+8+9+0+9+8+8+0+0+0+9+9+8+9+a+b+b+c+b+c+d+e+e+d+f+g+b+b+b+c+h+i+8+6+j+k+",
"l+m+n+o+p+o+n+q+q+ +q+q+q+q+q+q+q+q+r+r+r+q+s+t+t+u+t+v+u+w+x+n+n+n+n+n+n+w+n+w+w+w+w+w+y+z+p+z+y+n+A+A+B+B+A+C+C+A+A+n+D+E+F+G+",
"H+I+F+F+F+F+J+G+G+G+G+J+J+G+G+G+K+J+F+I+I+F+F+J+J+G+G+G+J+J+J+G+G+G+J+G+K+G+J+J+J+J+F+F+F+G+K+k+K+K+K+K+K+K+k+G+G+k+G+G+T k+k+k+"};
