<?xml version="1.0" encoding="UTF-8" standalone="no"?>
<!-- Created with Sodipodi ("http://www.sodipodi.com/") -->
<svg
   xmlns:dc="http://purl.org/dc/elements/1.1/"
   xmlns:cc="http://web.resource.org/cc/"
   xmlns:rdf="http://www.w3.org/1999/02/22-rdf-syntax-ns#"
   xmlns:svg="http://www.w3.org/2000/svg"
   xmlns="http://www.w3.org/2000/svg"
   xmlns:xlink="http://www.w3.org/1999/xlink"
   xmlns:sodipodi="http://sodipodi.sourceforge.net/DTD/sodipodi-0.dtd"
   xmlns:inkscape="http://www.inkscape.org/namespaces/inkscape"
   id="svg559"
   sodipodi:version="0.32"
   width="210mm"
   height="297mm"
   sodipodi:docname="e_logo_inset.svg"
   sodipodi:docbase="/home/raster/C/data/new_e"
   inkscape:version="0.45.1"
   inkscape:output_extension="org.inkscape.output.svg.inkscape"
   inkscape:export-filename="/home/raster/C/data/new_e/e_logo_inset.png"
   inkscape:export-xdpi="68.417511"
   inkscape:export-ydpi="68.417511">
  <metadata
     id="metadata4801">
    <rdf:RDF>
      <cc:Work
         rdf:about="">
        <dc:format>image/svg+xml</dc:format>
        <dc:type
           rdf:resource="http://purl.org/dc/dcmitype/StillImage" />
      </cc:Work>
    </rdf:RDF>
  </metadata>
  <defs
     id="defs561">
    <linearGradient
       id="linearGradient3139">
      <stop
         style="stop-color:#ffffff;stop-opacity:1;"
         offset="0"
         id="stop3141" />
      <stop
         style="stop-color:#f8f8f8;stop-opacity:1;"
         offset="1"
         id="stop3143" />
    </linearGradient>
    <linearGradient
       id="linearGradient564">
      <stop
         style="stop-color:#000;stop-opacity:1;"
         offset="0"
         id="stop565" />
      <stop
         style="stop-color:#fff;stop-opacity:1;"
         offset="1"
         id="stop566" />
    </linearGradient>
    <linearGradient
       xlink:href="#linearGradient564"
       id="linearGradient567" />
    <radialGradient
       xlink:href="#linearGradient564"
       id="radialGradient568"
       cx="0.500000"
       cy="0.500000"
       r="0.500000"
       fx="0.500000"
       fy="0.500000" />
    <radialGradient
       xlink:href="#linearGradient564"
       id="radialGradient620" />
    <filter
       inkscape:collect="always"
       id="filter6859">
      <feGaussianBlur
         inkscape:collect="always"
         stdDeviation="11.611562"
         id="feGaussianBlur6861" />
    </filter>
    <clipPath
       clipPathUnits="userSpaceOnUse"
       id="clipPath6870">
      <path
         id="path6872"
         d="M 381.9375,173.625 C 377.72418,215.75849 371.90173,243.45624 356.09375,252.15625 C 338.81694,246.92709 327.40139,221.02446 314.5625,180.65625 C 319.11708,222.43422 319.17345,250.62419 305.8125,262.5625 C 288.02415,260.58474 271.68525,237.60819 251.09375,201.03125 C 264.14925,241.31528 269.92678,269.03068 258.9375,283.34375 C 241.01366,285.49342 220.15367,266.38417 192.1875,234.5625 C 213.23523,271.18174 224.61065,297.02888 216.9375,313.3125 C 199.84626,318.97281 175.5362,304.56865 141.71875,279.25 C 171.36275,312.45511 188.0668,336.18535 181.3125,354.03125 C 191.9833,339.77834 193.1993,338.4651 199.1875,331.9375 C 204.77687,325.84487 206.56744,323.97648 217.53125,314.15625 C 228.78171,304.29813 230.79979,302.77916 237.5625,297.9375 C 244.4692,292.99299 246.39427,291.65899 260.125,283.75 C 272.45951,276.83963 274.91422,275.70759 282.375,272.4375 C 290.05274,269.0725 292.34338,268.13606 306.875,263.40625 C 320.083,259.23888 322.7471,258.60889 330.65625,256.9375 C 338.91659,255.1919 341.29125,254.73689 356.78125,253.03125 C 371.08532,251.62808 373.7418,251.5625 381.9375,251.5625 C 390.79581,251.5625 392.56475,251.57205 410.28125,253.34375 C 423.38337,254.81034 426.20394,255.32787 433.96875,256.96875 C 442.03163,258.67263 444.55874,259.28997 458.46875,263.6875 C 472.26831,268.18693 474.71622,269.16684 482.25,272.46875 C 489.71078,275.73884 492.16548,276.87088 504.5,283.78125 C 518.23073,291.69024 520.1558,293.02424 527.0625,297.96875 C 533.82521,302.81041 535.84328,304.32938 547.09375,314.1875 C 558.05756,324.00773 559.84812,325.87612 565.4375,331.96875 C 571.4257,338.49635 572.64167,339.80959 583.3125,354.0625 C 576.5582,336.2166 593.26224,312.48636 622.90625,279.28125 C 589.0865,304.60162 564.77892,319.00715 547.6875,313.34375 C 540.02953,297.05917 551.39677,271.20085 572.4375,234.59375 C 544.48721,266.39736 523.63574,285.53055 505.71875,283.40625 C 494.69309,269.10338 500.46508,241.41065 513.53125,201.09375 C 492.92799,237.69158 476.5814,260.63884 458.78125,262.59375 C 445.45337,250.63853 445.51166,222.46234 450.0625,180.71875 C 437.11645,221.42391 425.61381,247.38821 408.09375,252.3125 C 392.05337,243.80361 386.17813,216.03068 381.9375,173.625 z M 380.6875,273.625 C 307.353,274.67209 236.20962,311.09775 194.03125,373.71875 C 129.45104,470.80215 144.9101,613.32185 256.4375,688.84375 C 353.9647,753.27195 445.43145,724.9739 501.46875,693.875 L 473.46875,645.875 C 413.06896,677.72 342.31195,681.5373 287.78125,644.4375 C 203.92365,588.8943 187.42805,479.75645 239.09375,403.34375 C 289.92675,326.64605 395.1171,303.27525 478.3125,358.21875 C 565.89409,417.60065 560.80055,520.7615 539.09375,566.9375 C 529.50485,560.341 519.9014,553.75275 510.3125,547.15625 C 535.3084,482.39408 509.8678,418.47795 459.8125,384.96875 C 400.92381,345.54616 315.4392,352.2459 267.625,423.5 C 258.2766,437.63429 258.26275,437.6554 253.09375,451.5625 L 551.1875,650.5625 C 563.5212,637.71962 563.52175,637.7152 571.40625,625.9375 C 638.42465,525.82682 615.09045,382.3082 509.28125,311.9375 C 469.46004,285.10607 424.6882,272.99675 380.6875,273.625 z M 584.03125,645.15625 C 573.36046,659.40917 572.1757,660.7224 566.1875,667.25 C 560.51153,673.43706 558.81261,675.20144 547.375,685.4375 C 536.58563,694.88325 534.43955,696.48309 527.78125,701.25 C 521.27131,705.9105 518.96458,707.49434 507.28125,714.25 C 492.82576,722.37762 490.87764,723.25226 482.96875,726.71875 C 475.43656,730.01994 473.01028,731.03434 459.21875,735.53125 C 445.30091,739.93136 442.75206,740.54577 434.6875,742.25 C 426.83653,743.9091 424.08796,744.40064 410.59375,745.90625 C 393.37961,747.62407 391.45508,747.62498 382.6875,747.625 C 374.3421,747.625 371.83689,747.57524 356.8125,746.09375 C 342.03107,744.45938 339.52643,743.99721 331.40625,742.28125 C 323.34169,740.57702 320.79285,739.96259 306.875,735.5625 C 293.08346,731.06559 290.65717,730.08247 283.125,726.78125 C 275.51292,723.44485 273.20759,722.36674 260.1875,715.0625 C 247.1601,707.55009 245.05736,706.13228 238.28125,701.28125 C 231.51854,696.43959 229.50047,694.92061 218.25,685.0625 C 207.28619,675.24227 205.49562,673.37386 199.90625,667.28125 C 193.91805,660.75365 192.7333,659.44039 182.0625,645.1875 C 188.8168,663.0334 172.11274,686.76363 142.46875,719.96875 C 176.26376,694.6669 200.56677,680.24511 217.65625,685.875 C 225.34241,702.1578 213.95996,728.02658 192.90625,764.65625 C 220.87977,732.82622 241.76051,713.71355 259.6875,715.875 C 270.66976,730.19004 264.86594,757.90978 251.8125,798.1875 C 272.41576,761.58967 288.76235,738.61117 306.5625,736.65625 C 319.89038,748.61147 319.83209,776.81894 315.28125,818.5625 C 328.1162,778.20666 339.54458,752.30274 356.8125,747.0625 C 372.6387,755.74759 378.47205,783.43882 382.6875,825.59375 C 386.92813,783.18807 392.80335,755.41515 408.84375,746.90625 C 426.359,751.8366 437.86856,777.80148 450.8125,818.5 C 446.26204,776.75988 446.17546,748.58193 459.5,736.625 C 477.3025,738.57536 493.64441,761.52303 514.25,798.125 C 501.18602,757.81474 495.41919,730.11743 506.4375,715.8125 C 524.35755,713.6769 545.19888,732.81334 573.15625,764.625 C 552.1155,728.0179 540.74828,702.15958 548.40625,685.875 C 565.49766,680.21161 589.80525,694.61713 623.625,719.9375 C 593.98103,686.73241 577.27695,663.00215 584.03125,645.15625 z "
         style="font-size:12px;opacity:0.06289308;fill:#000000;fill-opacity:1;fill-rule:evenodd;stroke:none;stroke-width:1;stroke-opacity:1" />
    </clipPath>
    <linearGradient
       inkscape:collect="always"
       xlink:href="#linearGradient3139"
       id="linearGradient3145"
       x1="382.67188"
       y1="173.625"
       x2="382.67188"
       y2="825.59375"
       gradientUnits="userSpaceOnUse" />
  </defs>
  <sodipodi:namedview
     id="base"
     snaptogrid="true"
     showgrid="false"
     gridtolerance="5.000000px"
     gridspacingy="2.000000mm"
     gridspacingx="2.000000mm"
     snaptoguides="false"
     bordercolor="#000000"
     borderopacity="0.32941176"
     inkscape:zoom="1.4203135"
     inkscape:cx="382.67188"
     inkscape:cy="553.20511"
     inkscape:window-width="1592"
     inkscape:window-height="1132"
     inkscape:window-x="0"
     inkscape:window-y="18"
     inkscape:current-layer="svg559" />
  <path
     style="font-size:12px;fill:url(#linearGradient3145);fill-opacity:1.0;fill-rule:evenodd;stroke:none;stroke-width:1;stroke-opacity:1;opacity:1"
     d="M 381.9375 173.625 C 377.72418 215.75849 371.90173 243.45624 356.09375 252.15625 C 338.81694 246.92709 327.40139 221.02446 314.5625 180.65625 C 319.11708 222.43422 319.17345 250.62419 305.8125 262.5625 C 288.02415 260.58474 271.68525 237.60819 251.09375 201.03125 C 264.14925 241.31528 269.92678 269.03068 258.9375 283.34375 C 241.01366 285.49342 220.15367 266.38417 192.1875 234.5625 C 213.23523 271.18174 224.61065 297.02888 216.9375 313.3125 C 199.84626 318.97281 175.5362 304.56865 141.71875 279.25 C 171.36275 312.45511 188.0668 336.18535 181.3125 354.03125 C 191.9833 339.77834 193.1993 338.4651 199.1875 331.9375 C 204.77687 325.84487 206.56744 323.97648 217.53125 314.15625 C 228.78171 304.29813 230.79979 302.77916 237.5625 297.9375 C 244.4692 292.99299 246.39427 291.65899 260.125 283.75 C 272.45951 276.83963 274.91422 275.70759 282.375 272.4375 C 290.05274 269.0725 292.34338 268.13606 306.875 263.40625 C 320.083 259.23888 322.7471 258.60889 330.65625 256.9375 C 338.91659 255.1919 341.29125 254.73689 356.78125 253.03125 C 371.08532 251.62808 373.7418 251.5625 381.9375 251.5625 C 390.79581 251.5625 392.56475 251.57205 410.28125 253.34375 C 423.38337 254.81034 426.20394 255.32787 433.96875 256.96875 C 442.03163 258.67263 444.55874 259.28997 458.46875 263.6875 C 472.26831 268.18693 474.71622 269.16684 482.25 272.46875 C 489.71078 275.73884 492.16548 276.87088 504.5 283.78125 C 518.23073 291.69024 520.1558 293.02424 527.0625 297.96875 C 533.82521 302.81041 535.84328 304.32938 547.09375 314.1875 C 558.05756 324.00773 559.84812 325.87612 565.4375 331.96875 C 571.4257 338.49635 572.64167 339.80959 583.3125 354.0625 C 576.5582 336.2166 593.26224 312.48636 622.90625 279.28125 C 589.0865 304.60162 564.77892 319.00715 547.6875 313.34375 C 540.02953 297.05917 551.39677 271.20085 572.4375 234.59375 C 544.48721 266.39736 523.63574 285.53055 505.71875 283.40625 C 494.69309 269.10338 500.46508 241.41065 513.53125 201.09375 C 492.92799 237.69158 476.5814 260.63884 458.78125 262.59375 C 445.45337 250.63853 445.51166 222.46234 450.0625 180.71875 C 437.11645 221.42391 425.61381 247.38821 408.09375 252.3125 C 392.05337 243.80361 386.17813 216.03068 381.9375 173.625 z M 380.6875 273.625 C 307.353 274.67209 236.20962 311.09775 194.03125 373.71875 C 129.45104 470.80215 144.9101 613.32185 256.4375 688.84375 C 353.9647 753.27195 445.43145 724.9739 501.46875 693.875 L 473.46875 645.875 C 413.06896 677.72 342.31195 681.5373 287.78125 644.4375 C 203.92365 588.8943 187.42805 479.75645 239.09375 403.34375 C 289.92675 326.64605 395.1171 303.27525 478.3125 358.21875 C 565.89409 417.60065 560.80055 520.7615 539.09375 566.9375 C 529.50485 560.341 519.9014 553.75275 510.3125 547.15625 C 535.3084 482.39408 509.8678 418.47795 459.8125 384.96875 C 400.92381 345.54616 315.4392 352.2459 267.625 423.5 C 258.2766 437.63429 258.26275 437.6554 253.09375 451.5625 L 551.1875 650.5625 C 563.5212 637.71962 563.52175 637.7152 571.40625 625.9375 C 638.42465 525.82682 615.09045 382.3082 509.28125 311.9375 C 469.46004 285.10607 424.6882 272.99675 380.6875 273.625 z M 584.03125 645.15625 C 573.36046 659.40917 572.1757 660.7224 566.1875 667.25 C 560.51153 673.43706 558.81261 675.20144 547.375 685.4375 C 536.58563 694.88325 534.43955 696.48309 527.78125 701.25 C 521.27131 705.9105 518.96458 707.49434 507.28125 714.25 C 492.82576 722.37762 490.87764 723.25226 482.96875 726.71875 C 475.43656 730.01994 473.01028 731.03434 459.21875 735.53125 C 445.30091 739.93136 442.75206 740.54577 434.6875 742.25 C 426.83653 743.9091 424.08796 744.40064 410.59375 745.90625 C 393.37961 747.62407 391.45508 747.62498 382.6875 747.625 C 374.3421 747.625 371.83689 747.57524 356.8125 746.09375 C 342.03107 744.45938 339.52643 743.99721 331.40625 742.28125 C 323.34169 740.57702 320.79285 739.96259 306.875 735.5625 C 293.08346 731.06559 290.65717 730.08247 283.125 726.78125 C 275.51292 723.44485 273.20759 722.36674 260.1875 715.0625 C 247.1601 707.55009 245.05736 706.13228 238.28125 701.28125 C 231.51854 696.43959 229.50047 694.92061 218.25 685.0625 C 207.28619 675.24227 205.49562 673.37386 199.90625 667.28125 C 193.91805 660.75365 192.7333 659.44039 182.0625 645.1875 C 188.8168 663.0334 172.11274 686.76363 142.46875 719.96875 C 176.26376 694.6669 200.56677 680.24511 217.65625 685.875 C 225.34241 702.1578 213.95996 728.02658 192.90625 764.65625 C 220.87977 732.82622 241.76051 713.71355 259.6875 715.875 C 270.66976 730.19004 264.86594 757.90978 251.8125 798.1875 C 272.41576 761.58967 288.76235 738.61117 306.5625 736.65625 C 319.89038 748.61147 319.83209 776.81894 315.28125 818.5625 C 328.1162 778.20666 339.54458 752.30274 356.8125 747.0625 C 372.6387 755.74759 378.47205 783.43882 382.6875 825.59375 C 386.92813 783.18807 392.80335 755.41515 408.84375 746.90625 C 426.359 751.8366 437.86856 777.80148 450.8125 818.5 C 446.26204 776.75988 446.17546 748.58193 459.5 736.625 C 477.3025 738.57536 493.64441 761.52303 514.25 798.125 C 501.18602 757.81474 495.41919 730.11743 506.4375 715.8125 C 524.35755 713.6769 545.19888 732.81334 573.15625 764.625 C 552.1155 728.0179 540.74828 702.15958 548.40625 685.875 C 565.49766 680.21161 589.80525 694.61713 623.625 719.9375 C 593.98103 686.73241 577.27695 663.00215 584.03125 645.15625 z "
     id="path582" />
  <path
     style="opacity:0.15;fill:#000000;fill-opacity:1;stroke:#e207e8;stroke-linecap:round;stroke-opacity:1;filter:url(#filter6859)"
     d="M -176.66535,-99.484887 L -176.66535,1107.2651 L 936.89715,1107.2651 L 936.89715,-99.484887 L -176.66535,-99.484887 z M 382.4284,184.89011 C 386.66903,227.29579 392.54427,255.06872 408.58465,263.57761 C 426.10471,258.65332 437.60735,232.68902 450.5534,191.98386 C 446.00256,233.72745 445.94427,261.90364 459.27215,273.85886 C 477.0723,271.90395 493.41889,248.95669 514.02215,212.35886 C 500.95598,252.67576 495.18399,280.36849 506.20965,294.67136 C 524.12664,296.79566 544.97811,277.66247 572.9284,245.85886 C 551.88767,282.46596 540.52043,308.32428 548.1784,324.60886 C 565.26982,330.27226 589.5774,315.86673 623.39715,290.54636 C 593.75314,323.75147 577.0491,347.48171 583.8034,365.32761 C 573.13257,351.0747 571.9166,349.76146 565.9284,343.23386 C 560.33902,337.14123 558.54846,335.27284 547.58465,325.45261 C 536.33418,315.59449 534.31611,314.07552 527.5534,309.23386 C 520.6467,304.28935 518.72163,302.95535 504.9909,295.04636 C 492.65638,288.13599 490.20168,287.00395 482.7409,283.73386 C 475.20712,280.43195 472.75921,279.45204 458.95965,274.95261 C 445.04964,270.55508 442.52253,269.93774 434.45965,268.23386 C 426.69484,266.59298 423.87427,266.07545 410.77215,264.60886 C 393.05565,262.83716 391.28671,262.82761 382.4284,262.82761 C 374.2327,262.82761 371.57622,262.89319 357.27215,264.29636 C 341.78215,266.002 339.40749,266.45701 331.14715,268.20261 C 323.238,269.874 320.5739,270.50399 307.3659,274.67136 C 292.83428,279.40117 290.54364,280.33761 282.8659,283.70261 C 275.40512,286.9727 272.95041,288.10474 260.6159,295.01511 C 246.88517,302.9241 244.9601,304.2581 238.0534,309.20261 C 231.29069,314.04427 229.27261,315.56324 218.02215,325.42136 C 207.05834,335.24159 205.26777,337.10998 199.6784,343.20261 C 193.6902,349.73021 192.4742,351.04345 181.8034,365.29636 C 188.5577,347.45046 171.85365,323.72022 142.20965,290.51511 C 176.0271,315.83376 200.33716,330.23792 217.4284,324.57761 C 225.10155,308.29399 213.72613,282.44685 192.6784,245.82761 C 220.64457,277.64928 241.50456,296.75853 259.4284,294.60886 C 270.41768,280.29579 264.64015,252.58039 251.58465,212.29636 C 272.17615,248.8733 288.51505,271.84985 306.3034,273.82761 C 319.66435,261.8893 319.60798,233.69933 315.0534,191.92136 C 327.89229,232.28957 339.30784,258.1922 356.58465,263.42136 C 372.39263,254.72135 378.21508,227.0236 382.4284,184.89011 z M 385.3034,284.85886 C 427.97036,285.02334 471.19535,297.20966 509.77215,323.20261 C 615.58135,393.57331 638.91555,537.09193 571.89715,637.20261 C 564.01265,648.98031 564.0121,648.98473 551.6784,661.82761 L 253.58465,462.82761 C 258.75365,448.92051 258.7675,448.8994 268.1159,434.76511 C 315.9301,363.51101 401.41471,356.81127 460.3034,396.23386 C 510.3587,429.74306 535.7993,493.65919 510.8034,558.42136 C 520.3923,565.01786 529.99575,571.60611 539.58465,578.20261 C 561.29145,532.02661 566.38499,428.86576 478.8034,369.48386 C 395.608,314.54036 290.41765,337.91116 239.58465,414.60886 C 187.91895,491.02156 204.41455,600.15941 288.27215,655.70261 C 342.80285,692.80241 413.55986,688.98511 473.95965,657.14011 L 501.95965,705.14011 C 445.92235,736.23901 354.4556,764.53706 256.9284,700.10886 C 145.401,624.58696 129.94194,482.06726 194.52215,384.98386 C 236.70052,322.36286 307.8439,285.9372 381.1784,284.89011 C 382.55342,284.87048 383.92705,284.85355 385.3034,284.85886 z M 584.52215,656.42136 C 577.76785,674.26726 594.47193,697.99752 624.1159,731.20261 C 590.29615,705.88224 565.98856,691.47672 548.89715,697.14011 C 541.23918,713.42469 552.6064,739.28301 573.64715,775.89011 C 545.68978,744.07845 524.84845,724.94201 506.9284,727.07761 C 495.91009,741.38254 501.67692,769.07985 514.7409,809.39011 C 494.13531,772.78814 477.7934,749.84047 459.9909,747.89011 C 446.66636,759.84704 446.75294,788.02499 451.3034,829.76511 C 438.35946,789.06659 426.8499,763.10171 409.33465,758.17136 C 393.29425,766.68026 387.41903,794.45318 383.1784,836.85886 C 378.96295,794.70393 373.1296,767.0127 357.3034,758.32761 C 340.03548,763.56785 328.6071,789.47177 315.77215,829.82761 C 320.32299,788.08405 320.38128,759.87658 307.0534,747.92136 C 289.25325,749.87628 272.90666,772.85478 252.3034,809.45261 C 265.35684,769.17489 271.16066,741.45515 260.1784,727.14011 C 242.25141,724.97866 221.37067,744.09133 193.39715,775.92136 C 214.45086,739.29169 225.83331,713.42291 218.14715,697.14011 C 201.05767,691.51022 176.75466,705.93201 142.95965,731.23386 C 172.60364,698.02874 189.3077,674.29851 182.5534,656.45261 C 193.2242,670.7055 194.40895,672.01876 200.39715,678.54636 C 205.98652,684.63897 207.77709,686.50738 218.7409,696.32761 C 229.99137,706.18572 232.00944,707.7047 238.77215,712.54636 C 245.54826,717.39739 247.651,718.8152 260.6784,726.32761 C 273.69849,733.63185 276.00382,734.70996 283.6159,738.04636 C 291.14807,741.34758 293.57436,742.3307 307.3659,746.82761 C 321.28375,751.2277 323.83259,751.84213 331.89715,753.54636 C 340.01733,755.26232 342.52197,755.72449 357.3034,757.35886 C 372.32779,758.84035 374.833,758.89011 383.1784,758.89011 C 391.94598,758.89009 393.87051,758.88918 411.08465,757.17136 C 424.57886,755.66575 427.32743,755.17421 435.1784,753.51511 C 443.24296,751.81088 445.79181,751.19647 459.70965,746.79636 C 473.50118,742.29945 475.92746,741.28505 483.45965,737.98386 C 491.36854,734.51737 493.31666,733.64273 507.77215,725.51511 C 519.45548,718.75945 521.76221,717.17561 528.27215,712.51511 C 534.93045,707.7482 537.07653,706.14836 547.8659,696.70261 C 559.30351,686.46655 561.00243,684.70217 566.6784,678.51511 C 572.6666,671.98751 573.85136,670.67428 584.52215,656.42136 z "
     id="rect4904"
     clip-path="url(#clipPath6870)" />
</svg>
