<?xml version="1.0" encoding="UTF-8" standalone="no"?>
<!-- Created with Inkscape (http://www.inkscape.org/) -->
<svg
   xmlns:dc="http://purl.org/dc/elements/1.1/"
   xmlns:cc="http://creativecommons.org/ns#"
   xmlns:rdf="http://www.w3.org/1999/02/22-rdf-syntax-ns#"
   xmlns:svg="http://www.w3.org/2000/svg"
   xmlns="http://www.w3.org/2000/svg"
   xmlns:xlink="http://www.w3.org/1999/xlink"
   xmlns:sodipodi="http://sodipodi.sourceforge.net/DTD/sodipodi-0.dtd"
   xmlns:inkscape="http://www.inkscape.org/namespaces/inkscape"
   width="64px"
   height="64px"
   id="svg2383"
   sodipodi:version="0.32"
   inkscape:version="0.46"
   sodipodi:docname="lock.svg"
   inkscape:output_extension="org.inkscape.output.svg.inkscape"
   inkscape:export-filename="/home/raster/C/bnw/logout_logo.png"
   inkscape:export-xdpi="360"
   inkscape:export-ydpi="360">
  <defs
     id="defs2385">
    <linearGradient
       id="linearGradient3367">
      <stop
         style="stop-color:#ffffff;stop-opacity:1;"
         offset="0"
         id="stop3369" />
      <stop
         style="stop-color:#ffffff;stop-opacity:0;"
         offset="1"
         id="stop3371" />
    </linearGradient>
    <linearGradient
       id="linearGradient3357">
      <stop
         id="stop3359"
         offset="0"
         style="stop-color:#ffffff;stop-opacity:1;" />
      <stop
         id="stop3361"
         offset="1"
         style="stop-color:#ffffff;stop-opacity:0;" />
    </linearGradient>
    <linearGradient
       id="linearGradient3336">
      <stop
         style="stop-color:#ffffff;stop-opacity:1;"
         offset="0"
         id="stop3338" />
      <stop
         style="stop-color:#dcdcdc;stop-opacity:1;"
         offset="1"
         id="stop3340" />
    </linearGradient>
    <linearGradient
       id="linearGradient3277">
      <stop
         id="stop3279"
         offset="0"
         style="stop-color:#a0a0a0;stop-opacity:1;" />
      <stop
         id="stop3281"
         offset="1"
         style="stop-color:#a0a0a0;stop-opacity:0;" />
    </linearGradient>
    <linearGradient
       id="linearGradient3267">
      <stop
         style="stop-color:#a0a0a0;stop-opacity:1;"
         offset="0"
         id="stop3269" />
      <stop
         style="stop-color:#000000;stop-opacity:1;"
         offset="1"
         id="stop3271" />
    </linearGradient>
    <linearGradient
       id="linearGradient3251">
      <stop
         style="stop-color:#8c8c8c;stop-opacity:1;"
         offset="0"
         id="stop3253" />
      <stop
         style="stop-color:#141414;stop-opacity:1;"
         offset="1"
         id="stop3255" />
    </linearGradient>
    <linearGradient
       id="linearGradient3231">
      <stop
         style="stop-color:#ffffff;stop-opacity:1;"
         offset="0"
         id="stop3233" />
      <stop
         style="stop-color:#ffffff;stop-opacity:0;"
         offset="1"
         id="stop3235" />
    </linearGradient>
    <linearGradient
       id="linearGradient3179">
      <stop
         style="stop-color:#ffffff;stop-opacity:1;"
         offset="0"
         id="stop3181" />
      <stop
         style="stop-color:#a0a0a0;stop-opacity:1;"
         offset="1"
         id="stop3183" />
    </linearGradient>
    <linearGradient
       id="linearGradient3167">
      <stop
         style="stop-color:#ffffff;stop-opacity:1;"
         offset="0"
         id="stop3169" />
      <stop
         style="stop-color:#c8c8c8;stop-opacity:1;"
         offset="1"
         id="stop3171" />
    </linearGradient>
    <inkscape:perspective
       sodipodi:type="inkscape:persp3d"
       inkscape:vp_x="0 : 32 : 1"
       inkscape:vp_y="0 : 1000 : 0"
       inkscape:vp_z="64 : 32 : 1"
       inkscape:persp3d-origin="32 : 21.333333 : 1"
       id="perspective2391" />
    <filter
       inkscape:collect="always"
       id="filter3813">
      <feGaussianBlur
         inkscape:collect="always"
         stdDeviation="0.49355367"
         id="feGaussianBlur3815" />
    </filter>
    <linearGradient
       inkscape:collect="always"
       xlink:href="#linearGradient3336"
       id="linearGradient3573"
       x1="58"
       y1="14"
       x2="58"
       y2="50"
       gradientUnits="userSpaceOnUse" />
    <filter
       inkscape:collect="always"
       id="filter3596">
      <feGaussianBlur
         inkscape:collect="always"
         stdDeviation="1.15"
         id="feGaussianBlur3598" />
    </filter>
    <linearGradient
       inkscape:collect="always"
       xlink:href="#linearGradient3357"
       id="linearGradient3608"
       gradientUnits="userSpaceOnUse"
       x1="58"
       y1="14"
       x2="58"
       y2="45" />
    <linearGradient
       inkscape:collect="always"
       xlink:href="#linearGradient3336"
       id="linearGradient3653"
       x1="32"
       y1="12"
       x2="32"
       y2="57"
       gradientUnits="userSpaceOnUse" />
    <linearGradient
       inkscape:collect="always"
       xlink:href="#linearGradient3336"
       id="linearGradient3659"
       gradientUnits="userSpaceOnUse"
       x1="32"
       y1="12"
       x2="32"
       y2="57" />
    <linearGradient
       inkscape:collect="always"
       xlink:href="#linearGradient3357"
       id="linearGradient3662"
       gradientUnits="userSpaceOnUse"
       x1="32"
       y1="12"
       x2="32"
       y2="57" />
    <filter
       inkscape:collect="always"
       id="filter3677">
      <feGaussianBlur
         inkscape:collect="always"
         stdDeviation="0.98757334"
         id="feGaussianBlur3679" />
    </filter>
    <linearGradient
       inkscape:collect="always"
       xlink:href="#linearGradient3357"
       id="linearGradient3683"
       gradientUnits="userSpaceOnUse"
       x1="32"
       y1="12"
       x2="32"
       y2="57" />
  </defs>
  <sodipodi:namedview
     id="base"
     pagecolor="#ffffff"
     bordercolor="#666666"
     borderopacity="1.0"
     inkscape:pageopacity="0.0"
     inkscape:pageshadow="2"
     inkscape:zoom="14.46875"
     inkscape:cx="31.930886"
     inkscape:cy="26.470842"
     inkscape:current-layer="layer1"
     showgrid="true"
     inkscape:document-units="px"
     inkscape:grid-bbox="true"
     objecttolerance="10000"
     gridtolerance="10000"
     guidetolerance="10000"
     inkscape:snap-bbox="true"
     inkscape:window-width="1920"
     inkscape:window-height="1133"
     inkscape:window-x="1600"
     inkscape:window-y="0"
     showguides="true"
     inkscape:guide-bbox="true">
    <inkscape:grid
       type="xygrid"
       id="grid2393"
       visible="true"
       enabled="true" />
  </sodipodi:namedview>
  <metadata
     id="metadata2388">
    <rdf:RDF>
      <cc:Work
         rdf:about="">
        <dc:format>image/svg+xml</dc:format>
        <dc:type
           rdf:resource="http://purl.org/dc/dcmitype/StillImage" />
      </cc:Work>
    </rdf:RDF>
  </metadata>
  <g
     id="layer1"
     inkscape:label="Layer 1"
     inkscape:groupmode="layer">
    <path
       id="path3675"
       d="M 32.40625,13 C 24.681432,12.778268 18.221732,18.868931 18,26.59375 L 18,26.625 C 17.996678,26.750714 18.000003,26.874984 18,27 L 18,30 L 15,30 L 15,58 L 49,58 L 49,30 L 46,30 L 46,27 C 46.000298,19.456966 39.99469,13.217817 32.40625,13 z M 32.28125,17 C 37.705013,17.155683 42.005387,21.607799 42,27 L 42,30 L 22,30 L 22,27 C 22.000153,26.917028 21.997796,26.833409 22,26.75 L 22,26.71875 C 22.158381,21.201023 26.763523,16.84162 32.28125,17 z"
       style="opacity:0.5;fill:#000000;fill-opacity:1;stroke:none;stroke-width:1;stroke-linecap:round;stroke-linejoin:round;stroke-miterlimit:4;stroke-dasharray:none;stroke-opacity:1;filter:url(#filter3677)" />
    <path
       style="opacity:1;fill:url(#linearGradient3653);fill-opacity:1;stroke:none;stroke-width:1;stroke-linecap:round;stroke-linejoin:round;stroke-miterlimit:4;stroke-dasharray:none;stroke-opacity:1"
       d="M 32.40625 12 C 24.681432 11.778268 18.221732 17.868931 18 25.59375 L 18 25.625 C 17.996678 25.750714 18.000003 25.874984 18 26 L 18 29 L 15 29 L 15 57 L 49 57 L 49 29 L 46 29 L 46 26 C 46.000298 18.456966 39.99469 12.217817 32.40625 12 z M 32.28125 16 C 37.705013 16.155683 42.005387 20.607799 42 26 L 42 29 L 22 29 L 22 26 C 22.000153 25.917028 21.997796 25.833409 22 25.75 L 22 25.71875 C 22.158381 20.201023 26.763523 15.84162 32.28125 16 z "
       id="rect3630" />
    <path
       style="opacity:0.50000000000000000;fill:url(#linearGradient3662);fill-opacity:1;stroke:none;stroke-width:1;stroke-linecap:round;stroke-linejoin:round;stroke-miterlimit:4;stroke-dasharray:none;stroke-opacity:1"
       d="M 32.40625 12 C 24.681432 11.778268 18.221732 17.868931 18 25.59375 L 18 25.625 C 17.996678 25.750714 18.000003 25.874984 18 26 L 18 29 L 15 29 L 15 32 L 49 32 L 49 29 L 46 29 L 46 26 C 46.000298 18.456966 39.99469 12.217817 32.40625 12 z M 32.28125 16 C 37.705013 16.155683 42.005387 20.607799 42 26 L 42 29 L 22 29 L 22 26 C 22.000153 25.917028 21.997796 25.833409 22 25.75 L 22 25.71875 C 22.158381 20.201023 26.763523 15.84162 32.28125 16 z "
       id="path3655" />
    <path
       style="opacity:0.50000000000000000;fill:url(#linearGradient3683);fill-opacity:1;stroke:none;stroke-width:1;stroke-linecap:round;stroke-linejoin:round;stroke-miterlimit:4;stroke-dasharray:none;stroke-opacity:1"
       d="M 32.40625 12 C 24.681432 11.778268 18.221732 17.868931 18 25.59375 L 18 25.625 C 17.996678 25.750714 18.000003 25.874984 18 26 L 18 29 L 15 29 L 15 32 L 49 32 L 49 29 L 46 29 L 46 26 C 46.000298 18.456966 39.99469 12.217817 32.40625 12 z M 32.28125 16 C 37.705013 16.155683 42.005387 20.607799 42 26 L 42 29 L 22 29 L 22 26 C 22.000153 25.917028 21.997796 25.833409 22 25.75 L 22 25.71875 C 22.158381 20.201023 26.763523 15.84162 32.28125 16 z "
       id="path3664" />
    <path
       style="opacity:0.50000000000000000;fill:none;fill-opacity:1;stroke:#ffffff;stroke-width:1;stroke-linecap:round;stroke-linejoin:round;stroke-miterlimit:4;stroke-dasharray:none;stroke-opacity:1"
       d="M 16,30 L 18,30"
       id="path3688" />
    <path
       style="opacity:0.5;fill:none;fill-opacity:1;stroke:#ffffff;stroke-width:1;stroke-linecap:round;stroke-linejoin:round;stroke-miterlimit:4;stroke-dasharray:none;stroke-opacity:1"
       d="M 22,30 L 42,30"
       id="path3690" />
    <path
       style="opacity:0.5;fill:none;fill-opacity:1;stroke:#ffffff;stroke-width:1;stroke-linecap:round;stroke-linejoin:round;stroke-miterlimit:4;stroke-dasharray:none;stroke-opacity:1"
       d="M 46,30 L 48,30"
       id="path3692" />
  </g>
</svg>
