<?xml version="1.0" encoding="UTF-8" standalone="no"?>
<!-- Created with Inkscape (http://www.inkscape.org/) -->
<svg
   xmlns:dc="http://purl.org/dc/elements/1.1/"
   xmlns:cc="http://web.resource.org/cc/"
   xmlns:rdf="http://www.w3.org/1999/02/22-rdf-syntax-ns#"
   xmlns:svg="http://www.w3.org/2000/svg"
   xmlns="http://www.w3.org/2000/svg"
   xmlns:xlink="http://www.w3.org/1999/xlink"
   xmlns:sodipodi="http://sodipodi.sourceforge.net/DTD/sodipodi-0.dtd"
   xmlns:inkscape="http://www.inkscape.org/namespaces/inkscape"
   width="64px"
   height="64px"
   id="svg2160"
   sodipodi:version="0.32"
   inkscape:version="0.45.1"
   sodipodi:docbase="/home/raster/C/data/new_e"
   sodipodi:docname="tacho.svg"
   inkscape:output_extension="org.inkscape.output.svg.inkscape">
  <defs
     id="defs2162">
    <linearGradient
       id="linearGradient3882">
      <stop
         style="stop-color:#ffffff;stop-opacity:0.94117647;"
         offset="0"
         id="stop3884" />
      <stop
         id="stop3897"
         offset="0.125"
         style="stop-color:#ffffff;stop-opacity:0.61176473;" />
      <stop
         id="stop3895"
         offset="0.25"
         style="stop-color:#ffffff;stop-opacity:0.50196081;" />
      <stop
         id="stop3893"
         offset="0.5"
         style="stop-color:#ffffff;stop-opacity:0.25098041;" />
      <stop
         style="stop-color:#ffffff;stop-opacity:0;"
         offset="1"
         id="stop3886" />
    </linearGradient>
    <linearGradient
       id="linearGradient3799">
      <stop
         style="stop-color:#ff0000;stop-opacity:1;"
         offset="0"
         id="stop3801" />
      <stop
         style="stop-color:#ff0000;stop-opacity:0.28865978;"
         offset="1"
         id="stop3803" />
    </linearGradient>
    <linearGradient
       id="linearGradient3707">
      <stop
         style="stop-color:#ffffff;stop-opacity:1;"
         offset="0"
         id="stop3709" />
      <stop
         style="stop-color:#434343;stop-opacity:0;"
         offset="1"
         id="stop3711" />
    </linearGradient>
    <linearGradient
       id="linearGradient3693">
      <stop
         id="stop3695"
         offset="0"
         style="stop-color:#000000;stop-opacity:0.51546389;" />
      <stop
         id="stop3697"
         offset="1"
         style="stop-color:#ffffff;stop-opacity:0.21649484;" />
    </linearGradient>
    <linearGradient
       id="linearGradient3677">
      <stop
         style="stop-color:#000000;stop-opacity:0.51546389;"
         offset="0"
         id="stop3679" />
      <stop
         style="stop-color:#ffffff;stop-opacity:0.34020618;"
         offset="1"
         id="stop3681" />
    </linearGradient>
    <linearGradient
       id="linearGradient3607">
      <stop
         style="stop-color:#141414;stop-opacity:1;"
         offset="0"
         id="stop3609" />
      <stop
         style="stop-color:#343434;stop-opacity:1;"
         offset="1"
         id="stop3611" />
    </linearGradient>
    <linearGradient
       id="linearGradient3559">
      <stop
         style="stop-color:#ffffff;stop-opacity:1;"
         offset="0"
         id="stop3561" />
      <stop
         style="stop-color:#cbcbcb;stop-opacity:1;"
         offset="1"
         id="stop3563" />
    </linearGradient>
    <linearGradient
       id="linearGradient3549">
      <stop
         style="stop-color:#ff0000;stop-opacity:1;"
         offset="0"
         id="stop3551" />
      <stop
         style="stop-color:#9b0000;stop-opacity:1;"
         offset="1"
         id="stop3553" />
    </linearGradient>
    <linearGradient
       id="linearGradient3430">
      <stop
         id="stop3432"
         offset="0"
         style="stop-color:#616161;stop-opacity:1;" />
      <stop
         id="stop3434"
         offset="1"
         style="stop-color:#2a2a2a;stop-opacity:1;" />
    </linearGradient>
    <linearGradient
       id="linearGradient3356">
      <stop
         id="stop3358"
         offset="0"
         style="stop-color:#000000;stop-opacity:1;" />
      <stop
         id="stop3362"
         offset="1"
         style="stop-color:#bebebe;stop-opacity:1;" />
    </linearGradient>
    <linearGradient
       id="linearGradient3245">
      <stop
         style="stop-color:#434343;stop-opacity:1;"
         offset="0"
         id="stop3247" />
      <stop
         style="stop-color:#000000;stop-opacity:1;"
         offset="1"
         id="stop3249" />
    </linearGradient>
    <linearGradient
       id="linearGradient3146">
      <stop
         style="stop-color:#575757;stop-opacity:1;"
         offset="0"
         id="stop3148" />
      <stop
         style="stop-color:#323232;stop-opacity:1;"
         offset="1"
         id="stop3150" />
    </linearGradient>
    <filter
       inkscape:collect="always"
       id="filter3181">
      <feGaussianBlur
         inkscape:collect="always"
         stdDeviation="1.92"
         id="feGaussianBlur3183" />
    </filter>
    <clipPath
       clipPathUnits="userSpaceOnUse"
       id="clipPath3187">
      <path
         d="M 57 32 A 25 25 0 1 1  7,32 A 25 25 0 1 1  57 32 z"
         sodipodi:ry="25"
         sodipodi:rx="25"
         sodipodi:cy="32"
         sodipodi:cx="32"
         id="path3189"
         style="fill:url(#radialGradient3191);fill-opacity:1;stroke:none"
         sodipodi:type="arc" />
    </clipPath>
    <radialGradient
       inkscape:collect="always"
       xlink:href="#linearGradient3146"
       id="radialGradient3191"
       gradientUnits="userSpaceOnUse"
       gradientTransform="matrix(0,-1.6145495,1.5527442,0,-27.725433,121.33936)"
       cx="45.81818"
       cy="47.363636"
       fx="45.81818"
       fy="47.363636"
       r="25" />
    <filter
       inkscape:collect="always"
       x="-0.108"
       width="1.216"
       y="-0.108"
       height="1.216"
       id="filter3233">
      <feGaussianBlur
         inkscape:collect="always"
         stdDeviation="2.25"
         id="feGaussianBlur3235" />
    </filter>
    <linearGradient
       inkscape:collect="always"
       xlink:href="#linearGradient3245"
       id="linearGradient3267"
       gradientUnits="userSpaceOnUse"
       x1="49"
       y1="47.454544"
       x2="13.454545"
       y2="16.363636" />
    <clipPath
       clipPathUnits="userSpaceOnUse"
       id="clipPath3269">
      <path
         d="M 60 32 A 28 28 0 1 1  4,32 A 28 28 0 1 1  60 32 z"
         sodipodi:ry="28"
         sodipodi:rx="28"
         sodipodi:cy="32"
         sodipodi:cx="32"
         id="path3271"
         style="fill:#000000;fill-opacity:1;stroke:none"
         sodipodi:type="arc"
         transform="translate(-1,-1)" />
    </clipPath>
    <clipPath
       clipPathUnits="userSpaceOnUse"
       id="clipPath3288">
      <path
         d="M 60 32 A 28 28 0 1 1  4,32 A 28 28 0 1 1  60 32 z"
         sodipodi:ry="28"
         sodipodi:rx="28"
         sodipodi:cy="32"
         sodipodi:cx="32"
         id="path3290"
         style="fill:#434343;fill-opacity:1;stroke:none"
         sodipodi:type="arc" />
    </clipPath>
    <linearGradient
       inkscape:collect="always"
       xlink:href="#linearGradient3146"
       id="linearGradient3346"
       x1="49.18182"
       y1="49.454544"
       x2="16.09091"
       y2="13.363636"
       gradientUnits="userSpaceOnUse" />
    <filter
       inkscape:collect="always"
       id="filter3424">
      <feGaussianBlur
         inkscape:collect="always"
         stdDeviation="1.25"
         id="feGaussianBlur3426" />
    </filter>
    <linearGradient
       inkscape:collect="always"
       xlink:href="#linearGradient3146"
       id="linearGradient3447"
       x1="13.818182"
       y1="10.909091"
       x2="51.363636"
       y2="52"
       gradientUnits="userSpaceOnUse" />
    <clipPath
       clipPathUnits="userSpaceOnUse"
       id="clipPath3490">
      <path
         sodipodi:type="arc"
         style="fill:#434343;fill-opacity:1;stroke:none"
         id="path3492"
         sodipodi:cx="32"
         sodipodi:cy="32"
         sodipodi:rx="27"
         sodipodi:ry="28"
         d="M 59 32 A 27 28 0 1 1  5,32 A 27 28 0 1 1  59 32 z"
         transform="matrix(1.037037,0,0,1,-1.1851853,0)" />
    </clipPath>
    <filter
       inkscape:collect="always"
       id="filter3510">
      <feGaussianBlur
         inkscape:collect="always"
         stdDeviation="0.83999999"
         id="feGaussianBlur3512" />
    </filter>
    <filter
       inkscape:collect="always"
       x="-0.36"
       width="1.72"
       y="-0.36"
       height="1.72"
       id="filter3577">
      <feGaussianBlur
         inkscape:collect="always"
         stdDeviation="1.2"
         id="feGaussianBlur3579" />
    </filter>
    <filter
       inkscape:collect="always"
       x="-0.217"
       width="1.434"
       y="-0.05208"
       height="1.10416"
       id="filter3587">
      <feGaussianBlur
         inkscape:collect="always"
         stdDeviation="0.5425"
         id="feGaussianBlur3589" />
    </filter>
    <clipPath
       clipPathUnits="userSpaceOnUse"
       id="clipPath3637">
      <path
         sodipodi:type="arc"
         style="opacity:1;fill:url(#linearGradient3641);fill-opacity:1;stroke:none;stroke-opacity:1"
         id="path3639"
         sodipodi:cx="32"
         sodipodi:cy="32"
         sodipodi:rx="26"
         sodipodi:ry="26"
         d="M 58 32 A 26 26 0 1 1  6,32 A 26 26 0 1 1  58 32 z"
         transform="matrix(0.9615385,0,0,0.9615385,1.230769,1.230767)" />
    </clipPath>
    <linearGradient
       inkscape:collect="always"
       xlink:href="#linearGradient3607"
       id="linearGradient3641"
       gradientUnits="userSpaceOnUse"
       x1="16.727272"
       y1="11.727273"
       x2="47.363636"
       y2="52.363636" />
    <filter
       inkscape:collect="always"
       x="-0.12"
       width="1.24"
       y="-0.12"
       height="1.24"
       id="filter3659">
      <feGaussianBlur
         inkscape:collect="always"
         stdDeviation="2.5000001"
         id="feGaussianBlur3661" />
    </filter>
    <filter
       inkscape:collect="always"
       id="filter3729">
      <feGaussianBlur
         inkscape:collect="always"
         stdDeviation="1.3875"
         id="feGaussianBlur3731" />
    </filter>
    <linearGradient
       inkscape:collect="always"
       xlink:href="#linearGradient3607"
       id="linearGradient3743"
       gradientUnits="userSpaceOnUse"
       x1="16.727272"
       y1="11.727273"
       x2="47.363636"
       y2="52.363636" />
    <linearGradient
       inkscape:collect="always"
       xlink:href="#linearGradient3549"
       id="linearGradient3869"
       gradientUnits="userSpaceOnUse"
       x1="32"
       y1="10"
       x2="32"
       y2="35"
       gradientTransform="translate(0,1)" />
    <radialGradient
       inkscape:collect="always"
       xlink:href="#linearGradient3559"
       id="radialGradient3876"
       gradientUnits="userSpaceOnUse"
       gradientTransform="matrix(-7.92258e-3,1.5228765,-1.4999998,-7.8035637e-3,75.101306,-15.543807)"
       cx="30"
       cy="29.90909"
       fx="30"
       fy="29.90909"
       r="4" />
    <linearGradient
       inkscape:collect="always"
       xlink:href="#linearGradient3799"
       id="linearGradient3927"
       gradientUnits="userSpaceOnUse"
       x1="53.695644"
       y1="32"
       x2="24.875"
       y2="9.5948391"
       gradientTransform="translate(68,-0.677669)" />
    <linearGradient
       inkscape:collect="always"
       xlink:href="#linearGradient3882"
       id="linearGradient3962"
       gradientUnits="userSpaceOnUse"
       gradientTransform="matrix(0.96,0,0,0.9411765,1.28,1.4117651)"
       x1="32"
       y1="7"
       x2="32.473549"
       y2="58" />
    <radialGradient
       inkscape:collect="always"
       xlink:href="#linearGradient3707"
       id="radialGradient3980"
       gradientUnits="userSpaceOnUse"
       gradientTransform="matrix(5.2599427e-2,6.2503926e-2,-0.4727119,0.3978049,18.235862,143.02409)"
       cx="-145.74629"
       cy="-161.06107"
       fx="-145.74629"
       fy="-161.06107"
       r="28" />
    <radialGradient
       inkscape:collect="always"
       xlink:href="#linearGradient3707"
       id="radialGradient3983"
       gradientUnits="userSpaceOnUse"
       gradientTransform="matrix(5.4317816e-2,6.1016517e-2,-0.1718824,0.1530123,67.06095,103.33867)"
       cx="502.82709"
       cy="-165.17377"
       fx="502.82709"
       fy="-165.17377"
       r="28" />
    <linearGradient
       inkscape:collect="always"
       xlink:href="#linearGradient3693"
       id="linearGradient3986"
       gradientUnits="userSpaceOnUse"
       x1="15.727273"
       y1="12.272727"
       x2="49.727272"
       y2="50.81818"
       gradientTransform="translate(74,58)" />
    <linearGradient
       inkscape:collect="always"
       xlink:href="#linearGradient3677"
       id="linearGradient3989"
       gradientUnits="userSpaceOnUse"
       x1="51.090912"
       y1="52.181816"
       x2="11.909092"
       y2="12.272729"
       gradientTransform="translate(74,58)" />
    <filter
       inkscape:collect="always"
       x="-0.18"
       width="1.36"
       y="-0.18"
       height="1.36"
       id="filter3993">
      <feGaussianBlur
         inkscape:collect="always"
         stdDeviation="3.7500001"
         id="feGaussianBlur3995" />
    </filter>
  </defs>
  <sodipodi:namedview
     id="base"
     pagecolor="#000000"
     bordercolor="#666666"
     borderopacity="1.0"
     inkscape:pageopacity="0"
     inkscape:pageshadow="2"
     inkscape:zoom="10"
     inkscape:cx="34.064516"
     inkscape:cy="33.477578"
     inkscape:current-layer="layer1"
     showgrid="true"
     inkscape:document-units="px"
     inkscape:grid-bbox="true"
     gridtolerance="10000"
     inkscape:grid-points="true"
     inkscape:object-paths="false"
     showguides="true"
     inkscape:guide-bbox="true"
     inkscape:window-width="1216"
     inkscape:window-height="983"
     inkscape:window-x="0"
     inkscape:window-y="0" />
  <metadata
     id="metadata2165">
    <rdf:RDF>
      <cc:Work
         rdf:about="">
        <dc:format>image/svg+xml</dc:format>
        <dc:type
           rdf:resource="http://purl.org/dc/dcmitype/StillImage" />
      </cc:Work>
    </rdf:RDF>
  </metadata>
  <g
     id="layer1"
     inkscape:label="Layer 1"
     inkscape:groupmode="layer">
    <path
       sodipodi:type="arc"
       style="opacity:0.5;fill:#000000;fill-opacity:1;stroke:none;stroke-opacity:1;filter:url(#filter3729)"
       id="path3615"
       sodipodi:cx="33.5"
       sodipodi:cy="33"
       sodipodi:rx="27.5"
       sodipodi:ry="28"
       d="M 61 33 A 27.5 28 0 1 1  6,33 A 27.5 28 0 1 1  61 33 z"
       transform="translate(-1,0)" />
    <g
       id="g3930"
       transform="translate(-68,0.677669)">
      <path
         transform="translate(68,-0.677669)"
         d="M 58 32 A 26 26 0 1 1  6,32 A 26 26 0 1 1  58 32 z"
         sodipodi:ry="26"
         sodipodi:rx="26"
         sodipodi:cy="32"
         sodipodi:cx="32"
         id="path3605"
         style="fill:url(#linearGradient3743);fill-opacity:1;stroke:none;stroke-opacity:1"
         sodipodi:type="arc" />
      <path
         id="path3791"
         d="M 100,7.322331 C 97.51656,7.322331 95.12857,7.7145028 92.875,8.416081 C 93.580352,8.3536064 94.278504,8.322331 95,8.322331 C 107.91384,8.322331 118.4494,18.532314 118.96875,31.322331 L 124,31.322331 C 124,18.074331 113.24501,7.3223309 100,7.322331 z "
         style="fill:url(#linearGradient3927);fill-opacity:1;stroke:none;stroke-opacity:1" />
      <path
         transform="translate(68,-0.677669)"
         d="M 33 32 A 1 1 0 1 1  31,32 A 1 1 0 1 1  33 32 z"
         sodipodi:ry="1"
         sodipodi:rx="1"
         sodipodi:cy="32"
         sodipodi:cx="32"
         id="path3745"
         style="fill:#ffffff;fill-opacity:1;stroke:none;stroke-opacity:1"
         sodipodi:type="arc" />
      <path
         inkscape:transform-center-y="5.952838"
         id="path3753"
         d="M 75.851854,37.792807 C 79.715558,36.757531 79.715558,36.757531 79.715558,36.757531"
         style="fill:#ffffff;fill-opacity:1;fill-rule:evenodd;stroke:#ffffff;stroke-width:1px;stroke-linecap:butt;stroke-linejoin:miter;stroke-opacity:1"
         inkscape:transform-center-x="22.216294" />
      <path
         inkscape:transform-center-y="-5.952838"
         id="path3755"
         d="M 75.851854,24.851855 C 79.715558,25.887131 79.715558,25.887131 79.715558,25.887131"
         style="fill:#ffffff;fill-opacity:1;fill-rule:evenodd;stroke:#ffffff;stroke-width:1px;stroke-linecap:butt;stroke-linejoin:miter;stroke-opacity:1"
         inkscape:transform-center-x="22.216294" />
      <path
         inkscape:transform-center-x="19.918584"
         style="fill:#ffffff;fill-opacity:1;fill-rule:evenodd;stroke:#ffffff;stroke-width:1px;stroke-linecap:butt;stroke-linejoin:miter;stroke-opacity:1"
         d="M 78.349365,18.822331 C 81.813467,20.822331 81.813467,20.822331 81.813467,20.822331"
         id="path3757"
         inkscape:transform-center-y="-11.5" />
      <path
         inkscape:transform-center-x="11.499999"
         style="fill:#ffffff;fill-opacity:1;fill-rule:evenodd;stroke:#ffffff;stroke-width:1px;stroke-linecap:butt;stroke-linejoin:miter;stroke-opacity:1"
         d="M 87.500001,9.671696 C 89.5,13.135798 89.5,13.135798 89.5,13.135798"
         id="path3761"
         inkscape:transform-center-y="-19.918584" />
      <path
         inkscape:transform-center-y="-22.216294"
         id="path3763"
         d="M 93.529525,7.1741858 C 94.5648,11.037889 94.5648,11.037889 94.5648,11.037889"
         style="fill:#ffffff;fill-opacity:1;fill-rule:evenodd;stroke:#ffffff;stroke-width:1px;stroke-linecap:butt;stroke-linejoin:miter;stroke-opacity:1"
         inkscape:transform-center-x="5.952837" />
      <path
         inkscape:transform-center-x="-5.952838"
         style="fill:#ffffff;fill-opacity:1;fill-rule:evenodd;stroke:#ffffff;stroke-width:1px;stroke-linecap:butt;stroke-linejoin:miter;stroke-opacity:1"
         d="M 106.47048,7.1741853 C 105.4352,11.037889 105.4352,11.037889 105.4352,11.037889"
         id="path3765"
         inkscape:transform-center-y="-22.216294" />
      <path
         inkscape:transform-center-y="-19.918584"
         id="path3767"
         d="M 112.5,9.671696 C 110.5,13.135798 110.5,13.135798 110.5,13.135798"
         style="fill:#ffffff;fill-opacity:1;fill-rule:evenodd;stroke:#ffffff;stroke-width:1px;stroke-linecap:butt;stroke-linejoin:miter;stroke-opacity:1"
         inkscape:transform-center-x="-11.5" />
      <path
         inkscape:transform-center-y="-11.5"
         id="path3771"
         d="M 121.65064,18.822332 C 118.18653,20.822331 118.18653,20.822331 118.18653,20.822331"
         style="fill:#ffffff;fill-opacity:1;fill-rule:evenodd;stroke:#ffffff;stroke-width:1px;stroke-linecap:butt;stroke-linejoin:miter;stroke-opacity:1"
         inkscape:transform-center-x="-19.918585" />
      <path
         inkscape:transform-center-x="-22.216295"
         style="fill:#ffffff;fill-opacity:1;fill-rule:evenodd;stroke:#ffffff;stroke-width:1px;stroke-linecap:butt;stroke-linejoin:miter;stroke-opacity:1"
         d="M 124.14815,24.851856 C 120.28444,25.887131 120.28444,25.887131 120.28444,25.887131"
         id="path3773"
         inkscape:transform-center-y="-5.952838" />
      <path
         sodipodi:nodetypes="cc"
         id="path3775"
         d="M 125,31.322332 C 121,31.322331 118,31.322331 118,31.322331"
         style="fill:#ffffff;fill-opacity:1;fill-rule:evenodd;stroke:#ffffff;stroke-width:1px;stroke-linecap:butt;stroke-linejoin:miter;stroke-opacity:1"
         inkscape:transform-center-x="-21.5" />
      <path
         inkscape:transform-center-x="19.918584"
         style="fill:#ffffff;fill-opacity:1;fill-rule:evenodd;stroke:#ffffff;stroke-width:1px;stroke-linecap:butt;stroke-linejoin:miter;stroke-opacity:1"
         d="M 78.349365,43.822331 C 81.813467,41.822331 81.813467,41.822331 81.813467,41.822331"
         id="path3777"
         inkscape:transform-center-y="11.5" />
      <path
         inkscape:transform-center-y="-15.202796"
         inkscape:transform-center-x="-15.202796"
         style="fill:#ffffff;fill-opacity:1;fill-rule:evenodd;stroke:#ffffff;stroke-width:1px;stroke-linecap:butt;stroke-linejoin:miter;stroke-opacity:1"
         d="M 117.67767,13.644662 C 114.84924,16.473089 112.72792,18.594409 112.72792,18.594409"
         id="path3781"
         sodipodi:nodetypes="cc" />
      <path
         sodipodi:nodetypes="cc"
         id="path3783"
         d="M 100,6.3223312 C 100,10.322332 100,13.322331 100,13.322331"
         style="fill:#ffffff;fill-opacity:1;fill-rule:evenodd;stroke:#ffffff;stroke-width:1px;stroke-linecap:butt;stroke-linejoin:miter;stroke-opacity:1"
         inkscape:transform-center-y="-21.5" />
      <path
         inkscape:transform-center-x="15.202796"
         inkscape:transform-center-y="-15.202796"
         style="fill:#ffffff;fill-opacity:1;fill-rule:evenodd;stroke:#ffffff;stroke-width:1px;stroke-linecap:butt;stroke-linejoin:miter;stroke-opacity:1"
         d="M 82.322331,13.644662 C 85.150758,16.473089 87.272078,18.594409 87.272078,18.594409"
         id="path3785"
         sodipodi:nodetypes="cc" />
      <path
         sodipodi:nodetypes="cc"
         id="path3787"
         d="M 75,31.322331 C 79,31.322331 82,31.322331 82,31.322331"
         style="fill:#ffffff;fill-opacity:1;fill-rule:evenodd;stroke:#ffffff;stroke-width:1px;stroke-linecap:butt;stroke-linejoin:miter;stroke-opacity:1"
         inkscape:transform-center-x="21.5" />
      <path
         inkscape:transform-center-y="15.202795"
         inkscape:transform-center-x="15.202796"
         style="fill:#ffffff;fill-opacity:1;fill-rule:evenodd;stroke:#ffffff;stroke-width:1px;stroke-linecap:butt;stroke-linejoin:miter;stroke-opacity:1"
         d="M 82.322331,49 C 85.150758,46.171574 87.272078,44.050253 87.272078,44.050253"
         id="path3789"
         sodipodi:nodetypes="cc" />
    </g>
    <path
       inkscape:transform-center-y="-9.5"
       id="path3581"
       d="M 33,12 L 33,12 L 30,34 L 33,37 L 36,34 L 33.090909,12.181818"
       style="opacity:0.5;fill:#000000;fill-opacity:1;fill-rule:evenodd;stroke:none;stroke-width:1px;stroke-linecap:butt;stroke-linejoin:miter;stroke-opacity:1;filter:url(#filter3587)"
       sodipodi:nodetypes="cccccc" />
    <path
       style="fill:url(#linearGradient3869);fill-opacity:1;fill-rule:evenodd;stroke:none;stroke-width:1px;stroke-linecap:butt;stroke-linejoin:miter;stroke-opacity:1"
       d="M 32,11 L 32,11 L 29,33 L 32,36 L 35,33 L 32.090909,11.181818"
       id="path3546"
       inkscape:transform-center-y="-9.5"
       sodipodi:nodetypes="cccccc" />
    <g
       id="g3872"
       transform="translate(-40,-1)">
      <path
         transform="translate(41,2)"
         sodipodi:type="arc"
         style="opacity:0.5;fill:#000000;fill-opacity:1;stroke:none;stroke-opacity:1;filter:url(#filter3577)"
         id="path3567"
         sodipodi:cx="32"
         sodipodi:cy="32"
         sodipodi:rx="4"
         sodipodi:ry="4"
         d="M 36 32 A 4 4 0 1 1  28,32 A 4 4 0 1 1  36 32 z" />
      <path
         transform="translate(40,1)"
         d="M 36 32 A 4 4 0 1 1  28,32 A 4 4 0 1 1  36 32 z"
         sodipodi:ry="4"
         sodipodi:rx="4"
         sodipodi:cy="32"
         sodipodi:cx="32"
         id="path3557"
         style="fill:url(#radialGradient3876);fill-opacity:1;stroke:none;stroke-opacity:1"
         sodipodi:type="arc" />
    </g>
    <g
       id="g3997"
       transform="translate(-74,-58)">
      <path
         transform="translate(74,58)"
         clip-path="url(#clipPath3637)"
         id="rect3617"
         d="M 1,1 L 1,65 L 65,65 L 65,1 L 1,1 z M 33,8 C 46.800002,8.0000002 58,19.199999 58,33 C 57.999998,46.800002 46.800001,58 33,58 C 19.200001,57.999998 8,46.800001 8,33 C 8.0000002,19.200001 19.199999,8 33,8 z "
         style="opacity:1;fill:#000000;fill-opacity:1;stroke:none;stroke-opacity:1;filter:url(#filter3993)" />
      <path
         id="path2170"
         d="M 106,62 C 90.544,62 78,74.544 78,90 C 78,105.456 90.544,118 106,118 C 121.456,118 134,105.456 134,90 C 134,74.544 121.456,62 106,62 z M 106,65 C 119.8,65 131,76.2 131,90 C 131,103.8 119.8,115 106,115 C 92.2,115 81,103.8 81,90 C 81,76.2 92.2,65 106,65 z "
         style="fill:#434343;fill-opacity:1;stroke:none" />
      <path
         id="path3667"
         d="M 106,62 C 90.544,62 78,74.544 78,90 C 78,105.456 90.544,118 106,118 C 121.456,118 134,105.456 134,90 C 134,74.544 121.456,62 106,62 z M 106,63 C 120.904,63 133,75.096 133,90 C 133,104.904 120.904,117 106,117 C 91.096,117 79,104.904 79,90 C 79,75.096 91.096,63 106,63 z "
         style="opacity:0.5;fill:url(#linearGradient3989);fill-opacity:1;stroke:none;stroke-opacity:1" />
      <path
         id="path3672"
         d="M 106,64 C 91.648,64 80,75.648 80,90 C 80,104.352 91.648,116 106,116 C 120.352,116 132,104.352 132,90 C 132,75.648 120.352,64 106,64 z M 106,65 C 119.8,65 131,76.2 131,90 C 131,103.8 119.8,115 106,115 C 92.2,115 81,103.8 81,90 C 81,76.2 92.2,65 106,65 z "
         style="fill:url(#linearGradient3986);fill-opacity:1;stroke:none;stroke-opacity:1" />
      <path
         style="fill:url(#radialGradient3983);fill-opacity:1;stroke:none"
         d="M 106,62 C 90.544,62 78,74.544 78,90 C 78,105.456 90.544,118 106,118 C 121.456,118 134,105.456 134,90 C 134,74.544 121.456,62 106,62 z M 106,65 C 119.8,65 131,76.2 131,90 C 131,103.8 119.8,115 106,115 C 92.2,115 81,103.8 81,90 C 81,76.2 92.2,65 106,65 z "
         id="path3725" />
      <path
         id="path3705"
         d="M 106,62 C 90.544,62 78,74.544 78,90 C 78,105.456 90.544,118 106,118 C 121.456,118 134,105.456 134,90 C 134,74.544 121.456,62 106,62 z M 106,65 C 119.8,65 131,76.2 131,90 C 131,103.8 119.8,115 106,115 C 92.2,115 81,103.8 81,90 C 81,76.2 92.2,65 106,65 z "
         style="fill:url(#radialGradient3980);fill-opacity:1;stroke:none" />
    </g>
    <path
       style="fill:url(#linearGradient3962);fill-opacity:1;stroke:none;stroke-opacity:1"
       d="M 32,8 C 18.752,8 8,18.752001 8,32 L 56,32 C 56,18.752 45.248,7.9999996 32,8 z "
       id="path3880" />
  </g>
</svg>
