<?xml version="1.0" encoding="UTF-8" standalone="no"?>
<!-- Created with Inkscape (http://www.inkscape.org/) -->
<svg
   xmlns:dc="http://purl.org/dc/elements/1.1/"
   xmlns:cc="http://creativecommons.org/ns#"
   xmlns:rdf="http://www.w3.org/1999/02/22-rdf-syntax-ns#"
   xmlns:svg="http://www.w3.org/2000/svg"
   xmlns="http://www.w3.org/2000/svg"
   xmlns:xlink="http://www.w3.org/1999/xlink"
   xmlns:sodipodi="http://sodipodi.sourceforge.net/DTD/sodipodi-0.dtd"
   xmlns:inkscape="http://www.inkscape.org/namespaces/inkscape"
   width="32"
   height="32"
   id="svg2"
   sodipodi:version="0.32"
   inkscape:version="0.46"
   version="1.0"
   inkscape:export-filename="e17_icon_new.png"
   inkscape:export-xdpi="90"
   inkscape:export-ydpi="90"
   sodipodi:docname="widgets.svg"
   inkscape:output_extension="org.inkscape.output.svg.inkscape">
  <defs
     id="defs4">
    <linearGradient
       id="linearGradient3670">
      <stop
         id="stop3672"
         offset="0"
         style="stop-color:#ffffff;stop-opacity:1;" />
      <stop
         id="stop3674"
         offset="1"
         style="stop-color:#e4e4e4;stop-opacity:1;" />
    </linearGradient>
    <linearGradient
       id="linearGradient3600">
      <stop
         id="stop3602"
         offset="0"
         style="stop-color:#e5e5e5;stop-opacity:1;" />
      <stop
         id="stop3604"
         offset="1"
         style="stop-color:#d5d5d5;stop-opacity:0;" />
    </linearGradient>
    <linearGradient
       inkscape:collect="always"
       id="linearGradient3550">
      <stop
         style="stop-color:#ffffff;stop-opacity:1;"
         offset="0"
         id="stop3552" />
      <stop
         style="stop-color:#ffffff;stop-opacity:0;"
         offset="1"
         id="stop3554" />
    </linearGradient>
    <linearGradient
       inkscape:collect="always"
       id="linearGradient3542">
      <stop
         style="stop-color:#ffffff;stop-opacity:1;"
         offset="0"
         id="stop3544" />
      <stop
         style="stop-color:#ffffff;stop-opacity:0;"
         offset="1"
         id="stop3546" />
    </linearGradient>
    <linearGradient
       id="linearGradient3372">
      <stop
         style="stop-color:#ffffff;stop-opacity:1;"
         offset="0"
         id="stop3374" />
      <stop
         style="stop-color:#ffffff;stop-opacity:0;"
         offset="1"
         id="stop3376" />
    </linearGradient>
    <linearGradient
       id="linearGradient3316">
      <stop
         id="stop3318"
         offset="0"
         style="stop-color:#fdfdfd;stop-opacity:1;" />
      <stop
         id="stop3320"
         offset="1"
         style="stop-color:#f6f6f6;stop-opacity:0.74368232;" />
    </linearGradient>
    <linearGradient
       id="linearGradient3182">
      <stop
         id="stop3184"
         offset="0"
         style="stop-color:#ffffff;stop-opacity:0.39711192;" />
      <stop
         id="stop3186"
         offset="1"
         style="stop-color:#f6f6f6;stop-opacity:0" />
    </linearGradient>
    <linearGradient
       inkscape:collect="always"
       id="linearGradient3172">
      <stop
         style="stop-color:#ececec;stop-opacity:1;"
         offset="0"
         id="stop3174" />
      <stop
         style="stop-color:#f6f6f6;stop-opacity:0"
         offset="1"
         id="stop3176" />
    </linearGradient>
    <linearGradient
       id="linearGradient3164">
      <stop
         style="stop-color:#ffffff;stop-opacity:0.70353982"
         offset="0"
         id="stop3166" />
      <stop
         style="stop-color:#f6f6f6;stop-opacity:0"
         offset="1"
         id="stop3168" />
    </linearGradient>
    <inkscape:perspective
       sodipodi:type="inkscape:persp3d"
       inkscape:vp_x="0 : 526.18109 : 1"
       inkscape:vp_y="0 : 1000 : 0"
       inkscape:vp_z="744.09448 : 526.18109 : 1"
       inkscape:persp3d-origin="372.04724 : 350.78739 : 1"
       id="perspective10" />
    <filter
       inkscape:collect="always"
       id="filter3312">
      <feGaussianBlur
         inkscape:collect="always"
         stdDeviation="0.9140625"
         id="feGaussianBlur3314" />
    </filter>
    <linearGradient
       inkscape:collect="always"
       xlink:href="#linearGradient3164"
       id="linearGradient3330"
       gradientUnits="userSpaceOnUse"
       x1="16"
       y1="0"
       x2="16"
       y2="11" />
    <linearGradient
       inkscape:collect="always"
       xlink:href="#linearGradient3172"
       id="linearGradient3332"
       gradientUnits="userSpaceOnUse"
       x1="16"
       y1="5"
       x2="16"
       y2="11" />
    <radialGradient
       inkscape:collect="always"
       xlink:href="#linearGradient3182"
       id="radialGradient3334"
       gradientUnits="userSpaceOnUse"
       gradientTransform="matrix(0.70609,0,0,0.564872,1.4695501,4.3512799)"
       cx="3.5837498"
       cy="13.540626"
       fx="3.5837498"
       fy="13.540626"
       r="14.1625" />
    <linearGradient
       inkscape:collect="always"
       xlink:href="#linearGradient3172"
       id="linearGradient3336"
       gradientUnits="userSpaceOnUse"
       x1="16"
       y1="5"
       x2="4"
       y2="12" />
    <radialGradient
       inkscape:collect="always"
       xlink:href="#linearGradient3182"
       id="radialGradient3338"
       gradientUnits="userSpaceOnUse"
       gradientTransform="matrix(-0.70609,0,0,0.564872,30.65545,4.3512799)"
       cx="3.5837498"
       cy="13.540626"
       fx="3.5837498"
       fy="13.540626"
       r="14.1625" />
    <linearGradient
       inkscape:collect="always"
       xlink:href="#linearGradient3316"
       id="linearGradient3340"
       gradientUnits="userSpaceOnUse"
       gradientTransform="matrix(-1,0,0,1,32.125,0)"
       x1="16"
       y1="5"
       x2="4"
       y2="12" />
    <filter
       inkscape:collect="always"
       id="filter3538"
       x="-0.093913043"
       width="1.1878261"
       y="-0.32869565"
       height="1.6573913">
      <feGaussianBlur
         inkscape:collect="always"
         stdDeviation="1.0956522"
         id="feGaussianBlur3540" />
    </filter>
    <linearGradient
       inkscape:collect="always"
       xlink:href="#linearGradient3542"
       id="linearGradient3564"
       gradientUnits="userSpaceOnUse"
       x1="16"
       y1="15"
       x2="16"
       y2="24" />
    <linearGradient
       inkscape:collect="always"
       xlink:href="#linearGradient3372"
       id="linearGradient3566"
       gradientUnits="userSpaceOnUse"
       x1="15"
       y1="10"
       x2="15"
       y2="16" />
    <linearGradient
       inkscape:collect="always"
       xlink:href="#linearGradient3550"
       id="linearGradient3568"
       gradientUnits="userSpaceOnUse"
       x1="15"
       y1="17"
       x2="15"
       y2="23" />
    <filter
       inkscape:collect="always"
       id="filter3658">
      <feGaussianBlur
         inkscape:collect="always"
         stdDeviation="0.83478261"
         id="feGaussianBlur3660" />
    </filter>
    <filter
       inkscape:collect="always"
       id="filter3745">
      <feGaussianBlur
         inkscape:collect="always"
         stdDeviation="0.53495132"
         id="feGaussianBlur3747" />
    </filter>
    <linearGradient
       inkscape:collect="always"
       xlink:href="#linearGradient3670"
       id="linearGradient3794"
       gradientUnits="userSpaceOnUse"
       x1="14.509605"
       y1="12.490396"
       x2="1.4907439"
       y2="25.509256"
       gradientTransform="matrix(1.0907258,0,0,0.9995905,-0.2444707,1.075367e-2)" />
    <linearGradient
       inkscape:collect="always"
       xlink:href="#linearGradient3670"
       id="linearGradient3803"
       gradientUnits="userSpaceOnUse"
       gradientTransform="matrix(1.0907258,0,0,0.9995905,-0.2444707,1.075367e-2)"
       x1="14.509605"
       y1="12.490396"
       x2="1.4907439"
       y2="25.509256" />
    <linearGradient
       inkscape:collect="always"
       xlink:href="#linearGradient3670"
       id="linearGradient3808"
       gradientUnits="userSpaceOnUse"
       gradientTransform="matrix(1.0907258,0,0,0.9995905,-0.2444707,1.075367e-2)"
       x1="14.509605"
       y1="12.490396"
       x2="1.4907439"
       y2="25.509256" />
  </defs>
  <sodipodi:namedview
     id="base"
     pagecolor="#ffffff"
     bordercolor="#666666"
     borderopacity="1.0"
     gridtolerance="10000"
     guidetolerance="10"
     objecttolerance="10"
     inkscape:pageopacity="0.0"
     inkscape:pageshadow="2"
     inkscape:zoom="5.6"
     inkscape:cx="2.3037813"
     inkscape:cy="10.262733"
     inkscape:document-units="px"
     inkscape:current-layer="layer1"
     showgrid="true"
     inkscape:window-width="1021"
     inkscape:window-height="953"
     inkscape:window-x="25"
     inkscape:window-y="69">
    <inkscape:grid
       type="xygrid"
       id="grid2385"
       visible="true"
       enabled="true" />
  </sodipodi:namedview>
  <metadata
     id="metadata7">
    <rdf:RDF>
      <cc:Work
         rdf:about="">
        <dc:format>image/svg+xml</dc:format>
        <dc:type
           rdf:resource="http://purl.org/dc/dcmitype/StillImage" />
      </cc:Work>
    </rdf:RDF>
  </metadata>
  <g
     inkscape:label="Layer 1"
     inkscape:groupmode="layer"
     id="layer1">
    <g
       id="g3322"
       transform="translate(-28.41054,-34.345187)">
      <path
         style="opacity:0.84070794;fill:#000000;fill-opacity:1;fill-rule:evenodd;stroke:none;stroke-width:2.63000011;stroke-linejoin:bevel;stroke-miterlimit:4;stroke-dasharray:none;stroke-opacity:1;filter:url(#filter3312)"
         d="M 13.53125,3 C 12.759685,3 12.125,3.6346846 12.125,4.40625 L 12.125,13.125 L 3.40625,13.125 C 2.6346847,13.125 2,13.759686 2,14.53125 L 2,19.59375 C 2,20.365315 2.6346846,21 3.40625,21 L 12.125,21 L 12.125,29.71875 C 12.125,30.490315 12.759686,31.125 13.53125,31.125 L 18.59375,31.125 C 19.365315,31.125 20,30.490314 20,29.71875 L 20,21 L 28.71875,21 C 29.490315,21 30.125,20.365314 30.125,19.59375 L 30.125,14.53125 C 30.125,13.759685 29.490314,13.125 28.71875,13.125 L 20,13.125 L 20,4.40625 C 20,3.6346847 19.365314,3 18.59375,3 L 13.53125,3 z"
         id="path3202" />
      <path
         id="rect2387"
         d="M 13.53125,2 C 12.759685,2 12.125,2.6346846 12.125,3.40625 L 12.125,12.125 L 3.40625,12.125 C 2.6346847,12.125 2,12.759686 2,13.53125 L 2,18.59375 C 2,19.365315 2.6346846,20 3.40625,20 L 12.125,20 L 12.125,28.71875 C 12.125,29.490315 12.759686,30.125 13.53125,30.125 L 18.59375,30.125 C 19.365315,30.125 20,29.490314 20,28.71875 L 20,20 L 28.71875,20 C 29.490315,20 30.125,19.365314 30.125,18.59375 L 30.125,13.53125 C 30.125,12.759685 29.490314,12.125 28.71875,12.125 L 20,12.125 L 20,3.40625 C 20,2.6346847 19.365314,2 18.59375,2 L 13.53125,2 z"
         style="opacity:1;fill:#71c837;fill-opacity:1;fill-rule:evenodd;stroke:none;stroke-width:2.63000011;stroke-linejoin:bevel;stroke-miterlimit:4;stroke-dasharray:none;stroke-opacity:1" />
      <path
         style="opacity:1;fill:url(#linearGradient3330);fill-opacity:1;fill-rule:evenodd;stroke:url(#linearGradient3332);stroke-width:0.2;stroke-linecap:round;stroke-linejoin:round;stroke-miterlimit:4;stroke-dasharray:none;stroke-opacity:1"
         d="M 13.53125,2 C 12.759685,2 12.125,2.6346846 12.125,3.40625 L 12.125,12.125 L 3.40625,12.125 C 2.6346847,12.125 2,12.759686 2,13.53125 L 2,18.59375 C 2,19.365315 2.6346846,20 3.40625,20 L 12.125,20 L 12.125,28.71875 C 12.125,29.490315 12.759686,30.125 13.53125,30.125 L 18.59375,30.125 C 19.365315,30.125 20,29.490314 20,28.71875 L 20,20 L 28.71875,20 C 29.490315,20 30.125,19.365314 30.125,18.59375 L 30.125,13.53125 C 30.125,12.759685 29.490314,12.125 28.71875,12.125 L 20,12.125 L 20,3.40625 C 20,2.6346847 19.365314,2 18.59375,2 L 13.53125,2 z"
         id="path2392" />
      <path
         id="path3180"
         d="M 13.53125,2 C 12.759685,2 12.125,2.6346846 12.125,3.40625 L 12.125,12.125 L 3.40625,12.125 C 2.6346847,12.125 2,12.759686 2,13.53125 L 2,18.59375 C 2,19.365315 2.6346846,20 3.40625,20 L 12.125,20 L 12.125,28.71875 C 12.125,29.490315 12.759686,30.125 13.53125,30.125 L 18.59375,30.125 C 19.365315,30.125 20,29.490314 20,28.71875 L 20,20 L 28.71875,20 C 29.490315,20 30.125,19.365314 30.125,18.59375 L 30.125,13.53125 C 30.125,12.759685 29.490314,12.125 28.71875,12.125 L 20,12.125 L 20,3.40625 C 20,2.6346847 19.365314,2 18.59375,2 L 13.53125,2 z"
         style="opacity:1;fill:url(#radialGradient3334);fill-opacity:1;fill-rule:evenodd;stroke:url(#linearGradient3336);stroke-width:0.2;stroke-linecap:round;stroke-linejoin:round;stroke-miterlimit:4;stroke-dasharray:none;stroke-opacity:1" />
      <path
         style="opacity:1;fill:url(#radialGradient3338);fill-opacity:1;fill-rule:evenodd;stroke:url(#linearGradient3340);stroke-width:1;stroke-linecap:round;stroke-linejoin:round;stroke-miterlimit:4;stroke-dasharray:none;stroke-opacity:1"
         d="M 18.59375,2 C 19.365315,2 20,2.6346846 20,3.40625 L 20,12.125 L 28.71875,12.125 C 29.490315,12.125 30.125,12.759686 30.125,13.53125 L 30.125,18.59375 C 30.125,19.365315 29.490315,20 28.71875,20 L 20,20 L 20,28.71875 C 20,29.490315 19.365314,30.125 18.59375,30.125 L 13.53125,30.125 C 12.759685,30.125 12.125,29.490314 12.125,28.71875 L 12.125,20 L 3.40625,20 C 2.634685,20 2,19.365314 2,18.59375 L 2,13.53125 C 2,12.759685 2.634686,12.125 3.40625,12.125 L 12.125,12.125 L 12.125,3.40625 C 12.125,2.6346847 12.759686,2 13.53125,2 L 18.59375,2 z"
         id="path3194" />
      <path
         id="path3200"
         d="M 18.59375,2 C 19.365315,2 20,2.6346846 20,3.40625 L 20,12.125 L 28.71875,12.125 C 29.490315,12.125 30.125,12.759686 30.125,13.53125 L 30.125,18.59375 C 30.125,19.365315 29.490315,20 28.71875,20 L 20,20 L 20,28.71875 C 20,29.490315 19.365314,30.125 18.59375,30.125 L 13.53125,30.125 C 12.759685,30.125 12.125,29.490314 12.125,28.71875 L 12.125,20 L 3.40625,20 C 2.634685,20 2,19.365314 2,18.59375 L 2,13.53125 C 2,12.759685 2.634686,12.125 3.40625,12.125 L 12.125,12.125 L 12.125,3.40625 C 12.125,2.6346847 12.759686,2 13.53125,2 L 18.59375,2 z"
         style="opacity:1;fill:#000000;fill-opacity:0;fill-rule:evenodd;stroke:none;stroke-width:0.2;stroke-linecap:round;stroke-linejoin:round;stroke-miterlimit:4;stroke-dasharray:none;stroke-opacity:1" />
    </g>
    <g
       id="g3558"
       transform="translate(0,-53)">
      <rect
         ry="1.2379707"
         y="13"
         x="2"
         height="8"
         width="28"
         id="rect3384"
         style="opacity:1;fill:#000000;fill-opacity:1;fill-rule:evenodd;stroke:none;stroke-width:1;stroke-linecap:round;stroke-linejoin:round;stroke-miterlimit:4;stroke-dasharray:none;stroke-opacity:1;filter:url(#filter3538)" />
      <rect
         ry="1.2379707"
         y="12"
         x="2"
         height="8"
         width="28"
         id="rect3368"
         style="opacity:1;fill:#ec3434;fill-opacity:1;fill-rule:evenodd;stroke:url(#linearGradient3564);stroke-width:1;stroke-linecap:round;stroke-linejoin:round;stroke-miterlimit:4;stroke-dasharray:none;stroke-opacity:1" />
      <rect
         style="opacity:1;fill:url(#linearGradient3566);fill-opacity:1;fill-rule:evenodd;stroke:none;stroke-width:1;stroke-linecap:round;stroke-linejoin:round;stroke-miterlimit:4;stroke-dasharray:none;stroke-opacity:1"
         id="rect3370"
         width="28"
         height="8"
         x="2"
         y="12"
         ry="1.2379707" />
      <rect
         style="opacity:1;fill:none;fill-opacity:1;fill-rule:evenodd;stroke:url(#linearGradient3568);stroke-width:1;stroke-linecap:round;stroke-linejoin:round;stroke-miterlimit:4;stroke-dasharray:none;stroke-opacity:1"
         id="rect3382"
         width="28"
         height="8"
         x="2"
         y="12"
         ry="1.2379707" />
    </g>
    <g
       id="g3811">
      <rect
         transform="matrix(1.0907258,0,0,0.9995905,-0.2444707,1.0107537)"
         style="opacity:0.48230088;fill:#000000;fill-opacity:1;fill-rule:evenodd;stroke:none;stroke-width:1;stroke-linecap:round;stroke-linejoin:round;stroke-miterlimit:4;stroke-dasharray:none;stroke-opacity:1;filter:url(#filter3658)"
         id="rect3608"
         width="22"
         height="26"
         x="3"
         y="3"
         ry="1.2874895" />
      <rect
         ry="1.2869623"
         y="3.0095251"
         x="3.0277066"
         height="25.989353"
         width="23.995968"
         id="rect3590"
         style="fill:url(#linearGradient3808);fill-opacity:1;fill-rule:evenodd;stroke:#676767;stroke-width:0.322;stroke-linecap:round;stroke-linejoin:round;stroke-miterlimit:4;stroke-dasharray:none;stroke-opacity:1" />
      <path
         transform="matrix(1.0566153,0,0,1.0566153,-0.9067672,1.1977613)"
         id="path3699"
         style="fill:#ffffff;fill-opacity:1;fill-rule:evenodd;stroke:#a6af00;stroke-width:2.03259039px;stroke-linecap:butt;stroke-linejoin:miter;stroke-opacity:1;filter:url(#filter3745)"
         d="M 17.104817,2.9185239 L 27.267768,13.081475 L 17.104817,2.9185239 z M 27.267768,2.9185239 L 17.104817,13.081475 L 27.267768,2.9185239 z M 22.186292,0.8137082 L 22.186292,15.186291 L 22.186292,0.8137082 z M 29.372584,8 L 15,8 L 29.372584,8 z" />
      <path
         d="M 17.166444,4.2815183 L 27.904774,15.019848 L 17.166444,4.2815183 z M 27.904774,4.2815183 L 17.166444,15.019848 L 27.904774,4.2815183 z M 22.535608,2.0575378 L 22.535608,17.243829 L 22.535608,2.0575378 z M 30.128754,9.6506837 L 14.942462,9.6506837 L 30.128754,9.6506837 z"
         style="fill:#ffffff;fill-opacity:1;fill-rule:evenodd;stroke:#fefe00;stroke-width:2.14766622px;stroke-linecap:butt;stroke-linejoin:miter;stroke-opacity:1"
         id="path3688" />
    </g>
  </g>
</svg>
