<?xml version="1.0" encoding="UTF-8" standalone="no"?>
<!-- Created with Inkscape (http://www.inkscape.org/) -->
<svg
   xmlns:dc="http://purl.org/dc/elements/1.1/"
   xmlns:cc="http://creativecommons.org/ns#"
   xmlns:rdf="http://www.w3.org/1999/02/22-rdf-syntax-ns#"
   xmlns:svg="http://www.w3.org/2000/svg"
   xmlns="http://www.w3.org/2000/svg"
   xmlns:xlink="http://www.w3.org/1999/xlink"
   xmlns:sodipodi="http://sodipodi.sourceforge.net/DTD/sodipodi-0.dtd"
   xmlns:inkscape="http://www.inkscape.org/namespaces/inkscape"
   width="125"
   height="45"
   id="svg2694"
   sodipodi:version="0.32"
   inkscape:version="0.46+devel"
   version="1.0"
   sodipodi:docname="eon.svg"
   inkscape:output_extension="org.inkscape.output.svg.inkscape">
  <defs
     id="defs2696">
    <linearGradient
       id="linearGradient3601">
      <stop
         style="stop-color:#ffffff;stop-opacity:1;"
         offset="0"
         id="stop3603" />
      <stop
         style="stop-color:#dcdcdc;stop-opacity:1;"
         offset="1"
         id="stop3605" />
    </linearGradient>
    <inkscape:perspective
       sodipodi:type="inkscape:persp3d"
       inkscape:vp_x="0 : 32 : 1"
       inkscape:vp_y="0 : 1000 : 0"
       inkscape:vp_z="64 : 32 : 1"
       inkscape:persp3d-origin="32 : 21.333333 : 1"
       id="perspective2702" />
    <filter
       inkscape:collect="always"
       id="filter3597">
      <feGaussianBlur
         inkscape:collect="always"
         stdDeviation="1.125"
         id="feGaussianBlur3599" />
    </filter>
    <radialGradient
       inkscape:collect="always"
       xlink:href="#linearGradient3601"
       id="radialGradient3607"
       cx="62"
       cy="-35"
       fx="62"
       fy="-35"
       r="57.5"
       gradientTransform="matrix(2.9913043,2.8623602e-7,-5.8245703e-8,0.60869565,-123.46087,26.30433)"
       gradientUnits="userSpaceOnUse" />
  </defs>
  <sodipodi:namedview
     id="base"
     pagecolor="#ffffff"
     bordercolor="#666666"
     borderopacity="1.0"
     inkscape:pageopacity="0.0"
     inkscape:pageshadow="2"
     inkscape:zoom="11.688"
     inkscape:cx="62.5"
     inkscape:cy="22.457221"
     inkscape:current-layer="layer1"
     showgrid="true"
     inkscape:document-units="px"
     inkscape:grid-bbox="true"
     showguides="true"
     inkscape:guide-bbox="true"
     inkscape:window-width="1920"
     inkscape:window-height="1133"
     inkscape:window-x="1600"
     inkscape:window-y="0">
    <inkscape:grid
       type="xygrid"
       id="grid2704"
       empspacing="5"
       visible="true"
       enabled="true" />
  </sodipodi:namedview>
  <metadata
     id="metadata2699">
    <rdf:RDF>
      <cc:Work
         rdf:about="">
        <dc:format>image/svg+xml</dc:format>
        <dc:type
           rdf:resource="http://purl.org/dc/dcmitype/StillImage" />
        <dc:title></dc:title>
      </cc:Work>
    </rdf:RDF>
  </metadata>
  <g
     id="layer1"
     inkscape:label="Layer 1"
     inkscape:groupmode="layer">
    <path
       style="opacity:0.50000000000000000;fill:#000000;fill-opacity:1;stroke:none;filter:url(#filter3597)"
       d="M 16 6 C 10.48 6 6 10.48 6 16 L 6 21 L 6 26 L 6 31 C 6 36.52 10.48 41 16 41 L 41 41 L 41 36 L 16 36 C 13.24 36 11 33.76 11 31 L 11 26 L 36 26 L 36 21 L 11 21 L 11 16 C 11 13.24 13.24 11 16 11 L 41 11 L 41 6 L 16 6 z M 63.5 6 C 53.84 6 46 13.84 46 23.5 C 46 33.16 53.84 41 63.5 41 C 73.16 41 81 33.16 81 23.5 C 81 13.84 73.16 6 63.5 6 z M 96 6 C 90.48 6 86 10.48 86 16 L 86 41 L 91 41 L 91 16 C 91 13.24 93.24 11 96 11 L 111 11 C 113.76 11 116 13.24 116 16 L 116 41 L 121 41 L 121 16 C 121 10.48 116.52 6 111 6 L 96 6 z M 63.5 11 C 70.4 11 76 16.6 76 23.5 C 76 30.4 70.4 36 63.5 36 C 56.6 36 51 30.4 51 23.5 C 51 16.6 56.6 11 63.5 11 z "
       id="path2803" />
    <path
       style="opacity:1;fill:url(#radialGradient3607);fill-opacity:1;stroke:none"
       d="M 15 5 C 9.48 5 5 9.48 5 15 L 5 20 L 5 25 L 5 30 C 5 35.52 9.48 40 15 40 L 40 40 L 40 35 L 15 35 C 12.24 35 10 32.76 10 30 L 10 25 L 35 25 L 35 20 L 10 20 L 10 15 C 10 12.24 12.24 10 15 10 L 40 10 L 40 5 L 15 5 z M 62.5 5 C 52.84 5 45 12.84 45 22.5 C 45 32.16 52.84 40 62.5 40 C 72.16 40 80 32.16 80 22.5 C 80 12.84 72.16 5 62.5 5 z M 95 5 C 89.48 5 85 9.48 85 15 L 85 40 L 90 40 L 90 15 C 90 12.24 92.24 10 95 10 L 110 10 C 112.76 10 115 12.24 115 15 L 115 40 L 120 40 L 120 15 C 120 9.48 115.52 5 110 5 L 95 5 z M 62.5 10 C 69.4 10 75 15.6 75 22.5 C 75 29.4 69.4 35 62.5 35 C 55.6 35 50 29.4 50 22.5 C 50 15.6 55.6 10 62.5 10 z "
       id="rect2753" />
  </g>
</svg>
