/* XPM */
static char *WindowMaker-32x32[] = {
/* width height num_colors chars_per_pixel */
"    32    32        8            1",
/* colors */
". c #b2c0dc",
"# c #666666",
"a c #777777",
"b c #595961",
"c c #000000",
"d c #3c3c3c",
"e c #cfcfcf",
"f c #ffffff",
/* pixels */
"................................",
"............#bbbbbbb............",
".........#bbcccccccccb#.........",
".......#ccccccccccccccccd.......",
"......accccccccccccccccccb......",
".....ccccccccccccccccccccccdbbbb",
"....dcccccccccccccccccbaaa#acccc",
"...accccccccccccccccccafffffcccc",
"...cccccccccccccccccccaffffffbcc",
"..bcccccccccccccccccccaffffffecc",
".bccccccccccccccccccccafffffffcc",
".cccccccccccccccccccccafffffffdc",
".cccccccccccccccccccccafffffffbc",
"dcccccccccccccccccccccafffffffec",
"ccccccccccccccccccccccaffffffffa",
"ccccccccccccccccccccccaffffffffa",
"ccccccccccccccccccccccaffffffffa",
"cccccccccccbaa##a#a#aaeffffffffa",
"cccccccccccafffffffffffffffffffa",
"cccccccccccafffffffffffffffffffa",
"bccccccccccafffffffffffffffffffc",
".ccccccccccaffffffffffffffffffac",
".ccccccccccaffffffffffffffffffbc",
"..cccccccccaffffffffffffffffffcc",
"..bccccccccafffffffffffffffffecc",
"...ccccccccaffffffffffffffffbccc",
"....cccccccaffffffffffffffffcccc",
"cccccaaaaaaefffffffffffffffecccc",
"cccccccefffffffffffffffffbcccccc",
"ccccccccffffffffffffffffeccccccc",
"ccccccccccaefffffffffeaccccccccc",
"cccccccccccccaafffaacccccccccccc"
};
