STARTFONT 2.1
COMMENT Copyright (C) 1996-2002 Carsten Haitzler, Jonathan Perkin,
COMMENT Tom Gilbert and Simon Horman
COMMENT 
COMMENT Permission is hereby granted, free of charge, to any person obtaining
COMMENT a copy of this software and associated documentation files (the
COMMENT "Software"), to deal in the Software without restriction, including
COMMENT without limitation the rights to use, copy, modify, merge, publish,
COMMENT distribute, sublicense, and/or sell copies of the Software, and to
COMMENT permit persons to whom the Software is furnished to do so, subject to
COMMENT the following conditions:
COMMENT 
COMMENT The above copyright notice and this permission notice shall be
COMMENT included in all copies of the Software, its documentation and
COMMENT marketing & publicity materials, and acknowledgment shall be given in
COMMENT the documentation, materials and software packages that this Software
COMMENT was used.
COMMENT 
COMMENT THE SOFTWARE IS PROVIDED "AS IS", WITHOUT WARRANTY OF ANY KIND,
COMMENT EXPRESS OR IMPLIED, INCLUDING BUT NOT LIMITED TO THE WARRANTIES OF
COMMENT MERCHANTABILITY, FITNESS FOR A PARTICULAR PURPOSE AND NONINFRINGEMENT.
COMMENT IN NO EVENT SHALL THE AUTHORS BE LIABLE FOR ANY CLAIM, DAMAGES OR
COMMENT OTHER LIABILITY, WHETHER IN AN ACTION OF CONTRACT, TORT OR OTHERWISE,
COMMENT ARISING FROM, OUT OF OR IN CONNECTION WITH THE SOFTWARE OR THE USE OR
COMMENT OTHER DEALINGS IN THE SOFTWARE.
FONT -misc-nexus-medium-r-normal--10-100-75-75-c-60-iso8859-1
SIZE 10 75 75
FONTBOUNDINGBOX 5 10 0 -2
STARTPROPERTIES 25
CHARSET_REGISTRY "iso8859"
SLANT "r"
FAMILY_NAME "nexus"
POINT_SIZE 100
SPACING "c"
FOUNDRY "misc"
WEIGHT 10
WEIGHT_NAME "medium"
QUAD_WIDTH 5
RESOLUTION_X 75
RESOLUTION_Y 75
SETWIDTH_NAME "normal"
X_HEIGHT 8
CHARSET_ENCODING "1"
FONTNAME_REGISTRY ""
COPYRIGHT "BSD Licence: Copyright (C) 1996-2002 Carsten Haitzler, Jonathan Perkin, Tom Gilbert and Simon Horman"
ADD_STYLE_NAME ""
AVERAGE_WIDTH 60
PIXEL_SIZE 10
_XMBDFED_INFO "Edited with xmbdfed 4.5."
RESOLUTION 103
DEFAULT_CHAR 0
FONT_ASCENT 8
FONT_DESCENT 2
_ORIGINAL_FONT_NAME "NewNexus"
ENDPROPERTIES
CHARS 255
STARTCHAR C000
ENCODING 0
SWIDTH 480 0
DWIDTH 5 0
BBX 5 10 0 -2
BITMAP
00
70
70
70
70
70
70
70
70
00
ENDCHAR
STARTCHAR C001
ENCODING 1
SWIDTH 480 0
DWIDTH 5 0
BBX 5 10 0 -2
BITMAP
00
00
00
00
20
70
F8
70
20
00
ENDCHAR
STARTCHAR C002
ENCODING 2
SWIDTH 480 0
DWIDTH 5 0
BBX 5 10 0 -2
BITMAP
A8
50
A8
50
A8
50
A8
50
A8
50
ENDCHAR
STARTCHAR C003
ENCODING 3
SWIDTH 480 0
DWIDTH 5 0
BBX 5 10 0 -2
BITMAP
00
A0
E0
A0
00
70
20
20
00
00
ENDCHAR
STARTCHAR C004
ENCODING 4
SWIDTH 480 0
DWIDTH 5 0
BBX 5 10 0 -2
BITMAP
00
00
00
E0
80
C0
B8
20
30
20
ENDCHAR
STARTCHAR C005
ENCODING 5
SWIDTH 480 0
DWIDTH 5 0
BBX 5 10 0 -2
BITMAP
00
00
60
80
80
60
38
28
30
28
ENDCHAR
STARTCHAR C006
ENCODING 6
SWIDTH 480 0
DWIDTH 5 0
BBX 5 10 0 -2
BITMAP
00
00
80
80
80
E0
38
20
30
20
ENDCHAR
STARTCHAR C007
ENCODING 7
SWIDTH 480 0
DWIDTH 5 0
BBX 5 10 0 -2
BITMAP
60
90
90
60
00
00
00
00
00
00
ENDCHAR
STARTCHAR C010
ENCODING 8
SWIDTH 480 0
DWIDTH 5 0
BBX 5 10 0 -2
BITMAP
00
00
00
20
70
20
00
70
00
00
ENDCHAR
STARTCHAR C011
ENCODING 9
SWIDTH 480 0
DWIDTH 5 0
BBX 5 10 0 -2
BITMAP
00
00
90
D0
B0
90
20
20
20
38
ENDCHAR
STARTCHAR C012
ENCODING 10
SWIDTH 480 0
DWIDTH 5 0
BBX 5 10 0 -2
BITMAP
00
00
A0
A0
40
40
38
10
10
10
ENDCHAR
STARTCHAR C013
ENCODING 11
SWIDTH 480 0
DWIDTH 5 0
BBX 5 10 0 -2
BITMAP
20
20
20
20
20
E0
00
00
00
00
ENDCHAR
STARTCHAR C014
ENCODING 12
SWIDTH 480 0
DWIDTH 5 0
BBX 5 10 0 -2
BITMAP
00
00
00
00
00
E0
20
20
20
20
ENDCHAR
STARTCHAR C015
ENCODING 13
SWIDTH 480 0
DWIDTH 5 0
BBX 5 10 0 -2
BITMAP
00
00
00
00
00
38
20
20
20
20
ENDCHAR
STARTCHAR C016
ENCODING 14
SWIDTH 480 0
DWIDTH 5 0
BBX 5 10 0 -2
BITMAP
20
20
20
20
20
38
00
00
00
00
ENDCHAR
STARTCHAR C017
ENCODING 15
SWIDTH 480 0
DWIDTH 5 0
BBX 5 10 0 -2
BITMAP
20
20
20
20
20
F8
20
20
20
20
ENDCHAR
STARTCHAR C020
ENCODING 16
SWIDTH 480 0
DWIDTH 5 0
BBX 5 10 0 -2
BITMAP
00
F8
00
00
00
00
00
00
00
00
ENDCHAR
STARTCHAR C021
ENCODING 17
SWIDTH 480 0
DWIDTH 5 0
BBX 5 10 0 -2
BITMAP
00
00
00
F8
00
00
00
00
00
00
ENDCHAR
STARTCHAR C022
ENCODING 18
SWIDTH 480 0
DWIDTH 5 0
BBX 5 10 0 -2
BITMAP
00
00
00
00
00
F8
00
00
00
00
ENDCHAR
STARTCHAR C023
ENCODING 19
SWIDTH 480 0
DWIDTH 5 0
BBX 5 10 0 -2
BITMAP
00
00
00
00
00
00
00
F8
00
00
ENDCHAR
STARTCHAR C024
ENCODING 20
SWIDTH 480 0
DWIDTH 5 0
BBX 5 10 0 -2
BITMAP
00
00
00
00
00
00
00
00
00
F8
ENDCHAR
STARTCHAR C025
ENCODING 21
SWIDTH 480 0
DWIDTH 5 0
BBX 5 10 0 -2
BITMAP
20
20
20
20
20
38
20
20
20
20
ENDCHAR
STARTCHAR C026
ENCODING 22
SWIDTH 480 0
DWIDTH 5 0
BBX 5 10 0 -2
BITMAP
20
20
20
20
20
E0
20
20
20
20
ENDCHAR
STARTCHAR C027
ENCODING 23
SWIDTH 480 0
DWIDTH 5 0
BBX 5 10 0 -2
BITMAP
20
20
20
20
20
F8
00
00
00
00
ENDCHAR
STARTCHAR C030
ENCODING 24
SWIDTH 480 0
DWIDTH 5 0
BBX 5 10 0 -2
BITMAP
00
00
00
00
00
F8
20
20
20
20
ENDCHAR
STARTCHAR C031
ENCODING 25
SWIDTH 480 0
DWIDTH 5 0
BBX 5 10 0 -2
BITMAP
20
20
20
20
20
20
20
20
20
20
ENDCHAR
STARTCHAR C032
ENCODING 26
SWIDTH 480 0
DWIDTH 5 0
BBX 5 10 0 -2
BITMAP
00
10
20
40
20
10
00
70
00
00
ENDCHAR
STARTCHAR C033
ENCODING 27
SWIDTH 480 0
DWIDTH 5 0
BBX 5 10 0 -2
BITMAP
00
40
20
10
20
40
00
70
00
00
ENDCHAR
STARTCHAR C034
ENCODING 28
SWIDTH 480 0
DWIDTH 5 0
BBX 5 10 0 -2
BITMAP
00
00
F8
50
50
50
50
90
00
00
ENDCHAR
STARTCHAR C035
ENCODING 29
SWIDTH 480 0
DWIDTH 5 0
BBX 5 10 0 -2
BITMAP
00
00
08
F8
20
F8
80
00
00
00
ENDCHAR
STARTCHAR C037
ENCODING 31
SWIDTH 480 0
DWIDTH 5 0
BBX 5 10 0 -2
BITMAP
00
00
00
00
00
00
20
00
00
00
ENDCHAR
STARTCHAR space
ENCODING 32
SWIDTH 480 0
DWIDTH 5 0
BBX 5 10 0 -2
BITMAP
00
00
00
00
00
00
00
00
00
00
ENDCHAR
STARTCHAR exclam
ENCODING 33
SWIDTH 480 0
DWIDTH 5 0
BBX 5 10 0 -2
BITMAP
40
40
40
40
40
00
40
40
00
00
ENDCHAR
STARTCHAR quotedbl
ENCODING 34
SWIDTH 480 0
DWIDTH 5 0
BBX 5 10 0 -2
BITMAP
50
50
00
00
00
00
00
00
00
00
ENDCHAR
STARTCHAR numbersign
ENCODING 35
SWIDTH 480 0
DWIDTH 5 0
BBX 5 10 0 -2
BITMAP
50
50
50
F8
50
F8
50
50
50
00
ENDCHAR
STARTCHAR dollar
ENCODING 36
SWIDTH 480 0
DWIDTH 5 0
BBX 5 10 0 -2
BITMAP
20
20
70
A0
60
30
E0
20
20
00
ENDCHAR
STARTCHAR percent
ENCODING 37
SWIDTH 480 0
DWIDTH 5 0
BBX 5 10 0 -2
BITMAP
00
00
90
90
20
40
90
90
00
00
ENDCHAR
STARTCHAR ampersand
ENCODING 38
SWIDTH 480 0
DWIDTH 5 0
BBX 5 10 0 -2
BITMAP
00
40
A0
A0
40
B0
A0
70
00
00
ENDCHAR
STARTCHAR apostrophe
ENCODING 39
SWIDTH 480 0
DWIDTH 5 0
BBX 5 10 0 -2
BITMAP
40
40
80
00
00
00
00
00
00
00
ENDCHAR
STARTCHAR parenleft
ENCODING 40
SWIDTH 480 0
DWIDTH 5 0
BBX 5 10 0 -2
BITMAP
30
40
80
80
80
80
80
40
30
00
ENDCHAR
STARTCHAR parenright
ENCODING 41
SWIDTH 480 0
DWIDTH 5 0
BBX 5 10 0 -2
BITMAP
C0
20
10
10
10
10
10
20
C0
00
ENDCHAR
STARTCHAR asterisk
ENCODING 42
SWIDTH 480 0
DWIDTH 5 0
BBX 5 10 0 -2
BITMAP
00
00
90
60
F0
60
90
00
00
00
ENDCHAR
STARTCHAR plus
ENCODING 43
SWIDTH 480 0
DWIDTH 5 0
BBX 5 10 0 -2
BITMAP
00
00
40
40
E0
40
40
00
00
00
ENDCHAR
STARTCHAR comma
ENCODING 44
SWIDTH 480 0
DWIDTH 5 0
BBX 5 10 0 -2
BITMAP
00
00
00
00
00
00
40
40
80
00
ENDCHAR
STARTCHAR minus
ENCODING 45
SWIDTH 480 0
DWIDTH 5 0
BBX 5 10 0 -2
BITMAP
00
00
00
00
F0
00
00
00
00
00
ENDCHAR
STARTCHAR period
ENCODING 46
SWIDTH 480 0
DWIDTH 5 0
BBX 5 10 0 -2
BITMAP
00
00
00
00
00
00
40
40
00
00
ENDCHAR
STARTCHAR slash
ENCODING 47
SWIDTH 480 0
DWIDTH 5 0
BBX 5 10 0 -2
BITMAP
10
10
20
20
60
40
40
80
80
00
ENDCHAR
STARTCHAR 0
ENCODING 48
SWIDTH 480 0
DWIDTH 5 0
BBX 5 10 0 -2
BITMAP
00
60
90
90
00
90
90
60
00
00
ENDCHAR
STARTCHAR 1
ENCODING 49
SWIDTH 480 0
DWIDTH 5 0
BBX 5 10 0 -2
BITMAP
00
10
10
10
00
10
10
10
00
00
ENDCHAR
STARTCHAR 2
ENCODING 50
SWIDTH 480 0
DWIDTH 5 0
BBX 5 10 0 -2
BITMAP
00
60
10
10
60
80
80
60
00
00
ENDCHAR
STARTCHAR 3
ENCODING 51
SWIDTH 480 0
DWIDTH 5 0
BBX 5 10 0 -2
BITMAP
00
60
10
10
60
10
10
60
00
00
ENDCHAR
STARTCHAR 4
ENCODING 52
SWIDTH 480 0
DWIDTH 5 0
BBX 5 10 0 -2
BITMAP
00
90
90
90
60
10
10
00
00
00
ENDCHAR
STARTCHAR 5
ENCODING 53
SWIDTH 480 0
DWIDTH 5 0
BBX 5 10 0 -2
BITMAP
00
60
80
80
60
10
10
60
00
00
ENDCHAR
STARTCHAR 6
ENCODING 54
SWIDTH 480 0
DWIDTH 5 0
BBX 5 10 0 -2
BITMAP
00
60
80
80
60
90
90
60
00
00
ENDCHAR
STARTCHAR 7
ENCODING 55
SWIDTH 480 0
DWIDTH 5 0
BBX 5 10 0 -2
BITMAP
00
60
10
10
00
10
10
10
00
00
ENDCHAR
STARTCHAR 8
ENCODING 56
SWIDTH 480 0
DWIDTH 5 0
BBX 5 10 0 -2
BITMAP
00
60
90
90
60
90
90
60
00
00
ENDCHAR
STARTCHAR 9
ENCODING 57
SWIDTH 480 0
DWIDTH 5 0
BBX 5 10 0 -2
BITMAP
00
60
90
90
60
10
10
10
00
00
ENDCHAR
STARTCHAR colon
ENCODING 58
SWIDTH 480 0
DWIDTH 5 0
BBX 5 10 0 -2
BITMAP
00
00
00
40
40
00
40
40
00
00
ENDCHAR
STARTCHAR semicolon
ENCODING 59
SWIDTH 480 0
DWIDTH 5 0
BBX 5 10 0 -2
BITMAP
00
00
00
40
40
00
40
40
80
00
ENDCHAR
STARTCHAR less
ENCODING 60
SWIDTH 480 0
DWIDTH 5 0
BBX 5 10 0 -2
BITMAP
00
10
20
40
80
40
20
10
00
00
ENDCHAR
STARTCHAR equal
ENCODING 61
SWIDTH 480 0
DWIDTH 5 0
BBX 5 10 0 -2
BITMAP
00
00
00
F0
00
F0
00
00
00
00
ENDCHAR
STARTCHAR greater
ENCODING 62
SWIDTH 480 0
DWIDTH 5 0
BBX 5 10 0 -2
BITMAP
00
80
40
20
10
20
40
80
00
00
ENDCHAR
STARTCHAR question
ENCODING 63
SWIDTH 480 0
DWIDTH 5 0
BBX 5 10 0 -2
BITMAP
00
E0
10
10
60
40
00
40
00
00
ENDCHAR
STARTCHAR at
ENCODING 64
SWIDTH 480 0
DWIDTH 5 0
BBX 5 10 0 -2
BITMAP
00
60
90
90
D0
D0
10
60
00
00
ENDCHAR
STARTCHAR char65
ENCODING 65
SWIDTH 480 0
DWIDTH 5 0
BBX 5 10 0 -2
BITMAP
80
C0
C0
A0
E0
90
90
90
00
00
ENDCHAR
STARTCHAR B
ENCODING 66
SWIDTH 480 0
DWIDTH 5 0
BBX 5 10 0 -2
BITMAP
C0
A0
A0
E0
90
90
90
E0
00
00
ENDCHAR
STARTCHAR C
ENCODING 67
SWIDTH 480 0
DWIDTH 5 0
BBX 5 10 0 -2
BITMAP
10
20
40
80
80
80
80
70
00
00
ENDCHAR
STARTCHAR D
ENCODING 68
SWIDTH 480 0
DWIDTH 5 0
BBX 5 10 0 -2
BITMAP
80
C0
A0
90
90
90
90
E0
00
00
ENDCHAR
STARTCHAR E
ENCODING 69
SWIDTH 480 0
DWIDTH 5 0
BBX 5 10 0 -2
BITMAP
10
20
40
E0
80
80
80
F0
00
00
ENDCHAR
STARTCHAR F
ENCODING 70
SWIDTH 480 0
DWIDTH 5 0
BBX 5 10 0 -2
BITMAP
10
20
40
E0
80
80
80
80
00
00
ENDCHAR
STARTCHAR G
ENCODING 71
SWIDTH 480 0
DWIDTH 5 0
BBX 5 10 0 -2
BITMAP
10
20
40
B0
90
90
90
70
00
00
ENDCHAR
STARTCHAR H
ENCODING 72
SWIDTH 480 0
DWIDTH 5 0
BBX 5 10 0 -2
BITMAP
90
90
F0
90
90
90
90
90
00
00
ENDCHAR
STARTCHAR I
ENCODING 73
SWIDTH 480 0
DWIDTH 5 0
BBX 5 10 0 -2
BITMAP
E0
40
40
40
40
40
40
E0
00
00
ENDCHAR
STARTCHAR J
ENCODING 74
SWIDTH 480 0
DWIDTH 5 0
BBX 5 10 0 -2
BITMAP
70
10
10
10
10
10
20
C0
00
00
ENDCHAR
STARTCHAR K
ENCODING 75
SWIDTH 480 0
DWIDTH 5 0
BBX 5 10 0 -2
BITMAP
90
A0
C0
A0
90
90
90
90
00
00
ENDCHAR
STARTCHAR L
ENCODING 76
SWIDTH 480 0
DWIDTH 5 0
BBX 5 10 0 -2
BITMAP
80
80
80
80
80
80
80
F0
00
00
ENDCHAR
STARTCHAR M
ENCODING 77
SWIDTH 480 0
DWIDTH 5 0
BBX 5 10 0 -2
BITMAP
90
F0
F0
B0
90
90
90
90
00
00
ENDCHAR
STARTCHAR N
ENCODING 78
SWIDTH 480 0
DWIDTH 5 0
BBX 5 10 0 -2
BITMAP
90
D0
B0
90
90
90
90
90
00
00
ENDCHAR
STARTCHAR O
ENCODING 79
SWIDTH 480 0
DWIDTH 5 0
BBX 5 10 0 -2
BITMAP
60
90
90
90
90
90
90
60
00
00
ENDCHAR
STARTCHAR P
ENCODING 80
SWIDTH 480 0
DWIDTH 5 0
BBX 5 10 0 -2
BITMAP
E0
90
90
E0
80
80
80
80
00
00
ENDCHAR
STARTCHAR Q
ENCODING 81
SWIDTH 480 0
DWIDTH 5 0
BBX 5 10 0 -2
BITMAP
60
90
90
90
90
D0
B0
70
08
00
ENDCHAR
STARTCHAR R
ENCODING 82
SWIDTH 480 0
DWIDTH 5 0
BBX 5 10 0 -2
BITMAP
E0
90
90
E0
90
90
90
90
00
00
ENDCHAR
STARTCHAR S
ENCODING 83
SWIDTH 480 0
DWIDTH 5 0
BBX 5 10 0 -2
BITMAP
70
80
80
40
20
10
10
E0
00
00
ENDCHAR
STARTCHAR T
ENCODING 84
SWIDTH 480 0
DWIDTH 5 0
BBX 5 10 0 -2
BITMAP
F0
20
20
20
20
20
20
20
00
00
ENDCHAR
STARTCHAR U
ENCODING 85
SWIDTH 480 0
DWIDTH 5 0
BBX 5 10 0 -2
BITMAP
90
90
90
90
90
90
90
60
00
00
ENDCHAR
STARTCHAR V
ENCODING 86
SWIDTH 480 0
DWIDTH 5 0
BBX 5 10 0 -2
BITMAP
90
90
90
90
90
A0
C0
80
00
00
ENDCHAR
STARTCHAR W
ENCODING 87
SWIDTH 480 0
DWIDTH 5 0
BBX 5 10 0 -2
BITMAP
90
90
90
90
B0
F0
F0
90
00
00
ENDCHAR
STARTCHAR X
ENCODING 88
SWIDTH 480 0
DWIDTH 5 0
BBX 5 10 0 -2
BITMAP
90
90
90
60
90
90
90
90
00
00
ENDCHAR
STARTCHAR Y
ENCODING 89
SWIDTH 480 0
DWIDTH 5 0
BBX 5 10 0 -2
BITMAP
90
90
50
30
10
10
10
10
00
00
ENDCHAR
STARTCHAR Z
ENCODING 90
SWIDTH 480 0
DWIDTH 5 0
BBX 5 10 0 -2
BITMAP
F0
20
40
80
80
80
80
F0
00
00
ENDCHAR
STARTCHAR bracketleft
ENCODING 91
SWIDTH 480 0
DWIDTH 5 0
BBX 5 10 0 -2
BITMAP
F0
80
80
80
80
80
80
80
F0
00
ENDCHAR
STARTCHAR backslash
ENCODING 92
SWIDTH 480 0
DWIDTH 5 0
BBX 5 10 0 -2
BITMAP
80
80
40
40
60
20
20
10
10
00
ENDCHAR
STARTCHAR bracketright
ENCODING 93
SWIDTH 480 0
DWIDTH 5 0
BBX 5 10 0 -2
BITMAP
F0
10
10
10
10
10
10
10
F0
00
ENDCHAR
STARTCHAR asciicircum
ENCODING 94
SWIDTH 480 0
DWIDTH 5 0
BBX 5 10 0 -2
BITMAP
40
A0
00
00
00
00
00
00
00
00
ENDCHAR
STARTCHAR underscore
ENCODING 95
SWIDTH 480 0
DWIDTH 5 0
BBX 5 10 0 -2
BITMAP
00
00
00
00
00
00
00
00
F8
00
ENDCHAR
STARTCHAR grave
ENCODING 96
SWIDTH 480 0
DWIDTH 5 0
BBX 5 10 0 -2
BITMAP
40
40
20
00
00
00
00
00
00
00
ENDCHAR
STARTCHAR a
ENCODING 97
SWIDTH 480 0
DWIDTH 5 0
BBX 5 10 0 -2
BITMAP
00
00
00
50
B0
90
90
70
00
00
ENDCHAR
STARTCHAR b
ENCODING 98
SWIDTH 480 0
DWIDTH 5 0
BBX 5 10 0 -2
BITMAP
80
80
80
E0
90
90
90
E0
00
00
ENDCHAR
STARTCHAR c
ENCODING 99
SWIDTH 480 0
DWIDTH 5 0
BBX 5 10 0 -2
BITMAP
00
00
00
70
80
80
80
70
00
00
ENDCHAR
STARTCHAR d
ENCODING 100
SWIDTH 480 0
DWIDTH 5 0
BBX 5 10 0 -2
BITMAP
10
10
10
70
90
90
90
70
00
00
ENDCHAR
STARTCHAR e
ENCODING 101
SWIDTH 480 0
DWIDTH 5 0
BBX 5 10 0 -2
BITMAP
00
00
00
60
90
F0
80
70
00
00
ENDCHAR
STARTCHAR f
ENCODING 102
SWIDTH 480 0
DWIDTH 5 0
BBX 5 10 0 -2
BITMAP
30
40
40
F0
40
40
40
40
00
00
ENDCHAR
STARTCHAR g
ENCODING 103
SWIDTH 480 0
DWIDTH 5 0
BBX 5 10 0 -2
BITMAP
00
00
00
70
90
90
70
10
10
E0
ENDCHAR
STARTCHAR h
ENCODING 104
SWIDTH 480 0
DWIDTH 5 0
BBX 5 10 0 -2
BITMAP
80
80
80
E0
90
90
90
90
00
00
ENDCHAR
STARTCHAR i
ENCODING 105
SWIDTH 480 0
DWIDTH 5 0
BBX 5 10 0 -2
BITMAP
00
00
20
00
20
20
20
20
00
00
ENDCHAR
STARTCHAR j
ENCODING 106
SWIDTH 480 0
DWIDTH 5 0
BBX 5 10 0 -2
BITMAP
00
00
10
00
10
10
10
10
10
60
ENDCHAR
STARTCHAR k
ENCODING 107
SWIDTH 480 0
DWIDTH 5 0
BBX 5 10 0 -2
BITMAP
80
80
80
80
A0
C0
A0
90
00
00
ENDCHAR
STARTCHAR l
ENCODING 108
SWIDTH 480 0
DWIDTH 5 0
BBX 5 10 0 -2
BITMAP
60
20
20
20
20
20
20
70
00
00
ENDCHAR
STARTCHAR m
ENCODING 109
SWIDTH 480 0
DWIDTH 5 0
BBX 5 10 0 -2
BITMAP
00
00
00
90
F0
B0
90
90
00
00
ENDCHAR
STARTCHAR n
ENCODING 110
SWIDTH 480 0
DWIDTH 5 0
BBX 5 10 0 -2
BITMAP
00
00
00
E0
90
90
90
90
00
00
ENDCHAR
STARTCHAR o
ENCODING 111
SWIDTH 480 0
DWIDTH 5 0
BBX 5 10 0 -2
BITMAP
00
00
00
60
90
90
90
60
00
00
ENDCHAR
STARTCHAR p
ENCODING 112
SWIDTH 480 0
DWIDTH 5 0
BBX 5 10 0 -2
BITMAP
00
00
00
E0
90
90
90
E0
80
80
ENDCHAR
STARTCHAR q
ENCODING 113
SWIDTH 480 0
DWIDTH 5 0
BBX 5 10 0 -2
BITMAP
00
00
00
70
90
90
90
70
10
10
ENDCHAR
STARTCHAR r
ENCODING 114
SWIDTH 480 0
DWIDTH 5 0
BBX 5 10 0 -2
BITMAP
00
00
00
B0
C0
80
80
80
00
00
ENDCHAR
STARTCHAR s
ENCODING 115
SWIDTH 480 0
DWIDTH 5 0
BBX 5 10 0 -2
BITMAP
00
00
00
70
80
60
10
E0
00
00
ENDCHAR
STARTCHAR t
ENCODING 116
SWIDTH 480 0
DWIDTH 5 0
BBX 5 10 0 -2
BITMAP
20
20
20
F0
20
20
20
20
00
00
ENDCHAR
STARTCHAR u
ENCODING 117
SWIDTH 480 0
DWIDTH 5 0
BBX 5 10 0 -2
BITMAP
00
00
00
90
90
90
90
60
00
00
ENDCHAR
STARTCHAR v
ENCODING 118
SWIDTH 480 0
DWIDTH 5 0
BBX 5 10 0 -2
BITMAP
00
00
00
90
90
A0
C0
80
00
00
ENDCHAR
STARTCHAR w
ENCODING 119
SWIDTH 480 0
DWIDTH 5 0
BBX 5 10 0 -2
BITMAP
00
00
00
90
90
B0
F0
90
00
00
ENDCHAR
STARTCHAR x
ENCODING 120
SWIDTH 480 0
DWIDTH 5 0
BBX 5 10 0 -2
BITMAP
00
00
00
90
90
60
90
90
00
00
ENDCHAR
STARTCHAR y
ENCODING 121
SWIDTH 480 0
DWIDTH 5 0
BBX 5 10 0 -2
BITMAP
00
00
00
90
90
90
90
70
10
E0
ENDCHAR
STARTCHAR z
ENCODING 122
SWIDTH 480 0
DWIDTH 5 0
BBX 5 10 0 -2
BITMAP
00
00
00
F0
10
60
80
F0
00
00
ENDCHAR
STARTCHAR braceleft
ENCODING 123
SWIDTH 480 0
DWIDTH 5 0
BBX 5 10 0 -2
BITMAP
30
40
40
40
80
40
40
40
30
00
ENDCHAR
STARTCHAR bar
ENCODING 124
SWIDTH 480 0
DWIDTH 5 0
BBX 5 10 0 -2
BITMAP
20
20
20
20
20
20
20
20
00
00
ENDCHAR
STARTCHAR braceright
ENCODING 125
SWIDTH 480 0
DWIDTH 5 0
BBX 5 10 0 -2
BITMAP
C0
20
20
20
10
20
20
20
C0
00
ENDCHAR
STARTCHAR asciitilde
ENCODING 126
SWIDTH 480 0
DWIDTH 5 0
BBX 5 10 0 -2
BITMAP
50
A0
80
00
00
00
00
00
00
00
ENDCHAR
STARTCHAR C177
ENCODING 127
SWIDTH 480 0
DWIDTH 5 0
BBX 5 10 0 -2
BITMAP
00
00
60
60
60
90
90
90
F0
00
ENDCHAR
STARTCHAR C200
ENCODING 128
SWIDTH 480 0
DWIDTH 5 0
BBX 5 10 0 -2
BITMAP
00
30
48
B0
A8
A0
A0
A0
E0
00
ENDCHAR
STARTCHAR C201
ENCODING 129
SWIDTH 480 0
DWIDTH 5 0
BBX 5 10 0 -2
BITMAP
00
08
08
88
48
A8
58
20
18
00
ENDCHAR
STARTCHAR C202
ENCODING 130
SWIDTH 480 0
DWIDTH 5 0
BBX 5 10 0 -2
BITMAP
00
C0
40
40
40
40
40
80
00
00
ENDCHAR
STARTCHAR C203
ENCODING 131
SWIDTH 480 0
DWIDTH 5 0
BBX 5 10 0 -2
BITMAP
00
38
40
B8
80
B8
B8
40
38
00
ENDCHAR
STARTCHAR C204
ENCODING 132
SWIDTH 480 0
DWIDTH 5 0
BBX 5 10 0 -2
BITMAP
00
F8
00
F8
20
E0
F8
00
F8
00
ENDCHAR
STARTCHAR C205
ENCODING 133
SWIDTH 480 0
DWIDTH 5 0
BBX 5 10 0 -2
BITMAP
00
C0
40
C0
00
00
C0
40
C0
00
ENDCHAR
STARTCHAR C206
ENCODING 134
SWIDTH 480 0
DWIDTH 5 0
BBX 5 10 0 -2
BITMAP
00
E0
B8
40
38
38
40
B8
E0
00
ENDCHAR
STARTCHAR C207
ENCODING 135
SWIDTH 480 0
DWIDTH 5 0
BBX 5 10 0 -2
BITMAP
00
00
00
F8
00
00
F8
00
00
00
ENDCHAR
STARTCHAR C210
ENCODING 136
SWIDTH 480 0
DWIDTH 5 0
BBX 5 10 0 -2
BITMAP
00
18
70
88
70
70
88
70
18
00
ENDCHAR
STARTCHAR C211
ENCODING 137
SWIDTH 480 0
DWIDTH 5 0
BBX 5 10 0 -2
BITMAP
00
80
80
00
00
00
00
80
80
00
ENDCHAR
STARTCHAR C212
ENCODING 138
SWIDTH 480 0
DWIDTH 5 0
BBX 5 10 0 -2
BITMAP
00
E0
A0
A0
A0
A0
B8
40
38
00
ENDCHAR
STARTCHAR C213
ENCODING 139
SWIDTH 480 0
DWIDTH 5 0
BBX 5 10 0 -2
BITMAP
00
08
08
08
08
08
F8
00
F8
00
ENDCHAR
STARTCHAR C214
ENCODING 140
SWIDTH 480 0
DWIDTH 5 0
BBX 5 10 0 -2
BITMAP
00
C0
40
40
40
40
40
80
00
00
ENDCHAR
STARTCHAR C215
ENCODING 141
SWIDTH 480 0
DWIDTH 5 0
BBX 5 10 0 -2
BITMAP
00
78
80
B8
80
78
F8
80
F8
00
ENDCHAR
STARTCHAR C216
ENCODING 142
SWIDTH 480 0
DWIDTH 5 0
BBX 5 10 0 -2
BITMAP
00
F8
00
F8
00
F8
F8
00
F8
00
ENDCHAR
STARTCHAR C217
ENCODING 143
SWIDTH 480 0
DWIDTH 5 0
BBX 5 10 0 -2
BITMAP
00
C0
40
C0
80
40
40
40
80
00
ENDCHAR
STARTCHAR C220
ENCODING 144
SWIDTH 480 0
DWIDTH 5 0
BBX 5 10 0 -2
BITMAP
00
20
70
70
60
68
60
F8
F8
68
ENDCHAR
STARTCHAR C221
ENCODING 145
SWIDTH 480 0
DWIDTH 5 0
BBX 5 10 0 -2
BITMAP
00
C0
18
D8
D0
90
40
F0
C0
80
ENDCHAR
STARTCHAR C222
ENCODING 146
SWIDTH 480 0
DWIDTH 5 0
BBX 5 10 0 -2
BITMAP
18
08
20
A8
B8
B0
00
08
18
00
ENDCHAR
STARTCHAR C223
ENCODING 147
SWIDTH 480 0
DWIDTH 5 0
BBX 5 10 0 -2
BITMAP
08
D8
F0
70
70
F8
D8
D8
00
00
ENDCHAR
STARTCHAR C224
ENCODING 148
SWIDTH 480 0
DWIDTH 5 0
BBX 5 10 0 -2
BITMAP
F8
88
88
88
88
88
88
88
88
F8
ENDCHAR
STARTCHAR C225
ENCODING 149
SWIDTH 480 0
DWIDTH 5 0
BBX 5 10 0 -2
BITMAP
F8
88
88
88
88
88
88
88
88
F8
ENDCHAR
STARTCHAR C226
ENCODING 150
SWIDTH 480 0
DWIDTH 5 0
BBX 5 10 0 -2
BITMAP
F8
88
88
88
88
88
88
88
88
F8
ENDCHAR
STARTCHAR C227
ENCODING 151
SWIDTH 480 0
DWIDTH 5 0
BBX 5 10 0 -2
BITMAP
F8
88
88
88
88
88
88
88
88
F8
ENDCHAR
STARTCHAR C230
ENCODING 152
SWIDTH 480 0
DWIDTH 5 0
BBX 5 10 0 -2
BITMAP
F8
88
88
88
88
88
88
88
88
F8
ENDCHAR
STARTCHAR C231
ENCODING 153
SWIDTH 480 0
DWIDTH 5 0
BBX 5 10 0 -2
BITMAP
F8
88
88
88
88
88
88
88
88
F8
ENDCHAR
STARTCHAR C232
ENCODING 154
SWIDTH 480 0
DWIDTH 5 0
BBX 5 10 0 -2
BITMAP
F8
88
88
88
88
88
88
88
88
F8
ENDCHAR
STARTCHAR C233
ENCODING 155
SWIDTH 480 0
DWIDTH 5 0
BBX 5 10 0 -2
BITMAP
00
20
20
70
80
80
80
70
20
20
ENDCHAR
STARTCHAR C234
ENCODING 156
SWIDTH 480 0
DWIDTH 5 0
BBX 5 10 0 -2
BITMAP
00
00
20
50
40
60
40
E0
D0
00
ENDCHAR
STARTCHAR C235
ENCODING 157
SWIDTH 480 0
DWIDTH 5 0
BBX 5 10 0 -2
BITMAP
90
90
50
30
10
30
10
30
10
00
ENDCHAR
STARTCHAR C236
ENCODING 158
SWIDTH 480 0
DWIDTH 5 0
BBX 5 10 0 -2
BITMAP
F8
88
88
88
88
88
88
88
88
F8
ENDCHAR
STARTCHAR C237
ENCODING 159
SWIDTH 480 0
DWIDTH 5 0
BBX 5 10 0 -2
BITMAP
10
28
20
20
70
20
20
20
A0
40
ENDCHAR
STARTCHAR nobreakspace
ENCODING 160
SWIDTH 480 0
DWIDTH 5 0
BBX 5 10 0 -2
BITMAP
00
00
00
00
00
00
00
00
00
00
ENDCHAR
STARTCHAR exclamdown
ENCODING 161
SWIDTH 480 0
DWIDTH 5 0
BBX 5 10 0 -2
BITMAP
40
40
00
40
40
40
40
40
00
00
ENDCHAR
STARTCHAR cent
ENCODING 162
SWIDTH 480 0
DWIDTH 5 0
BBX 5 10 0 -2
BITMAP
00
20
20
70
80
80
80
70
20
20
ENDCHAR
STARTCHAR sterling
ENCODING 163
SWIDTH 480 0
DWIDTH 5 0
BBX 5 10 0 -2
BITMAP
00
20
50
40
E0
40
40
50
A0
00
ENDCHAR
STARTCHAR currency
ENCODING 164
SWIDTH 480 0
DWIDTH 5 0
BBX 5 10 0 -2
BITMAP
00
00
88
70
50
50
70
88
00
00
ENDCHAR
STARTCHAR yen
ENCODING 165
SWIDTH 480 0
DWIDTH 5 0
BBX 5 10 0 -2
BITMAP
90
50
20
20
70
20
70
20
00
00
ENDCHAR
STARTCHAR brokenbar
ENCODING 166
SWIDTH 480 0
DWIDTH 5 0
BBX 5 10 0 -2
BITMAP
20
20
20
20
00
20
20
20
20
00
ENDCHAR
STARTCHAR section
ENCODING 167
SWIDTH 480 0
DWIDTH 5 0
BBX 5 10 0 -2
BITMAP
10
28
20
20
70
20
20
20
A0
40
ENDCHAR
STARTCHAR diaeresis
ENCODING 168
SWIDTH 480 0
DWIDTH 5 0
BBX 5 10 0 -2
BITMAP
D8
00
00
00
00
00
00
00
00
00
ENDCHAR
STARTCHAR copyright
ENCODING 169
SWIDTH 480 0
DWIDTH 5 0
BBX 5 10 0 -2
BITMAP
70
88
A8
D8
C8
C8
D8
A8
88
70
ENDCHAR
STARTCHAR ordfeminine
ENCODING 170
SWIDTH 480 0
DWIDTH 5 0
BBX 5 10 0 -2
BITMAP
00
00
60
90
90
70
00
F0
00
00
ENDCHAR
STARTCHAR guillemotleft
ENCODING 171
SWIDTH 480 0
DWIDTH 5 0
BBX 5 10 0 -2
BITMAP
00
00
00
50
A0
50
00
00
00
00
ENDCHAR
STARTCHAR notsign
ENCODING 172
SWIDTH 480 0
DWIDTH 5 0
BBX 5 10 0 -2
BITMAP
00
F0
10
00
00
00
00
00
00
00
ENDCHAR
STARTCHAR hyphen
ENCODING 173
SWIDTH 480 0
DWIDTH 5 0
BBX 5 10 0 -2
BITMAP
00
00
00
00
F8
00
00
00
00
00
ENDCHAR
STARTCHAR registered
ENCODING 174
SWIDTH 480 0
DWIDTH 5 0
BBX 5 10 0 -2
BITMAP
70
88
E8
D8
D8
E8
D8
D8
88
70
ENDCHAR
STARTCHAR macron
ENCODING 175
SWIDTH 480 0
DWIDTH 5 0
BBX 5 10 0 -2
BITMAP
F8
00
00
00
00
00
00
00
00
00
ENDCHAR
STARTCHAR degree
ENCODING 176
SWIDTH 480 0
DWIDTH 5 0
BBX 5 10 0 -2
BITMAP
00
20
50
20
00
00
00
00
00
00
ENDCHAR
STARTCHAR plusminus
ENCODING 177
SWIDTH 480 0
DWIDTH 5 0
BBX 5 10 0 -2
BITMAP
00
20
70
20
00
70
00
00
00
00
ENDCHAR
STARTCHAR twosuperior
ENCODING 178
SWIDTH 480 0
DWIDTH 5 0
BBX 5 10 0 -2
BITMAP
00
00
00
C0
20
40
E0
00
00
00
ENDCHAR
STARTCHAR threesuperior
ENCODING 179
SWIDTH 480 0
DWIDTH 5 0
BBX 5 10 0 -2
BITMAP
00
00
C0
20
40
20
C0
00
00
00
ENDCHAR
STARTCHAR acute
ENCODING 180
SWIDTH 480 0
DWIDTH 5 0
BBX 5 10 0 -2
BITMAP
10
20
00
00
00
00
00
00
00
00
ENDCHAR
STARTCHAR mu
ENCODING 181
SWIDTH 480 0
DWIDTH 5 0
BBX 5 10 0 -2
BITMAP
00
00
50
50
50
50
50
60
40
80
ENDCHAR
STARTCHAR paragraph
ENCODING 182
SWIDTH 480 0
DWIDTH 5 0
BBX 5 10 0 -2
BITMAP
00
70
D0
D0
D0
D0
50
50
50
50
ENDCHAR
STARTCHAR periodcentered
ENCODING 183
SWIDTH 480 0
DWIDTH 5 0
BBX 5 10 0 -2
BITMAP
00
00
00
00
00
60
60
00
00
00
ENDCHAR
STARTCHAR cedilla
ENCODING 184
SWIDTH 480 0
DWIDTH 5 0
BBX 5 10 0 -2
BITMAP
00
00
00
00
00
00
00
40
80
00
ENDCHAR
STARTCHAR onesuperior
ENCODING 185
SWIDTH 480 0
DWIDTH 5 0
BBX 5 10 0 -2
BITMAP
00
00
00
40
C0
40
E0
00
00
00
ENDCHAR
STARTCHAR masculine
ENCODING 186
SWIDTH 480 0
DWIDTH 5 0
BBX 5 10 0 -2
BITMAP
00
00
60
90
90
60
00
F0
00
00
ENDCHAR
STARTCHAR guillemotright
ENCODING 187
SWIDTH 480 0
DWIDTH 5 0
BBX 5 10 0 -2
BITMAP
00
00
00
A0
50
A0
00
00
00
00
ENDCHAR
STARTCHAR onequarter
ENCODING 188
SWIDTH 480 0
DWIDTH 5 0
BBX 5 10 0 -2
BITMAP
80
80
90
A0
50
90
50
70
10
00
ENDCHAR
STARTCHAR onehalf
ENCODING 189
SWIDTH 480 0
DWIDTH 5 0
BBX 5 10 0 -2
BITMAP
80
80
90
A0
40
B0
10
20
30
00
ENDCHAR
STARTCHAR threequarters
ENCODING 190
SWIDTH 480 0
DWIDTH 5 0
BBX 5 10 0 -2
BITMAP
C0
40
C0
50
E0
40
90
50
70
10
ENDCHAR
STARTCHAR questiondown
ENCODING 191
SWIDTH 480 0
DWIDTH 5 0
BBX 5 10 0 -2
BITMAP
00
20
00
20
60
80
80
70
00
00
ENDCHAR
STARTCHAR Agrave
ENCODING 192
SWIDTH 480 0
DWIDTH 5 0
BBX 5 10 0 -2
BITMAP
C0
00
80
C0
A0
F0
90
90
00
00
ENDCHAR
STARTCHAR Aacute
ENCODING 193
SWIDTH 480 0
DWIDTH 5 0
BBX 5 10 0 -2
BITMAP
30
00
80
C0
A0
F0
90
90
00
00
ENDCHAR
STARTCHAR Acircumflex
ENCODING 194
SWIDTH 480 0
DWIDTH 5 0
BBX 5 10 0 -2
BITMAP
20
50
80
C0
A0
F0
90
90
00
00
ENDCHAR
STARTCHAR Atilde
ENCODING 195
SWIDTH 480 0
DWIDTH 5 0
BBX 5 10 0 -2
BITMAP
50
A0
80
C0
A0
F0
90
90
00
00
ENDCHAR
STARTCHAR Adiaeresis
ENCODING 196
SWIDTH 480 0
DWIDTH 5 0
BBX 5 10 0 -2
BITMAP
50
00
80
C0
A0
F0
90
90
00
00
ENDCHAR
STARTCHAR Aring
ENCODING 197
SWIDTH 480 0
DWIDTH 5 0
BBX 5 10 0 -2
BITMAP
20
00
80
C0
A0
F0
90
90
00
00
ENDCHAR
STARTCHAR AE
ENCODING 198
SWIDTH 480 0
DWIDTH 5 0
BBX 5 10 0 -2
BITMAP
80
F0
A0
F0
A0
A0
A0
B0
00
00
ENDCHAR
STARTCHAR Ccedilla
ENCODING 199
SWIDTH 480 0
DWIDTH 5 0
BBX 5 10 0 -2
BITMAP
10
20
40
80
80
80
80
70
20
40
ENDCHAR
STARTCHAR Egrave
ENCODING 200
SWIDTH 480 0
DWIDTH 5 0
BBX 5 10 0 -2
BITMAP
C0
00
10
20
40
E0
80
F0
00
00
ENDCHAR
STARTCHAR Eacute
ENCODING 201
SWIDTH 480 0
DWIDTH 5 0
BBX 5 10 0 -2
BITMAP
30
00
10
20
40
E0
80
F0
00
00
ENDCHAR
STARTCHAR Ecircumflex
ENCODING 202
SWIDTH 480 0
DWIDTH 5 0
BBX 5 10 0 -2
BITMAP
20
50
10
20
40
E0
80
F0
00
00
ENDCHAR
STARTCHAR Ediaeresis
ENCODING 203
SWIDTH 480 0
DWIDTH 5 0
BBX 5 10 0 -2
BITMAP
50
00
10
20
40
E0
80
F0
00
00
ENDCHAR
STARTCHAR Igrave
ENCODING 204
SWIDTH 480 0
DWIDTH 5 0
BBX 5 10 0 -2
BITMAP
C0
00
E0
40
40
40
40
E0
00
00
ENDCHAR
STARTCHAR Iacute
ENCODING 205
SWIDTH 480 0
DWIDTH 5 0
BBX 5 10 0 -2
BITMAP
30
00
E0
40
40
40
40
E0
00
00
ENDCHAR
STARTCHAR Icircumflex
ENCODING 206
SWIDTH 480 0
DWIDTH 5 0
BBX 5 10 0 -2
BITMAP
40
A0
E0
40
40
40
40
E0
00
00
ENDCHAR
STARTCHAR Idiaeresis
ENCODING 207
SWIDTH 480 0
DWIDTH 5 0
BBX 5 10 0 -2
BITMAP
A0
00
E0
40
40
40
40
E0
00
00
ENDCHAR
STARTCHAR ETH
ENCODING 208
SWIDTH 480 0
DWIDTH 5 0
BBX 5 10 0 -2
BITMAP
80
C0
A0
90
D0
90
90
E0
00
00
ENDCHAR
STARTCHAR Ntilde
ENCODING 209
SWIDTH 480 0
DWIDTH 5 0
BBX 5 10 0 -2
BITMAP
50
A0
90
D0
B0
90
90
90
00
00
ENDCHAR
STARTCHAR Ograve
ENCODING 210
SWIDTH 480 0
DWIDTH 5 0
BBX 5 10 0 -2
BITMAP
C0
00
60
90
90
90
90
60
00
00
ENDCHAR
STARTCHAR Oacute
ENCODING 211
SWIDTH 480 0
DWIDTH 5 0
BBX 5 10 0 -2
BITMAP
30
00
60
90
90
90
90
60
00
00
ENDCHAR
STARTCHAR Ocircumflex
ENCODING 212
SWIDTH 480 0
DWIDTH 5 0
BBX 5 10 0 -2
BITMAP
20
50
60
90
90
90
90
60
00
00
ENDCHAR
STARTCHAR Otilde
ENCODING 213
SWIDTH 480 0
DWIDTH 5 0
BBX 5 10 0 -2
BITMAP
50
A0
60
90
90
90
90
60
00
00
ENDCHAR
STARTCHAR Odiaeresis
ENCODING 214
SWIDTH 480 0
DWIDTH 5 0
BBX 5 10 0 -2
BITMAP
50
00
60
90
90
90
90
60
00
00
ENDCHAR
STARTCHAR multiply
ENCODING 215
SWIDTH 480 0
DWIDTH 5 0
BBX 5 10 0 -2
BITMAP
00
00
A0
A0
40
40
A0
A0
00
00
ENDCHAR
STARTCHAR Ooblique
ENCODING 216
SWIDTH 480 0
DWIDTH 5 0
BBX 5 10 0 -2
BITMAP
00
60
90
90
F0
90
90
60
00
00
ENDCHAR
STARTCHAR Ugrave
ENCODING 217
SWIDTH 480 0
DWIDTH 5 0
BBX 5 10 0 -2
BITMAP
C0
00
90
90
90
90
90
60
00
00
ENDCHAR
STARTCHAR Uacute
ENCODING 218
SWIDTH 480 0
DWIDTH 5 0
BBX 5 10 0 -2
BITMAP
30
00
90
90
90
90
90
60
00
00
ENDCHAR
STARTCHAR Ucircumflex
ENCODING 219
SWIDTH 480 0
DWIDTH 5 0
BBX 5 10 0 -2
BITMAP
20
50
90
90
90
90
90
60
00
00
ENDCHAR
STARTCHAR Udiaeresis
ENCODING 220
SWIDTH 480 0
DWIDTH 5 0
BBX 5 10 0 -2
BITMAP
50
00
90
90
90
90
90
60
00
00
ENDCHAR
STARTCHAR Yacute
ENCODING 221
SWIDTH 480 0
DWIDTH 5 0
BBX 5 10 0 -2
BITMAP
30
00
90
90
50
30
10
10
00
00
ENDCHAR
STARTCHAR THORN
ENCODING 222
SWIDTH 480 0
DWIDTH 5 0
BBX 5 10 0 -2
BITMAP
80
80
E0
90
90
E0
80
80
00
00
ENDCHAR
STARTCHAR ssharp
ENCODING 223
SWIDTH 480 0
DWIDTH 5 0
BBX 5 10 0 -2
BITMAP
00
60
90
A0
90
90
A0
80
80
00
ENDCHAR
STARTCHAR agrave
ENCODING 224
SWIDTH 480 0
DWIDTH 5 0
BBX 5 10 0 -2
BITMAP
40
20
00
50
B0
90
90
70
00
00
ENDCHAR
STARTCHAR aacute
ENCODING 225
SWIDTH 480 0
DWIDTH 5 0
BBX 5 10 0 -2
BITMAP
20
40
00
50
B0
90
90
70
00
00
ENDCHAR
STARTCHAR acircumflex
ENCODING 226
SWIDTH 480 0
DWIDTH 5 0
BBX 5 10 0 -2
BITMAP
20
50
00
50
B0
90
90
70
00
00
ENDCHAR
STARTCHAR atilde
ENCODING 227
SWIDTH 480 0
DWIDTH 5 0
BBX 5 10 0 -2
BITMAP
50
A0
00
50
B0
90
90
70
00
00
ENDCHAR
STARTCHAR adiaeresis
ENCODING 228
SWIDTH 480 0
DWIDTH 5 0
BBX 5 10 0 -2
BITMAP
50
50
00
50
B0
90
90
70
00
00
ENDCHAR
STARTCHAR aring
ENCODING 229
SWIDTH 480 0
DWIDTH 5 0
BBX 5 10 0 -2
BITMAP
20
50
20
50
B0
90
90
70
00
00
ENDCHAR
STARTCHAR ae
ENCODING 230
SWIDTH 480 0
DWIDTH 5 0
BBX 5 10 0 -2
BITMAP
00
00
00
E0
50
E0
A0
70
00
00
ENDCHAR
STARTCHAR ccedilla
ENCODING 231
SWIDTH 480 0
DWIDTH 5 0
BBX 5 10 0 -2
BITMAP
00
00
00
70
80
80
80
70
20
40
ENDCHAR
STARTCHAR egrave
ENCODING 232
SWIDTH 480 0
DWIDTH 5 0
BBX 5 10 0 -2
BITMAP
40
20
00
60
90
F0
80
70
00
00
ENDCHAR
STARTCHAR eacute
ENCODING 233
SWIDTH 480 0
DWIDTH 5 0
BBX 5 10 0 -2
BITMAP
20
40
00
60
90
F0
80
70
00
00
ENDCHAR
STARTCHAR ecircumflex
ENCODING 234
SWIDTH 480 0
DWIDTH 5 0
BBX 5 10 0 -2
BITMAP
20
50
00
60
90
F0
80
70
00
00
ENDCHAR
STARTCHAR ediaeresis
ENCODING 235
SWIDTH 480 0
DWIDTH 5 0
BBX 5 10 0 -2
BITMAP
50
50
00
60
90
F0
80
70
00
00
ENDCHAR
STARTCHAR igrave
ENCODING 236
SWIDTH 480 0
DWIDTH 5 0
BBX 5 10 0 -2
BITMAP
40
20
00
00
20
20
20
20
00
00
ENDCHAR
STARTCHAR iacute
ENCODING 237
SWIDTH 480 0
DWIDTH 5 0
BBX 5 10 0 -2
BITMAP
20
40
00
00
20
20
20
20
00
00
ENDCHAR
STARTCHAR icircumflex
ENCODING 238
SWIDTH 480 0
DWIDTH 5 0
BBX 5 10 0 -2
BITMAP
20
50
00
00
20
20
20
20
00
00
ENDCHAR
STARTCHAR idiaeresis
ENCODING 239
SWIDTH 480 0
DWIDTH 5 0
BBX 5 10 0 -2
BITMAP
50
50
00
00
20
20
20
20
00
00
ENDCHAR
STARTCHAR eth
ENCODING 240
SWIDTH 480 0
DWIDTH 5 0
BBX 5 10 0 -2
BITMAP
50
00
60
10
60
90
90
60
00
00
ENDCHAR
STARTCHAR ntilde
ENCODING 241
SWIDTH 480 0
DWIDTH 5 0
BBX 5 10 0 -2
BITMAP
50
A0
00
E0
90
90
90
90
00
00
ENDCHAR
STARTCHAR ograve
ENCODING 242
SWIDTH 480 0
DWIDTH 5 0
BBX 5 10 0 -2
BITMAP
40
20
00
60
90
90
90
60
00
00
ENDCHAR
STARTCHAR oacute
ENCODING 243
SWIDTH 480 0
DWIDTH 5 0
BBX 5 10 0 -2
BITMAP
20
40
00
60
90
90
90
60
00
00
ENDCHAR
STARTCHAR ocircumflex
ENCODING 244
SWIDTH 480 0
DWIDTH 5 0
BBX 5 10 0 -2
BITMAP
20
50
00
60
90
90
90
60
00
00
ENDCHAR
STARTCHAR otilde
ENCODING 245
SWIDTH 480 0
DWIDTH 5 0
BBX 5 10 0 -2
BITMAP
50
A0
00
60
90
90
90
60
00
00
ENDCHAR
STARTCHAR odiaeresis
ENCODING 246
SWIDTH 480 0
DWIDTH 5 0
BBX 5 10 0 -2
BITMAP
50
50
00
60
90
90
90
60
00
00
ENDCHAR
STARTCHAR division
ENCODING 247
SWIDTH 480 0
DWIDTH 5 0
BBX 5 10 0 -2
BITMAP
00
00
40
00
E0
00
40
00
00
00
ENDCHAR
STARTCHAR oslash
ENCODING 248
SWIDTH 480 0
DWIDTH 5 0
BBX 5 10 0 -2
BITMAP
00
00
08
70
B8
A8
E8
70
80
00
ENDCHAR
STARTCHAR ugrave
ENCODING 249
SWIDTH 480 0
DWIDTH 5 0
BBX 5 10 0 -2
BITMAP
40
20
00
90
90
90
90
60
00
00
ENDCHAR
STARTCHAR uacute
ENCODING 250
SWIDTH 480 0
DWIDTH 5 0
BBX 5 10 0 -2
BITMAP
20
40
00
90
90
90
90
60
00
00
ENDCHAR
STARTCHAR ucircumflex
ENCODING 251
SWIDTH 480 0
DWIDTH 5 0
BBX 5 10 0 -2
BITMAP
20
50
00
90
90
90
90
60
00
00
ENDCHAR
STARTCHAR udiaeresis
ENCODING 252
SWIDTH 480 0
DWIDTH 5 0
BBX 5 10 0 -2
BITMAP
50
50
00
90
90
90
90
60
00
00
ENDCHAR
STARTCHAR yacute
ENCODING 253
SWIDTH 480 0
DWIDTH 5 0
BBX 5 10 0 -2
BITMAP
20
40
00
90
90
90
90
70
10
E0
ENDCHAR
STARTCHAR thorn
ENCODING 254
SWIDTH 480 0
DWIDTH 5 0
BBX 5 10 0 -2
BITMAP
80
80
80
C0
A0
C0
80
80
00
00
ENDCHAR
STARTCHAR ydiaeresis
ENCODING 255
SWIDTH 480 0
DWIDTH 5 0
BBX 5 10 0 -2
BITMAP
50
50
00
90
90
90
90
70
10
E0
ENDCHAR
ENDFONT
