<?xml version="1.0" encoding="UTF-8" standalone="no"?>
<!-- Created with Inkscape (http://www.inkscape.org/) -->
<svg
   xmlns:dc="http://purl.org/dc/elements/1.1/"
   xmlns:cc="http://web.resource.org/cc/"
   xmlns:rdf="http://www.w3.org/1999/02/22-rdf-syntax-ns#"
   xmlns:svg="http://www.w3.org/2000/svg"
   xmlns="http://www.w3.org/2000/svg"
   xmlns:sodipodi="http://sodipodi.sourceforge.net/DTD/sodipodi-0.dtd"
   xmlns:inkscape="http://www.inkscape.org/namespaces/inkscape"
   width="137"
   height="137"
   id="svg2"
   sodipodi:version="0.32"
   inkscape:version="0.44+devel"
   sodipodi:modified="true"
   version="1.0">
  <defs
     id="defs4" />
  <sodipodi:namedview
     id="base"
     pagecolor="#ffffff"
     bordercolor="#666666"
     borderopacity="1.0"
     gridtolerance="10000"
     guidetolerance="10"
     objecttolerance="10"
     inkscape:pageopacity="0.0"
     inkscape:pageshadow="2"
     inkscape:zoom="1"
     inkscape:cx="375"
     inkscape:cy="-51.428571"
     inkscape:document-units="px"
     inkscape:current-layer="layer1"
     width="137px"
     height="137px"
     inkscape:window-width="1256"
     inkscape:window-height="742"
     inkscape:window-x="0"
     inkscape:window-y="28" />
  <metadata
     id="metadata7">
    <rdf:RDF>
      <cc:Work
         rdf:about="">
        <dc:format>image/svg+xml</dc:format>
        <dc:type
           rdf:resource="http://purl.org/dc/dcmitype/StillImage" />
      </cc:Work>
    </rdf:RDF>
  </metadata>
  <g
     inkscape:label="Layer 1"
     inkscape:groupmode="layer"
     id="layer1">
    <g
       id="g2199"
       transform="translate(-320.5,-541.375)">
      <g
         style="display:inline"
         inkscape:label="fond-de-travail"
         id="layer14">
        <path
           id="rect3793"
           d="M 320.5,541.375 L 320.5,541.6808 L 320.5,678.03862 L 320.5,678.375 L 320.812,678.375 L 457.188,678.375 L 457.5,678.375 L 457.5,678.03862 L 457.5,541.6808 L 457.5,541.375 L 457.188,541.375 L 320.812,541.375 L 320.5,541.375 z M 321.1552,541.98661 L 456.876,541.98661 L 456.876,677.73281 L 321.1552,677.73281 L 321.1552,541.98661 z "
           style="opacity:1;color:#000000;fill:#000000;fill-opacity:0;fill-rule:nonzero;stroke:none;stroke-width:0.6421234;stroke-linecap:butt;stroke-linejoin:miter;marker:none;stroke-miterlimit:4;stroke-dasharray:none;stroke-dashoffset:0;stroke-opacity:1;visibility:visible;display:inline;overflow:visible" />
      </g>
      <g
         inkscape:label="notes"
         id="layer23" />
      <g
         style="display:inline"
         inkscape:label="Visage_couleur"
         id="layer21">
        <path
           inkscape:export-ydpi="90"
           inkscape:export-xdpi="90"
           inkscape:export-filename="/home/aji/eap2.png"
           sodipodi:nodetypes="ccccccccc"
           id="path4168"
           d="M 395.77907,571.14177 C 407.01118,571.50364 421.16093,573.48371 430.32763,580.75085 C 441.66286,590.88375 445.37184,607.55527 445.44244,622.59528 C 446.36012,637.13708 442.19445,649.9383 426.4127,658.83789 C 400.99744,671.41763 375.02914,662.55045 354.74782,650.38264 C 348.75821,650.55184 340.60089,651.1945 336.65407,645.54805 C 330.17945,635.94084 330.58625,628.48275 332.12282,617.16969 C 333.58705,610.73182 340.40634,591.59701 352.68532,580.81095 C 365.99121,575.37478 381.4312,570.91577 395.77907,571.14177 z "
           style="fill:#89d85d;fill-opacity:1;fill-rule:evenodd;stroke:none;stroke-width:1px;stroke-linecap:butt;stroke-linejoin:miter;stroke-opacity:1;display:inline" />
      </g>
      <g
         style="display:inline"
         inkscape:label="Visage"
         id="layer5">
        <path
           inkscape:export-ydpi="90"
           inkscape:export-xdpi="90"
           inkscape:export-filename="/home/aji/eap2.png"
           sodipodi:nodetypes="ccccccccccccccccccc"
           id="path3007"
           d="M 395.77907,571.14177 C 407.01118,571.50364 421.16093,573.48371 430.32763,580.75085 C 441.66286,590.88375 445.37184,607.55527 445.44244,622.59528 C 446.36012,637.13708 442.19445,649.9383 426.4127,658.83789 C 400.99744,671.41763 375.02914,662.55045 354.74782,650.38264 C 348.75821,650.55184 340.60089,651.1945 336.65407,645.54805 C 330.17945,635.94084 330.58625,628.48275 332.12282,617.16969 C 333.58705,610.73182 340.40634,591.59701 352.68532,580.81095 C 365.99121,575.37478 381.4312,570.91577 395.77907,571.14177 z M 395.74782,572.23452 C 377.81682,572.05572 368.39863,576.00642 352.31032,584.02297 C 341.5844,595.06392 331.94936,611.59381 332.90407,627.93161 C 333.93591,635.89915 336.55006,645.9787 344.74782,648.56139 C 349.61327,650.03752 354.49093,646.88003 359.34852,648.42038 C 376.16922,655.95467 394.77314,662.62551 412.78023,658.66725 C 425.73892,656.21653 439.50775,647.33039 441.21657,634.05763 C 442.40075,623.33204 440.76985,612.30672 437.93218,601.89693 C 435.01367,590.69278 428.48845,581.37193 417.68532,577.79761 C 410.59893,574.9507 403.31279,572.35768 395.74782,572.23452 z "
           style="fill:#34621a;fill-opacity:1;fill-rule:evenodd;stroke:none;stroke-width:1px;stroke-linecap:butt;stroke-linejoin:miter;stroke-opacity:1" />
      </g>
      <g
         style="display:inline"
         inkscape:label="Bouche"
         id="layer20">
        <path
           inkscape:export-ydpi="90"
           inkscape:export-xdpi="90"
           inkscape:export-filename="/home/aji/eap2.png"
           sodipodi:nodetypes="cccccccccccccccccccccccccc"
           id="path3243"
           d="M 428.56032,638.25 C 428.69525,638.90037 429.00401,640.22239 428.15407,640.0625 C 423.33253,640.54836 419.21967,640.96738 413.18532,641.375 C 413.18532,645.45834 413.18532,649.54166 413.18532,653.625 C 414.41829,653.54768 415.14632,653.4187 416.37282,653.25 C 415.77851,658.22644 386.272,656.89943 376.65407,641.84375 C 391.41351,640.3448 413.80006,639.74109 428.56032,638.25 z M 411.68532,641.4375 C 409.33882,641.59464 407.05861,641.78209 404.68532,641.9375 C 404.68532,645.80209 404.68532,649.66666 404.68532,653.53125 C 406.96884,653.72077 409.32552,653.75913 411.68532,653.65625 C 411.68532,649.58141 411.68532,645.51232 411.68532,641.4375 z M 403.68532,642 C 401.31052,642.15586 398.99502,642.30869 396.68532,642.46875 C 396.68532,645.73958 396.68532,649.01042 396.68532,652.28125 C 398.88621,652.80331 401.24205,653.19056 403.68532,653.4375 C 403.68532,649.6232 403.68532,645.81428 403.68532,642 z M 395.68532,642.53125 C 393.28354,642.69992 390.91272,642.85133 388.68532,643.03125 C 388.68532,645.1875 388.68532,647.34375 388.68532,649.5 C 390.68727,650.48039 393.05876,651.3483 395.68532,652.03125 C 395.68532,648.86309 395.68532,645.6994 395.68532,642.53125 z M 387.68532,643.125 C 385.79369,643.28196 383.99831,643.4549 382.31032,643.625 C 382.81603,645.55447 384.76795,647.41022 387.68532,649 C 387.68532,647.04075 387.68532,645.08425 387.68532,643.125 z "
           style="fill:#000000;fill-opacity:1;fill-rule:evenodd;stroke:none;stroke-width:1px;stroke-linecap:butt;stroke-linejoin:miter;stroke-opacity:1;display:inline" />
      </g>
      <g
         inkscape:label="Bouche_couleur"
         id="layer22">
        <path
           inkscape:export-ydpi="90"
           inkscape:export-xdpi="90"
           inkscape:export-filename="/home/aji/eap2.png"
           sodipodi:nodetypes="ccccccccccccccccccc"
           id="path5059"
           d="M 411.68532,641.4375 C 409.33882,641.59464 407.05861,641.78209 404.68532,641.9375 C 404.68532,645.80209 404.68532,649.66666 404.68532,653.53125 C 406.96884,653.72077 409.32552,653.75913 411.68532,653.65625 C 411.68532,649.58141 411.68532,645.51232 411.68532,641.4375 z M 403.68532,642 C 401.31052,642.15586 398.99502,642.30869 396.68532,642.46875 C 396.68532,645.73958 396.68532,649.01042 396.68532,652.28125 C 398.88621,652.80331 401.24205,653.19056 403.68532,653.4375 C 403.68532,649.6232 403.68532,645.81428 403.68532,642 z M 395.68532,642.53125 C 393.28354,642.69992 390.91272,642.85133 388.68532,643.03125 C 388.68532,645.1875 388.68532,647.34375 388.68532,649.5 C 390.68727,650.48039 393.05876,651.3483 395.68532,652.03125 C 395.68532,648.86309 395.68532,645.6994 395.68532,642.53125 z M 387.68532,643.125 C 385.79369,643.28196 383.99831,643.4549 382.31032,643.625 C 382.81603,645.55447 384.76795,647.41022 387.68532,649 C 387.68532,647.04075 387.68532,645.08425 387.68532,643.125 z "
           style="fill:#ffffff;fill-opacity:1;fill-rule:evenodd;stroke:none;stroke-width:1px;stroke-linecap:butt;stroke-linejoin:miter;stroke-opacity:1;display:inline" />
      </g>
      <g
         style="display:inline"
         inkscape:label="Yeux"
         id="layer8">
        <path
           inkscape:export-ydpi="90"
           inkscape:export-xdpi="90"
           inkscape:export-filename="/home/aji/eap2.png"
           sodipodi:nodetypes="ccccccccccccsc"
           id="path2331"
           d="M 404.24782,619.0625 C 405.15053,619.06728 405.7258,619.91025 406.05937,620.64957 C 406.8562,622.47735 407.01034,624.51598 406.95178,626.4876 C 406.86803,628.08277 406.65773,629.72628 405.9125,631.16166 C 405.55002,631.83116 404.91517,632.56982 404.07108,632.45605 C 403.14723,632.28088 402.63698,631.3574 402.30067,630.5638 C 401.57673,628.65086 401.45512,626.56217 401.56978,624.53713 C 401.69622,622.97264 401.95474,621.35176 402.7963,619.99681 C 403.11585,619.49908 403.62415,619.05581 404.24782,619.0625 z M 404.24782,619.9375 C 403.71949,620.01923 403.46243,620.58068 403.24659,621.00899 C 401.7986,624.37344 405.0172,626.52762 405.66639,622.23132 C 405.44938,621.42474 405.16736,620.54819 404.48616,620.0134 C 404.41472,619.96907 404.33359,619.93707 404.24782,619.9375 z "
           style="opacity:1;color:#000000;fill:#000000;fill-opacity:1;fill-rule:nonzero;stroke:none;stroke-width:0.89188969;stroke-linecap:butt;stroke-linejoin:miter;marker:none;stroke-miterlimit:4;stroke-dasharray:none;stroke-dashoffset:0;stroke-opacity:1;visibility:visible;display:inline;overflow:visible" />
        <path
           inkscape:export-ydpi="90"
           inkscape:export-xdpi="90"
           inkscape:export-filename="/home/aji/eap2.png"
           sodipodi:nodetypes="ccccccccccccsc"
           id="path2333"
           d="M 428.99782,616.21875 C 429.82906,616.23314 430.38338,616.99242 430.68882,617.6847 C 431.40278,619.34407 431.48663,621.20009 431.34149,622.97843 C 431.21908,624.22611 430.9505,625.52803 430.17071,626.54233 C 429.76271,627.05429 429.00369,627.35804 428.39845,627.00333 C 427.58434,626.55462 427.22955,625.61711 426.97864,624.77311 C 426.50229,623.03386 426.49128,621.18636 426.78908,619.41534 C 426.97963,618.38962 427.30471,617.31012 428.08605,616.57552 C 428.34011,616.36257 428.66177,616.21558 428.99782,616.21875 z M 428.99782,617.09375 C 428.48457,617.19473 428.27458,617.74876 428.07764,618.17094 C 425.83227,621.8304 431.23311,622.57072 429.8334,617.97346 C 429.67002,617.62535 429.44945,617.23317 429.06597,617.10235 C 429.04325,617.09949 429.02054,617.09662 428.99782,617.09375 z "
           style="opacity:1;color:#000000;fill:#000000;fill-opacity:1;fill-rule:nonzero;stroke:none;stroke-width:0.89188969;stroke-linecap:butt;stroke-linejoin:miter;marker:none;stroke-miterlimit:4;stroke-dasharray:none;stroke-dashoffset:0;stroke-opacity:1;visibility:visible;display:inline;overflow:visible" />
      </g>
      <g
         style="opacity:1;display:inline"
         inkscape:label="Cheuveux_couleur"
         id="layer4">
        <path
           inkscape:export-ydpi="90"
           inkscape:export-xdpi="90"
           inkscape:export-filename="/home/aji/eap2.png"
           sodipodi:nodetypes="cccccccccccccccccccccccccccc"
           id="path5288"
           d="M 436.20318,567.36218 C 437.0945,569.28394 434.1856,569.77281 433.05871,571.12641 C 431.28448,572.51461 427.37099,574.53595 432.5962,574.56364 C 441.40535,576.75678 448.653,580.59146 455.59382,586.17468 C 452.49937,588.04983 446.58251,584.98437 442.45206,585.36821 C 435.82127,584.70435 429.13001,584.70824 422.49293,585.26843 C 426.94217,590.28062 427.45882,598.86885 426.86596,605.34362 C 423.87867,602.46269 421.82786,594.8611 417.31427,592.09095 C 414.86303,589.70261 412.4592,585.07699 411.0865,590.5709 C 407.463,596.70926 402.19736,603.71407 397.20648,608.65866 C 396.97568,603.41839 403.34269,595.23109 403.31048,588.79968 C 397.49998,595.12189 390.329,600.03475 382.52205,603.17468 C 382.25859,610.73819 385.87312,618.30364 389.78471,624.49099 C 384.59913,623.82207 379.20821,615.89656 375.05725,611.70593 C 375.16312,617.1801 376.79113,622.49864 379.04244,627.39343 C 372.46351,627.96502 366.60103,628.74899 360.46203,631.38962 C 359.286,641.91811 362.083,647.0338 362.58315,657.58029 C 360.96803,656.24867 356.61915,660.7673 355.01232,659.42468 C 355.01232,662.46635 358.10671,657.80359 358.10671,660.84526 C 348.8647,650.09318 336.53569,646.89171 329.66406,634.25156 C 328.37698,629.77376 326.14713,629.24784 323.08077,631.99813 C 321.19309,632.10377 325.78118,624.63481 326.32365,622.41585 C 328.83029,616.50995 332.12562,611.20587 334.42417,606.27742 C 332.37106,606.65344 331.39676,605.75048 329.3465,606.14343 C 337.21042,598.38202 343.32315,588.49594 352.12859,581.85483 C 363.0726,574.29309 377.12579,573.59589 389.84625,572.28851 C 400.36358,571.55038 410.97673,572.41101 421.40247,573.30135 C 426.33605,571.32163 431.26961,569.3419 436.20318,567.36218 z "
           style="fill:#c3ab2b;fill-opacity:1;fill-rule:evenodd;stroke:none;stroke-width:1px;stroke-linecap:butt;stroke-linejoin:miter;stroke-opacity:1;display:inline" />
      </g>
      <g
         style="display:inline"
         inkscape:label="Cheuveux_ombre"
         id="layer15">
        <path
           inkscape:export-ydpi="90"
           inkscape:export-xdpi="90"
           inkscape:export-filename="/home/aji/eap2.png"
           sodipodi:nodetypes="ccccccccccccccccccccccccccccccccsccccccsccccccccccccccc"
           id="path1430"
           d="M 435.59148,567.84375 C 436.47777,569.76551 433.57732,570.24015 432.45678,571.59375 C 430.69256,572.98196 426.81743,575.00356 432.01319,575.03125 C 440.77269,577.22437 447.97112,581.07303 454.87282,586.65625 C 451.79581,588.5314 445.90889,585.45991 441.80173,585.84375 C 435.20831,585.17988 428.55817,585.18981 421.9585,585.75 C 426.38266,590.76219 426.8952,599.33773 426.30568,605.8125 C 423.33523,602.93156 421.5376,594.83265 417.04945,592.0625 C 414.61203,589.67414 411.96759,585.56859 410.60262,591.0625 C 406.99954,597.20084 401.78453,604.18041 396.82179,609.125 C 396.59227,603.8847 402.9162,595.71266 402.88417,589.28125 C 397.10643,595.60346 389.97586,600.51632 382.21292,603.65625 C 381.95094,611.21976 385.53909,618.7814 389.42863,624.96875 C 384.27229,624.29986 378.91776,616.37813 374.79019,612.1875 C 374.89547,617.66167 376.5143,622.98021 378.75292,627.875 C 372.21107,628.44659 366.37443,629.23437 360.27004,631.875 C 359.10065,642.40346 363.41437,647.48639 363.9117,658.03288 C 362.30569,656.70126 356.45602,661.24887 354.85825,659.90625 C 354.85825,662.94792 358.99464,659.80079 358.99464,662.84246 C 349.80472,652.09038 336.49529,647.3589 329.66239,634.71875 C 328.38257,630.24093 326.14634,629.71846 323.09727,632.46875 C 321.22022,632.57441 325.78127,625.12521 326.32068,622.90625 C 328.81319,617.00037 332.10841,611.67845 334.394,606.75 C 332.35246,607.12604 331.37579,606.23205 329.33709,606.625 C 337.15668,598.86359 343.23391,588.98486 351.98971,582.34375 C 359.53092,577.1036 368.56094,575.22722 377.59959,574.09375 C 377.82595,574.00808 386.18161,573.12298 389.48778,572.78125 C 399.94584,572.04312 410.49734,572.89091 420.86432,573.78125 C 425.77008,571.80155 430.68572,569.82347 435.59148,567.84375 z M 429.02636,571.90625 C 425.31561,573.35381 423.8046,574.64756 420.07366,575.99625 C 405.8838,574.32088 401.02242,573.92764 386.57638,574.19783 C 375.22261,576.20441 370.10207,580.07914 363.68239,586.40837 C 351.18182,602.53035 353.51136,601.14594 364.91294,607.5625 C 368.79327,611.04289 370.27888,616.47884 371.50763,621.5 C 371.83324,623.02983 372.12082,624.56803 372.30609,626.125 C 373.36033,625.93873 374.39832,625.72827 375.49993,625.625 C 365.93969,609.1845 385.60078,617.41761 374.6719,605.21875 C 378.98266,600.17894 385.09666,592.68918 390.73141,588.73756 C 387.3973,593.81613 384.79545,596.641 381.02002,600.94228 C 389.81856,596.28408 398.28646,589.81591 404.87137,582.09943 C 404.75357,588.66154 406.58298,589.76964 403.91884,595.56554 C 409.27828,590.03833 408.47019,591.35239 412.02211,584.375 C 416.78652,589.31922 420.68292,590.24555 423.97617,596.45605 C 422.24044,591.40308 421.09642,587.01904 416.41725,582.88187 C 427.1905,581.67381 432.41924,581.21937 443.09535,583.0728 C 434.66013,577.916 433.54716,576.94482 423.76243,575.625 C 425.35098,573.93531 426.82991,573.40906 429.02636,571.90625 z M 368.66866,578.21875 C 366.404,578.84202 364.16361,579.54434 361.9261,580.34375 C 349.58304,585.06753 347.47079,592.16482 338.21378,601.2742 C 340.09675,600.93151 340.00917,601.91135 341.89423,601.5817 C 336.74111,610.10027 335.13368,614.19692 331.67847,623.66255 C 334.69545,638.04934 338.81749,624.96619 348.85501,607.375 C 345.38766,601.39408 354.71302,585.95986 368.66866,578.21875 z "
           style="fill:#887618;fill-opacity:1;fill-rule:evenodd;stroke:none;stroke-width:1px;stroke-linecap:butt;stroke-linejoin:miter;stroke-opacity:1;display:inline" />
        <path
           inkscape:export-ydpi="90"
           inkscape:export-xdpi="90"
           inkscape:export-filename="/home/aji/eap2.png"
           sodipodi:nodetypes="ccccc"
           id="path1344"
           d="M 389.96657,577.28125 C 395.45871,577.30859 400.92411,578.09734 406.27907,579.28125 C 406.21657,579.60417 399.73351,578.84334 393.40629,579.16847 C 392.70421,579.0725 376.95111,578.57802 378.88088,578.12329 C 380.57035,577.91896 388.26537,577.27868 389.96657,577.28125 z "
           style="fill:#51310d;fill-opacity:1;fill-rule:evenodd;stroke:none;stroke-width:1px;stroke-linecap:butt;stroke-linejoin:miter;stroke-opacity:1;display:inline" />
      </g>
      <g
         style="display:inline"
         inkscape:label="Cheveux"
         id="layer3">
        <path
           inkscape:export-ydpi="90"
           inkscape:export-xdpi="90"
           inkscape:export-filename="/home/aji/eap2.png"
           sodipodi:nodetypes="ccccccccccccccccccccccccccccccccccccccccccccccccc"
           id="path2258"
           d="M 439.1608,564.24582 C 440.05732,566.24435 435.68053,568.97396 434.54705,570.38163 C 432.76246,571.82529 430.22181,574.87279 435.47756,574.90158 C 444.33819,577.1823 453.35964,582.01456 456.71263,588.351 C 453.60009,590.30106 445.90529,587.59096 441.75069,587.99013 C 435.08116,587.29974 430.42157,586.26768 423.74571,586.85025 C 428.22095,592.06265 427.17899,601.86747 426.58267,608.60088 C 423.57793,605.60486 421.23141,596.24355 416.69144,593.36274 C 414.22588,590.87898 411.59892,586.97455 410.21821,592.68792 C 407.2697,599.90603 400.48209,607.13833 395.46206,612.28044 C 395.22989,606.83081 401.07469,598.59312 401.04227,591.9048 C 395.19784,598.47955 390.51558,601.51203 382.663,604.77738 C 382.39802,612.64302 386.69641,619.18984 390.63085,625.62435 C 385.41498,624.92874 379.85306,619.93866 375.67785,615.58063 C 375.78435,621.27347 377.89446,623.23236 380.15893,628.32268 C 373.54155,628.9171 363.08043,633.09194 356.90556,635.83805 C 356.08618,642.08198 372.58081,662.8542 360.55532,659.97966 C 357.17906,672.78498 335.14478,630.46163 321.52075,633.38405 C 322.62712,626.47135 326.48324,617.01142 329.53823,608.9247 C 327.47312,609.31575 325.12718,607.76366 323.06493,608.1723 C 330.9748,600.10086 342.02371,589.0668 350.8806,582.16041 C 361.88856,574.29657 376.01678,572.57552 388.81158,571.21592 C 399.39037,570.4483 408.74813,569.5868 419.2348,570.5127 C 424.19719,568.45391 434.19842,566.30462 439.1608,564.24582 z M 431.49888,569.84355 C 427.74529,571.34893 424.02522,573.02324 420.25121,574.4258 C 400.28321,572.00202 379.54815,572.04786 360.33343,579.10556 C 347.84787,584.01805 340.11235,596.34591 330.74846,605.81917 C 332.65315,605.46278 334.55521,605.08955 336.46205,604.74673 C 331.24944,613.60557 326.51352,622.57252 325.70085,629.31282 C 332.53397,634.51467 350.33511,652.10898 357.4021,659.71057 C 355.08266,648.23982 361.6455,662.56851 361.08795,654.82085 C 360.62108,645.29948 351.1833,643.13098 352.27059,633.63885 C 358.31701,630.97883 370.21577,627.6042 376.69388,626.97989 C 374.28121,621.31638 372.69001,615.84763 373.0768,609.55648 C 377.08447,614.60836 382.35225,619.06057 387.31336,623.0289 C 384.22591,617.45858 379.50947,611.30562 379.6878,604.74673 C 375.68299,606.1 372.33122,605.13836 372.33122,605.13836 C 376.69175,599.89723 381.94512,594.97943 387.64492,590.86995 C 383.23067,595.66639 379.11402,599.65451 375.295,604.12761 C 375.295,604.12761 380.90173,603.50883 385.61102,600.7285 C 385.61763,600.68621 397.49609,594.10687 403.64894,586.45019 C 403.52977,593.27441 401.46784,598.8168 398.77294,604.84423 C 404.19424,599.09619 408.31227,593.31631 411.9052,586.0602 C 416.72462,591.20191 422.80768,595.56241 425.09729,602.82933 C 425.57365,596.44282 424.32629,589.19269 419.59311,584.89026 C 430.49072,583.63395 441.51968,584.26273 452.31904,586.1902 C 443.78643,580.82739 434.72575,575.89584 424.82806,574.5233 C 427.03017,572.92779 429.27708,571.40639 431.49888,569.84355 z "
           style="fill:#56311b;fill-opacity:1;fill-rule:evenodd;stroke:none;stroke-width:1px;stroke-linecap:butt;stroke-linejoin:miter;stroke-opacity:1" />
        <path
           inkscape:export-ydpi="90"
           inkscape:export-xdpi="90"
           inkscape:export-filename="/home/aji/eap2.png"
           sodipodi:nodetypes="ccccc"
           id="path1407"
           d="M 389.96657,577.28125 C 395.45871,577.30859 400.92411,578.09734 406.27907,579.28125 C 406.21657,579.60417 401.51671,578.03679 395.18949,578.36192 C 394.48741,578.26595 384.90734,577.83865 384.87282,577.5625 C 386.56229,577.35817 388.26537,577.27868 389.96657,577.28125 z "
           style="fill:#56311b;fill-opacity:1;fill-rule:evenodd;stroke:none;stroke-width:1px;stroke-linecap:butt;stroke-linejoin:miter;stroke-opacity:1" />
      </g>
      <g
         style="display:inline"
         inkscape:label="Casque_couleur"
         id="layer10">
        <path
           inkscape:export-ydpi="90"
           inkscape:export-xdpi="90"
           inkscape:export-filename="/home/aji/eap2.png"
           sodipodi:nodetypes="ccccccccccccccccc"
           id="path5313"
           d="M 350.21657,602.875 C 349.15562,602.94941 348.19045,603.30929 347.21657,603.625 C 347.51316,606.31376 347.88105,608.99012 348.09157,611.6875 C 351.45711,611.75342 354.58623,613.05727 355.81032,616.15625 C 357.58853,620.43615 358.4996,626.10484 358.46657,630.6875 C 358.19888,635.82647 355.53856,641.64695 350.93532,644.46875 C 347.81805,646.52624 343.66064,645.31098 341.18532,642.8125 C 337.79097,639.66021 336.38925,634.27626 337.06032,629.8125 C 337.75654,624.61468 339.13779,621.02538 342.46657,615.5 C 342.10166,612.82551 341.45337,610.24744 340.65407,607.6875 C 339.11549,609.15798 337.70586,610.74428 336.52907,612.4375 C 333.27704,617.29687 331.44168,624.07214 330.56032,629.875 C 330.30353,635.82664 332.46827,640.43286 336.65407,644.5625 C 341.56146,649.13128 348.83214,649.99583 355.34157,648.78125 C 362.23914,646.97453 366.01915,642.27634 368.02907,635.5 C 369.49213,627.91223 368.07501,619.48926 364.43532,612.78125 C 361.55351,607.61421 356.60751,602.52923 350.21657,602.875 z "
           style="fill:#999999;fill-opacity:1;fill-rule:evenodd;stroke:none;stroke-width:1px;stroke-linecap:butt;stroke-linejoin:miter;stroke-opacity:1;display:inline" />
        <path
           inkscape:export-ydpi="90"
           inkscape:export-xdpi="90"
           inkscape:export-filename="/home/aji/eap2.png"
           sodipodi:nodetypes="cccccccccccc"
           id="path5315"
           d="M 348.15407,612.71875 C 348.56136,618.21118 348.86653,623.7166 348.96657,629.21875 C 349.08218,631.65273 349.22579,634.617 346.12282,635.09375 C 344.49732,636.04105 340.83778,635.64234 342.40407,633 C 343.13796,627.76913 343.16566,622.35792 342.59157,617.03125 C 342.49164,617.2019 342.34406,617.36684 342.24782,617.53125 C 339.71705,622.55547 338.155,628.19502 338.21657,633.84375 C 338.38368,638.53328 341.5006,643.49584 346.31032,644.46875 C 349.95692,645.10331 352.97297,642.10129 354.52907,639.125 C 357.46554,633.57237 356.94193,626.99746 355.81032,621.03125 C 355.11317,617.67458 353.40115,613.87102 349.77907,612.9375 C 349.25389,612.79105 348.69711,612.76455 348.15407,612.71875 z "
           style="fill:#ffffff;fill-opacity:1;fill-rule:evenodd;stroke:none;stroke-width:1px;stroke-linecap:butt;stroke-linejoin:miter;stroke-opacity:1;display:inline" />
        <path
           inkscape:export-ydpi="90"
           inkscape:export-xdpi="90"
           inkscape:export-filename="/home/aji/eap2.png"
           sodipodi:nodetypes="cccccc"
           id="path5322"
           d="M 442.18532,599.7332 C 444.76438,607.63726 446.41989,615.93737 446.0706,624.28473 C 446.15805,625.04095 445.71864,626.78464 446.0766,626.89385 C 448.34553,624.89342 450.1235,622.24609 450.68005,619.23685 C 451.37238,615.94845 451.65724,612.47638 450.87642,609.17827 C 449.6096,604.90277 446.10495,601.64645 442.18532,599.7332 z "
           style="fill:#999999;fill-opacity:1;fill-rule:evenodd;stroke:none;stroke-width:1px;stroke-linecap:butt;stroke-linejoin:miter;stroke-opacity:1;display:inline" />
      </g>
      <g
         style="display:inline"
         inkscape:label="casque_ombre_2"
         id="layer12">
        <path
           inkscape:export-ydpi="90"
           inkscape:export-xdpi="90"
           inkscape:export-filename="/home/aji/eap2.png"
           sodipodi:nodetypes="cccccccccccccccccccc"
           id="path1342"
           d="M 348.09157,611.6875 C 351.45711,611.75342 354.58623,613.05727 355.81032,616.15625 C 357.58853,620.43615 358.4996,626.10484 358.46657,630.6875 C 358.19888,635.82647 355.53856,641.64695 350.93532,644.46875 C 347.81805,646.52624 343.66064,645.31098 341.18532,642.8125 C 337.79097,639.66021 336.38925,634.27626 337.06032,629.8125 C 337.75654,624.61468 339.13779,621.02538 342.46657,615.5 C 342.10166,612.82551 347.88105,608.99012 348.09157,611.6875 z M 348.15407,612.71875 C 348.56136,618.21118 348.86653,623.7166 348.96657,629.21875 C 349.08218,631.65273 348.69008,635.15271 345.58711,635.62946 C 343.96161,636.57676 341.01635,635.99948 342.58264,633.35714 C 343.31653,628.12627 342.62995,623.60792 342.05586,618.28125 C 343.02735,616.30904 341.4512,618.08113 341.35496,618.24554 C 338.82419,623.26976 339.04785,628.01645 339.10942,633.66518 C 339.81225,638.35471 341.32203,642.42441 346.13175,643.39732 C 349.77835,644.03188 352.7944,641.387 354.3505,638.41071 C 357.28697,632.85808 356.94193,626.99746 355.81032,621.03125 C 355.11317,617.67458 353.40115,613.87102 349.77907,612.9375 C 349.25389,612.79105 348.69711,612.76455 348.15407,612.71875 z "
           style="fill:#bfbfbf;fill-opacity:1;fill-rule:evenodd;stroke:none;stroke-width:1px;stroke-linecap:butt;stroke-linejoin:miter;stroke-opacity:1;display:inline" />
      </g>
      <g
         style="display:inline"
         inkscape:label="Casque_ombres"
         id="layer7">
        <path
           inkscape:export-ydpi="90"
           inkscape:export-xdpi="90"
           inkscape:export-filename="/home/aji/eap2.png"
           sodipodi:nodetypes="cccccccccccccccccccccssscccccccccccccc"
           id="path1339"
           d="M 347.06032,602.46875 C 348.06783,602.15692 349.09927,601.92698 350.15407,601.875 C 356.19292,601.53174 361.28718,605.84821 364.34157,610.6875 C 368.24649,616.91719 370.37233,624.38413 369.96657,631.75 C 369.58891,639.19391 365.391,646.78963 358.27907,649.6875 C 352.64054,651.97003 346.0759,651.15259 340.68532,648.5625 C 333.91513,645.16685 329.41454,637.86836 328.90407,630.375 C 328.81064,626.32443 330.36747,622.44081 331.87282,618.75 C 333.91366,614.26234 336.64414,609.85123 340.34157,606.53125 C 343.8075,603.99113 343.60176,604.15526 347.06032,602.46875 z M 348.96657,603.05357 C 347.90562,603.12798 348.59534,609.16869 348.80586,611.86607 C 352.1714,611.93199 354.58623,613.05727 355.81032,616.15625 C 357.58853,620.43615 358.4996,626.10484 358.46657,630.6875 C 358.19888,635.82647 354.82427,642.71838 350.22103,645.54018 C 347.10376,647.59767 342.76779,645.13241 340.29247,642.63393 C 336.89812,639.48164 335.85354,634.27626 336.52461,629.8125 C 337.22083,624.61468 338.4235,621.56109 341.75228,616.03571 C 341.38737,613.36122 341.2748,611.31887 340.4755,608.75893 C 338.93692,610.22941 337.70586,610.74428 336.52907,612.4375 C 333.27704,617.29687 332.33454,622.28642 331.45318,628.08928 C 331.19639,634.04092 334.18651,639.99869 338.08264,643.13393 C 342.24131,646.48042 343.70736,647.3789 350.34157,646.99554 C 357.45539,646.58446 359.15282,643.63099 363.56478,637.64286 C 367.13718,632.79423 367.00358,620.20355 364.43532,612.78125 C 361.55351,607.61421 355.35751,602.7078 348.96657,603.05357 z M 348.51121,612.54018 C 348.9185,618.03261 348.86653,623.7166 348.96657,629.21875 C 349.08218,631.65273 349.04722,634.43843 345.94425,634.91518 C 344.31875,635.86248 340.83778,635.64234 342.40407,633 C 343.13796,627.76913 343.16566,622.35792 342.59157,617.03125 C 342.49164,617.2019 342.34406,617.36684 342.24782,617.53125 C 339.71705,622.55547 338.155,628.19502 338.21657,633.84375 C 338.38368,638.53328 341.5006,643.49584 346.31032,644.46875 C 349.95692,645.10331 352.97297,642.10129 354.52907,639.125 C 357.46554,633.57237 356.94193,626.99746 355.81032,621.03125 C 355.11317,617.67458 353.40115,613.87102 349.77907,612.9375 C 349.25389,612.79105 349.05425,612.58598 348.51121,612.54018 z "
           style="fill:#737373;fill-opacity:1;fill-rule:evenodd;stroke:none;stroke-width:1px;stroke-linecap:butt;stroke-linejoin:miter;stroke-opacity:1;display:inline" />
        <path
           inkscape:export-ydpi="90"
           inkscape:export-xdpi="90"
           inkscape:export-filename="/home/aji/eap2.png"
           sodipodi:nodetypes="ccccccccccc"
           id="path1346"
           d="M 441.52612,597.60193 C 445.5694,599.24016 448.55894,601.547 450.83632,605.31395 C 452.27434,607.60857 453.49341,611.91477 453.40283,614.58457 C 453.27434,617.85439 452.15185,621.41595 450.59669,624.35151 C 449.21643,626.75295 447.59399,628.94594 445.35998,630.56943 C 445.71582,611.62245 443.43395,604.53945 441.52612,597.60193 z M 442.18532,599.7332 C 444.76438,607.63726 447.66989,613.61594 447.3206,621.9633 C 447.40805,622.71952 450.1235,622.24609 450.68005,619.23685 C 451.37238,615.94845 451.65724,612.47638 450.87642,609.17827 C 449.6096,604.90277 446.10495,601.64645 442.18532,599.7332 z "
           style="fill:#737373;fill-opacity:1;fill-rule:evenodd;stroke:none;stroke-width:1px;stroke-linecap:butt;stroke-linejoin:miter;stroke-opacity:1;display:inline" />
      </g>
      <g
         style="display:inline"
         inkscape:label="Casque"
         id="layer18">
        <path
           inkscape:export-ydpi="90"
           inkscape:export-xdpi="90"
           inkscape:export-filename="/home/aji/eap2.png"
           sodipodi:nodetypes="cccccccccccccccccccccscccccccccccccccccccccccccccc"
           id="path5291"
           d="M 398.49782,556.25 C 402.76362,556.22479 406.95542,556.72272 411.06032,557.5625 C 413.01204,556.64561 416.99752,560.83932 414.06032,561.15625 C 414.4474,564.31681 416.18347,562.79049 416.37282,570.96875 L 409.83976,570.49274 C 409.59491,567.42213 408.5987,568.63798 406.94439,564.26633 C 398.8415,565.33473 365.5744,569.63808 357.84157,572.28669 C 352.40204,574.36713 348.55194,576.65564 345.81213,581.67439 C 346.41352,585.31948 345.94997,597.54812 346.37282,601.21875 C 347.38032,600.90693 349.03677,600.73948 350.09157,600.6875 C 356.13042,600.34424 362.00593,603.44196 365.06032,608.28125 C 368.96523,614.51092 371.09108,623.91538 370.68532,631.28125 C 370.30765,638.72514 365.79725,647.38338 358.68532,650.28125 C 353.04678,652.56376 345.5759,651.93384 340.18532,649.34375 C 333.41513,645.94809 327.69579,638.46211 327.18532,630.96875 C 327.0919,626.91816 328.86747,621.75331 330.37282,618.0625 C 332.41367,613.57482 336.45664,608.03873 340.15407,604.71875 C 338.97715,601.28577 337.52412,587.45956 335.40407,584.4375 C 333.96714,581.468 332.88678,577.35811 334.43532,574.375 C 348.235,560.99741 385.70043,556.32564 398.49782,556.25 z M 351.24782,602.5625 C 350.85983,602.54299 350.45975,602.54089 350.06032,602.5625 C 348.99937,602.63691 348.0342,602.99679 347.06032,603.3125 C 347.35691,606.00126 347.7248,608.67762 347.93532,611.375 C 351.30086,611.44092 354.42998,612.74477 355.65407,615.84375 C 357.43228,620.12365 358.34335,625.79234 358.31032,630.375 C 358.04263,635.51397 355.38231,641.33445 350.77907,644.15625 C 347.6618,646.21374 343.50439,644.99848 341.02907,642.5 C 337.63472,639.34771 336.233,633.96376 336.90407,629.5 C 337.60029,624.30218 338.98154,620.71288 342.31032,615.1875 C 341.94541,612.51301 341.29712,609.93494 340.49782,607.375 C 338.95924,608.84548 337.54961,610.43178 336.37282,612.125 C 333.12079,616.98437 331.28543,623.75964 330.40407,629.5625 C 330.14728,635.51414 332.31202,640.12036 336.49782,644.25 C 341.40521,648.81878 348.67589,649.68333 355.18532,648.46875 C 362.08289,646.66203 365.8629,641.96384 367.87282,635.1875 C 369.33588,627.59973 367.91876,619.17676 364.27907,612.46875 C 361.57737,607.62465 357.06773,602.85517 351.24782,602.5625 z M 347.99782,612.40625 C 348.40511,617.89868 348.71028,623.4041 348.81032,628.90625 C 348.92593,631.34023 349.06954,634.3045 345.96657,634.78125 C 344.34107,635.72855 340.68153,635.32984 342.24782,632.6875 C 342.98171,627.45663 343.00941,622.04542 342.43532,616.71875 C 342.33539,616.8894 342.18781,617.05434 342.09157,617.21875 C 339.5608,622.24297 337.99875,627.88252 338.06032,633.53125 C 338.22743,638.22078 341.34435,643.18334 346.15407,644.15625 C 349.80067,644.79081 352.81672,641.78879 354.37282,638.8125 C 357.30929,633.25987 356.78568,626.68496 355.65407,620.71875 C 354.95692,617.36208 353.2449,613.55852 349.62282,612.625 C 349.09764,612.47855 348.54086,612.45205 347.99782,612.40625 z "
           style="fill:#00004b;fill-opacity:1;fill-rule:evenodd;stroke:none;stroke-width:1px;stroke-linecap:butt;stroke-linejoin:miter;stroke-opacity:1;display:inline" />
        <path
           inkscape:export-ydpi="90"
           inkscape:export-xdpi="90"
           inkscape:export-filename="/home/aji/eap2.png"
           sodipodi:nodetypes="cccccccc"
           id="path5317"
           d="M 441.05198,596.91876 C 445.09526,598.55697 447.87669,598.2018 450.15407,601.96875 C 457.20905,612.87058 455.34187,625.66914 445.02581,632.67994 L 445.47091,627.52691 C 447.73985,625.52647 450.12877,622.25924 450.68532,619.25 C 451.37766,615.96157 451.65364,612.48561 450.87282,609.1875 C 449.606,604.91199 446.11603,601.93125 442.1964,600.018 L 441.05198,596.91876 z "
           style="fill:#00004b;fill-opacity:1;fill-rule:evenodd;stroke:none;stroke-width:1px;stroke-linecap:butt;stroke-linejoin:miter;stroke-opacity:1;display:inline" />
      </g>
      <g
         style="display:inline"
         inkscape:label="Note"
         id="layer11" />
    </g>
  </g>
</svg>
