<?xml version="1.0" encoding="UTF-8" standalone="no"?>
<svg width="432" height="219" viewBox="1 0 26 13">
<rect style="fill: #ffffff" x="4" y="1.75" width="20.15" height="9.85"/><rect style="fill: none; stroke-width: 0.1; stroke: #000000" x="4" y="1.75" width="20.15" height="9.85"/><rect style="fill: #ffffff" x="11.2375" y="5.49375" width="5.5946" height="2.53603"/><rect style="fill: none; stroke-width: 0.1; stroke: #000000" x="11.2375" y="5.49375" width="5.5946" height="2.53603"/><line style="fill: none; stroke-width: 0.1; stroke: #000000" x1="14.0687" y1="0.8125" x2="14.0687" y2="11.8125"/><line style="fill: none; stroke-width: 0.1; stroke: #000000" x1="3.5875" y1="6.7438" x2="24.5334" y2="6.73578"/><text style="fill: #000000; text-align: left; font-size: 1" x="4.3" y="2.8">0.0</text><text style="fill: #000000; text-align: left; font-size: 1" x="22.95" y="2.6">1.0</text><text style="fill: #000000; text-align: left; font-size: 1" x="24.65" y="6.975">1.0 (+)</text><text style="fill: #000000; text-align: left; font-size: 1" x="1.575" y="6.925">0.0 (-)</text><text style="fill: #000000; text-align: left; font-size: 1" x="12.8" y="0.8">0.0 (-)</text><text style="fill: #000000; text-align: left; font-size: 1" x="12.85" y="12.55">1.0 (+)</text><line style="fill: none; stroke-width: 0.1; stroke: #ff0000" x1="21.7446" y1="2.68231" x2="5.925" y2="2.6875"/><polyline style="fill: #ff0000" points="21.7447,2.93231 22.5446,2.68205 21.7445,2.43231 "/><text style="fill: #ff0000; text-align: center; font-size: 1" x="14.2347" y="2.38478"></text><text style="fill: #000000; text-align: left; font-size: 1" x="4.3" y="11.15">1.0</text><text style="fill: #000000; text-align: left; font-size: 1" x="22.85" y="11.2">1.0</text><line style="fill: none; stroke-width: 0.1; stroke: #ff0000" x1="5.12252" y1="9.4141" x2="5.12666" y2="3.29847"/><polyline style="fill: #ff0000" points="4.87252,9.41393 5.12198,10.2141 5.37252,9.41427 "/><text style="fill: #ff0000; text-align: center; font-size: 1" x="5.42432" y="6.75649"></text><line style="fill: none; stroke-width: 0.1; stroke: #ff0000" x1="10.4961" y1="5.19332" x2="5.7" y2="3.25"/><polyline style="fill: #ff0000" points="10.4022,5.42502 11.2375,5.49375 10.5899,4.96162 "/><text style="fill: #ff0000; text-align: center; font-size: 1" x="8.58141" y="4.09383"></text><line style="fill: none; stroke-width: 0.1; stroke: #ff0000" x1="17.5628" y1="8.3554" x2="22.6" y2="10.6"/><polyline style="fill: #ff0000" points="17.6646,8.12705 16.8321,8.02978 17.4611,8.58375 "/><text style="fill: #ff0000; text-align: center; font-size: 1" x="19.594" y="9.58889"></text><text style="fill: #000000; text-align: left; font-size: 1" x="11.35" y="6.0375">0.0</text><text style="fill: #000000; text-align: left; font-size: 1" x="15.8375" y="7.8875">1.0</text><text style="fill: #000000; text-align: left; font-size: 1" x="11.2375" y="5.36875">REL1</text><text style="fill: #000000; text-align: left; font-size: 1" x="15.525" y="8.55">REL2</text></svg>
