/* XPM */
static char * icon_xpm[] = {
"16 16 5 1",
" 	c None",
".	c #000000",
"+	c #FFCCCC",
"@	c #CC9999",
"#	c #996666",
"                ",
"                ",
" ..........     ",
" ..++++++++.    ",
" .@.++++++++.   ",
" .@@.++++++++.  ",
" .@@@.......... ",
" .@@@.########. ",
" .@@@.########. ",
" .@@@.########. ",
" .@@@.########. ",
"  .@@.########. ",
"   .@.########. ",
"    ..########. ",
"     .......... ",
"                "};
