/* XPM */
static char * image_xpm[] = {
"16 16 9 1",
" 	c None",
".	c #000000",
"+	c #006633",
"@	c #99CCCC",
"#	c #CC6666",
"$	c #999999",
"%	c #663300",
"&	c #0066CC",
"*	c #33CC66",
"................",
".+++++.@@@@@@.@.",
".++++++.@@@@.#..",
".+++++++.@@.###.",
".+++++++.@.####.",
".++++++.@.#####.",
"..+++..@........",
".@...@@@@@.$$$$.",
".@.%.@@@@@.$....",
".@.%.@@@@@.$.&&.",
"...%.......$.&&.",
".*.%.*****.$....",
".*...*****.$$$$.",
".*********......",
".**************.",
"................"};
