/* XPM */
static char * raise_xpm[] = {
"16 16 6 1",
" 	c None",
".	c #000000",
"+	c #FFFFFF",
"@	c #CCCCCC",
"#	c #999999",
"$	c #666666",
"        .       ",
"       .+.      ",
"      .+++.     ",
"     .+++++.    ",
"    .+++++++.   ",
"   .+++++++++.  ",
"   ....+++....  ",
"      .+++.     ",
"      .+++.     ",
"      .....     ",
"      .@@@.     ",
"      .....     ",
"      .###.     ",
"      .....     ",
"      .$$$.     ",
"      .....     "};
