/* XPM */
static char * reset_xpm[] = {
"16 16 6 1",
" 	c None",
".	c #000000",
"+	c #666666",
"@	c #999999",
"#	c #FFFFFF",
"$	c #CCCCCC",
"                ",
"                ",
"  ............  ",
"  .+++++++++..  ",
"  .+@@@@@@@@+.  ",
" ..+@@@@@@@.+.  ",
"  .+@@@@@@@@+.  ",
". .+@@@@@@.@+.  ",
"..........@@+.  ",
".########.@@+.  ",
".#$$$$$$#.@@+.  ",
".#$$$$$$#.@@+.  ",
".#$$$$$$#.+++.  ",
".########.....  ",
".......... .    ",
"                "};
