/* XPM */
static char * va_xpm[] = {
"96 96 9 1",
" 	c None",
".	c #050608",
"+	c #FEFEFC",
"@	c #6D84A6",
"#	c #4A6694",
"$	c #41597D",
"%	c #E3E7EE",
"&	c #2F3D53",
"*	c #B0BCCE",
"                                          .............                                         ",
"                                   ..........................                                   ",
"                               ..................................                               ",
"                            ........................................                            ",
"                         ..............................................                         ",
"                       ..................................................                       ",
"                     ..........................................*%$.........                     ",
"                   ...........................................*+++$..........                   ",
"                 ............................................$+++++&...........                 ",
"                ..................................&&&$$######%+++++%............                ",
"              ...............................&&$############@+++++++*$&&..........              ",
"             ............................&$#################%++++++++@###&&........             ",
"            ..........................&$###################@+++++++++%#####$&.......            ",
"           ........................&$######################*++++++++++*######$&.......          ",
"         &.......................&#########################++++++++++++@#######$......&         ",
"         ......................&##########################*++++++++++++*#########&.....&        ",
"        .....................&############################%+++++++++++++@#########&.....        ",
"       ....................&#############################@++++++++++++++*##########&.....       ",
"      ...................&$##############################%+++++++++++++++@##########&.....      ",
"     ...................&###############################@++++++++++++++++*###########......     ",
"     .................&$################################*+++++++++++++++++@##########&.....     ",
"    .................&#################################@++++++++++++++++++*###########......    ",
"   .................$##################################*+++++++++++++++++++###########&......   ",
"   ................$##################################@++++++++++++++++++++*###########......   ",
"  ................$###################################*+++++++++%%%++++++++%###########&......  ",
"  ...............$###################################@+++++++%@####@*%++++++@##########&......  ",
"  ..............$####################################*+++++%@###@@####*+++++*##########$......  ",
" ..............$####################################@+++++*###*%+++*###@%++++##########$....... ",
" .............$#####################################%+++%@###*++++++%####%+++*#########$....... ",
" ............&#####################################*+++%####@++++++++*####*++%#########$....... ",
" ...........&#####################################@+++*#####*++++++++%#####%++#########$........",
"............$#####################################*++@######*+++++++++######%+@########&........",
"...........&#####################################@+%@#######*++++++++%######@%*########&........",
"...........#####################################@%%@########@++++++++*#######@%########.........",
"..........&#####################################%%@##########*++++++%#########*#######$.........",
"..........##################@*%%*@#############*%#############*++++%@#################&.........",
".........&#######@#########*++++++@###########@+@###############@@@###################..........",
".........$#######%@#######@++++++++##########*+*#####################################&..........",
".........########*%#######*++++++++*########*+%######################################...........",
"........&########@+*######%++++++++*#######*++@#####################################&...........",
" .......&########@++*#####%++++++++*#####@%++*#####################################$............",
" .......&#########%++*####*++++++++*####@%++%######################################............ ",
" .......&#########*+++*###@+++++++%####*++++@#####################################&............ ",
" .......&#########@++++*###@+++++%@##@%++++*#####################################&............. ",
"  ......&##########%++++%@###****###*++++++#####################################$.............. ",
"  ......&##########@++++++*#######@%++++++*####################################$..............  ",
"  .......###########++++++++%*@@*%+++++++%####################################$...............  ",
"   ......###########*++++++++++++++++++++*###################################$...............   ",
"   ......&##########@+++++++++++++++++++%###################################&................   ",
"    ......###########*++++++++++++++++++*##################################&................    ",
"    ......$##########@+++++++++++++++++%#################################$..................    ",
"     ......###########%++++++++++++++++*################################&..................     ",
"      .....&##########@++++++++++++++++###############################$&..................      ",
"       .....&##########%++++++++++++++*##############################&....................      ",
"       ......$#########@++++++++++++++@############################$.....................       ",
"        ......&#########%++++++++++++%###########################$......................        ",
"         ......&########@++++++++++++@#########################$.......................         ",
"          .......$#######*++++++++++%########################&........................          ",
"           .......&$#####@++++++++++*#####################$&.........................           ",
"            &.......&$####*+++++++++###################$&...........................            ",
"              .........&$##%+++++++*###############$&&............................              ",
"               ...........&$+++++++@##########$&&................................               ",
"                 ...........#+++++*&&&&&&&&.....................................                ",
"                  ...........*++++&...........................................                  ",
"                    ..........*++#..........................................                    ",
"                      .........&&.........................................                      ",
"                        ................................................                        ",
"                           ..........................................                           ",
"                              ....................................                              ",
"                                 ..............................                                 ",
"                                       ...................                                      ",
"                                                                                                ",
"                                                                                                ",
"                                                                                                ",
"                                                                                                ",
"                                                                                                ",
"                 ...    ..   ...        &.&     ..  ...   ..  ..   ..& ...  ..&                 ",
"                 ...   ...  &....       ...     .   ...   ..  ..   ...  .. ...                  ",
"                  ..   ...  ..&..       ...     @@  ....  ..  ..   ...  .....                   ",
"                  ...  ..   .. ..       ...    @##  ....& ..  ..   ...   ....                   ",
"                   .. ...  .......      ...    @##  .. ..&..  ..   ...   ....                   ",
"                   ..&..   .......      ...    @##  .. .....  ..   ...  .....                   ",
"                   .....  ...   ...     ...... @##  ..  ....  ...&...& &.. ...                  ",
"                    ...   ..    &..     .......@##  ..  &...   ......  ..&  ...                 ",
"                                                                                                ",
"                                          &&                                                    ",
"                                        &.                                                      ",
"                                        .&          &.  ..   ..     .   .   ..                  ",
"                                         .    .  &&&.   .&  .  .  .& ..  . ..                   ",
"                                          .&  .  .  .   &   .  &. .  ..  .  .                   ",
"                                           .  .  .   .  &  &.     .  &&  .   .                  ",
"                                            .  ..     . &   .     .  &&  .    .                 ",
"                                        &...   ..  &&.. ..& ..&.  .  &.  . &&..                 ",
"                                               .&                                               ",
"                                               .                                                ",
"                                             &.                                                 "};
