<?xml version="1.0" encoding="UTF-8" standalone="no"?>
<!-- Created with Inkscape (http://www.inkscape.org/) -->
<svg
   xmlns:dc="http://purl.org/dc/elements/1.1/"
   xmlns:cc="http://creativecommons.org/ns#"
   xmlns:rdf="http://www.w3.org/1999/02/22-rdf-syntax-ns#"
   xmlns:svg="http://www.w3.org/2000/svg"
   xmlns="http://www.w3.org/2000/svg"
   xmlns:sodipodi="http://sodipodi.sourceforge.net/DTD/sodipodi-0.dtd"
   xmlns:inkscape="http://www.inkscape.org/namespaces/inkscape"
   width="744.09448819"
   height="1052.3622047"
   id="svg2"
   sodipodi:version="0.32"
   inkscape:version="0.46"
   sodipodi:docname="rel1rel2-b.svg"
   inkscape:output_extension="org.inkscape.output.svg.inkscape">
  <defs
     id="defs4">
    <inkscape:perspective
       sodipodi:type="inkscape:persp3d"
       inkscape:vp_x="0 : 526.18109 : 1"
       inkscape:vp_y="0 : 1000 : 0"
       inkscape:vp_z="744.09448 : 526.18109 : 1"
       inkscape:persp3d-origin="372.04724 : 350.78739 : 1"
       id="perspective10" />
  </defs>
  <sodipodi:namedview
     id="base"
     pagecolor="#ffffff"
     bordercolor="#666666"
     borderopacity="1.0"
     gridtolerance="10000"
     guidetolerance="10"
     objecttolerance="10"
     inkscape:pageopacity="0.0"
     inkscape:pageshadow="2"
     inkscape:zoom="0.98994949"
     inkscape:cx="438.7618"
     inkscape:cy="580.95044"
     inkscape:document-units="px"
     inkscape:current-layer="layer1"
     showgrid="false"
     showguides="true"
     inkscape:window-width="1240"
     inkscape:window-height="773"
     inkscape:window-x="0"
     inkscape:window-y="0"
     inkscape:guide-bbox="true">
    <inkscape:grid
       type="xygrid"
       id="grid2385" />
  </sodipodi:namedview>
  <metadata
     id="metadata7">
    <rdf:RDF>
      <cc:Work
         rdf:about="">
        <dc:format>image/svg+xml</dc:format>
        <dc:type
           rdf:resource="http://purl.org/dc/dcmitype/StillImage" />
      </cc:Work>
    </rdf:RDF>
  </metadata>
  <g
     inkscape:label="Layer 1"
     inkscape:groupmode="layer"
     id="layer1">
    <rect
       style="fill:#00ffff;fill-rule:evenodd;stroke:#000000;stroke-width:0.43921185px;stroke-linecap:butt;stroke-linejoin:miter;stroke-opacity:1"
       id="rect2383"
       width="144.00247"
       height="285.8125"
       x="146.19173"
       y="277.2948"
       rx="1.1999594"
       ry="0" />
    <rect
       style="fill:#ff2a2a"
       id="rect2391"
       width="108.65918"
       height="120.36768"
       x="410.15231"
       y="443.18414"
       rx="3.8221793"
       ry="0" />
    <path
       sodipodi:type="arc"
       style="fill:#000000"
       id="path2395"
       sodipodi:cx="47.5"
       sodipodi:cy="335.57648"
       sodipodi:rx="3.2142856"
       sodipodi:ry="3.2142856"
       d="M 50.714286,335.57648 A 3.2142856,3.2142856 0 1 1 44.285714,335.57648 A 3.2142856,3.2142856 0 1 1 50.714286,335.57648 z"
       transform="matrix(1.7071068,0,0,-1.7071068,65.261258,990.88008)" />
    <path
       sodipodi:type="arc"
       style="fill:#d400aa"
       id="path2397"
       sodipodi:cx="47.5"
       sodipodi:cy="335.57648"
       sodipodi:rx="3.2142856"
       sodipodi:ry="3.2142856"
       d="M 50.714286,335.57648 A 3.2142856,3.2142856 0 1 1 44.285714,335.57648 A 3.2142856,3.2142856 0 1 1 50.714286,335.57648 z"
       transform="matrix(1.7071068,0,0,1.7071068,64.947438,-128.88287)" />
    <g
       id="g2409"
       transform="matrix(1.6370714,0,0,1.6370714,7.6438453,-199.42757)">
      <path
         transform="translate(37.3954,129.43365)"
         d="M 50.714286,335.57648 A 3.2142856,3.2142856 0 1 1 44.285714,335.57648 A 3.2142856,3.2142856 0 1 1 50.714286,335.57648 z"
         sodipodi:ry="3.2142856"
         sodipodi:rx="3.2142856"
         sodipodi:cy="335.57648"
         sodipodi:cx="47.5"
         id="path2411"
         style="fill:#000000"
         sodipodi:type="arc" />
      <path
         sodipodi:open="true"
         sodipodi:end="3.1415927"
         sodipodi:start="0"
         transform="translate(37.39006,129.45199)"
         d="M 50.714286,335.57648 A 3.2142856,3.2142856 0 1 1 44.285714,335.57648"
         sodipodi:ry="3.2142856"
         sodipodi:rx="3.2142856"
         sodipodi:cy="335.57648"
         sodipodi:cx="47.5"
         id="path2413"
         style="fill:#d400aa"
         sodipodi:type="arc" />
    </g>
    <path
       sodipodi:type="arc"
       style="fill:#00d400"
       id="path2421"
       sodipodi:cx="47.5"
       sodipodi:cy="335.57648"
       sodipodi:rx="3.2142856"
       sodipodi:ry="3.2142856"
       d="M 50.714286,335.57648 A 3.2142856,3.2142856 0 1 1 44.285714,335.57648 A 3.2142856,3.2142856 0 1 1 50.714286,335.57648 z"
       transform="matrix(2.8182179,0,0,-2.8182179,276.00353,1389.4563)" />
    <path
       sodipodi:type="arc"
       style="fill:#00d400"
       id="path2423"
       sodipodi:cx="47.5"
       sodipodi:cy="335.57648"
       sodipodi:rx="3.2142856"
       sodipodi:ry="3.2142856"
       d="M 50.714286,335.57648 A 3.2142856,3.2142856 0 1 1 44.285714,335.57648 A 3.2142856,3.2142856 0 1 1 50.714286,335.57648 z"
       transform="matrix(2.8182179,0,0,-2.8182179,384.16459,1506.473)" />
    <text
       xml:space="preserve"
       style="font-size:36px;font-style:normal;font-variant:normal;font-weight:normal;font-stretch:normal;text-align:start;line-height:100%;writing-mode:lr-tb;text-anchor:start;fill:#000000;fill-opacity:1;stroke:none;stroke-width:1px;stroke-linecap:butt;stroke-linejoin:miter;stroke-opacity:1;font-family:Eurostile LT Std;-inkscape-font-specification:Eurostile LT Std"
       x="382.40652"
       y="428.30148"
       id="text2425"
       sodipodi:linespacing="100%"><tspan
         sodipodi:role="line"
         id="tspan2427"
         x="382.40652"
         y="428.30148">rel1</tspan></text>
    <text
       xml:space="preserve"
       style="font-size:36px;font-style:normal;font-variant:normal;font-weight:normal;font-stretch:normal;text-align:start;line-height:100%;writing-mode:lr-tb;text-anchor:start;fill:#000000;fill-opacity:1;stroke:none;stroke-width:1px;stroke-linecap:butt;stroke-linejoin:miter;stroke-opacity:1;font-family:Eurostile LT Std;-inkscape-font-specification:Eurostile LT Std"
       x="480.37924"
       y="600.68701"
       id="text2429"
       sodipodi:linespacing="100%"><tspan
         sodipodi:role="line"
         id="tspan2431"
         x="480.37924"
         y="600.68701">rel2</tspan></text>
    <path
       sodipodi:type="arc"
       style="fill:#ffcc00"
       id="path2433"
       sodipodi:cx="47.5"
       sodipodi:cy="335.57648"
       sodipodi:rx="3.2142856"
       sodipodi:ry="3.2142856"
       d="M 50.714286,335.57648 A 3.2142856,3.2142856 0 1 1 44.285714,335.57648 A 3.2142856,3.2142856 0 1 1 50.714286,335.57648 z"
       transform="matrix(2.8182179,0,0,-2.8182179,14.637586,1222.5064)" />
    <text
       xml:space="preserve"
       style="font-size:24px;font-style:normal;font-variant:normal;font-weight:normal;font-stretch:normal;text-align:start;line-height:100%;writing-mode:lr-tb;text-anchor:start;fill:#000000;fill-opacity:1;stroke:none;stroke-width:1px;stroke-linecap:butt;stroke-linejoin:miter;stroke-opacity:1;font-family:Eurostile LT Std;-inkscape-font-specification:Eurostile LT Std"
       x="42.134403"
       y="266.22318"
       id="text2435"
       sodipodi:linespacing="100%"><tspan
         sodipodi:role="line"
         id="tspan2437"
         x="42.134403"
         y="266.22318">&quot;origin Y&quot;</tspan></text>
    <path
       style="fill:#e39380;fill-opacity:1;fill-rule:evenodd;stroke:#f8ef66;stroke-width:1.99378049px;stroke-linecap:butt;stroke-linejoin:miter;stroke-opacity:1"
       d="M 438.05891,275.39345 L 410.11258,275.39345"
       id="path2445"
       sodipodi:nodetypes="cc" />
    <path
       style="fill:#000000;fill-rule:evenodd;stroke:#000000;stroke-width:2.06200695px;stroke-linecap:butt;stroke-linejoin:miter;stroke-opacity:1"
       d="M 440.45717,275.41179 L 557.96685,275.41179"
       id="path2439"
       sodipodi:nodetypes="cc" />
    <path
       style="fill:#f8ef66;fill-opacity:1;stroke:none;stroke-opacity:1"
       d="M 413.55402,275.2941 C 413.55402,269.41731 413.54597,267.8963 413.51518,267.94984 C 413.49381,267.987 412.51931,269.64884 411.34962,271.64275 C 409.80704,274.27232 409.23946,275.29517 409.28323,275.36663 C 409.31641,275.42085 410.26644,277.0652 411.39441,279.02076 C 412.52237,280.97632 413.46973,282.60547 413.49964,282.6411 C 413.55096,282.70223 413.55402,282.28892 413.55402,275.2941 z"
       id="path3227" />
    <text
       xml:space="preserve"
       style="font-size:16px;font-style:normal;font-variant:normal;font-weight:normal;font-stretch:normal;text-align:start;line-height:125%;writing-mode:lr-tb;text-anchor:start;fill:#000000;fill-opacity:1;stroke:none;stroke-width:1px;stroke-linecap:butt;stroke-linejoin:miter;stroke-opacity:1;font-family:Bitstream Vera Sans;-inkscape-font-specification:Bitstream Vera Sans"
       x="395.64429"
       y="309.52795"
       id="text3229"
       sodipodi:linespacing="125%"><tspan
         sodipodi:role="line"
         id="tspan3231"
         x="395.64429"
         y="309.52795">-1.0, -20</tspan></text>
    <path
       style="fill:#000000"
       d="M 440.51533,275.10763 C 440.51533,269.23084 440.50729,267.70983 440.47649,267.76337 C 440.45512,267.80053 439.48062,269.46237 438.31093,271.45628 C 436.76835,274.08585 436.20078,275.1087 436.24454,275.18016 C 436.27772,275.23438 437.22775,276.87873 438.35572,278.83429 C 439.48368,280.78985 440.43104,282.419 440.46095,282.45463 C 440.51227,282.51576 440.51533,282.10246 440.51533,275.10763 z"
       id="path3750" />
    <text
       xml:space="preserve"
       style="font-size:16px;font-style:normal;font-variant:normal;font-weight:normal;font-stretch:normal;text-align:start;line-height:125%;writing-mode:lr-tb;text-anchor:start;fill:#000000;fill-opacity:1;stroke:none;stroke-width:1px;stroke-linecap:butt;stroke-linejoin:miter;stroke-opacity:1;font-family:Bitstream Vera Sans;-inkscape-font-specification:Bitstream Vera Sans"
       x="487.6954"
       y="309.3891"
       id="text3752"
       sodipodi:linespacing="125%"><tspan
         sodipodi:role="line"
         id="tspan3754"
         x="487.6954"
         y="309.3891">0.0, -20</tspan></text>
    <path
       style="fill:none;fill-rule:evenodd;stroke:#000000;stroke-width:2.04399991;stroke-linecap:butt;stroke-linejoin:miter;marker-end:none;stroke-miterlimit:4;stroke-dasharray:none;stroke-opacity:1"
       d="M 119.93678,277.67756 L 119.93678,557.54555"
       id="path3756"
       sodipodi:nodetypes="cc" />
    <path
       style="fill:#000000"
       d="M 119.98897,556.32768 C 125.86576,556.32768 127.38677,556.33572 127.33323,556.36652 C 127.29607,556.38789 125.63423,557.36239 123.64032,558.53208 C 121.01075,560.07466 119.9879,560.64223 119.91644,560.59847 C 119.86222,560.56529 118.21787,559.61526 116.26231,558.48729 C 114.30675,557.35933 112.6776,556.41197 112.64197,556.38206 C 112.58084,556.33074 112.99414,556.32768 119.98897,556.32768 z"
       id="path3758" />
    <path
       style="fill:none;fill-rule:evenodd;stroke:#000000;stroke-width:2.04399991;stroke-linecap:butt;stroke-linejoin:miter;marker-end:none;stroke-miterlimit:4;stroke-dasharray:none;stroke-opacity:1"
       d="M 131.82278,277.44984 L 131.82278,417.76933"
       id="path3760"
       sodipodi:nodetypes="cc" />
    <path
       style="fill:#e39380;fill-opacity:1;fill-rule:evenodd;stroke:#f8ef66;stroke-width:1.99378049px;stroke-linecap:butt;stroke-linejoin:miter;stroke-opacity:1"
       d="M 131.82183,415.2574 L 131.82183,443.75739"
       id="path3804"
       sodipodi:nodetypes="cc" />
    <path
       style="fill:#000000"
       d="M 131.97957,414.58845 C 137.85636,414.58845 139.37737,414.59649 139.32383,414.62729 C 139.28667,414.64866 137.62483,415.62316 135.63092,416.79285 C 133.00135,418.33543 131.9785,418.903 131.90704,418.85924 C 131.85282,418.82606 130.20847,417.87603 128.25291,416.74806 C 126.29735,415.6201 124.6682,414.67274 124.63257,414.64283 C 124.57144,414.59151 124.98474,414.58845 131.97957,414.58845 z"
       id="path3762" />
    <text
       xml:space="preserve"
       style="font-size:16px;font-style:normal;font-variant:normal;font-weight:normal;font-stretch:normal;text-align:start;line-height:125%;writing-mode:lr-tb;text-anchor:start;fill:#000000;fill-opacity:1;stroke:none;stroke-width:1px;stroke-linecap:butt;stroke-linejoin:miter;stroke-opacity:1;font-family:Bitstream Vera Sans;-inkscape-font-specification:Bitstream Vera Sans"
       x="153.33197"
       y="449.80496"
       id="text3764"
       sodipodi:linespacing="125%"><tspan
         sodipodi:role="line"
         id="tspan3766"
         x="153.33197"
         y="449.80496">0.5, 12</tspan></text>
    <text
       xml:space="preserve"
       style="font-size:16px;font-style:normal;font-variant:normal;font-weight:normal;font-stretch:normal;text-align:start;line-height:125%;writing-mode:lr-tb;text-anchor:start;fill:#000000;fill-opacity:1;stroke:none;stroke-width:1px;stroke-linecap:butt;stroke-linejoin:miter;stroke-opacity:1;font-family:Bitstream Vera Sans;-inkscape-font-specification:Bitstream Vera Sans"
       x="148.92329"
       y="555.1875"
       id="text3768"
       sodipodi:linespacing="125%"><tspan
         sodipodi:role="line"
         id="tspan3770"
         x="148.92329"
         y="555.1875">1.0, -1</tspan></text>
    <path
       style="fill:none;fill-rule:evenodd;stroke:#f20000;stroke-width:1;stroke-linecap:butt;stroke-linejoin:miter;stroke-miterlimit:4;stroke-dasharray:8, 1;stroke-dashoffset:0;stroke-opacity:1"
       d="M 410.64101,317.11812 L 410.64101,401.86431"
       id="path3772"
       sodipodi:nodetypes="cc" />
    <path
       style="fill:none;fill-rule:evenodd;stroke:#f20000;stroke-width:1;stroke-linecap:butt;stroke-linejoin:miter;stroke-miterlimit:4;stroke-dasharray:8, 1;stroke-dashoffset:0;stroke-opacity:1"
       d="M 518.2197,317.36833 L 518.2197,436.65406"
       id="path3774"
       sodipodi:nodetypes="cc" />
    <path
       style="fill:none;fill-rule:evenodd;stroke:#ff0000;stroke-width:1;stroke-linecap:butt;stroke-linejoin:miter;stroke-miterlimit:4;stroke-dasharray:8, 1;stroke-dashoffset:0;stroke-opacity:1"
       d="M 395.31075,444.33788 L 211.72084,444.33788"
       id="path3776"
       sodipodi:nodetypes="cc" />
    <path
       style="fill:none;fill-rule:evenodd;stroke:#ff0000;stroke-width:1;stroke-linecap:butt;stroke-linejoin:miter;stroke-miterlimit:4;stroke-dasharray:8, 1;stroke-dashoffset:0;stroke-opacity:1"
       d="M 404.09881,563.10493 L 155.85914,563.10493"
       id="path3778"
       sodipodi:nodetypes="cc" />
    <rect
       style="fill:#0040ff;fill-opacity:1;fill-rule:evenodd;stroke:#000000;stroke-width:0.24655798px;stroke-linecap:butt;stroke-linejoin:miter;stroke-opacity:1"
       id="rect3800"
       width="114.9007"
       height="112.88039"
       x="557.88049"
       y="289.38159"
       rx="0.95745701"
       ry="0" />
    <path
       sodipodi:type="arc"
       style="fill:#ffcc00"
       id="path3802"
       sodipodi:cx="47.5"
       sodipodi:cy="335.57648"
       sodipodi:rx="3.2142856"
       sodipodi:ry="3.2142856"
       d="M 50.714286,335.57648 A 3.2142856,3.2142856 0 1 1 44.285714,335.57648 A 3.2142856,3.2142856 0 1 1 50.714286,335.57648 z"
       transform="matrix(2.8182179,0,0,-2.8182179,425.25396,1236.6)" />
    <path
       style="fill:#f8ef66;fill-opacity:1;stroke:none;stroke-opacity:1"
       d="M 132.03023,440.88301 C 137.90702,440.88301 139.42803,440.89106 139.37449,440.92185 C 139.33733,440.94322 137.67549,441.91772 135.68158,443.08741 C 133.05201,444.62999 132.02916,445.19757 131.9577,445.1538 C 131.90348,445.12062 130.25913,444.17059 128.30357,443.04262 C 126.34801,441.91466 124.71886,440.9673 124.68323,440.93739 C 124.6221,440.88607 125.03541,440.88301 132.03023,440.88301 z"
       id="path3808" />
    <path
       sodipodi:type="arc"
       style="fill:#d400aa"
       id="path3810"
       sodipodi:cx="47.5"
       sodipodi:cy="335.57648"
       sodipodi:rx="3.2142856"
       sodipodi:ry="3.2142856"
       d="M 50.714286,335.57648 A 3.2142856,3.2142856 0 1 1 44.285714,335.57648 A 3.2142856,3.2142856 0 1 1 50.714286,335.57648 z"
       transform="matrix(1.7071068,0,0,1.7071068,329.53945,-284.17803)" />
    <path
       sodipodi:type="arc"
       style="fill:#000000"
       id="path3812"
       sodipodi:cx="47.5"
       sodipodi:cy="335.57648"
       sodipodi:rx="3.2142856"
       sodipodi:ry="3.2142856"
       d="M 50.714286,335.57648 A 3.2142856,3.2142856 0 1 1 44.285714,335.57648 A 3.2142856,3.2142856 0 1 1 50.714286,335.57648 z"
       transform="matrix(1.7071068,0,0,-1.7071068,355.39025,861.55174)" />
    <path
       style="fill:#e39380;fill-opacity:1;fill-rule:evenodd;stroke:#f8ef66;stroke-width:1.99378049px;stroke-linecap:butt;stroke-linejoin:miter;stroke-opacity:1"
       d="M 557.60154,265.24544 L 521.09693,265.24544"
       id="path3814"
       sodipodi:nodetypes="cc" />
    <path
       style="fill:#f8ef66;fill-opacity:1;stroke:none;stroke-opacity:1"
       d="M 522.92379,265.16403 C 522.92379,259.28724 522.91574,257.76623 522.88495,257.81977 C 522.86358,257.85693 521.88908,259.51877 520.71939,261.51268 C 519.17681,264.14225 518.60923,265.1651 518.653,265.23656 C 518.68618,265.29078 519.63621,266.93513 520.76418,268.89069 C 521.89214,270.84625 522.8395,272.4754 522.86941,272.51103 C 522.92073,272.57216 522.92379,272.15885 522.92379,265.16403 z"
       id="path3818" />
    <path
       sodipodi:type="arc"
       style="fill:#d400aa"
       id="path3822"
       sodipodi:cx="47.5"
       sodipodi:cy="335.57648"
       sodipodi:rx="3.2142856"
       sodipodi:ry="3.2142856"
       d="M 50.714286,335.57648 A 3.2142856,3.2142856 0 1 1 44.285714,335.57648 A 3.2142856,3.2142856 0 1 1 50.714286,335.57648 z"
       transform="matrix(1.7071068,0,0,1.7071068,437.60936,-284.3771)" />
    <text
       xml:space="preserve"
       style="font-size:24px;font-style:normal;font-variant:normal;font-weight:normal;font-stretch:normal;text-align:start;line-height:100%;writing-mode:lr-tb;text-anchor:start;fill:#000000;fill-opacity:1;stroke:none;stroke-width:1px;stroke-linecap:butt;stroke-linejoin:miter;stroke-opacity:1;font-family:Eurostile LT Std;-inkscape-font-specification:Eurostile LT Std"
       x="566.82056"
       y="274.414"
       id="text3824"
       sodipodi:linespacing="100%"><tspan
         sodipodi:role="line"
         id="tspan3826"
         x="566.82056"
         y="274.414">&quot;origin X&quot;</tspan></text>
    <path
       sodipodi:type="arc"
       style="fill:#000000"
       id="path3834"
       sodipodi:cx="47.5"
       sodipodi:cy="335.57648"
       sodipodi:rx="3.2142856"
       sodipodi:ry="3.2142856"
       d="M 50.714286,335.57648 A 3.2142856,3.2142856 0 1 1 44.285714,335.57648 A 3.2142856,3.2142856 0 1 1 50.714286,335.57648 z"
       transform="matrix(1.7071068,0,0,-1.7071068,478.13276,863.51937)" />
  </g>
</svg>
