/* XPM */
static char * bg_bordered_xpm[] = {
"62 17 350 2",
"  	c None",
". 	c #5B68B1",
"+ 	c #4A5398",
"@ 	c #485297",
"# 	c #475196",
"$ 	c #454F94",
"% 	c #444E93",
"& 	c #424D91",
"* 	c #414B90",
"= 	c #3F4A8E",
"- 	c #3E498D",
"; 	c #3F4A8C",
"> 	c #414C8D",
", 	c #444F8E",
"' 	c #485390",
") 	c #4E5993",
"! 	c #545F96",
"~ 	c #5B659A",
"{ 	c #626C9D",
"] 	c #6872A0",
"^ 	c #6D76A3",
"/ 	c #7079A5",
"( 	c #717AA6",
"_ 	c #707AA5",
": 	c #6E78A4",
"< 	c #6973A0",
"[ 	c #636E9C",
"} 	c #5C6796",
"| 	c #545F91",
"1 	c #4C578B",
"2 	c #444F85",
"3 	c #3C477F",
"4 	c #354179",
"5 	c #303C74",
"6 	c #2C386F",
"7 	c #29356B",
"8 	c #263269",
"9 	c #253167",
"0 	c #242F65",
"a 	c #232F64",
"b 	c #232E64",
"c 	c #232E65",
"d 	c #232F66",
"e 	c #242F66",
"f 	c #242F67",
"g 	c #253068",
"h 	c #253069",
"i 	c #26316A",
"j 	c #26326C",
"k 	c #27326D",
"l 	c #28336E",
"m 	c #28346F",
"n 	c #293471",
"o 	c #293472",
"p 	c #2A3572",
"q 	c #2A3573",
"r 	c #2A3673",
"s 	c #2B3674",
"t 	c #2B3775",
"u 	c #383F8D",
"v 	c #7D8ACA",
"w 	c #222658",
"x 	c #232759",
"y 	c #23275C",
"z 	c #24285E",
"A 	c #25295F",
"B 	c #252960",
"C 	c #262A62",
"D 	c #262A63",
"E 	c #262B64",
"F 	c #272B64",
"G 	c #272C65",
"H 	c #282C66",
"I 	c #282C67",
"J 	c #282D68",
"K 	c #292D68",
"L 	c #292E69",
"M 	c #292E6A",
"N 	c #292E6B",
"O 	c #292E6C",
"P 	c #2A2F6C",
"Q 	c #2A2F6D",
"R 	c #2A306D",
"S 	c #2B306E",
"T 	c #2B306F",
"U 	c #2C306F",
"V 	c #2C3070",
"W 	c #2C3170",
"X 	c #2C3171",
"Y 	c #2D3273",
"Z 	c #2E3376",
"` 	c #30367C",
" .	c #333981",
"..	c #9FA6C9",
"+.	c #7A86C7",
"@.	c #222657",
"#.	c #232659",
"$.	c #24285D",
"%.	c #272B65",
"&.	c #272B66",
"*.	c #292D6A",
"=.	c #2A2E6A",
"-.	c #2A2E6B",
";.	c #2A2E6C",
">.	c #2B2F6E",
",.	c #2B3070",
"'.	c #2C3071",
").	c #2C3172",
"!.	c #2D3274",
"~.	c #2D3275",
"{.	c #2E3375",
"].	c #2D3374",
"^.	c #2E3477",
"/.	c #30357B",
"(.	c #32377F",
"_.	c #343A85",
":.	c #A4ABCD",
"<.	c #7683C2",
"[.	c #222557",
"}.	c #24275B",
"|.	c #282C68",
"1.	c #292D69",
"2.	c #2C3272",
"3.	c #2D3375",
"4.	c #2E3377",
"5.	c #2F3377",
"6.	c #2F3478",
"7.	c #303579",
"8.	c #303478",
"9.	c #30357A",
"0.	c #323780",
"a.	c #343A84",
"b.	c #363C8A",
"c.	c #A5ACD0",
"d.	c #707EBD",
"e.	c #2B2E6D",
"f.	c #2B2F6F",
"g.	c #2D3172",
"h.	c #2D3173",
"i.	c #2D3376",
"j.	c #2E3478",
"k.	c #2F3479",
"l.	c #2F357A",
"m.	c #30367D",
"n.	c #31367D",
"o.	c #31377D",
"p.	c #31377E",
"q.	c #31367E",
"r.	c #323881",
"s.	c #363C89",
"t.	c #383E8E",
"u.	c #A8B0D4",
"v.	c #6D7AB9",
"w.	c #222659",
"x.	c #25285E",
"y.	c #272B63",
"z.	c #2E3274",
"A.	c #2E3275",
"B.	c #2E3378",
"C.	c #2F347A",
"D.	c #30357C",
"E.	c #31377F",
"F.	c #323781",
"G.	c #333882",
"H.	c #323880",
"I.	c #333881",
"J.	c #343984",
"K.	c #353B88",
"L.	c #373D8C",
"M.	c #383F90",
"N.	c #ABB2D6",
"O.	c #6875B4",
"P.	c #2E3276",
"Q.	c #333983",
"R.	c #353B89",
"S.	c #373D8D",
"T.	c #383F91",
"U.	c #AFB6D9",
"V.	c #6471B0",
"W.	c #25285D",
"X.	c #2F3378",
"Y.	c #30347A",
"Z.	c #343985",
"`.	c #353C89",
" +	c #383E91",
".+	c #B3BADB",
"++	c #616EAC",
"@+	c #212656",
"#+	c #24285C",
"$+	c #282D67",
"%+	c #2B3071",
"&+	c #2C3173",
"*+	c #2D3276",
"=+	c #30347B",
"-+	c #30357D",
";+	c #31367F",
">+	c #313780",
",+	c #363B88",
"'+	c #373C8C",
")+	c #383E90",
"!+	c #B7BEDE",
"~+	c #5D6AA9",
"{+	c #212556",
"]+	c #23285B",
"^+	c #252A61",
"/+	c #272C66",
"(+	c #2D3174",
"_+	c #2F3379",
":+	c #353A87",
"<+	c #363C8B",
"[+	c #383D8F",
"}+	c #BBC2E2",
"|+	c #5A67A6",
"1+	c #212555",
"2+	c #23275B",
"3+	c #2A2F6B",
"4+	c #2B2F6D",
"5+	c #303479",
"6+	c #31357C",
"7+	c #31367C",
"8+	c #32367E",
"9+	c #32367F",
"0+	c #353A86",
"a+	c #373B8A",
"b+	c #383D8E",
"c+	c #BFC6E4",
"d+	c #5764A2",
"e+	c #262961",
"f+	c #2F357B",
"g+	c #30367E",
"h+	c #333780",
"i+	c #333781",
"j+	c #333883",
"k+	c #343A86",
"l+	c #363B8A",
"m+	c #C3C9E7",
"n+	c #5461A0",
"o+	c #24275C",
"p+	c #262A61",
"q+	c #2E3273",
"r+	c #2E3374",
"s+	c #2F3376",
"t+	c #2F3477",
"u+	c #353B87",
"v+	c #383D8D",
"w+	c #C7CDEA",
"x+	c #515E9D",
"y+	c #24295E",
"z+	c #31357D",
"A+	c #323782",
"B+	c #323882",
"C+	c #343983",
"D+	c #333985",
"E+	c #363B89",
"F+	c #CBD0ED",
"G+	c #4F5C9B",
"H+	c #23275A",
"I+	c #2E3476",
"J+	c #343884",
"K+	c #353985",
"L+	c #353986",
"M+	c #363A88",
"N+	c #373C8D",
"O+	c #CED3F0",
"P+	c #4C5998",
"Q+	c #292D62",
"R+	c #2A2F67",
"S+	c #2C316C",
"T+	c #2E326F",
"U+	c #2F3471",
"V+	c #2F3572",
"W+	c #303574",
"X+	c #303675",
"Y+	c #313676",
"Z+	c #323676",
"`+	c #323778",
" @	c #323878",
".@	c #333878",
"+@	c #333979",
"@@	c #343A7A",
"#@	c #353A7B",
"$@	c #353A7C",
"%@	c #353B7D",
"&@	c #363B7E",
"*@	c #363B7F",
"=@	c #363C7F",
"-@	c #363C80",
";@	c #373C80",
">@	c #373C81",
",@	c #373C82",
"'@	c #373D82",
")@	c #373C83",
"!@	c #373C84",
"~@	c #363C84",
"{@	c #363C85",
"]@	c #353B85",
"^@	c #363B85",
"/@	c #353B86",
"(@	c #CED3F2",
"_@	c #333A71",
":@	c #7E88C0",
"<@	c #7883C0",
"[@	c #7B86C1",
"}@	c #7E89C3",
"|@	c #808AC4",
"1@	c #828EC4",
"2@	c #8490C6",
"3@	c #8792C7",
"4@	c #8A95C7",
"5@	c #8C97C8",
"6@	c #909BC9",
"7@	c #919CCA",
"8@	c #95A0CA",
"9@	c #99A5CA",
"0@	c #9DA8CB",
"a@	c #A0A9CC",
"b@	c #A2A9CC",
"c@	c #A2A9CD",
"d@	c #A2AACD",
"e@	c #A3AACE",
"f@	c #A3ABCE",
"g@	c #A0A9CE",
"h@	c #9BA6CE",
"i@	c #95A1CF",
"j@	c #8E9ACF",
"k@	c #8A96D0",
"l@	c #838ECB",
"m@	c #7B86C6",
"n@	c #7381C2",
"o@	c #6D7CBE",
"p@	c #6876BB",
"q@	c #6372B9",
"r@	c #6371B8",
"s@	c #606EB7",
"t@	c #5D6BB6",
"u@	c #5C6AB5",
"v@	c #5A69B5",
"w@	c #5A67B6",
"x@	c #5A68B6",
"y@	c #5967B7",
"z@	c #5A67B7",
"A@	c #5C69B8",
"B@	c #5E6BB9",
"C@	c #626FBB",
"D@	c #6875BE",
"E@	c #6B78BF",
"F@	c #727DC2",
"G@	c #7883C7",
"H@	c #7C86C9",
"I@	c #979EE0",
". + @ # $ % & * = - ; > , ' ) ! ~ { ] ^ / ( _ : < [ } | 1 2 3 4 5 6 7 8 9 0 a a b b b c d e f g h i j k l m n o p q r s t u ",
"v w x y z A B C D E F G H I J J K L M M N O P P Q R S S T U V W W W W W W W W W X X X X W W W W W W W X X X X W X Y Z `  ...",
"+.@.#.$.B C D %.&.I I J K *.=.-.;.;.Q >.S T ,.,.'.X X ).).Y Y !.!.!.!.~.~.~.{.{.{.{.{.{.{.{.{.{.].!.!.!.!.!.!.!.~.^./.(._.:.",
"<.[.}.A D %.I |.1.1.=.;.;.Q >.S T V X ).).2.Y !.].3.{.Z Z 4.4.5.6.6.6.6.6.6.6.6.6.6.7.7.7.8.8.6.6.6.6.6.6.6.6.6.9./.0.a.b.c.",
"d.w $.C H J M ;.e.Q f.V '.'.).g.h.!.~.i.Z 4.j.6.k.k.l.l././.` ` m.m.m.n.n.n.n.o.o.o.o.p.p.p.o.n.o.o.o.o.q.n.n.n.p.r.a.s.t.u.",
"v.w.x.y.J -.P >.U V '.g.h.!.z.A.Z 4.B.6.k.C.l./.D.D.m.n.q.q.p.E.E.0.0.0.F.r.r.r.r.r.r.r.G.G.H.r.r.r.r.r.I.r.r.r.G.J.K.L.M.N.",
"O.w x.F J ;.Q f.T ,.X ).h.~.~.P.Z 4.B.6.k.C.9./.D.D.m.n.q.q.E.E.(.0.0.0.F.r.r.r.r.r.r.G.G.I.G.G.G.G.G.r.G.G.r.G.Q._.R.S.T.U.",
"V.@.W.y.J N P >.T V X ).h.!.~.P.4.4.B.X.k.C.Y./.D.D.n.n.q.q.p.(.(.0.0.0.r.r.r.r.r.I.I.G.G.G.G.G.G.G.G.G.G.I.I.I.G.Z.`.S. +.+",
"++@+#+C $+L -.Q >.T ,.%+X &+&+!.~.*+4.4.B.X.k.C.C.=+/.D.D.-+n.q.q.;+E.E.>+>+0.0.0.F.F.F.F.r.r.r.r.r.r.r.r.F.F.r.G.J.,+'+)+!+",
"~+{+]+^+/+1.M ;.P Q >.T ,.'.).).h.(+~.~.P.4.4.B._+k.C.C.=+/.D.D.D.-+m.n.q.q.q.;+;+;+;+;+E.E.E.0.0.0.0.0.0.0.(.I.I.Q.:+<+[+}+",
"|+1+2+B %.J 1.3+3+P 4+S T V W X g.!.!.A.{.Z 4.5.6.6.k.5+Y.9././.D.6+7+n.n.n.n.q.q.q.q.8+9+(.(.(.(.(.(.(.(.0.(.0.0.Q.0+a+b+c+",
"d+1+2+e+%.J 1.N -.P Q >.T ,.,.X ).&+(+!.3.i.Z 4.j.j.k.k.l.l.f+/.D.` ` m.m.m.g+q.q.q.q.E.E.E.E.E.E.E.E.E.h+h+h+h+i+j+k+l+S.m+",
"n+{+o+p+H 1.M 3+Q Q S U W X g.Y Y q+r+{.{.s+t+t+k.5+Y.9././.6+6+n.n.n.q.8+8+9+(.(.(.0.0.0.0.0.0.h+h+I.I.I.I.I.I.G.Z.u+<+v+w+",
"x+w y+y.|.M P 4+S T U W X Y Y !.z.{.Z 4.5.6.k.k.Y././.D.D.z+n.q.q.;+0.0.0.F.F.F.F.A+A+B+B+j+j+j+Q.Q.Q.Q.C+Q.Q.D+Z.:+E+'+[+F+",
"G+H+^+G *.;.>.T ,.X ).Y !.3.3.Z I+^.6.6.l.l./.D.` m.n.q.q.E.E.>+h+i+I.I.G.G.G.j+J+J+J+J.Z.Z.Z.Z.Z.Z.Z.K+K+L+L+L+:+M+<+N+[+O+",
"P+Q+R+S+T+U+V+W+X+Y+Z+`+ @.@+@@@#@$@%@&@&@*@=@-@;@>@,@'@)@)@!@!@~@{@]@]@]@^@/@0+/@/@:+:+:+:+:+:+M+K.K.K.:+:+u+K.R.b.'+S.b+(@",
"_@:@<@[@}@|@1@2@3@4@5@6@7@8@9@0@a@b@c@d@d@c@d@d@e@f@f@g@h@i@j@k@l@m@n@o@p@q@r@s@t@u@v@v@v@v@w@v@x@x@w@y@z@A@B@C@D@E@F@G@H@I@"};
