/* XPM */
static char * bg_panel_xpm[] = {
"62 17 238 2",
"  	c None",
". 	c #343A86",
"+ 	c #363B89",
"@ 	c #363C8A",
"# 	c #363C8B",
"$ 	c #363C8C",
"% 	c #373D8D",
"& 	c #373D8E",
"* 	c #383E8F",
"= 	c #383E90",
"- 	c #393F92",
"; 	c #393F93",
"> 	c #3A4094",
", 	c #3A4095",
"' 	c #3A4196",
") 	c #3C4197",
"! 	c #3C4298",
"~ 	c #3C4299",
"{ 	c #3D439A",
"] 	c #3D439B",
"^ 	c #3D439C",
"/ 	c #3E459D",
"( 	c #3E459E",
"_ 	c #3F469F",
": 	c #3F46A0",
"< 	c #3F46A1",
"[ 	c #4047A2",
"} 	c #4047A3",
"| 	c #4047A4",
"1 	c #4048A4",
"2 	c #4148A5",
"3 	c #3F47A1",
"4 	c #3F45A0",
"5 	c #3D449B",
"6 	c #3B4297",
"7 	c #393F91",
"8 	c #353A86",
"9 	c #363B8A",
"0 	c #3B4096",
"a 	c #3B4197",
"b 	c #3C4399",
"c 	c #3D449C",
"d 	c #3E449D",
"e 	c #3E459F",
"f 	c #4047A1",
"g 	c #3D459E",
"h 	c #3A4093",
"i 	c #383E8D",
"j 	c #353B87",
"k 	c #343985",
"l 	c #353A87",
"m 	c #343A87",
"n 	c #343986",
"o 	c #353A88",
"p 	c #353B8A",
"q 	c #373C8D",
"r 	c #383D8E",
"s 	c #393E91",
"t 	c #3A4195",
"u 	c #3B4196",
"v 	c #3B4298",
"w 	c #3C439A",
"x 	c #3C439B",
"y 	c #3D449D",
"z 	c #3A3F93",
"A 	c #323880",
"B 	c #333882",
"C 	c #333984",
"D 	c #333883",
"E 	c #323882",
"F 	c #323781",
"G 	c #323881",
"H 	c #333881",
"I 	c #343984",
"J 	c #343A85",
"K 	c #353B89",
"L 	c #353C8A",
"M 	c #383E91",
"N 	c #3C4297",
"O 	c #3B4195",
"P 	c #373D8C",
"Q 	c #31377E",
"R 	c #303479",
"S 	c #32377F",
"T 	c #323780",
"U 	c #31377F",
"V 	c #31367D",
"W 	c #30357C",
"X 	c #30357B",
"Y 	c #30367D",
"Z 	c #31367E",
"` 	c #333983",
" .	c #333985",
"..	c #373C8C",
"+.	c #393E90",
"@.	c #393F90",
"#.	c #2F3478",
"$.	c #2D3273",
"%.	c #30367C",
"&.	c #2F357A",
"*.	c #2E3376",
"=.	c #2E3275",
"-.	c #2E3375",
";.	c #2E3477",
">.	c #2F3479",
",.	c #30357A",
"'.	c #353B88",
").	c #373C8B",
"!.	c #2B2F6E",
"~.	c #2E3377",
"{.	c #2E3274",
"].	c #2C3171",
"^.	c #2C3172",
"/.	c #2D3172",
"(.	c #2D3274",
"_.	c #2F347A",
":.	c #2B306F",
"<.	c #292E6A",
"[.	c #2C3070",
"}.	c #2B306E",
"|.	c #2C3173",
"1.	c #2D3174",
"2.	c #2D3275",
"3.	c #2E3276",
"4.	c #2F3378",
"5.	c #30347A",
"6.	c #31357D",
"7.	c #2B2F6D",
"8.	c #282D68",
"9.	c #2D3375",
"0.	c #2A2F6C",
"a.	c #2A2F6D",
"b.	c #2B3070",
"c.	c #2B3071",
"d.	c #2D3276",
"e.	c #2E3378",
"f.	c #30347B",
"g.	c #30357D",
"h.	c #31367F",
"i.	c #313780",
"j.	c #2B2F6C",
"k.	c #282C66",
"l.	c #2D3173",
"m.	c #2C3170",
"n.	c #2A2E6B",
"o.	c #292E6B",
"p.	c #2C3071",
"q.	c #32367E",
"r.	c #272C65",
"s.	c #2A306E",
"t.	c #292D69",
"u.	c #2C306F",
"v.	c #31357C",
"w.	c #31367C",
"x.	c #292D68",
"y.	c #272B64",
"z.	c #282D67",
"A.	c #292E69",
"B.	c #2B2F6F",
"C.	c #2A2E6C",
"D.	c #262A62",
"E.	c #282C67",
"F.	c #262A61",
"G.	c #252A61",
"H.	c #262B62",
"I.	c #262B63",
"J.	c #292D6A",
"K.	c #2A2E6A",
"L.	c #2B2E6C",
"M.	c #2B2E6D",
"N.	c #2C2F6F",
"O.	c #292C68",
"P.	c #272B63",
"Q.	c #262960",
"R.	c #272C66",
"S.	c #272B65",
"T.	c #24295E",
"U.	c #24275C",
"V.	c #23285B",
"W.	c #23275C",
"X.	c #23285C",
"Y.	c #23285D",
"Z.	c #24285E",
"`.	c #25295F",
" +	c #252960",
".+	c #272C64",
"++	c #282C68",
"@+	c #292C69",
"#+	c #2A2D6A",
"$+	c #2C2F6E",
"%+	c #25285F",
"&+	c #24285B",
"*+	c #222658",
"=+	c #212557",
"-+	c #212555",
";+	c #212556",
">+	c #212657",
",+	c #222657",
"'+	c #232659",
")+	c #23275A",
"!+	c #23275B",
"~+	c #24285C",
"{+	c #24285D",
"]+	c #25295E",
"^+	c #262A60",
"/+	c #262A63",
"(+	c #262B64",
"_+	c #282B66",
":+	c #272A62",
"<+	c #24275D",
"[+	c #202453",
"}+	c #1F2351",
"|+	c #1F2250",
"1+	c #202452",
"2+	c #202454",
"3+	c #202455",
"4+	c #212456",
"5+	c #222557",
"6+	c #222659",
"7+	c #23265A",
"8+	c #24275B",
"9+	c #24295F",
"0+	c #242960",
"a+	c #252961",
"b+	c #25285E",
"c+	c #1F2352",
"d+	c #1F224F",
"e+	c #1E214E",
"f+	c #1D214D",
"g+	c #1E214D",
"h+	c #1F224E",
"i+	c #1F234F",
"j+	c #1F2350",
"k+	c #202352",
"l+	c #212454",
"m+	c #222556",
"n+	c #232658",
"o+	c #25285D",
". + @ # # $ % & * = - ; > , ' ) ! ~ { ] ^ / ( ( _ : : < < [ } } } | | | | 1 1 2 2 2 2 1 1 1 | | | | } } } } 3 < 4 ( 5 6 7 % ",
"8 + 9 9 9 9 @ $ % & * = 7 ; > , 0 a a ! b { ] c d d ( ( e _ : : : < < < < 3 3 f [ [ [ [ 3 3 3 < < < < : : : : e g c ! h i j ",
"k l m 8 . n n l o p # $ q r * = s 7 - > > t u u 6 v v ~ w w w x 5 5 y y y y y d d d ( ( d d d y y y y y c 5 5 ] ~ 6 z % . A ",
"B C D E F F G H D I J . l K K L # $ % % r * = M - - z h > > , , u u u a a a a 6 6 6 N ! N N N N v 6 a a u u u O > 7 P . Q R ",
"S T U V W X X X Y Z U T F E D `  .n . m o K + 9 # # ..P % % r r * * * = = = = = +.+.@.7 7 @.@.7 @.+.+.= = = * * % # . S #.$.",
"%.W &.#.*.=.-.*.;.#.>.,.X %.V Z U T T G E D ` I k k . 8 l l '.'.'.+ + + 9 @ @ @ @ @ @ @ ).).# # @ @ @ @ @ @ @ K '.k T &.$.!.",
"R >.~.{.$.].^./.$.(.-.*.~.#.>._.X W W V Z Z S T T F G B B D ` C I k k k n . . . . . . 8 l l l l l l 8 . . . . k C G V *.:.<.",
";.*.{.^.[.}.:.[.].].^.|.1.2.2.3.~.4.>.5.X X W 6.V Z Z S S T T F G B B B D D D D D ` ` C I C D D D D D D D ` ` B G Q 5.(.7.8.",
"9.(./.[.7.0.7.a.!.:.b.c.].|.|.(.2.d.~.~.e.4.>._._.f.X W W g.Z Z Z h.U U i.i.T T T F F F F G G G G G G G G F F T S V #.].j.k.",
"l.^.m.!.n.<.o.n.0.a.!.:.b.p.^.^.l.1.(.2.3.*.~.e.4.>.>._.5.X X W W g.Y V V V V Z Z Z Z Z Q U U S T T T T S S S q.V X *.[.<.r.",
"].b.s.n.t.8.t.t.<.o.n.0.a.!.:.b.u.m.^./.l.(.(.=.3.*.~.~.4.#.>.>.>.5.5.X X X X W W W W W v.w.w.V V V V V V V V W X >.{.:.x.y.",
"}.a.o.x.k.r.r.r.k.z.8.t.A.<.o.n.0.a.!.B.:.b.p.p.^.^.l.l.(.(.2.=.=.*.*.~.~.~.e.4.4.4.4.>.>.>.>.>.>.>.>.>.R R 5.>.#.=.].C.k.D.",
"o.A.E.y.D.F.G.F.H.I.y.r.r.k.k.E.x.x.t.J.K.n.C.L.M.!.!.B.N.N.[.[.p.p.p.^././.l.l.l.l.1.1.1.1.(.(.(.(.2.2.(.2.2.(.(.].!.O.P.Q.",
"R.S.F.T.U.V.W.X.Y.Z.T.`.`.`. +F.H.I.P.y..+r.R.k.E.++++@+t.t.t.J.#+#+n.n.C.C.C.C.M.M.M.7.7.!.!.!.!.!.!.!.7.$+$+!.7.C.x.S.Q.%+",
"F.Z.&+*+=+-+-+-+;+>+,+*+*+'+)+!+!+U.~+{+Z.Z.]+`.`. +^+F.F.D.D./+I.I.(+(+y.y.y.S.S.S.S.R.R.R.R.k.k._+_+_+k.E.E.E.k.S.:+`.<+{+",
"Y.'+;+[+}+|+|+|+}+}+1+1+[+2+2+3+4+;+;+5+,+*+6+'+7+)+!+!+8+8+~+~+{+{+{+Z.Z.T.9+9+9+9+0+ + + + + + + + + + + + +a+ +`.b+<+!+{+",
"*+3+c+d+e+f+g+g+h+h+i+j+j+}+}+k+k+[+2+l+-+-+-+m+m+,+,+*+n+'+'+'+'+'+7+7+)+!+!+!+W.W.U.U.<+<+<+{+{+{+{+{+{+{+o+o+o+~+~+8+~+b+"};
