/* XPM */
static char * bg_spacer_xpm[] = {
"77 8 506 2",
"  	c None",
". 	c #996A28",
"+ 	c #946727",
"@ 	c #8F6427",
"# 	c #8A6127",
"$ 	c #865F27",
"% 	c #815C27",
"& 	c #7E5A27",
"* 	c #7B5828",
"= 	c #785729",
"- 	c #77572B",
"; 	c #76582D",
"> 	c #785A31",
", 	c #7A5D36",
"' 	c #7F633D",
") 	c #876B46",
"! 	c #927752",
"~ 	c #A08561",
"{ 	c #B19673",
"] 	c #C4AB88",
"^ 	c #D9C09E",
"/ 	c #EDD4B2",
"( 	c #FDE5C4",
"_ 	c #FFF1D0",
": 	c #FFF5D5",
"< 	c #FFF2D1",
"[ 	c #FCE7C7",
"} 	c #EED6B6",
"| 	c #DAC2A2",
"1 	c #C5AD8D",
"2 	c #B19979",
"3 	c #9F8767",
"4 	c #8F7757",
"5 	c #816A4A",
"6 	c #775F40",
"7 	c #6E5737",
"8 	c #685031",
"9 	c #624B2B",
"0 	c #5E4727",
"a 	c #5B4425",
"b 	c #594222",
"c 	c #574020",
"d 	c #563E1F",
"e 	c #553D1D",
"f 	c #543C1D",
"g 	c #533B1B",
"h 	c #533A1A",
"i 	c #533A19",
"j 	c #543B19",
"k 	c #553B19",
"l 	c #563C19",
"m 	c #573C19",
"n 	c #573D19",
"o 	c #593E1A",
"p 	c #5E421C",
"q 	c #674921",
"r 	c #765527",
"s 	c #8A642F",
"t 	c #A07436",
"u 	c #B5843D",
"v 	c #C68F40",
"w 	c #CF9541",
"x 	c #D39640",
"y 	c #D1943E",
"z 	c #CC913C",
"A 	c #CE923E",
"B 	c #D59841",
"C 	c #E0A045",
"D 	c #E7A847",
"E 	c #FFE187",
"F 	c #FFDC87",
"G 	c #FBD786",
"H 	c #F6D185",
"I 	c #F2CB83",
"J 	c #EDC481",
"K 	c #E9BD7E",
"L 	c #E4B77C",
"M 	c #DBB179",
"N 	c #D3AB77",
"O 	c #CBA574",
"P 	c #C5A072",
"Q 	c #BF9C71",
"R 	c #BA986F",
"S 	c #B6966F",
"T 	c #B3956F",
"U 	c #B29471",
"V 	c #B19573",
"W 	c #B29675",
"X 	c #B49878",
"Y 	c #B59B7B",
"Z 	c #B79D7E",
"` 	c #B79D7F",
" .	c #B59B7E",
"..	c #B1987B",
"+.	c #AD9477",
"@.	c #A78E71",
"#.	c #A1886B",
"$.	c #9A8264",
"%.	c #947B5E",
"&.	c #8E7658",
"*.	c #897053",
"=.	c #856C4E",
"-.	c #81694A",
";.	c #7E6546",
">.	c #7C6343",
",.	c #7A6141",
"'.	c #79603F",
").	c #785E3D",
"!.	c #785D3C",
"~.	c #785D3A",
"{.	c #785D39",
"].	c #795D39",
"^.	c #7A5E38",
"/.	c #7C5F37",
"(.	c #7E6037",
"_.	c #806137",
":.	c #826337",
"<.	c #846437",
"[.	c #876638",
"}.	c #896838",
"|.	c #8D6A38",
"1.	c #906C39",
"2.	c #936E39",
"3.	c #977039",
"4.	c #9A723A",
"5.	c #9D743A",
"6.	c #A0763A",
"7.	c #A3783A",
"8.	c #A6793B",
"9.	c #AB7D3E",
"0.	c #B68746",
"a.	c #C79855",
"b.	c #DDAD68",
"c.	c #ECC47C",
"d.	c #F8D98F",
"e.	c #FFE79C",
"f.	c #FFEDA2",
"g.	c #FFEEA2",
"h.	c #FFEC9E",
"i.	c #FFE497",
"j.	c #FFDF95",
"k.	c #FFE69D",
"l.	c #FFF1AB",
"m.	c #FFF9B9",
"n.	c #FFFDBF",
"o.	c #FFFFDF",
"p.	c #FFFFE0",
"q.	c #FFFFE1",
"r.	c #FFFFDE",
"s.	c #FFFDDC",
"t.	c #FFF9D8",
"u.	c #FFF3D5",
"v.	c #FFECD1",
"w.	c #FFE5CE",
"x.	c #FDDFC9",
"y.	c #F9D8C5",
"z.	c #F3D1C1",
"A.	c #EBCBBC",
"B.	c #E4C5B8",
"C.	c #DEBFB4",
"D.	c #D7B9AF",
"E.	c #D1B4AB",
"F.	c #CCAFA7",
"G.	c #C6ABA3",
"H.	c #C2A69F",
"I.	c #BDA29B",
"J.	c #BA9E98",
"K.	c #B69B94",
"L.	c #B39891",
"M.	c #B0968D",
"N.	c #AD938A",
"O.	c #AB9187",
"P.	c #A98F85",
"Q.	c #A88D82",
"R.	c #A68C7F",
"S.	c #A58B7D",
"T.	c #A48A7B",
"U.	c #A48A79",
"V.	c #A48977",
"W.	c #A48A75",
"X.	c #A58A73",
"Y.	c #A68B72",
"Z.	c #A78B70",
"`.	c #A98D70",
" +	c #AB8E6F",
".+	c #AD906E",
"++	c #B0916D",
"@+	c #B3946D",
"#+	c #B6966D",
"$+	c #BA996E",
"%+	c #BE9C6E",
"&+	c #C39F6F",
"*+	c #C8A370",
"=+	c #CEA771",
"-+	c #D3AB73",
";+	c #D9AF74",
">+	c #DFB375",
",+	c #E6B777",
"'+	c #EBBB78",
")+	c #F1C079",
"!+	c #F3C47A",
"~+	c #F6C77B",
"{+	c #F8CA7C",
"]+	c #FACD7D",
"^+	c #FED281",
"/+	c #FFDC89",
"(+	c #FFEA96",
"_+	c #FFF7A4",
":+	c #FFFFB1",
"<+	c #FFFFBC",
"[+	c #FFFFC2",
"}+	c #FFFFC3",
"|+	c #FFFFC0",
"1+	c #FFFFB5",
"2+	c #FFFEB4",
"3+	c #FFFFBB",
"4+	c #FFFFC7",
"5+	c #FFFFD0",
"6+	c #FFFFD3",
"7+	c #F6DDD7",
"8+	c #F7DFDB",
"9+	c #F7E0DF",
"0+	c #F8E0E1",
"a+	c #F8E0E3",
"b+	c #F7DFE4",
"c+	c #F7DDE5",
"d+	c #F6DBE5",
"e+	c #F5D9E5",
"f+	c #F4D6E5",
"g+	c #F3D3E4",
"h+	c #F1CFE2",
"i+	c #EDCCE1",
"j+	c #E9C9DF",
"k+	c #E5C5DD",
"l+	c #E1C2DB",
"m+	c #DEBFD9",
"n+	c #DABBD7",
"o+	c #D6B9D4",
"p+	c #D3B6D2",
"q+	c #D0B3CF",
"r+	c #CDB0CC",
"s+	c #CBAEC9",
"t+	c #C8ACC7",
"u+	c #C6A9C3",
"v+	c #C3A7C0",
"w+	c #C1A6BD",
"x+	c #BFA4BA",
"y+	c #BEA2B7",
"z+	c #BCA1B3",
"A+	c #BBA0B0",
"B+	c #BA9FAC",
"C+	c #B99EA9",
"D+	c #B89EA5",
"E+	c #B89DA2",
"F+	c #B89D9F",
"G+	c #B99E9C",
"H+	c #BA9E99",
"I+	c #BA9F96",
"J+	c #BCA093",
"K+	c #BDA191",
"L+	c #BFA38F",
"M+	c #C1A48D",
"N+	c #C3A68B",
"O+	c #C6A98A",
"P+	c #C9AB8A",
"Q+	c #CDAE89",
"R+	c #D1B189",
"S+	c #D6B48A",
"T+	c #DBB88B",
"U+	c #E0BC8C",
"V+	c #E5C08D",
"W+	c #EBC48F",
"X+	c #F0C891",
"Y+	c #F6CD93",
"Z+	c #F9D195",
"`+	c #FCD596",
" @	c #FED898",
".@	c #FFDC99",
"+@	c #FFDF9B",
"@@	c #FFE29D",
"#@	c #FFE59F",
"$@	c #FFEBA4",
"%@	c #FFF0A9",
"&@	c #FFF4AD",
"*@	c #FFF5B1",
"=@	c #FFF6B4",
"-@	c #FFF5B5",
";@	c #FFF4B3",
">@	c #FFF2B1",
",@	c #FFEEAD",
"'@	c #FFE8AA",
")@	c #FFE5A9",
"!@	c #FFE4AB",
"~@	c #FFE4AD",
"{@	c #FFE2AE",
"]@	c #FBDEAC",
"^@	c #A58591",
"/@	c #A78695",
"(@	c #A88898",
"_@	c #AA899B",
":@	c #AB8A9E",
"<@	c #AC8BA1",
"[@	c #AC8CA3",
"}@	c #AC8CA5",
"|@	c #AC8CA6",
"1@	c #AC8CA8",
"2@	c #AC8CA9",
"3@	c #AB8CAA",
"4@	c #AA8BAB",
"5@	c #A98AAB",
"6@	c #A889AC",
"7@	c #A789AB",
"8@	c #A688AB",
"9@	c #A587AB",
"0@	c #A586AA",
"a@	c #A386AA",
"b@	c #A385A9",
"c@	c #A284A8",
"d@	c #A184A7",
"e@	c #A083A5",
"f@	c #9F82A3",
"g@	c #9E81A1",
"h@	c #9D819E",
"i@	c #9C809C",
"j@	c #9B8099",
"k@	c #9A7F95",
"l@	c #9A7F92",
"m@	c #997E8F",
"n@	c #987E8C",
"o@	c #987E88",
"p@	c #987E84",
"q@	c #987E81",
"r@	c #977E7E",
"s@	c #987E7B",
"t@	c #987F78",
"u@	c #997F75",
"v@	c #9A8072",
"w@	c #9B8170",
"x@	c #9C826E",
"y@	c #9E836C",
"z@	c #A0856B",
"A@	c #A2876A",
"B@	c #A48969",
"C@	c #A78B69",
"D@	c #AA8D69",
"E@	c #AC906A",
"F@	c #AF926B",
"G@	c #B3956D",
"H@	c #B6986E",
"I@	c #BA9B70",
"J@	c #BD9E72",
"K@	c #C1A174",
"L@	c #C5A476",
"M@	c #C8A678",
"N@	c #CBA97A",
"O@	c #CFAC7D",
"P@	c #D2AE7F",
"Q@	c #D5B182",
"R@	c #D8B484",
"S@	c #DAB687",
"T@	c #DCB789",
"U@	c #DDB98B",
"V@	c #DDB98C",
"W@	c #DDB98D",
"X@	c #DDB98E",
"Y@	c #DCB88E",
"Z@	c #DBB78F",
"`@	c #DAB78F",
" #	c #D9B690",
".#	c #D8B691",
"+#	c #D6B591",
"@#	c #D4B390",
"##	c #694E49",
"$#	c #6A4F4B",
"%#	c #6B4F4C",
"&#	c #6C504E",
"*#	c #6D514F",
"=#	c #6E5150",
"-#	c #6E5252",
";#	c #6F5353",
">#	c #6F5354",
",#	c #6F5355",
"'#	c #705356",
")#	c #705457",
"!#	c #705458",
"~#	c #705459",
"{#	c #70545A",
"]#	c #70555A",
"^#	c #6F545A",
"/#	c #6F5459",
"(#	c #6F5458",
"_#	c #6E5357",
":#	c #6E5356",
"<#	c #6D5355",
"[#	c #6D5353",
"}#	c #6C5352",
"|#	c #6C5250",
"1#	c #6B524E",
"2#	c #6B524D",
"3#	c #6A524B",
"4#	c #6A5249",
"5#	c #6A5247",
"6#	c #6A5245",
"7#	c #6A5243",
"8#	c #695241",
"9#	c #695240",
"0#	c #6A523E",
"a#	c #6A523D",
"b#	c #6B533C",
"c#	c #6B533B",
"d#	c #6C543A",
"e#	c #6D5539",
"f#	c #6E5639",
"g#	c #6F5739",
"h#	c #71583A",
"i#	c #725A3A",
"j#	c #745B3B",
"k#	c #755D3C",
"l#	c #775F3E",
"m#	c #79613F",
"n#	c #7C6341",
"o#	c #7E6543",
"p#	c #816745",
"q#	c #836A48",
"r#	c #866C4A",
"s#	c #886F4D",
"t#	c #8C7250",
"u#	c #8F7553",
"v#	c #927856",
"w#	c #957B59",
"x#	c #997F5D",
"y#	c #9D8260",
"z#	c #A18664",
"A#	c #A58A68",
"B#	c #A98D6C",
"C#	c #AD9270",
"D#	c #B59977",
"E#	c #B99D7B",
"F#	c #BDA17E",
"G#	c #C1A482",
"H#	c #C4A885",
"I#	c #523920",
"J#	c #523A20",
"K#	c #533A21",
"L#	c #533A22",
"M#	c #533B22",
"N#	c #543B22",
"O#	c #543B23",
"P#	c #533B23",
"Q#	c #523B23",
"R#	c #523B22",
"S#	c #523B21",
"T#	c #523A21",
"U#	c #523A1F",
"V#	c #523A1E",
"W#	c #523B1E",
"X#	c #533C1E",
"Y#	c #543D1F",
"Z#	c #553E1F",
"`#	c #563F20",
" $	c #574021",
".$	c #594122",
"+$	c #5A4223",
"@$	c #5B4424",
"#$	c #5D4526",
"$$	c #604929",
"%$	c #654D2D",
"&$	c #674F2F",
"*$	c #6A5231",
"=$	c #6E5534",
"-$	c #715836",
";$	c #755C39",
">$	c #7A5F3C",
",$	c #7F6440",
"'$	c #846843",
")$	c #8A6D46",
"!$	c #90724A",
"~$	c #96774E",
"{$	c #9C7D52",
"]$	c #A28256",
"^$	c #A98759",
"/$	c #AF8C5D",
"($	c #4C3517",
"_$	c #4D3517",
":$	c #4C3516",
"<$	c #4D3617",
"[$	c #4E3617",
"}$	c #4E3618",
"|$	c #4E3718",
"1$	c #4F3718",
"2$	c #503818",
"3$	c #513919",
"4$	c #523A19",
"5$	c #553C1A",
"6$	c #563D1B",
"7$	c #583E1B",
"8$	c #5A401B",
"9$	c #5C411C",
"0$	c #5F431D",
"a$	c #62451D",
"b$	c #65471E",
"c$	c #68491E",
"d$	c #6B4C1F",
"e$	c #6F4E20",
"f$	c #725021",
"g$	c #755221",
". + @ # $ % & * = - ; > , ' ) ! ~ { ] ^ / ( _ : < [ } | 1 2 3 4 5 6 7 8 9 0 a b c d e f g g g h h i j j j k k l l l m m n o p q r s t u v w x y z A B C D ",
"E F G H I J K L M N O P Q R S T U V W X Y Z ` `  ...+.@.#.$.%.&.*.=.-.;.>.,.'.).!.~.{.].^./.(._.:.<.[.}.|.1.2.3.4.5.6.7.8.9.0.a.b.c.d.e.f.g.h.i.j.k.l.m.n.",
"o.p.q.q.p.r.s.t.u.v.w.x.y.z.A.B.C.D.E.F.G.H.I.J.K.L.M.N.O.P.Q.R.S.T.U.V.W.X.Y.Z.`. +.+++@+#+$+%+&+*+=+-+;+>+,+'+)+!+~+{+]+^+/+(+_+:+<+[+}+|+<+1+2+3+4+5+6+",
"7+8+9+0+a+b+c+d+e+f+g+h+i+j+k+l+m+n+o+p+q+r+s+t+u+v+w+x+y+z+A+B+C+D+E+F+G+H+I+J+K+L+M+N+O+P+Q+R+S+T+U+V+W+X+Y+Z+`+ @.@+@@@#@$@%@&@*@=@-@;@>@,@'@)@!@~@{@]@",
"^@/@(@_@:@<@[@}@|@1@2@3@4@4@5@6@7@8@9@0@a@b@c@d@e@f@g@h@i@j@k@l@m@n@o@p@q@r@s@t@u@v@w@x@y@z@A@B@C@D@E@F@G@H@I@J@K@L@M@N@O@P@Q@R@S@T@U@V@W@X@Y@Z@`@ #.#+#@#",
"##$#%#&#*#=#-#;#>#,#'#)#!#!#~#{#]#{#{#{#{#^#^#^#/#(#_#:#<#[#}#|#1#2#3#4#5#6#7#8#9#0#a#b#c#d#e#f#g#h#i#j#k#l#m#n#o#p#q#r#s#t#u#v#w#x#y#z#A#B#C#V D#E#F#G#H#",
"I#I#J#K#K#K#L#M#M#M#M#N#O#O#O#O#O#P#P#P#P#P#P#P#P#P#P#Q#R#R#S#S#T#T#J#J#U#U#U#V#V#W#W#W#W#W#X#X#X#Y#Z#`#`# $.$+$@$#$0 $$9 %$&$*$=$-$;$>$,$'$)$!$~${$]$^$/$",
"($($($($($($_$_$_$_$_$_$_$_$_$_$_$:$:$:$:$:$:$:$:$:$:$:$:$:$:$:$:$:$:$:$:$:$:$:$:$:$:$:$:$:$:$:$:$:$($<$<$<$[$}$|$|$1$2$2$3$4$i 5$6$7$8$9$0$a$b$c$d$e$f$g$"};
