/* XPM */
static char * chart_labels_xpm[] = {
"24 84 3 1",
" 	c None",
".	c #FFFBCE",
"+	c #000000",
"                        ",
"     ...  ...   .  .    ",
"    . +++ .++.  .+ .+   ",
"    .+    .+ .+ .+ .+   ",
"    .+    ... + .+ .+   ",
"     ...  .+++   .. +   ",
"      +++ .+      ++    ",
"                    ..  ",
"  ...  ...   .  .  . +. ",
" . +++ .++.  .+ .+ .+ .+",
" .+    .+ .+ .+ .+ .+ .+",
" .+    ... + .+ .+ .+ .+",
"  ...  .+++   .. +  .. +",
"   +++ .+      ++    ++ ",
"                     .  ",
"  ...  ...   .  .  ...+ ",
" . +++ .++.  .+ .+  +.+ ",
" .+    .+ .+ .+ .+   .+ ",
" .+    ... + .+ .+   .+ ",
"  ...  .+++   .. +   .+ ",
"   +++ .+      ++     + ",
"                   ...  ",
"  ...  ...   .  .   ++. ",
" . +++ .++.  .+ .+   . +",
" .+    .+ .+ .+ .+  . + ",
" .+    ... + .+ .+ . +  ",
"  ...  .+++   .. + .... ",
"   +++ .+      ++   ++++",
"                   ...  ",
"  ...  ...   .  .   ++. ",
" . +++ .++.  .+ .+  .. +",
" .+    .+ .+ .+ .+   +. ",
" .+    ... + .+ .+    .+",
"  ...  .+++   .. + ... +",
"   +++ .+      ++   +++ ",
"  ...            .      ",
"  .++.   .   ..  .+ .   ",
"  .+  .   + . ++ .+. +  ",
"  .+  .+ .   .   .. +   ",
"  .+ . + .+   .  .+.    ",
"  ... +  .+ .. + .+ .   ",
"   +++    +  ++   +  +  ",
"     ...   ...   ...    ",
"     .++.  .++.  .++.   ",
"     .+ .+ .+ .+ .+ .+  ",
"     ... + ... + ... +  ",
"     .+++  .+++  .+++   ",
"     .+    .+    .+     ",
"      +     +     +     ",
"     ...   .     ...    ",
"     .++.  .+ .  .++.   ",
"     .+ .+ .+  + .+ .+  ",
"     ... + .+ .  ... +  ",
"     .+++  .+ .+ .+++   ",
"     .+    .+ .+ .+     ",
"      +     +  +  +     ",
"        .    .      ..  ",
"  ..   ....  .+    . +. ",
" . +.   .+++ .+.   .+ .+",
" ....+  .+   .. .  .+ .+",
" .++++  .+   .++.+ .+ .+",
"  ...    ..  .+ .+  .. +",
"   +++    ++  +  +   ++ ",
"        .    .       .  ",
"  ..   ....  .+    ...+ ",
" . +.   .+++ .+.    +.+ ",
" ....+  .+   .. .    .+ ",
" .++++  .+   .++.+   .+ ",
"  ...    ..  .+ .+   .+ ",
"   +++    ++  +  +    + ",
"        .    .     ...  ",
"  ..   ....  .+     ++. ",
" . +.   .+++ .+.     . +",
" ....+  .+   .. .   . + ",
" .++++  .+   .++.+ . +  ",
"  ...    ..  .+ .+ .... ",
"   +++    ++  +  +  ++++",
"                        ",
"                        ",
"                        ",
"                        ",
"                        ",
"                        ",
"                        "};
