/* XPM */
static char * chart_grid_xpm[] = {
"351 3 405 2",
"  	c None",
". 	c #9E9FBB",
"+ 	c #878DBB",
"@ 	c #888DBB",
"# 	c #888EBB",
"$ 	c #898FBB",
"% 	c #8A90BB",
"& 	c #8B90BB",
"* 	c #8B91BB",
"= 	c #8C92BB",
"- 	c #8D92BB",
"; 	c #8D93BB",
"> 	c #8E93BB",
", 	c #8E94BB",
"' 	c #8F95BB",
") 	c #9095BB",
"! 	c #9096BB",
"~ 	c #9196BB",
"{ 	c #9197BB",
"] 	c #9297BB",
"^ 	c #9298BB",
"/ 	c #9399BB",
"( 	c #9499BB",
"_ 	c #949ABB",
": 	c #959BBB",
"< 	c #969BBB",
"[ 	c #969CBB",
"} 	c #979DBB",
"| 	c #989DBB",
"1 	c #989EBB",
"2 	c #999EBB",
"3 	c #999FBB",
"4 	c #9A9FBB",
"5 	c #9AA0BB",
"6 	c #9BA1BB",
"7 	c #9CA2BB",
"8 	c #9DA2BB",
"9 	c #9DA3BB",
"0 	c #9EA4BB",
"a 	c #9FA4BB",
"b 	c #9FA5BB",
"c 	c #A0A6BB",
"d 	c #A1A6BB",
"e 	c #A1A7BB",
"f 	c #A2A7BB",
"g 	c #A3A8BB",
"h 	c #A4A9BB",
"i 	c #A4AABB",
"j 	c #A5ABBB",
"k 	c #A6ACBB",
"l 	c #A7ADBB",
"m 	c #A8AEBB",
"n 	c #A9AFBB",
"o 	c #AAAFBB",
"p 	c #ABB0BB",
"q 	c #ACB1BB",
"r 	c #ACB2BB",
"s 	c #ADB3BB",
"t 	c #AEB4BB",
"u 	c #AFB4BB",
"v 	c #B0B5BB",
"w 	c #B1B7BB",
"x 	c #B2B8BB",
"y 	c #B4B9BB",
"z 	c #B4BABB",
"A 	c #B5BBBB",
"B 	c #B7BBBB",
"C 	c #B8BBBB",
"D 	c #B9BBBB",
"E 	c #BABBBB",
"F 	c #BBBBBB",
"G 	c #AFB5BB",
"H 	c #AEB3BB",
"I 	c #AAB0BB",
"J 	c #A7ACBB",
"K 	c #A6ABBB",
"L 	c #A2A8BB",
"M 	c #9196B9",
"N 	c #9095B7",
"O 	c #8E93B6",
"P 	c #8C92B4",
"Q 	c #8B90B2",
"R 	c #898EB1",
"S 	c #878DAF",
"T 	c #858BAE",
"U 	c #848AAC",
"V 	c #8388AA",
"W 	c #8186A9",
"X 	c #8085A7",
"Y 	c #7E83A6",
"Z 	c #7D82A4",
"` 	c #7B80A3",
" .	c #7A7FA2",
"..	c #787DA1",
"+.	c #777D9F",
"@.	c #757B9E",
"#.	c #747A9C",
"$.	c #72789B",
"%.	c #72779A",
"&.	c #707699",
"*.	c #6F7598",
"=.	c #6E7396",
"-.	c #6D7296",
";.	c #6B7194",
">.	c #6A6F93",
",.	c #696F92",
"'.	c #686D91",
").	c #676D90",
"!.	c #666C8F",
"~.	c #656A8E",
"{.	c #646A8E",
"].	c #63698D",
"^.	c #62678B",
"/.	c #61678B",
"(.	c #60668A",
"_.	c #5F6589",
":.	c #5F6488",
"<.	c #5E6388",
"[.	c #5D6288",
"}.	c #5C6287",
"|.	c #5C6186",
"1.	c #5B6085",
"2.	c #5A5F85",
"3.	c #595F85",
"4.	c #595F84",
"5.	c #585E83",
"6.	c #575D83",
"7.	c #575C83",
"8.	c #565C82",
"9.	c #565B82",
"0.	c #555B81",
"a.	c #545A81",
"b.	c #545980",
"c.	c #535980",
"d.	c #525880",
"e.	c #51577F",
"f.	c #51567F",
"g.	c #50567F",
"h.	c #50567E",
"i.	c #50557E",
"j.	c #4F557E",
"k.	c #4F547E",
"l.	c #4E547E",
"m.	c #4E537E",
"n.	c #4D537E",
"o.	c #4D527E",
"p.	c #4D527F",
"q.	c #4C527F",
"r.	c #4C517F",
"s.	c #4B517F",
"t.	c #4B507F",
"u.	c #4B5180",
"v.	c #4C5180",
"w.	c #4C5281",
"x.	c #4D5282",
"y.	c #4E5383",
"z.	c #4E5483",
"A.	c #4F5484",
"B.	c #505585",
"C.	c #515686",
"D.	c #515787",
"E.	c #525888",
"F.	c #545989",
"G.	c #545A8B",
"H.	c #565B8C",
"I.	c #575C8D",
"J.	c #585E8E",
"K.	c #595F90",
"L.	c #5A6091",
"M.	c #5C6293",
"N.	c #5D6394",
"O.	c #5F6496",
"P.	c #606597",
"Q.	c #626799",
"R.	c #63689B",
"S.	c #646A9C",
"T.	c #656B9E",
"U.	c #676D9F",
"V.	c #686EA1",
"W.	c #6A6FA2",
"X.	c #6B71A4",
"Y.	c #6D72A5",
"Z.	c #6D73A6",
"`.	c #6F75A8",
" +	c #7075A9",
".+	c #7177AB",
"++	c #7278AC",
"@+	c #7379AD",
"#+	c #757AAF",
"$+	c #757BAF",
"%+	c #777CB0",
"&+	c #787DB1",
"*+	c #787EB2",
"=+	c #797FB3",
"-+	c #7A80B4",
";+	c #7B80B5",
">+	c #7B81B6",
",+	c #7C82B6",
"'+	c #7C82B7",
")+	c #7D82B7",
"!+	c #7D83B7",
"~+	c #7C81B5",
"{+	c #7B81B5",
"]+	c #7A7FB3",
"^+	c #9495BB",
"/+	c #3F458D",
"(+	c #40458E",
"_+	c #404690",
":+	c #414691",
"<+	c #414693",
"[+	c #414794",
"}+	c #424796",
"|+	c #424897",
"1+	c #434999",
"2+	c #43499A",
"3+	c #43499B",
"4+	c #444A9D",
"5+	c #444A9E",
"6+	c #454BA0",
"7+	c #464BA1",
"8+	c #464CA3",
"9+	c #464CA4",
"0+	c #464CA6",
"a+	c #474DA7",
"b+	c #484DA9",
"c+	c #484EAA",
"d+	c #494EAB",
"e+	c #494EAC",
"f+	c #494EAE",
"g+	c #494FAF",
"h+	c #4A50B1",
"i+	c #4B51B3",
"j+	c #4C51B4",
"k+	c #4C51B6",
"l+	c #4C51B7",
"m+	c #4C52B8",
"n+	c #4D52B9",
"o+	c #4D53BA",
"p+	c #4E53BB",
"q+	c #4E54BB",
"r+	c #4F54BB",
"s+	c #4F55BB",
"t+	c #5055BB",
"u+	c #5056BB",
"v+	c #5156BB",
"w+	c #5157BB",
"x+	c #5258BB",
"y+	c #5358BB",
"z+	c #5359BB",
"A+	c #5459BB",
"B+	c #545ABB",
"C+	c #555ABB",
"D+	c #555BBB",
"E+	c #565BBB",
"F+	c #565CBB",
"G+	c #575CBB",
"H+	c #575DBB",
"I+	c #585DBB",
"J+	c #545ABA",
"K+	c #545AB9",
"L+	c #545AB8",
"M+	c #5459B7",
"N+	c #5459B6",
"O+	c #5459B4",
"P+	c #5459B3",
"Q+	c #5459B2",
"R+	c #5459B1",
"S+	c #5359AF",
"T+	c #5359AD",
"U+	c #5359AC",
"V+	c #5358AB",
"W+	c #5258A9",
"X+	c #5258A8",
"Y+	c #5258A7",
"Z+	c #5257A6",
"`+	c #5257A4",
" @	c #5157A3",
".@	c #5157A2",
"+@	c #5157A1",
"@@	c #51579F",
"#@	c #51579E",
"$@	c #51579D",
"%@	c #51579B",
"&@	c #515699",
"*@	c #515698",
"=@	c #505697",
"-@	c #505696",
";@	c #505694",
">@	c #505593",
",@	c #505592",
"'@	c #4F5591",
")@	c #4F5590",
"!@	c #4F558F",
"~@	c #4F558E",
"{@	c #4F548D",
"]@	c #4F548B",
"^@	c #4E548B",
"/@	c #4E5489",
"(@	c #4E5488",
"_@	c #4E5486",
":@	c #4E5485",
"<@	c #4E5482",
"[@	c #4E5481",
"}@	c #4E5480",
"|@	c #4E547F",
"1@	c #4E547D",
"2@	c #4E537D",
"3@	c #4E537C",
"4@	c #4E537B",
"5@	c #4E537A",
"6@	c #4E5379",
"7@	c #4D5379",
"8@	c #4D5378",
"9@	c #4D5377",
"0@	c #4D5376",
"a@	c #4D5375",
"b@	c #4E5375",
"c@	c #4E5374",
"d@	c #4E5373",
"e@	c #4E5472",
"f@	c #4E5471",
"g@	c #4F5472",
"h@	c #4F5572",
"i@	c #4F5573",
"j@	c #505574",
"k@	c #505674",
"l@	c #505675",
"m@	c #515676",
"n@	c #515776",
"o@	c #515777",
"p@	c #515778",
"q@	c #515779",
"r@	c #51577A",
"s@	c #52577B",
"t@	c #52577C",
"u@	c #52587C",
"v@	c #52587D",
"w@	c #52587E",
"x@	c #53587F",
"y@	c #535880",
"z@	c #535981",
"A@	c #535982",
"B@	c #545982",
"C@	c #545983",
"D@	c #545984",
"E@	c #545985",
"F@	c #545A85",
"G@	c #545A86",
"H@	c #555A87",
"I@	c #555B87",
"J@	c #555B88",
"K@	c #565B88",
"L@	c #565C88",
"M@	c #565C89",
"N@	c #575C89",
"O@	c #575C8A",
"P@	c #575C8B",
"Q@	c #575D8B",
"R@	c #585E8B",
"S@	c #585E8C",
"T@	c #595F8D",
"U@	c #595F8E",
"V@	c #5A608F",
"W@	c #5B618F",
"X@	c #5C6190",
"Y@	c #5C6290",
"Z@	c #5D6291",
"`@	c #5D6392",
" #	c #5E6493",
".#	c #5F6494",
"+#	c #606595",
"@#	c #616696",
"##	c #626797",
"$#	c #626898",
"%#	c #636999",
"&#	c #646A9A",
"*#	c #656B9B",
"=#	c #676C9C",
"-#	c #676D9D",
";#	c #696E9E",
">#	c #6A6FA0",
",#	c #6B71A1",
"'#	c #6D72A3",
")#	c #6E73A4",
"!#	c #6F75A6",
"~#	c #7176A7",
"{#	c #7278A9",
"]#	c #7479AA",
"^#	c #757AAC",
"/#	c #777CAE",
"(#	c #787EB0",
"_#	c #7A80B1",
":#	c #7B81B4",
"<#	c #7D83B5",
"[#	c #7E84B7",
"}#	c #8085B9",
"|#	c #8287BB",
"1#	c #8388BB",
"2#	c #858ABB",
"3#	c #858BBB",
"4#	c #1C213E",
"5#	c #1C223E",
"6#	c #1D223E",
"7#	c #1D223F",
"8#	c #1D2240",
". + @ # # $ % & & * = - ; > > , ' ) ! ! ~ { ] ^ / / / ( _ : < < < [ } | 1 2 2 3 4 5 6 6 6 7 8 9 0 0 a b c d e f g h h i j k k l m n o p q r s t u v w w x y z A B B C D E F F F F F F F F F F F F F F F F F F F F F F F F F F F F F F F F F F F F F F F F F F F F F F F F F F F F F F F F F F F F F F F F E C B A z x w G H q I n J K h L d 0 9 6 3 1 < _ / M N O P Q R S T U V W X Y Z `  ...+.@.#.$.%.&.*.=.-.;.>.,.'.).!.~.{.].^./.(._.:.<.[.}.|.1.2.3.4.5.6.7.7.8.9.0.a.b.b.c.c.d.d.e.e.e.e.f.g.h.i.j.j.k.k.l.l.l.l.l.l.l.m.m.n.n.n.n.o.p.q.q.q.q.q.r.r.r.r.r.r.r.r.r.s.s.s.t.t.s.u.v.v.v.w.x.y.z.A.B.C.D.E.F.G.H.I.J.K.L.M.N.O.P.Q.R.S.T.U.V.W.X.Y.Z.`. +.+++@+#+$+%+&+*+=+-+-+;+>+,+'+)+!+!+!+!+!+!+!+!+)+,+~+{+-+-+]+^+",
"/+(+_+:+<+[+}+|+1+2+3+4+5+6+7+8+9+0+a+b+c+d+e+f+g+h+h+i+j+k+l+m+n+o+p+q+q+q+q+r+s+t+u+v+w+w+w+w+w+x+x+y+z+z+A+A+A+A+A+B+B+C+C+D+D+E+E+F+F+F+G+G+G+G+G+G+G+G+G+H+H+H+H+H+H+H+H+I+I+I+I+I+I+I+I+I+I+I+I+I+I+I+H+H+H+H+H+H+H+H+G+G+G+G+G+G+G+G+G+G+F+F+F+F+E+E+D+D+D+D+C+C+J+K+L+M+N+O+P+Q+R+S+S+T+U+V+W+X+Y+Z+`+ @.@+@@@#@$@%@%@&@*@=@-@;@>@,@'@)@!@~@{@]@^@/@(@(@_@:@:@z.z.<@[@}@|@l.1@2@3@4@5@5@6@7@8@8@9@9@0@a@a@b@b@c@c@d@d@d@e@e@e@e@e@e@e@e@e@e@e@e@f@f@e@g@g@h@i@i@i@j@j@k@l@l@l@l@m@m@n@o@o@p@p@p@p@q@q@r@r@r@r@s@s@t@u@v@v@v@v@w@w@x@x@y@c.c.c.z@z@A@B@C@C@C@C@D@D@E@E@E@F@G@G@H@I@J@K@L@M@N@O@P@Q@R@S@T@U@U@V@W@X@Y@Z@`@ #.#+#@###$#%#&#*#=#-#;#>#,#'#)#!#~#{#]#^#/#(#_#:#<#[#}#|#1#2#3#+ # $ & * = - ; > > > > ; = * ",
"4#4#4#4#4#4#4#4#4#4#4#4#4#4#4#4#4#4#4#4#4#4#4#4#4#4#4#4#4#4#4#4#4#4#4#4#4#4#4#4#4#4#4#4#4#4#4#4#4#4#4#4#4#4#4#4#4#4#4#4#4#4#4#4#4#4#4#4#4#4#4#4#4#4#4#4#4#4#4#4#4#4#4#4#4#4#4#4#4#4#4#4#4#4#4#4#4#4#4#4#4#4#4#4#4#4#4#4#4#4#4#4#4#4#4#4#4#4#4#4#4#4#4#4#4#4#4#4#4#4#4#4#4#4#4#4#4#4#4#4#4#4#4#4#4#4#4#4#4#4#4#4#4#4#4#4#4#4#4#4#4#4#4#4#4#4#4#4#4#4#4#4#4#4#4#4#4#4#4#4#4#4#4#4#4#4#4#4#4#4#4#4#4#4#4#4#4#4#4#4#4#4#4#4#4#4#4#4#4#4#4#4#4#4#4#4#4#4#4#4#4#4#4#4#4#4#4#4#4#4#4#4#4#4#4#4#4#4#4#4#4#4#4#4#4#4#4#4#4#4#4#4#4#4#4#4#4#4#4#4#4#4#4#4#4#4#4#4#4#4#4#4#4#4#4#4#4#4#4#4#4#4#4#4#4#4#4#4#4#4#4#4#4#4#5#5#5#5#5#5#5#5#5#5#5#5#5#5#5#5#5#5#5#5#5#5#5#5#5#5#5#5#5#5#5#5#6#6#6#6#6#6#6#6#6#6#7#7#7#7#7#7#7#7#7#7#7#8#8#8#8#"};
