/* XPM */
static char * digits_xpm[] = {
"70 8 5 1",
" 	c None",
".	c #FFFBCE",
"+	c #FBD1FF",
"@	c #000000",
"#	c #393C39",
" ..    .  ...  ...     . ....  ... ....  ..   ..          +           ",
". @. ...@  @@.  @@.   ..@.@@@@. @@@ @@.@. @. . @.  .      +@          ",
".@ .@ @.@    .@   .@ . .@.@   .@     . @.@ .@.@ .@ .@     +@          ",
".@ .@  .@   . @ .. @. @.@...  ...    .@  .. @ ...@  @   +++@          ",
".@ .@  .@  . @   @. ..... @@. .@@.  . @ . @.   @.@     + @+@          ",
".@ .@  .@ . @     .@ @@.@   .@.@ .@ .@  .@ .@   .@ .   +@ +@          ",
" .. @  .@ .... ... @   .@... @ ..#@ .@   .. @... @ .@   +++@          ",
"  @@    @  @@@@ @@@     @ @@@   @@   @    @@  @@@   @    @@@          "};
