/* XPM */
static char * frame_side_xpm[] = {
"8 70 218 2",
"  	c None",
". 	c #22265A",
"+ 	c #24285E",
"@ 	c #262A62",
"# 	c #272C66",
"$ 	c #292D6A",
"% 	c #2A2F6C",
"& 	c #2B2F6F",
"* 	c #2C3070",
"= 	c #23275C",
"- 	c #252960",
"; 	c #262B64",
"> 	c #282D69",
", 	c #2A2E6D",
"' 	c #2B306F",
") 	c #2C3172",
"! 	c #2D3273",
"~ 	c #282C67",
"{ 	c #292E6B",
"] 	c #2B3070",
"^ 	c #2C3173",
"/ 	c #2D3275",
"( 	c #2E3377",
"_ 	c #252961",
": 	c #272B65",
"< 	c #292E6A",
"[ 	c #2C3174",
"} 	c #2F347A",
"| 	c #30357B",
"1 	c #262A63",
"2 	c #282C68",
"3 	c #2A2F6E",
"4 	c #30347B",
"5 	c #31367E",
"6 	c #323780",
"7 	c #2C3071",
"8 	c #2D3276",
"9 	c #30357C",
"0 	c #313680",
"a 	c #333883",
"b 	c #343985",
"c 	c #282D68",
"d 	c #2D3274",
"e 	c #313780",
"f 	c #333984",
"g 	c #353B88",
"h 	c #363C8A",
"i 	c #30367E",
"j 	c #353B89",
"k 	c #373D8D",
"l 	c #383E8F",
"m 	c #2D3174",
"n 	c #323882",
"o 	c #373D8E",
"p 	c #393F92",
"q 	c #3A4094",
"r 	c #31367F",
"s 	c #343A86",
"t 	c #393F93",
"u 	c #3B4298",
"v 	c #3C4399",
"w 	c #2F347B",
"x 	c #353C8B",
"y 	c #3B4198",
"z 	c #3D449D",
"A 	c #3E459E",
"B 	c #30357E",
"C 	c #343986",
"D 	c #373E8F",
"E 	c #3B4196",
"F 	c #3D439D",
"G 	c #3F46A1",
"H 	c #4047A3",
"I 	c #2E3379",
"J 	c #323781",
"K 	c #353B8A",
"L 	c #3C439A",
"M 	c #3E45A1",
"N 	c #4148A6",
"O 	c #4249A8",
"P 	c #3A4197",
"Q 	c #4047A5",
"R 	c #434AAB",
"S 	c #444BAD",
"T 	c #343A87",
"U 	c #383F91",
"V 	c #3C439B",
"W 	c #4047A2",
"X 	c #4249AA",
"Y 	c #454CAF",
"Z 	c #464DB1",
"` 	c #3A4095",
" .	c #3D449E",
"..	c #444BAE",
"+.	c #474EB3",
"@.	c #4950B5",
"#.	c #3F46A2",
"$.	c #434AAA",
"%.	c #4951B6",
"&.	c #4B53B8",
"*.	c #383E90",
"=.	c #4850B4",
"-.	c #4C54B9",
";.	c #4E56BB",
">.	c #4149A8",
",.	c #464DB0",
"'.	c #4A52B7",
").	c #4F56BC",
"!.	c #5159BE",
"~.	c #474FB3",
"{.	c #535BC0",
"].	c #3B4197",
"^.	c #3F46A3",
"/.	c #4951B5",
"(.	c #565EC3",
"_.	c #3C4299",
":.	c #4B53B7",
"<.	c #5058BD",
"[.	c #555DC2",
"}.	c #5860C4",
"|.	c #4148A7",
"1.	c #525ABF",
"2.	c #575FC4",
"3.	c #5A61C6",
"4.	c #4E55BB",
"5.	c #5960C5",
"6.	c #5B63C7",
"7.	c #3E449E",
"8.	c #484FB4",
"9.	c #545CC1",
"0.	c #5A62C6",
"a.	c #5C64C8",
"b.	c #3A4195",
"c.	c #3E459F",
"d.	c #5057BD",
"e.	c #5B62C7",
"f.	c #5D64C9",
"g.	c #3A4196",
"h.	c #3E45A0",
"i.	c #434AAC",
"j.	c #5E65C9",
"k.	c #3B4297",
"l.	c #444AAC",
"m.	c #4A51B6",
"n.	c #5158BE",
"o.	c #575EC3",
"p.	c #444AAD",
"q.	c #565DC2",
"r.	c #5961C6",
"s.	c #5B63C8",
"t.	c #4F57BC",
"u.	c #585FC4",
"v.	c #5860C5",
"w.	c #4249A9",
"x.	c #464DB2",
"y.	c #454DB0",
"z.	c #4A51B7",
"A.	c #4E56BC",
"B.	c #5159BF",
"C.	c #394094",
"D.	c #444BAF",
"E.	c #4D54BA",
"F.	c #434AAD",
"G.	c #3C429A",
"H.	c #4249AB",
"I.	c #4D55BA",
"J.	c #3B4299",
"K.	c #4148A9",
"L.	c #474FB4",
"M.	c #484FB5",
"N.	c #3A4096",
"O.	c #363C8C",
"P.	c #3D439C",
"Q.	c #454CB0",
"R.	c #454DB1",
"S.	c #353C8A",
"T.	c #3D449F",
"U.	c #4047A4",
"V.	c #4148A8",
"W.	c #373D8F",
"X.	c #3C439D",
"Y.	c #333985",
"Z.	c #363C8D",
"`.	c #4047A6",
" +	c #333884",
".+	c #363C8B",
"++	c #323883",
"@+	c #3C439C",
"#+	c #363D8C",
"$+	c #383F92",
"%+	c #394095",
"&+	c #30357D",
"*+	c #313781",
"=+	c #383E91",
"-+	c #2F337A",
";+	c #2E3378",
">+	c #353A88",
",+	c #363D8D",
"'+	c #383F93",
")+	c #2E3277",
"!+	c #373E90",
"~+	c #2F3379",
"{+	c #343A88",
"]+	c #2C3073",
"^+	c #323782",
"/+	c #2B3072",
"(+	c #2B3071",
"_+	c #323884",
":+	c #2D3173",
"<+	c #2F3479",
"[+	c #31357E",
"}+	c #2B2F6E",
"|+	c #2F3378",
"1+	c #363C89",
"2+	c #2A2F6D",
"3+	c #2C3171",
"4+	c #353B87",
"5+	c #2E3276",
". + @ # $ % & * ",
"= - ; > , ' ) ! ",
"+ @ ~ { ] ^ / ( ",
"_ : < & [ ( } | ",
"1 2 3 ) ( 4 5 6 ",
"# < 7 8 9 0 a b ",
"c 3 d } e f g h ",
"{ 7 ( i f j k l ",
"3 m | n j o p q ",
"] ( r s k t u v ",
"^ w a x p y z A ",
"8 B C D E F G H ",
"I J K t L M N O ",
"| f k P A Q R S ",
"5 T U V W X Y Z ",
"J K `  .N ..+.@.",
"f k u #.$.Z %.&.",
"s *.V Q S =.-.;.",
"g p  .>.,.'.).!.",
"h ` M $.~.-.!.{.",
"k ].^.S /.;.{.(.",
"l _.Q Y :.<.[.}.",
"U V |.Z -.1.2.3.",
"p z O ~.4.{.5.6.",
"q 7.X 8.).9.0.a.",
"b.c.R @.d.[.e.f.",
"g.h.i./.<.(.6.j.",
"k.G l.m.n.o.6.j.",
"k.#.p.m.!.o.6.j.",
"u #.S m.n.(.6.j.",
"u #.S m.n.(.e.f.",
"u #.S m.<.q.0.a.",
"u #.i.%.<.[.r.s.",
"u G R @.t.9.u.3.",
"u M R 8.;.{.(.v.",
"P h.X +.-.!.[.(.",
"g.c.w.x.&.<.{.[.",
"`  .|.y.z.A.B.{.",
"C.z N D.@.E.<.!.",
"t V Q F.~.&.;.t.",
"U G.^.H.Z %.-.I.",
"*.J.G K.Y L.z.&.",
"D ].h.|.S x.M.%.",
"k N. .Q R Y x.+.",
"O.C.P.^.O F.Q.R.",
"S.p L M N X F...",
"j *.u T.U.V.H.i.",
"T W.g.X.G Q V.w.",
"Y.Z.q G.c.^.`.|.",
" +.+p y z h.^.U.",
"++j *.N.V  .M #.",
"J T o C.J.@+ .c.",
"0 C #+$+P G.@+z ",
"B  +h *.%+y G.V ",
"&+n g o t N.y _.",
"w *+T O.=+C.N.].",
"-+r Y.K W.p %+N.",
";+&+a >+,+*.'+C.",
")+9 n s .+o U '+",
"8 } e Y.j ,+!+U ",
"[ ~+r ++{+.+o l ",
"]+;+B ^+s K Z.o ",
"/+)+9 *+Y.>+.+,+",
"(+/ w 0 _+T K O.",
"] m } 5 ++s j h ",
"' :+<+[+n b g h ",
"}+) |+&+J Y.g 1+",
"2+3+( 9 e f 4+1+",
"2+7 ( 4 e f 4+1+",
"% * 5+4 e f 4+1+"};
