/* XPM */
static char * frame_horizontal_xpm[] = {
"351 3 334 2",
"  	c None",
". 	c #395EB3",
"+ 	c #385EB3",
"@ 	c #375DB3",
"# 	c #395FB3",
"$ 	c #395EB4",
"% 	c #395FB4",
"& 	c #3A5FB4",
"* 	c #3A60B4",
"= 	c #3B60B4",
"- 	c #3B61B4",
"; 	c #3C61B4",
"> 	c #3C62B4",
", 	c #3D62B4",
"' 	c #3D63B4",
") 	c #3E63B4",
"! 	c #3E64B4",
"~ 	c #3F64B5",
"{ 	c #3F65B5",
"] 	c #4065B5",
"^ 	c #4165B5",
"/ 	c #4166B5",
"( 	c #4266B5",
"_ 	c #4267B5",
": 	c #4267B6",
"< 	c #4367B6",
"[ 	c #4368B6",
"} 	c #4468B6",
"| 	c #4469B6",
"1 	c #4569B6",
"2 	c #456AB6",
"3 	c #466AB6",
"4 	c #466BB6",
"5 	c #466BB7",
"6 	c #4569B5",
"7 	c #4469B5",
"8 	c #4468B5",
"9 	c #4368B5",
"0 	c #4367B4",
"a 	c #4267B4",
"b 	c #4266B4",
"c 	c #4166B4",
"d 	c #4065B3",
"e 	c #3F65B3",
"f 	c #3F64B3",
"g 	c #3E64B2",
"h 	c #3E63B2",
"i 	c #3D63B2",
"j 	c #3D62B2",
"k 	c #3C62B2",
"l 	c #3C61B1",
"m 	c #3B60B1",
"n 	c #3A60B1",
"o 	c #3A60B0",
"p 	c #395FB0",
"q 	c #385EB0",
"r 	c #375DAF",
"s 	c #365CAF",
"t 	c #365CAE",
"u 	c #355BAE",
"v 	c #345BAE",
"w 	c #345AAE",
"x 	c #345AAD",
"y 	c #3359AD",
"z 	c #3359AC",
"A 	c #3358AC",
"B 	c #3258AC",
"C 	c #3257AB",
"D 	c #3157AB",
"E 	c #3156AB",
"F 	c #3056AA",
"G 	c #3055AA",
"H 	c #2F55AA",
"I 	c #2E54A9",
"J 	c #2D53A9",
"K 	c #2D53A8",
"L 	c #2C52A8",
"M 	c #2C52A7",
"N 	c #2B51A7",
"O 	c #2B51A6",
"P 	c #2A50A6",
"Q 	c #2A50A5",
"R 	c #294FA5",
"S 	c #294FA4",
"T 	c #294EA4",
"U 	c #284EA4",
"V 	c #284DA3",
"W 	c #274DA3",
"X 	c #264CA3",
"Y 	c #264CA2",
"Z 	c #264BA2",
"` 	c #254BA2",
" .	c #254AA2",
"..	c #244AA1",
"+.	c #2349A1",
"@.	c #2348A1",
"#.	c #2248A1",
"$.	c #2247A1",
"%.	c #2147A1",
"&.	c #2247A2",
"*.	c #2248A2",
"=.	c #2349A3",
"-.	c #2449A4",
";.	c #244AA4",
">.	c #254AA4",
",.	c #254BA5",
"'.	c #264BA6",
").	c #264CA6",
"!.	c #274DA7",
"~.	c #284EA8",
"{.	c #294FA8",
"].	c #2A4FA9",
"^.	c #2A50A9",
"/.	c #2B51AA",
"(.	c #2B51AB",
"_.	c #2C52AB",
":.	c #2D53AB",
"<.	c #2E53AC",
"[.	c #2E54AC",
"}.	c #2F55AD",
"|.	c #3055AD",
"1.	c #3056AE",
"2.	c #3156AE",
"3.	c #3157AE",
"4.	c #3157AF",
"5.	c #3258AF",
"6.	c #3359B0",
"7.	c #3459B0",
"8.	c #345AB0",
"9.	c #345AB1",
"0.	c #355BB1",
"a.	c #355AB1",
"b.	c #727ABA",
"c.	c #737BBB",
"d.	c #747BBC",
"e.	c #747CBD",
"f.	c #757DBD",
"g.	c #767DBE",
"h.	c #777EBF",
"i.	c #777FC0",
"j.	c #787FC1",
"k.	c #7980C1",
"l.	c #7980C2",
"m.	c #7A81C2",
"n.	c #7B82C3",
"o.	c #7B82C4",
"p.	c #7C82C4",
"q.	c #7C83C5",
"r.	c #7D84C6",
"s.	c #7E84C7",
"t.	c #7E85C7",
"u.	c #7F85C8",
"v.	c #7F86C8",
"w.	c #7E85C9",
"x.	c #8086C9",
"y.	c #7F86CA",
"z.	c #7E85CA",
"A.	c #7F86CB",
"B.	c #7F86CC",
"C.	c #8086CC",
"D.	c #8087CC",
"E.	c #8187CD",
"F.	c #8188CD",
"G.	c #8289CE",
"H.	c #8389CE",
"I.	c #838ACF",
"J.	c #848BD0",
"K.	c #848AD0",
"L.	c #858BD0",
"M.	c #858CD0",
"N.	c #858CD1",
"O.	c #868CD1",
"P.	c #868CD2",
"Q.	c #868DD2",
"R.	c #878DD2",
"S.	c #878ED2",
"T.	c #878ED3",
"U.	c #888ED3",
"V.	c #888FD3",
"W.	c #888FD4",
"X.	c #898FD4",
"Y.	c #8990D4",
"Z.	c #8990D5",
"`.	c #888ED4",
" +	c #878DD1",
".+	c #868DD1",
"++	c #868DD0",
"@+	c #858CCF",
"#+	c #848BCE",
"$+	c #848BCD",
"%+	c #848ACD",
"&+	c #838ACC",
"*+	c #8389CB",
"=+	c #8389CA",
"-+	c #8289CA",
";+	c #8289C9",
">+	c #8288C8",
",+	c #8188C8",
"'+	c #8389C7",
")+	c #8289C7",
"!+	c #8389C5",
"~+	c #848AC5",
"{+	c #8389C4",
"]+	c #8289C4",
"^+	c #8389C3",
"/+	c #8289C2",
"(+	c #8289C1",
"_+	c #8288C0",
":+	c #8188BF",
"<+	c #8188BE",
"[+	c #8088BD",
"}+	c #8087BD",
"|+	c #8087BC",
"1+	c #8087BB",
"2+	c #7F86BA",
"3+	c #7F86B9",
"4+	c #7F86B8",
"5+	c #7E86B8",
"6+	c #7E86B7",
"7+	c #7E85B7",
"8+	c #7E85B6",
"9+	c #7D85B5",
"0+	c #7D84B4",
"a+	c #7C84B3",
"b+	c #7C83B2",
"c+	c #7B83B2",
"d+	c #7B83B1",
"e+	c #7981B1",
"f+	c #7981B0",
"g+	c #7980AF",
"h+	c #7880AF",
"i+	c #7880AE",
"j+	c #787FAE",
"k+	c #787FAD",
"l+	c #777FAD",
"m+	c #777FAC",
"n+	c #777EAB",
"o+	c #767EAA",
"p+	c #767DA9",
"q+	c #757DA8",
"r+	c #757CA7",
"s+	c #757DA7",
"t+	c #747CA6",
"u+	c #757CA6",
"v+	c #747CA7",
"w+	c #757DA9",
"x+	c #757DAA",
"y+	c #767DAA",
"z+	c #767DAB",
"A+	c #767EAB",
"B+	c #767EAC",
"C+	c #767EAD",
"D+	c #777EAD",
"E+	c #777EAE",
"F+	c #777EAF",
"G+	c #777FAF",
"H+	c #777EB0",
"I+	c #777FB0",
"J+	c #777EB1",
"K+	c #777FB1",
"L+	c #777FB2",
"M+	c #777FB3",
"N+	c #777FB4",
"O+	c #787FB4",
"P+	c #7880B5",
"Q+	c #7981B6",
"R+	c #7A82B6",
"S+	c #7A82B7",
"T+	c #7B83B7",
"U+	c #7C83B7",
"V+	c #7C83B8",
"W+	c #7C84B8",
"X+	c #7D85B8",
"Y+	c #7E85B9",
"Z+	c #7F87BA",
"`+	c #8088BA",
" @	c #8189BB",
".@	c #8289BB",
"+@	c #828ABB",
"@@	c #838BBC",
"#@	c #848CBC",
"$@	c #858DBD",
"%@	c #868EBE",
"&@	c #878FBE",
"*@	c #8890BF",
"=@	c #8991C0",
"-@	c #8B92C0",
";@	c #8C93C1",
">@	c #8D94C2",
",@	c #8E95C2",
"'@	c #8F97C3",
")@	c #9098C4",
"!@	c #9299C5",
"~@	c #939AC6",
"{@	c #949CC7",
"]@	c #969DC8",
"^@	c #979FC9",
"/@	c #98A0CA",
"(@	c #9AA2CB",
"_@	c #9BA3CC",
":@	c #9CA4CD",
"<@	c #9EA5CF",
"[@	c #9FA7D0",
"}@	c #A0A8D1",
"|@	c #A2AAD2",
"1@	c #A3ABD3",
"2@	c #A5ACD5",
"3@	c #A6ADD6",
"4@	c #A7AFD7",
"5@	c #A8B0D8",
"6@	c #AAB1DA",
"7@	c #AAB2DB",
"8@	c #ABB3DC",
"9@	c #ACB4DD",
"0@	c #ADB5DE",
"a@	c #AEB5DE",
"b@	c #AEB6DF",
"c@	c #AFB6E0",
"d@	c #AFB7E1",
"e@	c #ACB3E2",
"f@	c #ACB3E3",
"g@	c #ABB3E3",
"h@	c #ABB2E3",
"i@	c #AFB7E3",
"j@	c #B4BBE3",
"k@	c #0B3184",
"l@	c #0B3185",
"m@	c #0B3285",
"n@	c #0C3284",
"o@	c #0C3285",
"p@	c #0C3286",
"q@	c #0D3386",
"r@	c #0D3387",
"s@	c #0E3487",
". + @ @ + . . . . # # $ $ % % % & & & * * * * * * = = = - - - - - ; ; ; > > > , , , , ' ' ' ' ) ) ) ! ~ ~ ~ ~ ~ { { ] ] ] ] ] ] ^ / / / / / / / ( _ _ _ : < < < [ [ [ [ } | } | | | | | 1 2 2 2 2 3 3 3 3 3 3 3 3 4 3 3 5 4 4 4 4 4 4 4 4 4 4 4 4 4 4 4 4 4 4 4 4 3 3 3 3 3 3 3 2 2 2 2 6 6 7 6 7 7 8 8 9 9 9 0 a a a b c c c d d d e f g h i j k l l m n o p p q r r s t u v w x y z A B C D E F G H H I I J K K L M N N O P P Q R R S T U U U V W W W X X Y Y Z Z ` ` ` `  . .................+.+.+.+.+.+.+.+.+.+.+.+.@.#.#.@.#.#.#.#.#.#.#.#.#.#.#.#.#.#.#.#.$.#.%.$.%.%.%.%.%.%.%.%.%.&.*.*.*.*.=.=.=.-.;.>.,.,.'.).).!.!.~.~.{.].^././.(._.:.<.[.[.}.}.|.1.2.3.4.5.5.5.6.6.6.7.8.9.9.9.9.9.9.0.a.0.a.a.a.9.a.a.a.a.9.a.0.",
"b.c.d.e.f.g.h.i.j.k.l.m.n.o.p.q.r.r.s.t.u.v.w.x.y.z.z.z.A.B.B.C.D.E.F.F.G.G.G.H.I.I.I.J.K.J.L.M.N.N.O.O.P.Q.R.R.R.S.T.T.T.U.V.U.V.W.W.W.W.X.X.X.W.Y.Y.Y.Y.Y.Y.Y.X.Z.Z.Y.Z.X.Y.Y.X.Y.Y.Y.X.X.Y.X.W.W.X.W.W.W.W.`.U.U.U.T.T.T.S.S.R.Q.R. +.+.+.+++M.M.@+@+@+@+#+#+#+$+%+%+%+&+&+*+*+=+-+-+;+;+>+,+,+'+)+'+!+~+!+{+]+^+^+/+(+(+_+:+:+<+[+}+|+1+1+2+3+4+5+6+7+8+9+9+0+a+a+b+c+d+e+f+f+g+h+i+j+k+l+m+m+n+n+n+o+o+p+p+p+q+q+q+q+q+r+s+r+r+r+t+t+u+u+t+t+u+u+u+t+u+t+r+v+r+q+q+q+q+q+q+w+w+w+w+x+y+y+o+z+z+A+z+z+B+B+B+B+C+C+D+C+E+E+E+E+F+F+G+F+F+F+H+I+I+I+J+K+K+L+L+L+L+L+M+M+M+M+N+N+N+O+O+P+P+P+Q+Q+R+S+T+U+V+W+X+Y+2+Z+`+ @.@+@@@#@$@%@&@*@=@-@;@>@,@'@)@!@~@{@]@^@/@(@_@:@<@[@}@|@1@2@3@4@5@6@7@8@9@0@a@b@c@d@d@e@e@f@g@h@i@j@",
"k@k@k@k@k@k@k@k@k@k@k@k@k@k@k@k@k@k@k@l@k@k@l@l@l@k@k@l@k@l@l@l@l@k@l@l@l@l@l@l@l@k@l@l@l@l@l@l@l@l@l@l@l@l@l@l@l@l@l@l@l@l@l@l@l@l@l@l@l@l@l@l@l@l@l@l@l@l@l@l@l@l@l@l@l@l@l@l@l@l@l@l@l@l@l@l@l@l@l@l@l@l@l@l@l@l@l@l@l@l@l@l@l@l@l@k@l@l@l@l@l@l@l@l@l@l@l@k@l@l@k@l@l@k@k@k@k@k@k@k@k@k@k@k@k@k@k@k@k@k@k@k@k@k@k@k@k@k@k@k@k@k@k@k@k@k@k@k@k@k@k@k@k@k@k@k@k@k@k@k@k@k@k@k@k@k@k@k@k@k@k@k@k@k@k@k@k@k@k@k@k@k@k@k@k@k@k@k@k@k@k@k@k@k@k@k@k@k@k@k@k@k@k@k@k@k@k@k@k@k@k@k@k@k@k@k@k@k@k@k@k@k@k@k@k@k@k@k@k@k@k@k@k@k@k@k@k@k@k@k@k@k@k@k@k@k@k@k@k@k@k@k@k@k@k@k@k@k@k@k@k@k@k@k@k@k@k@k@k@k@k@k@k@k@k@k@k@k@k@k@k@k@k@k@k@k@m@n@o@o@n@o@o@o@o@o@o@o@o@o@o@o@o@o@p@p@q@q@q@q@q@q@q@q@r@r@r@r@r@s@s@s@s@r@s@r@r@r@r@r@r@"};
