/* XPM */
static char * krell_meter_xpm[] = {
"9 9 7 1",
" 	c None",
".	c #000000",
"+	c #CCCCCC",
"@	c #FFFFFF",
"#	c #999999",
"$	c #B2B2B2",
"%	c #7F7F7F",
".+++@###.",
".$$$@%%%.",
"  .$@%.  ",
"   .@.   ",
"   .@.   ",
"   .@.   ",
"   .@.   ",
"   .@.   ",
"         "};
