/* XPM */
static char * net_leds_xpm[] = {
"12 8 30 1",
" 	c None",
".	c #222323",
"+	c #353535",
"@	c #4C4F4F",
"#	c #426146",
"$	c #3A755D",
"%	c #328874",
"&	c #299C8B",
"*	c #20B1A4",
"=	c #17C7BE",
"-	c #0EDDD7",
";	c #05F2F0",
">	c #09E9E5",
",	c #1DB8AC",
"'	c #308B77",
")	c #416248",
"!	c #141414",
"~	c #3D3F3F",
"{	c #74562A",
"]	c #95723C",
"^	c #B8904F",
"/	c #E0B265",
"(	c #FAC873",
"_	c #E9B969",
":	c #D7AA60",
"<	c #C59B56",
"[	c #B38C4D",
"}	c #A27E44",
"|	c #92703B",
"1	c #826332",
".+@@@@@@@@+.",
".+@@@@@@@@+.",
"#$%&*=-;>,')",
"#$%&*=-;>,')",
"!.~~~~~~~~.!",
"!.~~~~~~~~.!",
"{]^/(_:<[}|1",
"{]^/(_:<[}|1"};
