/* XPM */
static char * numbers_xpm[] = {
"72 8 4 1",
" 	c None",
".	c #FFFBCE",
"+	c #000000",
"@	c #393C39",
" ..    .  ...  ...     . ....  ... ....  ..   ..                        ",
". +. ...+  ++.  ++.   ..+.++++. +++ ++.+. +. . +.       .  .            ",
".+ .+ +.+    .+   .+ . .+.+   .+     . +.+ .+.+ .+      .+ .+           ",
".+ .+  .+   . + .. +. +.+...  ...    .+  .. + ...+       +  +           ",
".+ .+  .+  . +   +. ..... ++. .++.  . + . +.   +.+                      ",
".+ .+  .+ . +     .+ ++.+   .+.+ .+ .+  .+ .+   .+      .  .            ",
" .. +  .+ .... ... +   .+... + ..@+ .+   .. +... +      .+ .+           ",
"  ++    +  ++++ +++     + +++   ++   +    ++  +++        +  +           "};
