/* XPM */
static char * ppp_button_xpm[] = {
"10 4 13 1",
" 	c None",
".	c #665061",
"+	c #805C78",
"@	c #517B37",
"#	c #619241",
"$	c #6FA74B",
"%	c #7CBB54",
"&	c #8AD05D",
"*	c #96E366",
"=	c #87CC5B",
"-	c #77B451",
";	c #689D46",
">	c #5A883D",
"..++++++..",
"..++++++..",
"@#$%&*=-;>",
"@#$%&*=-;>"};
